<svg width="130" height="78" viewBox="0 0 130 78" fill="none" xmlns="http://www.w3.org/2000/svg">
<path d="M9.88184 62.9072C9.88184 64.0329 9.6722 64.974 9.25293 65.7305C8.83366 66.4824 8.22526 67.0498 7.42773 67.4326C6.63021 67.8109 5.66862 68 4.54297 68H1.76758V58.0059H4.84375C5.87826 58.0059 6.77148 58.1927 7.52344 58.5664C8.27539 58.9355 8.85645 59.4847 9.2666 60.2139C9.67676 60.9385 9.88184 61.8363 9.88184 62.9072ZM8.17285 62.9551C8.17285 62.1348 8.04297 61.4603 7.7832 60.9316C7.52799 60.403 7.14974 60.0111 6.64844 59.7559C6.15169 59.4961 5.53874 59.3662 4.80957 59.3662H3.4082V66.626H4.57031C5.77799 66.626 6.68034 66.3184 7.27734 65.7031C7.87435 65.0879 8.17285 64.1719 8.17285 62.9551ZM14.8857 60.2891C15.5602 60.2891 16.139 60.4281 16.6221 60.7061C17.1051 60.984 17.4766 61.3783 17.7363 61.8887C17.9961 62.3991 18.126 63.0098 18.126 63.7207V64.582H13.0742C13.0924 65.3158 13.2884 65.8809 13.6621 66.2773C14.0404 66.6738 14.569 66.8721 15.248 66.8721C15.7311 66.8721 16.1641 66.8265 16.5469 66.7354C16.9342 66.6396 17.333 66.5007 17.7432 66.3184V67.624C17.3649 67.8018 16.9798 67.9316 16.5879 68.0137C16.196 68.0957 15.7266 68.1367 15.1797 68.1367C14.4368 68.1367 13.7829 67.9932 13.2178 67.7061C12.6572 67.4144 12.2174 66.9814 11.8984 66.4072C11.584 65.833 11.4268 65.1198 11.4268 64.2676C11.4268 63.4199 11.5703 62.6999 11.8574 62.1074C12.1445 61.515 12.5479 61.0638 13.0674 60.7539C13.5869 60.444 14.193 60.2891 14.8857 60.2891ZM14.8857 61.499C14.3799 61.499 13.9697 61.6631 13.6553 61.9912C13.3454 62.3193 13.1631 62.8001 13.1084 63.4336H16.5537C16.5492 63.0553 16.4854 62.7204 16.3623 62.4287C16.2438 62.137 16.0615 61.9092 15.8154 61.7451C15.5739 61.5811 15.264 61.499 14.8857 61.499ZM25.0234 65.8398C25.0234 66.3366 24.9027 66.7559 24.6611 67.0977C24.4196 67.4395 24.0664 67.6992 23.6016 67.877C23.1413 68.0501 22.5762 68.1367 21.9062 68.1367C21.3776 68.1367 20.9219 68.098 20.5391 68.0205C20.1608 67.9476 19.8031 67.8337 19.4658 67.6787V66.291C19.8258 66.4596 20.2292 66.6055 20.6758 66.7285C21.127 66.8516 21.5531 66.9131 21.9541 66.9131C22.4827 66.9131 22.8633 66.8311 23.0957 66.667C23.3281 66.4984 23.4443 66.2751 23.4443 65.9971C23.4443 65.833 23.3965 65.6872 23.3008 65.5596C23.2096 65.4274 23.0365 65.293 22.7812 65.1562C22.5306 65.015 22.1615 64.8464 21.6738 64.6504C21.1953 64.459 20.792 64.2676 20.4639 64.0762C20.1357 63.8848 19.8874 63.6546 19.7188 63.3857C19.5501 63.1123 19.4658 62.7637 19.4658 62.3398C19.4658 61.6699 19.7301 61.1618 20.2588 60.8154C20.792 60.4645 21.4961 60.2891 22.3711 60.2891C22.8359 60.2891 23.2734 60.3369 23.6836 60.4326C24.0983 60.5238 24.5039 60.6582 24.9004 60.8359L24.3945 62.0459C24.0527 61.8955 23.7087 61.7725 23.3623 61.6768C23.0205 61.5765 22.6719 61.5264 22.3164 61.5264C21.9017 61.5264 21.585 61.5902 21.3662 61.7178C21.152 61.8454 21.0449 62.0277 21.0449 62.2646C21.0449 62.4424 21.0973 62.5928 21.2021 62.7158C21.307 62.8389 21.487 62.9619 21.7422 63.085C22.002 63.208 22.362 63.3607 22.8223 63.543C23.2734 63.7161 23.6631 63.8984 23.9912 64.0898C24.3239 64.2767 24.5791 64.5068 24.7568 64.7803C24.9346 65.0537 25.0234 65.4069 25.0234 65.8398ZM28.4893 68L25.6113 60.4326H27.3135L28.8721 64.876C28.9723 65.1585 29.0635 65.4639 29.1455 65.792C29.2275 66.1201 29.2845 66.3958 29.3164 66.6191H29.3711C29.403 66.3867 29.4645 66.1087 29.5557 65.7852C29.6468 65.457 29.7402 65.154 29.8359 64.876L31.3945 60.4326H33.0898L30.2119 68H28.4893ZM35.8447 60.4326V68H34.2383V60.4326H35.8447ZM35.0518 57.5342C35.2979 57.5342 35.5098 57.6003 35.6875 57.7324C35.8698 57.8646 35.9609 58.0924 35.9609 58.416C35.9609 58.735 35.8698 58.9629 35.6875 59.0996C35.5098 59.2318 35.2979 59.2979 35.0518 59.2979C34.7965 59.2979 34.5801 59.2318 34.4023 59.0996C34.2292 58.9629 34.1426 58.735 34.1426 58.416C34.1426 58.0924 34.2292 57.8646 34.4023 57.7324C34.5801 57.6003 34.7965 57.5342 35.0518 57.5342ZM42.0928 60.2891C42.945 60.2891 43.6081 60.5101 44.082 60.9521C44.5605 61.3896 44.7998 62.0938 44.7998 63.0645V68H43.1934V63.3652C43.1934 62.7773 43.0726 62.3376 42.8311 62.0459C42.5895 61.7497 42.2158 61.6016 41.71 61.6016C40.9762 61.6016 40.4658 61.8271 40.1787 62.2783C39.8962 62.7295 39.7549 63.3835 39.7549 64.2402V68H38.1484V60.4326H39.3994L39.625 61.458H39.7139C39.8779 61.1937 40.0807 60.9772 40.3223 60.8086C40.5684 60.6354 40.8418 60.5055 41.1426 60.4189C41.4479 60.3324 41.7646 60.2891 42.0928 60.2891ZM50.0977 68.1367C49.3822 68.1367 48.7624 67.9977 48.2383 67.7197C47.7142 67.4417 47.3109 67.0156 47.0283 66.4414C46.7458 65.8672 46.6045 65.138 46.6045 64.2539C46.6045 63.3333 46.7594 62.5814 47.0693 61.998C47.3792 61.4147 47.8076 60.984 48.3545 60.7061C48.9059 60.4281 49.5371 60.2891 50.248 60.2891C50.6992 60.2891 51.1071 60.3346 51.4717 60.4258C51.8408 60.5124 52.153 60.6195 52.4082 60.7471L51.9297 62.0322C51.6517 61.9183 51.3669 61.8226 51.0752 61.7451C50.7835 61.6676 50.5033 61.6289 50.2344 61.6289C49.7923 61.6289 49.4232 61.7269 49.127 61.9229C48.8353 62.1188 48.6165 62.4105 48.4707 62.7979C48.3294 63.1852 48.2588 63.666 48.2588 64.2402C48.2588 64.7962 48.3317 65.2656 48.4775 65.6484C48.6234 66.0267 48.8398 66.3138 49.127 66.5098C49.4141 66.7012 49.7673 66.7969 50.1865 66.7969C50.6012 66.7969 50.9727 66.7467 51.3008 66.6465C51.6289 66.5462 51.9388 66.4163 52.2305 66.2568V67.6514C51.9434 67.8154 51.6357 67.9362 51.3076 68.0137C50.9795 68.0957 50.5762 68.1367 50.0977 68.1367ZM60.6045 60.4326V68H59.3398L59.1211 66.9814H59.0322C58.8727 67.2412 58.6699 67.4577 58.4238 67.6309C58.1777 67.7995 57.9043 67.9248 57.6035 68.0068C57.3027 68.0934 56.986 68.1367 56.6533 68.1367C56.0837 68.1367 55.596 68.041 55.1904 67.8496C54.7894 67.6536 54.4818 67.3529 54.2676 66.9473C54.0534 66.5417 53.9463 66.0176 53.9463 65.375V60.4326H55.5596V65.0742C55.5596 65.6621 55.6781 66.1019 55.915 66.3936C56.1566 66.6852 56.5303 66.8311 57.0361 66.8311C57.5238 66.8311 57.9111 66.7308 58.1982 66.5303C58.4854 66.3298 58.6882 66.0335 58.8066 65.6416C58.9297 65.2497 58.9912 64.7689 58.9912 64.1992V60.4326H60.6045ZM64.5215 68H62.9082V57.3633H64.5215V68ZM69.7852 60.2891C70.7422 60.2891 71.4645 60.501 71.9521 60.9248C72.4443 61.3486 72.6904 62.0094 72.6904 62.9072V68H71.5488L71.2412 66.9268H71.1865C70.9723 67.2002 70.7513 67.4258 70.5234 67.6035C70.2956 67.7812 70.0312 67.9134 69.7305 68C69.4342 68.0911 69.0719 68.1367 68.6436 68.1367C68.1924 68.1367 67.7891 68.0547 67.4336 67.8906C67.0781 67.722 66.7979 67.4668 66.5928 67.125C66.3877 66.7832 66.2852 66.3503 66.2852 65.8262C66.2852 65.0469 66.5745 64.4613 67.1533 64.0693C67.7367 63.6774 68.6162 63.4609 69.792 63.4199L71.1045 63.3721V62.9756C71.1045 62.4515 70.9814 62.0778 70.7354 61.8545C70.4938 61.6312 70.152 61.5195 69.71 61.5195C69.3317 61.5195 68.9648 61.5742 68.6094 61.6836C68.2539 61.793 67.9076 61.9274 67.5703 62.0869L67.0508 60.9521C67.4199 60.7562 67.8392 60.5967 68.3086 60.4736C68.7826 60.3506 69.2747 60.2891 69.7852 60.2891ZM71.0977 64.3838L70.1201 64.418C69.318 64.4453 68.7552 64.582 68.4316 64.8281C68.1081 65.0742 67.9463 65.4115 67.9463 65.8398C67.9463 66.2135 68.0579 66.487 68.2812 66.6602C68.5046 66.8288 68.7985 66.9131 69.1631 66.9131C69.7191 66.9131 70.1794 66.7559 70.5439 66.4414C70.9131 66.1224 71.0977 65.6553 71.0977 65.04V64.3838ZM78.7744 60.2891C78.902 60.2891 79.041 60.2959 79.1914 60.3096C79.3418 60.3232 79.4717 60.3415 79.5811 60.3643L79.4307 61.8682C79.335 61.8408 79.2165 61.8203 79.0752 61.8066C78.9385 61.793 78.8154 61.7861 78.7061 61.7861C78.4189 61.7861 78.1455 61.834 77.8857 61.9297C77.626 62.0208 77.3958 62.1621 77.1953 62.3535C76.9948 62.5404 76.8376 62.7751 76.7236 63.0576C76.6097 63.3402 76.5527 63.6683 76.5527 64.042V68H74.9395V60.4326H76.1973L76.416 61.7656H76.4912C76.6416 61.4967 76.8285 61.2507 77.0518 61.0273C77.2751 60.804 77.5303 60.6263 77.8174 60.4941C78.109 60.3574 78.4281 60.2891 78.7744 60.2891ZM90.5527 65.2793C90.5527 65.8717 90.4069 66.3822 90.1152 66.8105C89.8281 67.2389 89.4134 67.5671 88.8711 67.7949C88.3333 68.0228 87.6908 68.1367 86.9434 68.1367C86.5788 68.1367 86.2301 68.1162 85.8975 68.0752C85.5648 68.0342 85.2503 67.9749 84.9541 67.8975C84.6624 67.8154 84.3958 67.7174 84.1543 67.6035V66.0586C84.5599 66.2363 85.0133 66.3981 85.5146 66.5439C86.016 66.6852 86.5264 66.7559 87.0459 66.7559C87.4697 66.7559 87.8206 66.7012 88.0986 66.5918C88.3812 66.4779 88.5908 66.3184 88.7275 66.1133C88.8643 65.9036 88.9326 65.6598 88.9326 65.3818C88.9326 65.0856 88.8529 64.835 88.6934 64.6299C88.5339 64.4248 88.2923 64.238 87.9688 64.0693C87.6497 63.8962 87.2487 63.7116 86.7656 63.5156C86.4375 63.3835 86.123 63.2331 85.8223 63.0645C85.526 62.8958 85.2617 62.6976 85.0293 62.4697C84.7969 62.2419 84.6123 61.973 84.4756 61.6631C84.3434 61.3486 84.2773 60.9795 84.2773 60.5557C84.2773 59.9906 84.4118 59.5075 84.6807 59.1064C84.9541 58.7054 85.3369 58.3978 85.8291 58.1836C86.3258 57.9694 86.9046 57.8623 87.5654 57.8623C88.0895 57.8623 88.5817 57.917 89.042 58.0264C89.5068 58.1357 89.9626 58.2907 90.4092 58.4912L89.8896 59.8105C89.4795 59.6419 89.0807 59.5075 88.6934 59.4072C88.3105 59.307 87.9186 59.2568 87.5176 59.2568C87.1712 59.2568 86.8773 59.3092 86.6357 59.4141C86.3942 59.5189 86.2096 59.667 86.082 59.8584C85.959 60.0452 85.8975 60.2686 85.8975 60.5283C85.8975 60.82 85.9681 61.0661 86.1094 61.2666C86.2552 61.4626 86.4785 61.6426 86.7793 61.8066C87.0846 61.9707 87.4766 62.153 87.9551 62.3535C88.5065 62.5814 88.9736 62.8206 89.3564 63.0713C89.7438 63.3219 90.04 63.6227 90.2451 63.9736C90.4502 64.32 90.5527 64.7552 90.5527 65.2793ZM95.3311 60.2891C96.0055 60.2891 96.5843 60.4281 97.0674 60.7061C97.5505 60.984 97.9219 61.3783 98.1816 61.8887C98.4414 62.3991 98.5713 63.0098 98.5713 63.7207V64.582H93.5195C93.5378 65.3158 93.7337 65.8809 94.1074 66.2773C94.4857 66.6738 95.0143 66.8721 95.6934 66.8721C96.1764 66.8721 96.6094 66.8265 96.9922 66.7354C97.3796 66.6396 97.7783 66.5007 98.1885 66.3184V67.624C97.8102 67.8018 97.4251 67.9316 97.0332 68.0137C96.6413 68.0957 96.1719 68.1367 95.625 68.1367C94.8822 68.1367 94.2282 67.9932 93.6631 67.7061C93.1025 67.4144 92.6628 66.9814 92.3438 66.4072C92.0293 65.833 91.8721 65.1198 91.8721 64.2676C91.8721 63.4199 92.0156 62.6999 92.3027 62.1074C92.5898 61.515 92.9932 61.0638 93.5127 60.7539C94.0322 60.444 94.6383 60.2891 95.3311 60.2891ZM95.3311 61.499C94.8252 61.499 94.415 61.6631 94.1006 61.9912C93.7907 62.3193 93.6084 62.8001 93.5537 63.4336H96.999C96.9945 63.0553 96.9307 62.7204 96.8076 62.4287C96.6891 62.137 96.5068 61.9092 96.2607 61.7451C96.0192 61.5811 95.7093 61.499 95.3311 61.499ZM104.327 60.2891C105.179 60.2891 105.842 60.5101 106.316 60.9521C106.795 61.3896 107.034 62.0938 107.034 63.0645V68H105.428V63.3652C105.428 62.7773 105.307 62.3376 105.065 62.0459C104.824 61.7497 104.45 61.6016 103.944 61.6016C103.211 61.6016 102.7 61.8271 102.413 62.2783C102.131 62.7295 101.989 63.3835 101.989 64.2402V68H100.383V60.4326H101.634L101.859 61.458H101.948C102.112 61.1937 102.315 60.9772 102.557 60.8086C102.803 60.6354 103.076 60.5055 103.377 60.4189C103.682 60.3324 103.999 60.2891 104.327 60.2891ZM114.369 65.8398C114.369 66.3366 114.248 66.7559 114.007 67.0977C113.765 67.4395 113.412 67.6992 112.947 67.877C112.487 68.0501 111.922 68.1367 111.252 68.1367C110.723 68.1367 110.268 68.098 109.885 68.0205C109.507 67.9476 109.149 67.8337 108.812 67.6787V66.291C109.172 66.4596 109.575 66.6055 110.021 66.7285C110.473 66.8516 110.899 66.9131 111.3 66.9131C111.828 66.9131 112.209 66.8311 112.441 66.667C112.674 66.4984 112.79 66.2751 112.79 65.9971C112.79 65.833 112.742 65.6872 112.646 65.5596C112.555 65.4274 112.382 65.293 112.127 65.1562C111.876 65.015 111.507 64.8464 111.02 64.6504C110.541 64.459 110.138 64.2676 109.81 64.0762C109.481 63.8848 109.233 63.6546 109.064 63.3857C108.896 63.1123 108.812 62.7637 108.812 62.3398C108.812 61.6699 109.076 61.1618 109.604 60.8154C110.138 60.4645 110.842 60.2891 111.717 60.2891C112.182 60.2891 112.619 60.3369 113.029 60.4326C113.444 60.5238 113.85 60.6582 114.246 60.8359L113.74 62.0459C113.398 61.8955 113.054 61.7725 112.708 61.6768C112.366 61.5765 112.018 61.5264 111.662 61.5264C111.247 61.5264 110.931 61.5902 110.712 61.7178C110.498 61.8454 110.391 62.0277 110.391 62.2646C110.391 62.4424 110.443 62.5928 110.548 62.7158C110.653 62.8389 110.833 62.9619 111.088 63.085C111.348 63.208 111.708 63.3607 112.168 63.543C112.619 63.7161 113.009 63.8984 113.337 64.0898C113.67 64.2767 113.925 64.5068 114.103 64.7803C114.28 65.0537 114.369 65.4069 114.369 65.8398ZM122.805 64.1992C122.805 64.8281 122.723 65.3864 122.559 65.874C122.395 66.3617 122.155 66.7741 121.841 67.1113C121.526 67.444 121.148 67.6992 120.706 67.877C120.264 68.0501 119.765 68.1367 119.209 68.1367C118.689 68.1367 118.213 68.0501 117.78 67.877C117.347 67.6992 116.971 67.444 116.652 67.1113C116.338 66.7741 116.094 66.3617 115.921 65.874C115.748 65.3864 115.661 64.8281 115.661 64.1992C115.661 63.3652 115.805 62.6589 116.092 62.0801C116.383 61.4967 116.798 61.0524 117.336 60.7471C117.874 60.4417 118.514 60.2891 119.257 60.2891C119.954 60.2891 120.569 60.4417 121.103 60.7471C121.636 61.0524 122.053 61.4967 122.354 62.0801C122.654 62.6634 122.805 63.3698 122.805 64.1992ZM117.315 64.1992C117.315 64.7507 117.382 65.2223 117.514 65.6143C117.65 66.0062 117.86 66.307 118.143 66.5166C118.425 66.7217 118.79 66.8242 119.236 66.8242C119.683 66.8242 120.048 66.7217 120.33 66.5166C120.613 66.307 120.82 66.0062 120.952 65.6143C121.084 65.2223 121.15 64.7507 121.15 64.1992C121.15 63.6478 121.084 63.1807 120.952 62.7979C120.82 62.4105 120.613 62.1165 120.33 61.916C120.048 61.7109 119.681 61.6084 119.229 61.6084C118.564 61.6084 118.079 61.8317 117.773 62.2783C117.468 62.7249 117.315 63.3652 117.315 64.1992ZM128.485 60.2891C128.613 60.2891 128.752 60.2959 128.902 60.3096C129.053 60.3232 129.183 60.3415 129.292 60.3643L129.142 61.8682C129.046 61.8408 128.927 61.8203 128.786 61.8066C128.649 61.793 128.526 61.7861 128.417 61.7861C128.13 61.7861 127.856 61.834 127.597 61.9297C127.337 62.0208 127.107 62.1621 126.906 62.3535C126.706 62.5404 126.549 62.7751 126.435 63.0576C126.321 63.3402 126.264 63.6683 126.264 64.042V68H124.65V60.4326H125.908L126.127 61.7656H126.202C126.353 61.4967 126.539 61.2507 126.763 61.0273C126.986 60.804 127.241 60.6263 127.528 60.4941C127.82 60.3574 128.139 60.2891 128.485 60.2891Z" fill="white"/>
<g clip-path="url(#clip0_478_348)">
<rect width="43" height="43" transform="translate(44)" fill="#059669"/>
<path d="M45.792 1.79163L85.2087 41.2083" stroke="white" stroke-width="2" stroke-linecap="round" stroke-linejoin="round"/>
<path d="M73.957 19.8158C75.4246 20.532 76.7969 21.4288 78.042 22.4854" stroke="white" stroke-width="2" stroke-linecap="round" stroke-linejoin="round"/>
<path d="M52.958 22.4855C55.6134 20.2653 58.8094 18.7878 62.2209 18.2034" stroke="white" stroke-width="2" stroke-linecap="round" stroke-linejoin="round"/>
<path d="M63.1885 9.04794C67.027 8.73864 70.8884 9.2059 74.5424 10.4218C78.1963 11.6377 81.5678 13.5774 84.4556 16.125" stroke="white" stroke-width="2" stroke-linecap="round" stroke-linejoin="round"/>
<path d="M46.5439 16.125C49.0293 13.9281 51.879 12.1819 54.9648 10.965" stroke="white" stroke-width="2" stroke-linecap="round" stroke-linejoin="round"/>
<path d="M59.2832 28.8637C61.1021 27.5715 63.278 26.8772 65.5092 26.8772C67.7405 26.8772 69.9164 27.5715 71.7353 28.8637" stroke="white" stroke-width="2" stroke-linecap="round" stroke-linejoin="round"/>
<path d="M65.5 35.8334H65.5171" stroke="white" stroke-width="2" stroke-linecap="round" stroke-linejoin="round"/>
</g>
<defs>
<clipPath id="clip0_478_348">
<rect width="43" height="43" fill="white" transform="translate(44)"/>
</clipPath>
</defs>
</svg>
