<svg width="76" height="76" viewBox="0 0 76 76" fill="none" xmlns="http://www.w3.org/2000/svg">
<path d="M38 38L38 63.3333" stroke="#141B34" stroke-width="4" stroke-linecap="round"/>
<path d="M36.417 22.3662C36.9231 22.236 37.4536 22.1667 38.0003 22.1667C41.4981 22.1667 44.3337 25.0022 44.3337 28.5C44.3337 29.0467 44.2644 29.5773 44.1341 30.0834" stroke="#141B34" stroke-width="4" stroke-linecap="round"/>
<path d="M6.33301 6.33331L69.6663 69.6666" stroke="#141B34" stroke-width="4" stroke-linecap="round"/>
<path d="M53.703 19C55.7921 21.7538 57 25.0104 57 28.5C57 31.9896 55.7921 35.2462 53.703 38M22.2971 38C20.2079 35.2462 19 31.9896 19 28.5C19 26.2703 19.4931 24.1357 20.3942 22.1667" stroke="#141B34" stroke-width="4" stroke-linecap="round" stroke-linejoin="round"/>
<path d="M64.3334 12.6667C67.7019 17.1953 69.6663 22.6412 69.6663 28.5C69.6663 34.3589 67.7019 39.8048 64.3334 44.3333M11.6659 12.6667C8.29747 17.1953 6.33301 22.6412 6.33301 28.5C6.33301 34.3589 8.29747 39.8048 11.6659 44.3334" stroke="#141B34" stroke-width="4" stroke-linecap="round" stroke-linejoin="round"/>
</svg>
