<svg width="103" height="44" viewBox="0 0 103 44" fill="none" xmlns="http://www.w3.org/2000/svg">
<path d="M82 22L82 36" stroke="#141B34" stroke-width="2" stroke-linecap="round"/>
<path d="M81.125 13.3603C81.4047 13.2883 81.6979 13.25 82 13.25C83.933 13.25 85.5 14.817 85.5 16.75C85.5 17.0521 85.4617 17.3453 85.3897 17.625" stroke="#141B34" stroke-width="2" stroke-linecap="round"/>
<path d="M64.5 4.5L99.5 39.5" stroke="#141B34" stroke-width="2" stroke-linecap="round"/>
<path d="M90.6779 11.5C91.8325 13.0218 92.5 14.8215 92.5 16.75C92.5 18.6785 91.8325 20.4782 90.6779 22M73.3221 22C72.1675 20.4782 71.5 18.6785 71.5 16.75C71.5 15.5178 71.7725 14.3382 72.2705 13.25" stroke="#141B34" stroke-width="2" stroke-linecap="round" stroke-linejoin="round"/>
<path d="M96.5529 8C98.4144 10.5026 99.5 13.5122 99.5 16.75C99.5 19.9878 98.4144 22.9974 96.5529 25.5M67.4471 8C65.5856 10.5026 64.5 13.5122 64.5 16.75C64.5 19.9878 65.5856 22.9974 67.4471 25.5" stroke="#141B34" stroke-width="2" stroke-linecap="round" stroke-linejoin="round"/>
<path d="M22 20.1666L22 36.6666" stroke="#141B34" stroke-width="2" stroke-linecap="round"/>
<path d="M25.6663 16.5C25.6663 18.5251 24.0247 20.1667 21.9997 20.1667C19.9746 20.1667 18.333 18.5251 18.333 16.5C18.333 14.475 19.9746 12.8334 21.9997 12.8334C24.0247 12.8334 25.6663 14.475 25.6663 16.5Z" stroke="#141B34" stroke-width="2"/>
<path d="M31.0912 11C32.3007 12.5943 33 14.4797 33 16.5C33 18.5203 32.3007 20.4057 31.0912 22M12.9088 11C11.6993 12.5943 11 14.4797 11 16.5C11 18.5203 11.6993 20.4057 12.9088 22" stroke="#141B34" stroke-width="2" stroke-linecap="round" stroke-linejoin="round"/>
<path d="M37.2462 7.33337C39.1963 9.95519 40.3337 13.1081 40.3337 16.5C40.3337 19.892 39.1963 23.0449 37.2462 25.6667M6.75448 7.33337C4.80431 9.95519 3.66699 13.1081 3.66699 16.5C3.66699 19.892 4.80431 23.0449 6.75448 25.6667" stroke="#141B34" stroke-width="2" stroke-linecap="round" stroke-linejoin="round"/>
</svg>
