<svg width="408" height="167" viewBox="0 0 408 167" fill="none" xmlns="http://www.w3.org/2000/svg">
<path d="M121 128C121 125.791 122.791 124 125 124H152C154.209 124 156 125.791 156 128V144H121V128Z" fill="#55E249"/>
<path d="M74 97C74 94.7909 75.7909 93 78 93H105C107.209 93 109 94.7909 109 97V145H74V97Z" fill="#FF951B"/>
<path d="M168 7C168 4.79086 169.791 3 172 3H199C201.209 3 203 4.79086 203 7V145H168V7Z" fill="#FF2A2D"/>
<path d="M309 137C309 134.791 310.791 133 313 133H340C342.209 133 344 134.791 344 137V144H309V137Z" fill="#55E249"/>
<path d="M262 138C262 135.791 263.791 134 266 134H293C295.209 134 297 135.791 297 138V145H262V138Z" fill="#55E249"/>
<path d="M215 105C215 102.791 216.791 101 219 101H247C249.209 101 251 102.791 251 105V144H215V105Z" fill="#FF951B"/>
<path d="M356 128C356 125.791 357.791 124 360 124H388C390.209 124 392 125.791 392 128V144H356V128Z" fill="#55E249"/>
<path d="M8.984 16V7.672H9.776L13.304 13.468H12.764L16.292 7.672H17.084V16H15.956V9.652L16.22 9.724L13.436 14.296H12.644L9.86 9.724L10.112 9.652V16H8.984ZM21.2824 16.12C20.7624 16.12 20.2904 15.992 19.8664 15.736C19.4424 15.472 19.1064 15.116 18.8584 14.668C18.6184 14.22 18.4984 13.716 18.4984 13.156C18.4984 12.596 18.6184 12.092 18.8584 11.644C19.1064 11.196 19.4384 10.84 19.8544 10.576C20.2784 10.312 20.7544 10.18 21.2824 10.18C21.7144 10.18 22.0984 10.272 22.4344 10.456C22.7784 10.632 23.0544 10.88 23.2624 11.2C23.4704 11.512 23.5864 11.876 23.6104 12.292V14.008C23.5864 14.416 23.4704 14.78 23.2624 15.1C23.0624 15.42 22.7904 15.672 22.4464 15.856C22.1104 16.032 21.7224 16.12 21.2824 16.12ZM21.4624 15.1C21.9984 15.1 22.4304 14.92 22.7584 14.56C23.0864 14.192 23.2504 13.724 23.2504 13.156C23.2504 12.764 23.1744 12.424 23.0224 12.136C22.8784 11.84 22.6704 11.612 22.3984 11.452C22.1264 11.284 21.8104 11.2 21.4504 11.2C21.0904 11.2 20.7704 11.284 20.4904 11.452C20.2184 11.62 20.0024 11.852 19.8424 12.148C19.6904 12.436 19.6144 12.768 19.6144 13.144C19.6144 13.528 19.6904 13.868 19.8424 14.164C20.0024 14.452 20.2224 14.68 20.5024 14.848C20.7824 15.016 21.1024 15.1 21.4624 15.1ZM23.1784 16V14.464L23.3824 13.072L23.1784 11.692V10.3H24.2704V16H23.1784ZM25.8428 16V7.432H26.9228V16H25.8428ZM30.9269 16.12C30.4069 16.12 29.9349 15.992 29.5109 15.736C29.0869 15.472 28.7509 15.116 28.5029 14.668C28.2629 14.22 28.1429 13.716 28.1429 13.156C28.1429 12.596 28.2629 12.092 28.5029 11.644C28.7509 11.196 29.0829 10.84 29.4989 10.576C29.9229 10.312 30.3989 10.18 30.9269 10.18C31.3589 10.18 31.7429 10.272 32.0789 10.456C32.4229 10.632 32.6989 10.88 32.9069 11.2C33.1149 11.512 33.2309 11.876 33.2549 12.292V14.008C33.2309 14.416 33.1149 14.78 32.9069 15.1C32.7069 15.42 32.4349 15.672 32.0909 15.856C31.7549 16.032 31.3669 16.12 30.9269 16.12ZM31.1069 15.1C31.6429 15.1 32.0749 14.92 32.4029 14.56C32.7309 14.192 32.8949 13.724 32.8949 13.156C32.8949 12.764 32.8189 12.424 32.6669 12.136C32.5229 11.84 32.3149 11.612 32.0429 11.452C31.7709 11.284 31.4549 11.2 31.0949 11.2C30.7349 11.2 30.4149 11.284 30.1349 11.452C29.8629 11.62 29.6469 11.852 29.4869 12.148C29.3349 12.436 29.2589 12.768 29.2589 13.144C29.2589 13.528 29.3349 13.868 29.4869 14.164C29.6469 14.452 29.8669 14.68 30.1469 14.848C30.4269 15.016 30.7469 15.1 31.1069 15.1ZM32.8229 16V14.464L33.0269 13.072L32.8229 11.692V10.3H33.9149V16H32.8229Z" fill="#999999"/>
<path d="M9.74 124V123.016H12.26C12.74 123.016 13.116 122.876 13.388 122.596C13.66 122.308 13.796 121.964 13.796 121.564C13.796 121.292 13.736 121.048 13.616 120.832C13.496 120.608 13.32 120.432 13.088 120.304C12.864 120.176 12.6 120.112 12.296 120.112H9.74V119.128H12.128C12.528 119.128 12.844 119.024 13.076 118.816C13.316 118.6 13.436 118.292 13.436 117.892C13.436 117.492 13.312 117.188 13.064 116.98C12.816 116.764 12.488 116.656 12.08 116.656H9.74V115.672H12.104C12.648 115.672 13.1 115.772 13.46 115.972C13.828 116.164 14.104 116.42 14.288 116.74C14.48 117.06 14.576 117.412 14.576 117.796C14.576 118.244 14.452 118.636 14.204 118.972C13.964 119.308 13.608 119.572 13.136 119.764L13.232 119.404C13.768 119.596 14.184 119.888 14.48 120.28C14.784 120.664 14.936 121.12 14.936 121.648C14.936 122.088 14.828 122.484 14.612 122.836C14.396 123.188 14.084 123.472 13.676 123.688C13.276 123.896 12.784 124 12.2 124H9.74ZM8.984 124V115.672H10.112V124H8.984ZM18.5606 124.12C18.0966 124.12 17.6766 124.016 17.3006 123.808C16.9326 123.592 16.6446 123.296 16.4366 122.92C16.2286 122.544 16.1246 122.108 16.1246 121.612V118.3H17.2046V121.564C17.2046 121.876 17.2566 122.148 17.3606 122.38C17.4726 122.604 17.6326 122.776 17.8406 122.896C18.0486 123.016 18.2926 123.076 18.5726 123.076C18.9966 123.076 19.3286 122.944 19.5686 122.68C19.8086 122.408 19.9286 122.036 19.9286 121.564V118.3H21.0086V121.612C21.0086 122.108 20.9046 122.544 20.6966 122.92C20.4886 123.296 20.2006 123.592 19.8326 123.808C19.4726 124.016 19.0486 124.12 18.5606 124.12ZM25.0961 124.12C24.5281 124.12 24.0161 123.992 23.5601 123.736C23.1041 123.472 22.7441 123.116 22.4801 122.668C22.2161 122.22 22.0841 121.712 22.0841 121.144C22.0841 120.584 22.2121 120.08 22.4681 119.632C22.7321 119.184 23.0841 118.832 23.5241 118.576C23.9721 118.312 24.4721 118.18 25.0241 118.18C25.5521 118.18 26.0161 118.3 26.4161 118.54C26.8241 118.78 27.1401 119.112 27.3641 119.536C27.5961 119.96 27.7121 120.44 27.7121 120.976C27.7121 121.056 27.7081 121.144 27.7001 121.24C27.6921 121.328 27.6761 121.432 27.6521 121.552H22.8401V120.652H27.0761L26.6801 121C26.6801 120.616 26.6121 120.292 26.4761 120.028C26.3401 119.756 26.1481 119.548 25.9001 119.404C25.6521 119.252 25.3521 119.176 25.0001 119.176C24.6321 119.176 24.3081 119.256 24.0281 119.416C23.7481 119.576 23.5321 119.8 23.3801 120.088C23.2281 120.376 23.1521 120.716 23.1521 121.108C23.1521 121.508 23.2321 121.86 23.3921 122.164C23.5521 122.46 23.7801 122.692 24.0761 122.86C24.3721 123.02 24.7121 123.1 25.0961 123.1C25.4161 123.1 25.7081 123.044 25.9721 122.932C26.2441 122.82 26.4761 122.652 26.6681 122.428L27.3641 123.136C27.0921 123.456 26.7561 123.7 26.3561 123.868C25.9641 124.036 25.5441 124.12 25.0961 124.12ZM32.9217 124V120.676C32.9217 120.244 32.7857 119.888 32.5137 119.608C32.2417 119.328 31.8897 119.188 31.4577 119.188C31.1697 119.188 30.9137 119.252 30.6897 119.38C30.4657 119.508 30.2897 119.684 30.1617 119.908C30.0337 120.132 29.9697 120.388 29.9697 120.676L29.5257 120.424C29.5257 119.992 29.6217 119.608 29.8137 119.272C30.0057 118.936 30.2737 118.672 30.6177 118.48C30.9617 118.28 31.3497 118.18 31.7817 118.18C32.2137 118.18 32.5937 118.288 32.9217 118.504C33.2577 118.72 33.5217 119.004 33.7137 119.356C33.9057 119.7 34.0017 120.068 34.0017 120.46V124H32.9217ZM28.8897 124V118.3H29.9697V124H28.8897ZM37.8879 124.12C37.3679 124.12 36.8959 123.992 36.4719 123.736C36.0479 123.472 35.7119 123.116 35.4639 122.668C35.2239 122.22 35.1039 121.716 35.1039 121.156C35.1039 120.596 35.2239 120.092 35.4639 119.644C35.7119 119.196 36.0439 118.84 36.4599 118.576C36.8839 118.312 37.3599 118.18 37.8879 118.18C38.3199 118.18 38.7039 118.272 39.0399 118.456C39.3839 118.632 39.6599 118.88 39.8679 119.2C40.0759 119.512 40.1919 119.876 40.2159 120.292V122.008C40.1919 122.416 40.0759 122.78 39.8679 123.1C39.6679 123.42 39.3959 123.672 39.0519 123.856C38.7159 124.032 38.3279 124.12 37.8879 124.12ZM38.0679 123.1C38.6039 123.1 39.0359 122.92 39.3639 122.56C39.6919 122.192 39.8559 121.724 39.8559 121.156C39.8559 120.764 39.7799 120.424 39.6279 120.136C39.4839 119.84 39.2759 119.612 39.0039 119.452C38.7319 119.284 38.4159 119.2 38.0559 119.2C37.6959 119.2 37.3759 119.284 37.0959 119.452C36.8239 119.62 36.6079 119.852 36.4479 120.148C36.2959 120.436 36.2199 120.768 36.2199 121.144C36.2199 121.528 36.2959 121.868 36.4479 122.164C36.6079 122.452 36.8279 122.68 37.1079 122.848C37.3879 123.016 37.7079 123.1 38.0679 123.1ZM39.7839 124V122.464L39.9879 121.072L39.7839 119.692V118.3H40.8759V124H39.7839Z" fill="#999999"/>
<path d="M0.984 70V61.672H2.112V70H0.984ZM7.91775 70V66.676C7.91775 66.244 7.78175 65.888 7.50975 65.608C7.23775 65.328 6.88575 65.188 6.45375 65.188C6.16575 65.188 5.90975 65.252 5.68575 65.38C5.46175 65.508 5.28575 65.684 5.15775 65.908C5.02975 66.132 4.96575 66.388 4.96575 66.676L4.52175 66.424C4.52175 65.992 4.61775 65.608 4.80975 65.272C5.00175 64.936 5.26975 64.672 5.61375 64.48C5.95775 64.28 6.34575 64.18 6.77775 64.18C7.20975 64.18 7.58975 64.288 7.91775 64.504C8.25375 64.72 8.51775 65.004 8.70975 65.356C8.90175 65.7 8.99775 66.068 8.99775 66.46V70H7.91775ZM3.88575 70V64.3H4.96575V70H3.88575ZM12.272 70.12C11.952 70.12 11.648 70.08 11.36 70C11.08 69.912 10.82 69.792 10.58 69.64C10.34 69.48 10.132 69.292 9.95597 69.076L10.652 68.38C10.86 68.636 11.1 68.828 11.372 68.956C11.644 69.076 11.948 69.136 12.284 69.136C12.62 69.136 12.88 69.08 13.064 68.968C13.248 68.848 13.34 68.684 13.34 68.476C13.34 68.268 13.264 68.108 13.112 67.996C12.968 67.876 12.78 67.78 12.548 67.708C12.316 67.628 12.068 67.552 11.804 67.48C11.548 67.4 11.304 67.3 11.072 67.18C10.84 67.06 10.648 66.896 10.496 66.688C10.352 66.48 10.28 66.204 10.28 65.86C10.28 65.516 10.364 65.22 10.532 64.972C10.7 64.716 10.932 64.52 11.228 64.384C11.532 64.248 11.896 64.18 12.32 64.18C12.768 64.18 13.164 64.26 13.508 64.42C13.86 64.572 14.148 64.804 14.372 65.116L13.676 65.812C13.516 65.604 13.316 65.444 13.076 65.332C12.844 65.22 12.58 65.164 12.284 65.164C11.972 65.164 11.732 65.22 11.564 65.332C11.404 65.436 11.324 65.584 11.324 65.776C11.324 65.968 11.396 66.116 11.54 66.22C11.684 66.324 11.872 66.412 12.104 66.484C12.344 66.556 12.592 66.632 12.848 66.712C13.104 66.784 13.348 66.884 13.58 67.012C13.812 67.14 14 67.312 14.144 67.528C14.296 67.744 14.372 68.028 14.372 68.38C14.372 68.916 14.18 69.34 13.796 69.652C13.42 69.964 12.912 70.12 12.272 70.12ZM18.0051 70.12C17.4851 70.12 17.0131 69.992 16.5891 69.736C16.1651 69.472 15.8291 69.116 15.5811 68.668C15.3411 68.22 15.2211 67.716 15.2211 67.156C15.2211 66.596 15.3411 66.092 15.5811 65.644C15.8291 65.196 16.1611 64.84 16.5771 64.576C17.0011 64.312 17.4771 64.18 18.0051 64.18C18.4371 64.18 18.8211 64.272 19.1571 64.456C19.5011 64.632 19.7771 64.88 19.9851 65.2C20.1931 65.512 20.3091 65.876 20.3331 66.292V68.008C20.3091 68.416 20.1931 68.78 19.9851 69.1C19.7851 69.42 19.5131 69.672 19.1691 69.856C18.8331 70.032 18.4451 70.12 18.0051 70.12ZM18.1851 69.1C18.7211 69.1 19.1531 68.92 19.4811 68.56C19.8091 68.192 19.9731 67.724 19.9731 67.156C19.9731 66.764 19.8971 66.424 19.7451 66.136C19.6011 65.84 19.3931 65.612 19.1211 65.452C18.8491 65.284 18.5331 65.2 18.1731 65.2C17.8131 65.2 17.4931 65.284 17.2131 65.452C16.9411 65.62 16.7251 65.852 16.5651 66.148C16.4131 66.436 16.3371 66.768 16.3371 67.144C16.3371 67.528 16.4131 67.868 16.5651 68.164C16.7251 68.452 16.9451 68.68 17.2251 68.848C17.5051 69.016 17.8251 69.1 18.1851 69.1ZM19.9011 70V68.464L20.1051 67.072L19.9011 65.692V64.3H20.9931V70H19.9011ZM22.5654 70V61.432H23.6454V70H22.5654ZM27.5176 70.12C27.0536 70.12 26.6336 70.016 26.2576 69.808C25.8896 69.592 25.6016 69.296 25.3936 68.92C25.1856 68.544 25.0816 68.108 25.0816 67.612V64.3H26.1616V67.564C26.1616 67.876 26.2136 68.148 26.3176 68.38C26.4296 68.604 26.5896 68.776 26.7976 68.896C27.0056 69.016 27.2496 69.076 27.5296 69.076C27.9536 69.076 28.2856 68.944 28.5256 68.68C28.7656 68.408 28.8856 68.036 28.8856 67.564V64.3H29.9656V67.612C29.9656 68.108 29.8616 68.544 29.6536 68.92C29.4456 69.296 29.1576 69.592 28.7896 69.808C28.4296 70.016 28.0056 70.12 27.5176 70.12ZM34.4131 70.12C33.9811 70.12 33.5891 70.032 33.2371 69.856C32.8931 69.672 32.6171 69.42 32.4091 69.1C32.2011 68.78 32.0851 68.416 32.0611 68.008V66.292C32.0851 65.876 32.2011 65.512 32.4091 65.2C32.6251 64.88 32.9051 64.632 33.2491 64.456C33.6011 64.272 33.9891 64.18 34.4131 64.18C34.9331 64.18 35.4011 64.312 35.8171 64.576C36.2411 64.84 36.5731 65.196 36.8131 65.644C37.0531 66.092 37.1731 66.596 37.1731 67.156C37.1731 67.716 37.0531 68.22 36.8131 68.668C36.5731 69.116 36.2411 69.472 35.8171 69.736C35.4011 69.992 34.9331 70.12 34.4131 70.12ZM31.4131 70V61.432H32.4931V65.692L32.2891 67.072L32.4931 68.464V70H31.4131ZM34.2331 69.1C34.5931 69.1 34.9091 69.016 35.1811 68.848C35.4531 68.68 35.6691 68.452 35.8291 68.164C35.9891 67.868 36.0691 67.528 36.0691 67.144C36.0691 66.768 35.9891 66.432 35.8291 66.136C35.6691 65.84 35.4531 65.612 35.1811 65.452C34.9091 65.284 34.5971 65.2 34.2451 65.2C33.8851 65.2 33.5691 65.284 33.2971 65.452C33.0251 65.612 32.8131 65.84 32.6611 66.136C32.5091 66.432 32.4331 66.772 32.4331 67.156C32.4331 67.532 32.5051 67.868 32.6491 68.164C32.8011 68.452 33.0131 68.68 33.2851 68.848C33.5651 69.016 33.8811 69.1 34.2331 69.1ZM38.3975 70V64.3H39.4775V70H38.3975ZM39.4775 66.748L39.0695 66.568C39.0695 65.84 39.2375 65.26 39.5735 64.828C39.9095 64.396 40.3935 64.18 41.0255 64.18C41.3135 64.18 41.5735 64.232 41.8055 64.336C42.0375 64.432 42.2535 64.596 42.4535 64.828L41.7455 65.56C41.6255 65.432 41.4935 65.34 41.3495 65.284C41.2055 65.228 41.0375 65.2 40.8455 65.2C40.4455 65.2 40.1175 65.328 39.8615 65.584C39.6055 65.84 39.4775 66.228 39.4775 66.748ZM45.6664 70.12C45.0984 70.12 44.5864 69.992 44.1304 69.736C43.6744 69.472 43.3144 69.116 43.0504 68.668C42.7864 68.22 42.6544 67.712 42.6544 67.144C42.6544 66.584 42.7824 66.08 43.0384 65.632C43.3024 65.184 43.6544 64.832 44.0944 64.576C44.5424 64.312 45.0424 64.18 45.5944 64.18C46.1224 64.18 46.5864 64.3 46.9864 64.54C47.3944 64.78 47.7104 65.112 47.9344 65.536C48.1664 65.96 48.2824 66.44 48.2824 66.976C48.2824 67.056 48.2784 67.144 48.2704 67.24C48.2624 67.328 48.2464 67.432 48.2224 67.552H43.4104V66.652H47.6464L47.2504 67C47.2504 66.616 47.1824 66.292 47.0464 66.028C46.9104 65.756 46.7184 65.548 46.4704 65.404C46.2224 65.252 45.9224 65.176 45.5704 65.176C45.2024 65.176 44.8784 65.256 44.5984 65.416C44.3184 65.576 44.1024 65.8 43.9504 66.088C43.7984 66.376 43.7224 66.716 43.7224 67.108C43.7224 67.508 43.8024 67.86 43.9624 68.164C44.1224 68.46 44.3504 68.692 44.6464 68.86C44.9424 69.02 45.2824 69.1 45.6664 69.1C45.9864 69.1 46.2784 69.044 46.5424 68.932C46.8144 68.82 47.0464 68.652 47.2384 68.428L47.9344 69.136C47.6624 69.456 47.3264 69.7 46.9264 69.868C46.5344 70.036 46.1144 70.12 45.6664 70.12Z" fill="#999999"/>
<path d="M210.192 163V154.912H211.32V163H210.192ZM207.36 155.704V154.672H214.14V155.704H207.36ZM215.304 163V157.3H216.384V163H215.304ZM215.844 156.16C215.644 156.16 215.48 156.096 215.352 155.968C215.224 155.832 215.16 155.664 215.16 155.464C215.16 155.272 215.224 155.112 215.352 154.984C215.48 154.848 215.644 154.78 215.844 154.78C216.044 154.78 216.208 154.848 216.336 154.984C216.464 155.112 216.528 155.272 216.528 155.464C216.528 155.664 216.464 155.832 216.336 155.968C216.208 156.096 216.044 156.16 215.844 156.16ZM220.616 163.12C220.048 163.12 219.536 162.992 219.08 162.736C218.624 162.472 218.264 162.116 218 161.668C217.736 161.22 217.604 160.712 217.604 160.144C217.604 159.584 217.732 159.08 217.988 158.632C218.252 158.184 218.604 157.832 219.044 157.576C219.492 157.312 219.992 157.18 220.544 157.18C221.072 157.18 221.536 157.3 221.936 157.54C222.344 157.78 222.66 158.112 222.884 158.536C223.116 158.96 223.232 159.44 223.232 159.976C223.232 160.056 223.228 160.144 223.22 160.24C223.212 160.328 223.196 160.432 223.172 160.552H218.36V159.652H222.596L222.2 160C222.2 159.616 222.132 159.292 221.996 159.028C221.86 158.756 221.668 158.548 221.42 158.404C221.172 158.252 220.872 158.176 220.52 158.176C220.152 158.176 219.828 158.256 219.548 158.416C219.268 158.576 219.052 158.8 218.9 159.088C218.748 159.376 218.672 159.716 218.672 160.108C218.672 160.508 218.752 160.86 218.912 161.164C219.072 161.46 219.3 161.692 219.596 161.86C219.892 162.02 220.232 162.1 220.616 162.1C220.936 162.1 221.228 162.044 221.492 161.932C221.764 161.82 221.996 161.652 222.188 161.428L222.884 162.136C222.612 162.456 222.276 162.7 221.876 162.868C221.484 163.036 221.064 163.12 220.616 163.12ZM224.409 163V157.3H225.489V163H224.409ZM228.261 163V159.556C228.261 159.132 228.129 158.8 227.865 158.56C227.609 158.312 227.285 158.188 226.893 158.188C226.629 158.188 226.393 158.244 226.185 158.356C225.977 158.468 225.809 158.624 225.681 158.824C225.553 159.024 225.489 159.264 225.489 159.544L225.045 159.328C225.045 158.896 225.137 158.52 225.321 158.2C225.513 157.88 225.773 157.632 226.101 157.456C226.429 157.272 226.797 157.18 227.205 157.18C227.605 157.18 227.965 157.268 228.285 157.444C228.613 157.62 228.869 157.868 229.053 158.188C229.245 158.508 229.341 158.888 229.341 159.328V163H228.261ZM232.113 163V159.556C232.113 159.132 231.981 158.8 231.717 158.56C231.461 158.312 231.141 158.188 230.757 158.188C230.493 158.188 230.253 158.244 230.037 158.356C229.829 158.468 229.661 158.624 229.533 158.824C229.405 159.024 229.341 159.264 229.341 159.544L228.729 159.328C228.753 158.888 228.869 158.512 229.077 158.2C229.293 157.88 229.569 157.632 229.905 157.456C230.241 157.272 230.609 157.18 231.009 157.18C231.425 157.18 231.797 157.268 232.125 157.444C232.453 157.62 232.713 157.868 232.905 158.188C233.105 158.508 233.205 158.892 233.205 159.34V163H232.113ZM237.675 163.12C237.243 163.12 236.851 163.032 236.499 162.856C236.155 162.672 235.879 162.42 235.671 162.1C235.463 161.78 235.347 161.416 235.323 161.008V159.292C235.347 158.876 235.463 158.512 235.671 158.2C235.887 157.88 236.167 157.632 236.511 157.456C236.863 157.272 237.251 157.18 237.675 157.18C238.195 157.18 238.663 157.312 239.079 157.576C239.503 157.84 239.835 158.196 240.075 158.644C240.315 159.092 240.435 159.596 240.435 160.156C240.435 160.716 240.315 161.22 240.075 161.668C239.835 162.116 239.503 162.472 239.079 162.736C238.663 162.992 238.195 163.12 237.675 163.12ZM234.675 165.388V157.3H235.755V158.8L235.551 160.18L235.755 161.572V165.388H234.675ZM237.495 162.1C237.855 162.1 238.171 162.016 238.443 161.848C238.715 161.68 238.931 161.452 239.091 161.164C239.251 160.868 239.331 160.528 239.331 160.144C239.331 159.768 239.251 159.432 239.091 159.136C238.931 158.84 238.715 158.612 238.443 158.452C238.171 158.284 237.859 158.2 237.507 158.2C237.147 158.2 236.831 158.284 236.559 158.452C236.287 158.612 236.075 158.84 235.923 159.136C235.771 159.432 235.695 159.772 235.695 160.156C235.695 160.532 235.767 160.868 235.911 161.164C236.063 161.452 236.275 161.68 236.547 161.848C236.827 162.016 237.143 162.1 237.495 162.1ZM244.263 163.12C243.703 163.12 243.199 162.988 242.751 162.724C242.303 162.46 241.947 162.104 241.683 161.656C241.419 161.2 241.287 160.692 241.287 160.132C241.287 159.58 241.419 159.084 241.683 158.644C241.947 158.196 242.303 157.84 242.751 157.576C243.199 157.312 243.703 157.18 244.263 157.18C244.815 157.18 245.315 157.312 245.763 157.576C246.219 157.832 246.579 158.184 246.843 158.632C247.107 159.08 247.239 159.58 247.239 160.132C247.239 160.692 247.107 161.2 246.843 161.656C246.579 162.104 246.219 162.46 245.763 162.724C245.315 162.988 244.815 163.12 244.263 163.12ZM244.263 162.076C244.623 162.076 244.943 161.992 245.223 161.824C245.503 161.656 245.723 161.428 245.883 161.14C246.043 160.844 246.123 160.508 246.123 160.132C246.123 159.764 246.039 159.436 245.871 159.148C245.711 158.86 245.491 158.636 245.211 158.476C244.939 158.308 244.623 158.224 244.263 158.224C243.903 158.224 243.583 158.308 243.303 158.476C243.023 158.636 242.803 158.86 242.643 159.148C242.483 159.436 242.403 159.764 242.403 160.132C242.403 160.508 242.483 160.844 242.643 161.14C242.803 161.428 243.023 161.656 243.303 161.824C243.583 161.992 243.903 162.076 244.263 162.076Z" fill="#999999"/>
<line x1="53.5" y1="144" x2="53.5" stroke="black"/>
<line x1="54" y1="123.5" x2="408" y2="123.5" stroke="#ADADAD"/>
<line x1="54" y1="66.5" x2="407" y2="66.5" stroke="#ADADAD"/>
<line x1="54" y1="12.5" x2="408" y2="12.5" stroke="#ADADAD"/>
<line y1="-0.5" x2="355.001" y2="-0.5" transform="matrix(0.999997 0.00226127 -0.00134222 0.999999 53 145.198)" stroke="#001122"/>
</svg>
