<svg width="212" height="212" viewBox="0 0 212 212" fill="none" xmlns="http://www.w3.org/2000/svg">
<g clip-path="url(#clip0_350_853)">
<path d="M145.75 79.5C145.75 90.0424 141.562 100.153 134.107 107.607C126.653 115.062 116.542 119.25 106 119.25C95.4576 119.25 85.3471 115.062 77.8925 107.607C70.4379 100.153 66.25 90.0424 66.25 79.5C66.25 68.9576 70.4379 58.8471 77.8925 51.3925C85.3471 43.9379 95.4576 39.75 106 39.75C116.542 39.75 126.653 43.9379 134.107 51.3925C141.562 58.8471 145.75 68.9576 145.75 79.5Z" fill="#111827"/>
<path fill-rule="evenodd" clip-rule="evenodd" d="M0 106C0 77.8871 11.1678 50.9255 31.0467 31.0467C50.9255 11.1678 77.8871 0 106 0C134.113 0 161.074 11.1678 180.953 31.0467C200.832 50.9255 212 77.8871 212 106C212 134.113 200.832 161.074 180.953 180.953C161.074 200.832 134.113 212 106 212C77.8871 212 50.9255 200.832 31.0467 180.953C11.1678 161.074 0 134.113 0 106ZM106 13.25C88.5336 13.2509 71.4224 18.1838 56.6358 27.4809C41.8493 36.7779 29.9885 50.0613 22.4185 65.8021C14.8486 81.5428 11.8771 99.1012 13.8462 116.456C15.8153 133.811 22.645 150.258 33.549 163.902C42.9565 148.744 63.6663 132.5 106 132.5C148.334 132.5 169.03 148.731 178.451 163.902C189.355 150.258 196.185 133.811 198.154 116.456C200.123 99.1012 197.151 81.5428 189.581 65.8021C182.012 50.0613 170.151 36.7779 155.364 27.4809C140.578 18.1838 123.466 13.2509 106 13.25Z" fill="#111827"/>
</g>
<defs>
<clipPath id="clip0_350_853">
<rect width="212" height="212" fill="white"/>
</clipPath>
</defs>
</svg>
