<svg width="76" height="83" viewBox="0 0 76 83" fill="none" xmlns="http://www.w3.org/2000/svg">
<path d="M1.53711 73V63.0059H3.17773V73H1.53711ZM9.59668 65.2891C10.4489 65.2891 11.112 65.5101 11.5859 65.9521C12.0645 66.3896 12.3037 67.0938 12.3037 68.0645V73H10.6973V68.3652C10.6973 67.7773 10.5765 67.3376 10.335 67.0459C10.0934 66.7497 9.71973 66.6016 9.21387 66.6016C8.48014 66.6016 7.96973 66.8271 7.68262 67.2783C7.40007 67.7295 7.25879 68.3835 7.25879 69.2402V73H5.65234V65.4326H6.90332L7.12891 66.458H7.21777C7.38184 66.1937 7.58464 65.9772 7.82617 65.8086C8.07227 65.6354 8.3457 65.5055 8.64648 65.4189C8.95182 65.3324 9.26855 65.2891 9.59668 65.2891ZM17.6016 73.1367C16.8861 73.1367 16.2663 72.9977 15.7422 72.7197C15.2181 72.4417 14.8148 72.0156 14.5322 71.4414C14.2497 70.8672 14.1084 70.138 14.1084 69.2539C14.1084 68.3333 14.2633 67.5814 14.5732 66.998C14.8831 66.4147 15.3115 65.984 15.8584 65.7061C16.4098 65.4281 17.041 65.2891 17.752 65.2891C18.2031 65.2891 18.611 65.3346 18.9756 65.4258C19.3447 65.5124 19.6569 65.6195 19.9121 65.7471L19.4336 67.0322C19.1556 66.9183 18.8708 66.8226 18.5791 66.7451C18.2874 66.6676 18.0072 66.6289 17.7383 66.6289C17.2962 66.6289 16.9271 66.7269 16.6309 66.9229C16.3392 67.1188 16.1204 67.4105 15.9746 67.7979C15.8333 68.1852 15.7627 68.666 15.7627 69.2402C15.7627 69.7962 15.8356 70.2656 15.9814 70.6484C16.1273 71.0267 16.3438 71.3138 16.6309 71.5098C16.918 71.7012 17.2712 71.7969 17.6904 71.7969C18.1051 71.7969 18.4766 71.7467 18.8047 71.6465C19.1328 71.5462 19.4427 71.4163 19.7344 71.2568V72.6514C19.4473 72.8154 19.1396 72.9362 18.8115 73.0137C18.4834 73.0957 18.0801 73.1367 17.6016 73.1367ZM23.1182 65.4326V73H21.5117V65.4326H23.1182ZM22.3252 62.5342C22.5713 62.5342 22.7832 62.6003 22.9609 62.7324C23.1432 62.8646 23.2344 63.0924 23.2344 63.416C23.2344 63.735 23.1432 63.9629 22.9609 64.0996C22.7832 64.2318 22.5713 64.2979 22.3252 64.2979C22.07 64.2979 21.8535 64.2318 21.6758 64.0996C21.5026 63.9629 21.416 63.735 21.416 63.416C21.416 63.0924 21.5026 62.8646 21.6758 62.7324C21.8535 62.6003 22.07 62.5342 22.3252 62.5342ZM27.9648 73.1367C27.0625 73.1367 26.3379 72.8086 25.791 72.1523C25.2487 71.4915 24.9775 70.5186 24.9775 69.2334C24.9775 67.9346 25.2533 66.9525 25.8047 66.2871C26.3607 65.6217 27.0921 65.2891 27.999 65.2891C28.3818 65.2891 28.7168 65.3415 29.0039 65.4463C29.291 65.5465 29.5371 65.6833 29.7422 65.8564C29.9518 66.0296 30.1296 66.2233 30.2754 66.4375H30.3506C30.3278 66.2962 30.3005 66.0934 30.2686 65.8291C30.2412 65.5602 30.2275 65.3118 30.2275 65.084V62.3633H31.8408V73H30.583L30.2959 71.9678H30.2275C30.0908 72.1865 29.9176 72.3848 29.708 72.5625C29.5029 72.7357 29.2568 72.8747 28.9697 72.9795C28.6872 73.0843 28.3522 73.1367 27.9648 73.1367ZM28.416 71.8311C29.1042 71.8311 29.5895 71.6328 29.8721 71.2363C30.1546 70.8398 30.3005 70.2451 30.3096 69.4521V69.2402C30.3096 68.3926 30.1729 67.7432 29.8994 67.292C29.626 66.8363 29.127 66.6084 28.4023 66.6084C27.8236 66.6084 27.3815 66.8431 27.0762 67.3125C26.7754 67.7773 26.625 68.4268 26.625 69.2607C26.625 70.0947 26.7754 70.7327 27.0762 71.1748C27.3815 71.6123 27.8281 71.8311 28.416 71.8311ZM37.1592 65.2891C37.8337 65.2891 38.4124 65.4281 38.8955 65.7061C39.3786 65.984 39.75 66.3783 40.0098 66.8887C40.2695 67.3991 40.3994 68.0098 40.3994 68.7207V69.582H35.3477C35.3659 70.3158 35.5618 70.8809 35.9355 71.2773C36.3138 71.6738 36.8424 71.8721 37.5215 71.8721C38.0046 71.8721 38.4375 71.8265 38.8203 71.7354C39.2077 71.6396 39.6064 71.5007 40.0166 71.3184V72.624C39.6383 72.8018 39.2533 72.9316 38.8613 73.0137C38.4694 73.0957 38 73.1367 37.4531 73.1367C36.7103 73.1367 36.0563 72.9932 35.4912 72.7061C34.9307 72.4144 34.4909 71.9814 34.1719 71.4072C33.8574 70.833 33.7002 70.1198 33.7002 69.2676C33.7002 68.4199 33.8438 67.6999 34.1309 67.1074C34.418 66.515 34.8213 66.0638 35.3408 65.7539C35.8604 65.444 36.4665 65.2891 37.1592 65.2891ZM37.1592 66.499C36.6533 66.499 36.2432 66.6631 35.9287 66.9912C35.6188 67.3193 35.4365 67.8001 35.3818 68.4336H38.8271C38.8226 68.0553 38.7588 67.7204 38.6357 67.4287C38.5173 67.137 38.335 66.9092 38.0889 66.7451C37.8473 66.5811 37.5374 66.499 37.1592 66.499ZM46.1553 65.2891C47.0075 65.2891 47.6706 65.5101 48.1445 65.9521C48.623 66.3896 48.8623 67.0938 48.8623 68.0645V73H47.2559V68.3652C47.2559 67.7773 47.1351 67.3376 46.8936 67.0459C46.652 66.7497 46.2783 66.6016 45.7725 66.6016C45.0387 66.6016 44.5283 66.8271 44.2412 67.2783C43.9587 67.7295 43.8174 68.3835 43.8174 69.2402V73H42.2109V65.4326H43.4619L43.6875 66.458H43.7764C43.9404 66.1937 44.1432 65.9772 44.3848 65.8086C44.6309 65.6354 44.9043 65.5055 45.2051 65.4189C45.5104 65.3324 45.8271 65.2891 46.1553 65.2891ZM54.1602 73.1367C53.4447 73.1367 52.8249 72.9977 52.3008 72.7197C51.7767 72.4417 51.3734 72.0156 51.0908 71.4414C50.8083 70.8672 50.667 70.138 50.667 69.2539C50.667 68.3333 50.8219 67.5814 51.1318 66.998C51.4417 66.4147 51.8701 65.984 52.417 65.7061C52.9684 65.4281 53.5996 65.2891 54.3105 65.2891C54.7617 65.2891 55.1696 65.3346 55.5342 65.4258C55.9033 65.5124 56.2155 65.6195 56.4707 65.7471L55.9922 67.0322C55.7142 66.9183 55.4294 66.8226 55.1377 66.7451C54.846 66.6676 54.5658 66.6289 54.2969 66.6289C53.8548 66.6289 53.4857 66.7269 53.1895 66.9229C52.8978 67.1188 52.679 67.4105 52.5332 67.7979C52.3919 68.1852 52.3213 68.666 52.3213 69.2402C52.3213 69.7962 52.3942 70.2656 52.54 70.6484C52.6859 71.0267 52.9023 71.3138 53.1895 71.5098C53.4766 71.7012 53.8298 71.7969 54.249 71.7969C54.6637 71.7969 55.0352 71.7467 55.3633 71.6465C55.6914 71.5462 56.0013 71.4163 56.293 71.2568V72.6514C56.0059 72.8154 55.6982 72.9362 55.3701 73.0137C55.042 73.0957 54.6387 73.1367 54.1602 73.1367ZM59.6768 65.4326V73H58.0703V65.4326H59.6768ZM58.8838 62.5342C59.1299 62.5342 59.3418 62.6003 59.5195 62.7324C59.7018 62.8646 59.793 63.0924 59.793 63.416C59.793 63.735 59.7018 63.9629 59.5195 64.0996C59.3418 64.2318 59.1299 64.2979 58.8838 64.2979C58.6286 64.2979 58.4121 64.2318 58.2344 64.0996C58.0612 63.9629 57.9746 63.735 57.9746 63.416C57.9746 63.0924 58.0612 62.8646 58.2344 62.7324C58.4121 62.6003 58.6286 62.5342 58.8838 62.5342ZM64.9473 65.2891C65.9043 65.2891 66.6266 65.501 67.1143 65.9248C67.6064 66.3486 67.8525 67.0094 67.8525 67.9072V73H66.7109L66.4033 71.9268H66.3486C66.1344 72.2002 65.9134 72.4258 65.6855 72.6035C65.4577 72.7812 65.1934 72.9134 64.8926 73C64.5964 73.0911 64.234 73.1367 63.8057 73.1367C63.3545 73.1367 62.9512 73.0547 62.5957 72.8906C62.2402 72.722 61.96 72.4668 61.7549 72.125C61.5498 71.7832 61.4473 71.3503 61.4473 70.8262C61.4473 70.0469 61.7367 69.4613 62.3154 69.0693C62.8988 68.6774 63.7783 68.4609 64.9541 68.4199L66.2666 68.3721V67.9756C66.2666 67.4515 66.1436 67.0778 65.8975 66.8545C65.6559 66.6312 65.3141 66.5195 64.8721 66.5195C64.4938 66.5195 64.127 66.5742 63.7715 66.6836C63.416 66.793 63.0697 66.9274 62.7324 67.0869L62.2129 65.9521C62.582 65.7562 63.0013 65.5967 63.4707 65.4736C63.9447 65.3506 64.4368 65.2891 64.9473 65.2891ZM66.2598 69.3838L65.2822 69.418C64.4801 69.4453 63.9173 69.582 63.5938 69.8281C63.2702 70.0742 63.1084 70.4115 63.1084 70.8398C63.1084 71.2135 63.2201 71.487 63.4434 71.6602C63.6667 71.8288 63.9606 71.9131 64.3252 71.9131C64.8812 71.9131 65.3415 71.7559 65.7061 71.4414C66.0752 71.1224 66.2598 70.6553 66.2598 70.04V69.3838ZM75.1875 70.8398C75.1875 71.3366 75.0667 71.7559 74.8252 72.0977C74.5837 72.4395 74.2305 72.6992 73.7656 72.877C73.3053 73.0501 72.7402 73.1367 72.0703 73.1367C71.5417 73.1367 71.0859 73.098 70.7031 73.0205C70.3249 72.9476 69.9671 72.8337 69.6299 72.6787V71.291C69.9899 71.4596 70.3932 71.6055 70.8398 71.7285C71.291 71.8516 71.7171 71.9131 72.1182 71.9131C72.6468 71.9131 73.0273 71.8311 73.2598 71.667C73.4922 71.4984 73.6084 71.2751 73.6084 70.9971C73.6084 70.833 73.5605 70.6872 73.4648 70.5596C73.3737 70.4274 73.2005 70.293 72.9453 70.1562C72.6947 70.015 72.3255 69.8464 71.8379 69.6504C71.3594 69.459 70.9561 69.2676 70.6279 69.0762C70.2998 68.8848 70.0514 68.6546 69.8828 68.3857C69.7142 68.1123 69.6299 67.7637 69.6299 67.3398C69.6299 66.6699 69.8942 66.1618 70.4229 65.8154C70.9561 65.4645 71.6602 65.2891 72.5352 65.2891C73 65.2891 73.4375 65.3369 73.8477 65.4326C74.2624 65.5238 74.668 65.6582 75.0645 65.8359L74.5586 67.0459C74.2168 66.8955 73.8727 66.7725 73.5264 66.6768C73.1846 66.5765 72.8359 66.5264 72.4805 66.5264C72.0658 66.5264 71.749 66.5902 71.5303 66.7178C71.3161 66.8454 71.209 67.0277 71.209 67.2646C71.209 67.4424 71.2614 67.5928 71.3662 67.7158C71.471 67.8389 71.651 67.9619 71.9062 68.085C72.166 68.208 72.526 68.3607 72.9863 68.543C73.4375 68.7161 73.8271 68.8984 74.1553 69.0898C74.488 69.2767 74.7432 69.5068 74.9209 69.7803C75.0986 70.0537 75.1875 70.4069 75.1875 70.8398Z" fill="#059669"/>
<path d="M29.0297 4.33337H46.9697L59.6663 17.03V34.97L46.9697 47.6667H29.0297L16.333 34.97V17.03L29.0297 4.33337Z" stroke="#059669" stroke-width="2" stroke-linecap="round" stroke-linejoin="round"/>
<path d="M38 17.3334V26" stroke="#059669" stroke-width="2" stroke-linecap="round" stroke-linejoin="round"/>
<path d="M38 34.6666H38.0217" stroke="#059669" stroke-width="2" stroke-linecap="round" stroke-linejoin="round"/>
</svg>
