<svg width="128" height="83" viewBox="0 0 128 83" fill="none" xmlns="http://www.w3.org/2000/svg">
<path d="M5.62598 73L2.74805 64.6533H2.68652C2.7002 64.8402 2.71615 65.0954 2.73438 65.4189C2.7526 65.7425 2.76855 66.0889 2.78223 66.458C2.7959 66.8271 2.80273 67.1803 2.80273 67.5176V73H1.3125V63.0059H3.61621L6.38477 70.9834H6.42578L9.29004 63.0059H11.5869V73H10.0215V67.4355C10.0215 67.1302 10.026 66.7998 10.0352 66.4443C10.0488 66.0889 10.0625 65.7516 10.0762 65.4326C10.0944 65.1136 10.1081 64.8584 10.1172 64.667H10.0625L7.0752 73H5.62598ZM17.0215 65.2891C17.9785 65.2891 18.7008 65.501 19.1885 65.9248C19.6807 66.3486 19.9268 67.0094 19.9268 67.9072V73H18.7852L18.4775 71.9268H18.4229C18.2087 72.2002 17.9876 72.4258 17.7598 72.6035C17.5319 72.7812 17.2676 72.9134 16.9668 73C16.6706 73.0911 16.3083 73.1367 15.8799 73.1367C15.4287 73.1367 15.0254 73.0547 14.6699 72.8906C14.3145 72.722 14.0342 72.4668 13.8291 72.125C13.624 71.7832 13.5215 71.3503 13.5215 70.8262C13.5215 70.0469 13.8109 69.4613 14.3896 69.0693C14.973 68.6774 15.8525 68.4609 17.0283 68.4199L18.3408 68.3721V67.9756C18.3408 67.4515 18.2178 67.0778 17.9717 66.8545C17.7301 66.6312 17.3883 66.5195 16.9463 66.5195C16.568 66.5195 16.2012 66.5742 15.8457 66.6836C15.4902 66.793 15.1439 66.9274 14.8066 67.0869L14.2871 65.9521C14.6562 65.7562 15.0755 65.5967 15.5449 65.4736C16.0189 65.3506 16.5111 65.2891 17.0215 65.2891ZM18.334 69.3838L17.3564 69.418C16.5544 69.4453 15.9915 69.582 15.668 69.8281C15.3444 70.0742 15.1826 70.4115 15.1826 70.8398C15.1826 71.2135 15.2943 71.487 15.5176 71.6602C15.7409 71.8288 16.0348 71.9131 16.3994 71.9131C16.9554 71.9131 17.4157 71.7559 17.7803 71.4414C18.1494 71.1224 18.334 70.6553 18.334 70.04V69.3838ZM26.1201 65.2891C26.9723 65.2891 27.6354 65.5101 28.1094 65.9521C28.5879 66.3896 28.8271 67.0938 28.8271 68.0645V73H27.2207V68.3652C27.2207 67.7773 27.0999 67.3376 26.8584 67.0459C26.6169 66.7497 26.2432 66.6016 25.7373 66.6016C25.0036 66.6016 24.4932 66.8271 24.2061 67.2783C23.9235 67.7295 23.7822 68.3835 23.7822 69.2402V73H22.1758V65.4326H23.4268L23.6523 66.458H23.7412C23.9053 66.1937 24.1081 65.9772 24.3496 65.8086C24.5957 65.6354 24.8691 65.5055 25.1699 65.4189C25.4753 65.3324 25.792 65.2891 26.1201 65.2891ZM37.6729 65.4326V73H36.4082L36.1895 71.9814H36.1006C35.9411 72.2412 35.7383 72.4577 35.4922 72.6309C35.2461 72.7995 34.9727 72.9248 34.6719 73.0068C34.3711 73.0934 34.0544 73.1367 33.7217 73.1367C33.152 73.1367 32.6644 73.041 32.2588 72.8496C31.8577 72.6536 31.5501 72.3529 31.3359 71.9473C31.1217 71.5417 31.0146 71.0176 31.0146 70.375V65.4326H32.6279V70.0742C32.6279 70.6621 32.7464 71.1019 32.9834 71.3936C33.2249 71.6852 33.5986 71.8311 34.1045 71.8311C34.5921 71.8311 34.9795 71.7308 35.2666 71.5303C35.5537 71.3298 35.7565 71.0335 35.875 70.6416C35.998 70.2497 36.0596 69.7689 36.0596 69.1992V65.4326H37.6729ZM42.9434 65.2891C43.9004 65.2891 44.6227 65.501 45.1104 65.9248C45.6025 66.3486 45.8486 67.0094 45.8486 67.9072V73H44.707L44.3994 71.9268H44.3447C44.1305 72.2002 43.9095 72.4258 43.6816 72.6035C43.4538 72.7812 43.1895 72.9134 42.8887 73C42.5924 73.0911 42.2301 73.1367 41.8018 73.1367C41.3506 73.1367 40.9473 73.0547 40.5918 72.8906C40.2363 72.722 39.9561 72.4668 39.751 72.125C39.5459 71.7832 39.4434 71.3503 39.4434 70.8262C39.4434 70.0469 39.7327 69.4613 40.3115 69.0693C40.8949 68.6774 41.7744 68.4609 42.9502 68.4199L44.2627 68.3721V67.9756C44.2627 67.4515 44.1396 67.0778 43.8936 66.8545C43.652 66.6312 43.3102 66.5195 42.8682 66.5195C42.4899 66.5195 42.123 66.5742 41.7676 66.6836C41.4121 66.793 41.0658 66.9274 40.7285 67.0869L40.209 65.9521C40.5781 65.7562 40.9974 65.5967 41.4668 65.4736C41.9408 65.3506 42.4329 65.2891 42.9434 65.2891ZM44.2559 69.3838L43.2783 69.418C42.4762 69.4453 41.9134 69.582 41.5898 69.8281C41.2663 70.0742 41.1045 70.4115 41.1045 70.8398C41.1045 71.2135 41.2161 71.487 41.4395 71.6602C41.6628 71.8288 41.9567 71.9131 42.3213 71.9131C42.8773 71.9131 43.3376 71.7559 43.7021 71.4414C44.0713 71.1224 44.2559 70.6553 44.2559 70.04V69.3838ZM49.7109 73H48.0977V62.3633H49.7109V73ZM58.1875 73.1367C57.2852 73.1367 56.5605 72.8086 56.0137 72.1523C55.4714 71.4915 55.2002 70.5186 55.2002 69.2334C55.2002 67.9346 55.4759 66.9525 56.0273 66.2871C56.5833 65.6217 57.3148 65.2891 58.2217 65.2891C58.6045 65.2891 58.9395 65.3415 59.2266 65.4463C59.5137 65.5465 59.7598 65.6833 59.9648 65.8564C60.1745 66.0296 60.3522 66.2233 60.498 66.4375H60.5732C60.5505 66.2962 60.5231 66.0934 60.4912 65.8291C60.4639 65.5602 60.4502 65.3118 60.4502 65.084V62.3633H62.0635V73H60.8057L60.5186 71.9678H60.4502C60.3135 72.1865 60.1403 72.3848 59.9307 72.5625C59.7256 72.7357 59.4795 72.8747 59.1924 72.9795C58.9098 73.0843 58.5749 73.1367 58.1875 73.1367ZM58.6387 71.8311C59.3268 71.8311 59.8122 71.6328 60.0947 71.2363C60.3773 70.8398 60.5231 70.2451 60.5322 69.4521V69.2402C60.5322 68.3926 60.3955 67.7432 60.1221 67.292C59.8486 66.8363 59.3496 66.6084 58.625 66.6084C58.0462 66.6084 57.6042 66.8431 57.2988 67.3125C56.998 67.7773 56.8477 68.4268 56.8477 69.2607C56.8477 70.0947 56.998 70.7327 57.2988 71.1748C57.6042 71.6123 58.0508 71.8311 58.6387 71.8311ZM67.3818 65.2891C68.0563 65.2891 68.6351 65.4281 69.1182 65.7061C69.6012 65.984 69.9727 66.3783 70.2324 66.8887C70.4922 67.3991 70.6221 68.0098 70.6221 68.7207V69.582H65.5703C65.5885 70.3158 65.7845 70.8809 66.1582 71.2773C66.5365 71.6738 67.0651 71.8721 67.7441 71.8721C68.2272 71.8721 68.6602 71.8265 69.043 71.7354C69.4303 71.6396 69.8291 71.5007 70.2393 71.3184V72.624C69.861 72.8018 69.4759 72.9316 69.084 73.0137C68.6921 73.0957 68.2227 73.1367 67.6758 73.1367C66.9329 73.1367 66.279 72.9932 65.7139 72.7061C65.1533 72.4144 64.7135 71.9814 64.3945 71.4072C64.0801 70.833 63.9229 70.1198 63.9229 69.2676C63.9229 68.4199 64.0664 67.6999 64.3535 67.1074C64.6406 66.515 65.0439 66.0638 65.5635 65.7539C66.083 65.444 66.6891 65.2891 67.3818 65.2891ZM67.3818 66.499C66.876 66.499 66.4658 66.6631 66.1514 66.9912C65.8415 67.3193 65.6592 67.8001 65.6045 68.4336H69.0498C69.0452 68.0553 68.9814 67.7204 68.8584 67.4287C68.7399 67.137 68.5576 66.9092 68.3115 66.7451C68.07 66.5811 67.7601 66.499 67.3818 66.499ZM84.082 63.0059V69.4727C84.082 70.1699 83.9339 70.7943 83.6377 71.3457C83.346 71.8971 82.904 72.3346 82.3115 72.6582C81.7191 72.9772 80.974 73.1367 80.0762 73.1367C78.7956 73.1367 77.8203 72.8018 77.1504 72.1318C76.485 71.4574 76.1523 70.5618 76.1523 69.4453V63.0059H77.793V69.3018C77.793 70.1357 77.9889 70.751 78.3809 71.1475C78.7728 71.5439 79.3584 71.7422 80.1377 71.7422C80.6755 71.7422 81.113 71.6488 81.4502 71.4619C81.792 71.2705 82.0426 70.9925 82.2021 70.6279C82.3662 70.2588 82.4482 69.8145 82.4482 69.2949V63.0059H84.082ZM91.5605 70.8398C91.5605 71.3366 91.4398 71.7559 91.1982 72.0977C90.9567 72.4395 90.6035 72.6992 90.1387 72.877C89.6784 73.0501 89.1133 73.1367 88.4434 73.1367C87.9147 73.1367 87.459 73.098 87.0762 73.0205C86.6979 72.9476 86.3402 72.8337 86.0029 72.6787V71.291C86.363 71.4596 86.7663 71.6055 87.2129 71.7285C87.6641 71.8516 88.0902 71.9131 88.4912 71.9131C89.0199 71.9131 89.4004 71.8311 89.6328 71.667C89.8652 71.4984 89.9814 71.2751 89.9814 70.9971C89.9814 70.833 89.9336 70.6872 89.8379 70.5596C89.7467 70.4274 89.5736 70.293 89.3184 70.1562C89.0677 70.015 88.6986 69.8464 88.2109 69.6504C87.7324 69.459 87.3291 69.2676 87.001 69.0762C86.6729 68.8848 86.4245 68.6546 86.2559 68.3857C86.0872 68.1123 86.0029 67.7637 86.0029 67.3398C86.0029 66.6699 86.2673 66.1618 86.7959 65.8154C87.3291 65.4645 88.0332 65.2891 88.9082 65.2891C89.373 65.2891 89.8105 65.3369 90.2207 65.4326C90.6354 65.5238 91.041 65.6582 91.4375 65.8359L90.9316 67.0459C90.5898 66.8955 90.2458 66.7725 89.8994 66.6768C89.5576 66.5765 89.209 66.5264 88.8535 66.5264C88.4388 66.5264 88.1221 66.5902 87.9033 66.7178C87.6891 66.8454 87.582 67.0277 87.582 67.2646C87.582 67.4424 87.6344 67.5928 87.7393 67.7158C87.8441 67.8389 88.0241 67.9619 88.2793 68.085C88.5391 68.208 88.8991 68.3607 89.3594 68.543C89.8105 68.7161 90.2002 68.8984 90.5283 69.0898C90.861 69.2767 91.1162 69.5068 91.2939 69.7803C91.4717 70.0537 91.5605 70.4069 91.5605 70.8398ZM99.8936 65.4326V73H98.6289L98.4102 71.9814H98.3213C98.1618 72.2412 97.959 72.4577 97.7129 72.6309C97.4668 72.7995 97.1934 72.9248 96.8926 73.0068C96.5918 73.0934 96.2751 73.1367 95.9424 73.1367C95.3727 73.1367 94.8851 73.041 94.4795 72.8496C94.0785 72.6536 93.7708 72.3529 93.5566 71.9473C93.3424 71.5417 93.2354 71.0176 93.2354 70.375V65.4326H94.8486V70.0742C94.8486 70.6621 94.9671 71.1019 95.2041 71.3936C95.4456 71.6852 95.8193 71.8311 96.3252 71.8311C96.8128 71.8311 97.2002 71.7308 97.4873 71.5303C97.7744 71.3298 97.9772 71.0335 98.0957 70.6416C98.2188 70.2497 98.2803 69.7689 98.2803 69.1992V65.4326H99.8936ZM105.164 65.2891C106.121 65.2891 106.843 65.501 107.331 65.9248C107.823 66.3486 108.069 67.0094 108.069 67.9072V73H106.928L106.62 71.9268H106.565C106.351 72.2002 106.13 72.4258 105.902 72.6035C105.674 72.7812 105.41 72.9134 105.109 73C104.813 73.0911 104.451 73.1367 104.022 73.1367C103.571 73.1367 103.168 73.0547 102.812 72.8906C102.457 72.722 102.177 72.4668 101.972 72.125C101.767 71.7832 101.664 71.3503 101.664 70.8262C101.664 70.0469 101.953 69.4613 102.532 69.0693C103.116 68.6774 103.995 68.4609 105.171 68.4199L106.483 68.3721V67.9756C106.483 67.4515 106.36 67.0778 106.114 66.8545C105.873 66.6312 105.531 66.5195 105.089 66.5195C104.711 66.5195 104.344 66.5742 103.988 66.6836C103.633 66.793 103.286 66.9274 102.949 67.0869L102.43 65.9521C102.799 65.7562 103.218 65.5967 103.688 65.4736C104.161 65.3506 104.654 65.2891 105.164 65.2891ZM106.477 69.3838L105.499 69.418C104.697 69.4453 104.134 69.582 103.811 69.8281C103.487 70.0742 103.325 70.4115 103.325 70.8398C103.325 71.2135 103.437 71.487 103.66 71.6602C103.883 71.8288 104.177 71.9131 104.542 71.9131C105.098 71.9131 105.558 71.7559 105.923 71.4414C106.292 71.1224 106.477 70.6553 106.477 70.04V69.3838ZM114.153 65.2891C114.281 65.2891 114.42 65.2959 114.57 65.3096C114.721 65.3232 114.851 65.3415 114.96 65.3643L114.81 66.8682C114.714 66.8408 114.595 66.8203 114.454 66.8066C114.317 66.793 114.194 66.7861 114.085 66.7861C113.798 66.7861 113.524 66.834 113.265 66.9297C113.005 67.0208 112.775 67.1621 112.574 67.3535C112.374 67.5404 112.216 67.7751 112.103 68.0576C111.989 68.3402 111.932 68.6683 111.932 69.042V73H110.318V65.4326H111.576L111.795 66.7656H111.87C112.021 66.4967 112.207 66.2507 112.431 66.0273C112.654 65.804 112.909 65.6263 113.196 65.4941C113.488 65.3574 113.807 65.2891 114.153 65.2891ZM117.968 65.4326V73H116.361V65.4326H117.968ZM117.175 62.5342C117.421 62.5342 117.633 62.6003 117.811 62.7324C117.993 62.8646 118.084 63.0924 118.084 63.416C118.084 63.735 117.993 63.9629 117.811 64.0996C117.633 64.2318 117.421 64.2979 117.175 64.2979C116.92 64.2979 116.703 64.2318 116.525 64.0996C116.352 63.9629 116.266 63.735 116.266 63.416C116.266 63.0924 116.352 62.8646 116.525 62.7324C116.703 62.6003 116.92 62.5342 117.175 62.5342ZM126.971 69.1992C126.971 69.8281 126.889 70.3864 126.725 70.874C126.561 71.3617 126.321 71.7741 126.007 72.1113C125.692 72.444 125.314 72.6992 124.872 72.877C124.43 73.0501 123.931 73.1367 123.375 73.1367C122.855 73.1367 122.379 73.0501 121.946 72.877C121.513 72.6992 121.137 72.444 120.818 72.1113C120.504 71.7741 120.26 71.3617 120.087 70.874C119.914 70.3864 119.827 69.8281 119.827 69.1992C119.827 68.3652 119.971 67.6589 120.258 67.0801C120.549 66.4967 120.964 66.0524 121.502 65.7471C122.04 65.4417 122.68 65.2891 123.423 65.2891C124.12 65.2891 124.735 65.4417 125.269 65.7471C125.802 66.0524 126.219 66.4967 126.52 67.0801C126.82 67.6634 126.971 68.3698 126.971 69.1992ZM121.481 69.1992C121.481 69.7507 121.548 70.2223 121.68 70.6143C121.816 71.0062 122.026 71.307 122.309 71.5166C122.591 71.7217 122.956 71.8242 123.402 71.8242C123.849 71.8242 124.214 71.7217 124.496 71.5166C124.779 71.307 124.986 71.0062 125.118 70.6143C125.25 70.2223 125.316 69.7507 125.316 69.1992C125.316 68.6478 125.25 68.1807 125.118 67.7979C124.986 67.4105 124.779 67.1165 124.496 66.916C124.214 66.7109 123.847 66.6084 123.396 66.6084C122.73 66.6084 122.245 66.8317 121.939 67.2783C121.634 67.7249 121.481 68.3652 121.481 69.1992Z" fill="#059669"/>
<path d="M41.5 6.75H55C57.3869 6.75 59.6761 7.69821 61.364 9.38604C63.0518 11.0739 64 13.3631 64 15.75V47.25C64 45.4598 63.2888 43.7429 62.023 42.477C60.7571 41.2112 59.0402 40.5 57.25 40.5H41.5V6.75Z" stroke="#059669" stroke-width="2" stroke-linecap="round" stroke-linejoin="round"/>
<path d="M86.5 6.75H73C70.6131 6.75 68.3239 7.69821 66.636 9.38604C64.9482 11.0739 64 13.3631 64 15.75V47.25C64 45.4598 64.7112 43.7429 65.977 42.477C67.2429 41.2112 68.9598 40.5 70.75 40.5H86.5V6.75Z" stroke="#059669" stroke-width="2" stroke-linecap="round" stroke-linejoin="round"/>
</svg>
