<svg width="282" height="165" viewBox="0 0 282 165" fill="none" xmlns="http://www.w3.org/2000/svg">
<rect x="0.5" y="0.5" width="281" height="164" rx="9.5" fill="#F1F9FF"/>
<rect x="0.5" y="0.5" width="281" height="164" rx="9.5" stroke="#E0F2FE"/>
<path d="M27.1967 92H20.2103V90.5303L22.7191 87.9941C23.225 87.4746 23.6306 87.0417 23.9359 86.6953C24.2458 86.3444 24.4691 86.0254 24.6058 85.7383C24.7471 85.4512 24.8178 85.1436 24.8178 84.8154C24.8178 84.4189 24.7061 84.1227 24.4828 83.9268C24.264 83.7262 23.9701 83.626 23.601 83.626C23.2136 83.626 22.8376 83.7148 22.473 83.8926C22.1084 84.0703 21.7279 84.3232 21.3314 84.6514L20.183 83.291C20.4701 83.0449 20.7732 82.8125 21.0922 82.5938C21.4157 82.375 21.7894 82.1995 22.2133 82.0674C22.6416 81.9307 23.1543 81.8623 23.7513 81.8623C24.4076 81.8623 24.9704 81.9808 25.4398 82.2178C25.9138 82.4548 26.2784 82.7783 26.5336 83.1885C26.7888 83.5941 26.9164 84.0544 26.9164 84.5693C26.9164 85.1208 26.807 85.6243 26.5883 86.0801C26.3695 86.5358 26.0505 86.987 25.6312 87.4336C25.2165 87.8802 24.7152 88.3747 24.1273 88.917L22.8422 90.127V90.2227H27.1967V92ZM28.4613 91.0225C28.4613 90.5941 28.5775 90.2933 28.8099 90.1201C29.0469 89.9469 29.3318 89.8604 29.6644 89.8604C29.988 89.8604 30.266 89.9469 30.4984 90.1201C30.7354 90.2933 30.8539 90.5941 30.8539 91.0225C30.8539 91.4326 30.7354 91.7288 30.4984 91.9111C30.266 92.0934 29.988 92.1846 29.6644 92.1846C29.3318 92.1846 29.0469 92.0934 28.8099 91.9111C28.5775 91.7288 28.4613 91.4326 28.4613 91.0225ZM40.4902 82.0059C41.3971 82.0059 42.1445 82.1152 42.7324 82.334C43.3249 82.5527 43.7646 82.8831 44.0518 83.3252C44.3389 83.7673 44.4824 84.3255 44.4824 85C44.4824 85.4557 44.3958 85.8545 44.2227 86.1963C44.0495 86.5381 43.8216 86.8275 43.5391 87.0645C43.2565 87.3014 42.9512 87.4951 42.623 87.6455L45.5625 92H43.2109L40.8252 88.165H39.6973V92H37.5781V82.0059H40.4902ZM40.3398 83.7422H39.6973V86.4424H40.3809C41.0827 86.4424 41.584 86.3262 41.8848 86.0938C42.1901 85.8568 42.3428 85.5104 42.3428 85.0547C42.3428 84.5807 42.1787 84.2435 41.8506 84.043C41.527 83.8424 41.0234 83.7422 40.3398 83.7422ZM49.8076 84.2139C50.514 84.2139 51.1224 84.3506 51.6328 84.624C52.1432 84.8929 52.5374 85.2848 52.8154 85.7998C53.0934 86.3148 53.2324 86.9437 53.2324 87.6865V88.6982H48.3037C48.3265 89.2861 48.502 89.7487 48.8301 90.0859C49.1628 90.4186 49.623 90.585 50.2109 90.585C50.6986 90.585 51.1452 90.5348 51.5508 90.4346C51.9564 90.3343 52.3734 90.1839 52.8018 89.9834V91.5967C52.4235 91.7835 52.027 91.9202 51.6123 92.0068C51.2021 92.0934 50.7031 92.1367 50.1152 92.1367C49.3496 92.1367 48.6706 91.9954 48.0781 91.7129C47.4902 91.4303 47.0277 90.9997 46.6904 90.4209C46.3577 89.8421 46.1914 89.113 46.1914 88.2334C46.1914 87.3402 46.3418 86.5973 46.6426 86.0049C46.9479 85.4079 47.3717 84.9613 47.9141 84.665C48.4564 84.3643 49.0876 84.2139 49.8076 84.2139ZM49.8213 85.6973C49.4157 85.6973 49.0785 85.8271 48.8096 86.0869C48.5452 86.3467 48.3926 86.7546 48.3516 87.3105H51.2773C51.2728 87.0007 51.2158 86.7249 51.1064 86.4834C51.0016 86.2419 50.8421 86.0505 50.6279 85.9092C50.4183 85.7679 50.1494 85.6973 49.8213 85.6973ZM58.0312 92.1367C57.2747 92.1367 56.6299 92 56.0967 91.7266C55.5635 91.4486 55.1579 91.0202 54.8799 90.4414C54.6019 89.8626 54.4629 89.1221 54.4629 88.2197C54.4629 87.2855 54.6201 86.5244 54.9346 85.9365C55.2536 85.3441 55.6934 84.9089 56.2539 84.6309C56.819 84.3529 57.473 84.2139 58.2158 84.2139C58.7445 84.2139 59.2002 84.2663 59.583 84.3711C59.9704 84.4714 60.3076 84.5921 60.5947 84.7334L59.9795 86.3467C59.6514 86.2145 59.346 86.1074 59.0635 86.0254C58.7809 85.9388 58.4984 85.8955 58.2158 85.8955C57.8512 85.8955 57.5482 85.9821 57.3066 86.1553C57.0651 86.3239 56.8851 86.5791 56.7666 86.9209C56.6481 87.2627 56.5889 87.6911 56.5889 88.2061C56.5889 88.7119 56.6527 89.1312 56.7803 89.4639C56.9079 89.7965 57.0924 90.0449 57.334 90.209C57.5755 90.3685 57.8695 90.4482 58.2158 90.4482C58.6488 90.4482 59.0339 90.3913 59.3711 90.2773C59.7083 90.1589 60.0365 89.9948 60.3555 89.7852V91.5693C60.0365 91.7699 59.7015 91.9134 59.3506 92C59.0042 92.0911 58.5645 92.1367 58.0312 92.1367ZM69.0781 88.165C69.0781 88.8031 68.9915 89.3682 68.8184 89.8604C68.6497 90.3525 68.4014 90.7695 68.0732 91.1113C67.7497 91.4486 67.3577 91.7038 66.8975 91.877C66.4417 92.0501 65.9268 92.1367 65.3525 92.1367C64.8148 92.1367 64.3203 92.0501 63.8691 91.877C63.4225 91.7038 63.0329 91.4486 62.7002 91.1113C62.3721 90.7695 62.1169 90.3525 61.9346 89.8604C61.7568 89.3682 61.668 88.8031 61.668 88.165C61.668 87.3174 61.8184 86.5996 62.1191 86.0117C62.4199 85.4238 62.8483 84.9772 63.4043 84.6719C63.9603 84.3665 64.6234 84.2139 65.3936 84.2139C66.109 84.2139 66.7425 84.3665 67.2939 84.6719C67.8499 84.9772 68.2852 85.4238 68.5996 86.0117C68.9186 86.5996 69.0781 87.3174 69.0781 88.165ZM63.7939 88.165C63.7939 88.6663 63.8486 89.0879 63.958 89.4297C64.0674 89.7715 64.2383 90.029 64.4707 90.2021C64.7031 90.3753 65.0062 90.4619 65.3799 90.4619C65.749 90.4619 66.0475 90.3753 66.2754 90.2021C66.5078 90.029 66.6764 89.7715 66.7812 89.4297C66.8906 89.0879 66.9453 88.6663 66.9453 88.165C66.9453 87.6592 66.8906 87.2399 66.7812 86.9072C66.6764 86.57 66.5078 86.3171 66.2754 86.1484C66.043 85.9798 65.7399 85.8955 65.3662 85.8955C64.8148 85.8955 64.4137 86.0846 64.1631 86.4629C63.917 86.8411 63.7939 87.4085 63.7939 88.165ZM72.8857 92H70.8008V81.3633H72.8857V92ZM78.2314 84.2139C78.9378 84.2139 79.5462 84.3506 80.0566 84.624C80.5671 84.8929 80.9613 85.2848 81.2393 85.7998C81.5173 86.3148 81.6562 86.9437 81.6562 87.6865V88.6982H76.7275C76.7503 89.2861 76.9258 89.7487 77.2539 90.0859C77.5866 90.4186 78.0469 90.585 78.6348 90.585C79.1224 90.585 79.569 90.5348 79.9746 90.4346C80.3802 90.3343 80.7972 90.1839 81.2256 89.9834V91.5967C80.8473 91.7835 80.4508 91.9202 80.0361 92.0068C79.626 92.0934 79.127 92.1367 78.5391 92.1367C77.7734 92.1367 77.0944 91.9954 76.502 91.7129C75.9141 91.4303 75.4515 90.9997 75.1143 90.4209C74.7816 89.8421 74.6152 89.113 74.6152 88.2334C74.6152 87.3402 74.7656 86.5973 75.0664 86.0049C75.3717 85.4079 75.7956 84.9613 76.3379 84.665C76.8802 84.3643 77.5114 84.2139 78.2314 84.2139ZM78.2451 85.6973C77.8395 85.6973 77.5023 85.8271 77.2334 86.0869C76.9691 86.3467 76.8164 86.7546 76.7754 87.3105H79.7012C79.6966 87.0007 79.6396 86.7249 79.5303 86.4834C79.4255 86.2419 79.266 86.0505 79.0518 85.9092C78.8421 85.7679 78.5732 85.6973 78.2451 85.6973ZM86.4551 92.1367C85.6986 92.1367 85.0537 92 84.5205 91.7266C83.9873 91.4486 83.5817 91.0202 83.3037 90.4414C83.0257 89.8626 82.8867 89.1221 82.8867 88.2197C82.8867 87.2855 83.0439 86.5244 83.3584 85.9365C83.6774 85.3441 84.1172 84.9089 84.6777 84.6309C85.2428 84.3529 85.8968 84.2139 86.6396 84.2139C87.1683 84.2139 87.624 84.2663 88.0068 84.3711C88.3942 84.4714 88.7314 84.5921 89.0186 84.7334L88.4033 86.3467C88.0752 86.2145 87.7699 86.1074 87.4873 86.0254C87.2048 85.9388 86.9222 85.8955 86.6396 85.8955C86.2751 85.8955 85.972 85.9821 85.7305 86.1553C85.4889 86.3239 85.3089 86.5791 85.1904 86.9209C85.0719 87.2627 85.0127 87.6911 85.0127 88.2061C85.0127 88.7119 85.0765 89.1312 85.2041 89.4639C85.3317 89.7965 85.5163 90.0449 85.7578 90.209C85.9993 90.3685 86.2933 90.4482 86.6396 90.4482C87.0726 90.4482 87.4577 90.3913 87.7949 90.2773C88.1322 90.1589 88.4603 89.9948 88.7793 89.7852V91.5693C88.4603 91.7699 88.1253 91.9134 87.7744 92C87.4281 92.0911 86.9883 92.1367 86.4551 92.1367ZM93.7764 90.4756C94.0042 90.4756 94.2253 90.4528 94.4395 90.4072C94.6582 90.3617 94.8747 90.3047 95.0889 90.2363V91.7881C94.8656 91.8883 94.5876 91.9704 94.2549 92.0342C93.9268 92.1025 93.5667 92.1367 93.1748 92.1367C92.7191 92.1367 92.3089 92.0638 91.9443 91.918C91.5843 91.7676 91.2995 91.5101 91.0898 91.1455C90.8848 90.7764 90.7822 90.2637 90.7822 89.6074V85.9229H89.7842V85.041L90.9326 84.3438L91.5342 82.7305H92.8672V84.3574H95.0068V85.9229H92.8672V89.6074C92.8672 89.8991 92.9492 90.1178 93.1133 90.2637C93.2819 90.4049 93.5029 90.4756 93.7764 90.4756ZM99.7715 84.2002C100.797 84.2002 101.583 84.4235 102.13 84.8701C102.677 85.3167 102.95 85.9958 102.95 86.9072V92H101.494L101.091 90.9609H101.036C100.817 91.2344 100.594 91.4577 100.366 91.6309C100.138 91.804 99.8763 91.9316 99.5801 92.0137C99.2839 92.0957 98.9238 92.1367 98.5 92.1367C98.0488 92.1367 97.6432 92.0501 97.2832 91.877C96.9277 91.7038 96.6475 91.4395 96.4424 91.084C96.2373 90.724 96.1348 90.2682 96.1348 89.7168C96.1348 88.9056 96.4196 88.3086 96.9893 87.9258C97.5589 87.5384 98.4134 87.3242 99.5527 87.2832L100.879 87.2422V86.9072C100.879 86.5062 100.774 86.2122 100.564 86.0254C100.355 85.8385 100.063 85.7451 99.6895 85.7451C99.3203 85.7451 98.958 85.7975 98.6025 85.9023C98.2471 86.0072 97.8916 86.1393 97.5361 86.2988L96.8457 84.8906C97.2513 84.6764 97.7048 84.5078 98.2061 84.3848C98.7119 84.2617 99.2337 84.2002 99.7715 84.2002ZM100.879 88.459L100.072 88.4863C99.3978 88.5046 98.9284 88.6253 98.6641 88.8486C98.4043 89.0719 98.2744 89.3659 98.2744 89.7305C98.2744 90.0495 98.3678 90.2773 98.5547 90.4141C98.7415 90.5462 98.9854 90.6123 99.2861 90.6123C99.7327 90.6123 100.109 90.4801 100.414 90.2158C100.724 89.9515 100.879 89.5755 100.879 89.0879V88.459ZM111.16 92.1367C110.308 92.1367 109.613 91.804 109.075 91.1387C108.542 90.4688 108.275 89.4867 108.275 88.1924C108.275 86.8844 108.547 85.8955 109.089 85.2256C109.631 84.5511 110.34 84.2139 111.215 84.2139C111.579 84.2139 111.901 84.264 112.179 84.3643C112.457 84.4645 112.696 84.599 112.896 84.7676C113.102 84.9362 113.275 85.1253 113.416 85.335H113.484C113.457 85.1891 113.423 84.9749 113.382 84.6924C113.345 84.4053 113.327 84.1113 113.327 83.8105V81.3633H115.419V92H113.819L113.416 91.0088H113.327C113.195 91.2184 113.029 91.4098 112.828 91.583C112.632 91.7516 112.397 91.8861 112.124 91.9863C111.851 92.0866 111.529 92.1367 111.16 92.1367ZM111.892 90.4756C112.461 90.4756 112.862 90.307 113.095 89.9697C113.332 89.6279 113.457 89.1152 113.471 88.4316V88.2061C113.471 87.4632 113.357 86.8958 113.129 86.5039C112.901 86.1074 112.477 85.9092 111.857 85.9092C111.397 85.9092 111.037 86.1074 110.777 86.5039C110.518 86.9004 110.388 87.4723 110.388 88.2197C110.388 88.9671 110.518 89.5299 110.777 89.9082C111.042 90.2865 111.413 90.4756 111.892 90.4756ZM120.73 84.2002C121.756 84.2002 122.542 84.4235 123.089 84.8701C123.636 85.3167 123.909 85.9958 123.909 86.9072V92H122.453L122.05 90.9609H121.995C121.776 91.2344 121.553 91.4577 121.325 91.6309C121.097 91.804 120.835 91.9316 120.539 92.0137C120.243 92.0957 119.883 92.1367 119.459 92.1367C119.008 92.1367 118.602 92.0501 118.242 91.877C117.887 91.7038 117.606 91.4395 117.401 91.084C117.196 90.724 117.094 90.2682 117.094 89.7168C117.094 88.9056 117.379 88.3086 117.948 87.9258C118.518 87.5384 119.372 87.3242 120.512 87.2832L121.838 87.2422V86.9072C121.838 86.5062 121.733 86.2122 121.523 86.0254C121.314 85.8385 121.022 85.7451 120.648 85.7451C120.279 85.7451 119.917 85.7975 119.562 85.9023C119.206 86.0072 118.851 86.1393 118.495 86.2988L117.805 84.8906C118.21 84.6764 118.664 84.5078 119.165 84.3848C119.671 84.2617 120.193 84.2002 120.73 84.2002ZM121.838 88.459L121.031 88.4863C120.357 88.5046 119.887 88.6253 119.623 88.8486C119.363 89.0719 119.233 89.3659 119.233 89.7305C119.233 90.0495 119.327 90.2773 119.514 90.4141C119.701 90.5462 119.944 90.6123 120.245 90.6123C120.692 90.6123 121.068 90.4801 121.373 90.2158C121.683 89.9515 121.838 89.5755 121.838 89.0879V88.459ZM129.282 90.4756C129.51 90.4756 129.731 90.4528 129.945 90.4072C130.164 90.3617 130.381 90.3047 130.595 90.2363V91.7881C130.371 91.8883 130.093 91.9704 129.761 92.0342C129.433 92.1025 129.073 92.1367 128.681 92.1367C128.225 92.1367 127.815 92.0638 127.45 91.918C127.09 91.7676 126.805 91.5101 126.596 91.1455C126.391 90.7764 126.288 90.2637 126.288 89.6074V85.9229H125.29V85.041L126.438 84.3438L127.04 82.7305H128.373V84.3574H130.513V85.9229H128.373V89.6074C128.373 89.8991 128.455 90.1178 128.619 90.2637C128.788 90.4049 129.009 90.4756 129.282 90.4756ZM139.092 88.165C139.092 88.8031 139.005 89.3682 138.832 89.8604C138.663 90.3525 138.415 90.7695 138.087 91.1113C137.763 91.4486 137.371 91.7038 136.911 91.877C136.455 92.0501 135.94 92.1367 135.366 92.1367C134.828 92.1367 134.334 92.0501 133.883 91.877C133.436 91.7038 133.047 91.4486 132.714 91.1113C132.386 90.7695 132.131 90.3525 131.948 89.8604C131.771 89.3682 131.682 88.8031 131.682 88.165C131.682 87.3174 131.832 86.5996 132.133 86.0117C132.434 85.4238 132.862 84.9772 133.418 84.6719C133.974 84.3665 134.637 84.2139 135.407 84.2139C136.123 84.2139 136.756 84.3665 137.308 84.6719C137.864 84.9772 138.299 85.4238 138.613 86.0117C138.932 86.5996 139.092 87.3174 139.092 88.165ZM133.808 88.165C133.808 88.6663 133.862 89.0879 133.972 89.4297C134.081 89.7715 134.252 90.029 134.484 90.2021C134.717 90.3753 135.02 90.4619 135.394 90.4619C135.763 90.4619 136.061 90.3753 136.289 90.2021C136.521 90.029 136.69 89.7715 136.795 89.4297C136.904 89.0879 136.959 88.6663 136.959 88.165C136.959 87.6592 136.904 87.2399 136.795 86.9072C136.69 86.57 136.521 86.3171 136.289 86.1484C136.057 85.9798 135.754 85.8955 135.38 85.8955C134.828 85.8955 134.427 86.0846 134.177 86.4629C133.931 86.8411 133.808 87.4085 133.808 88.165ZM146.146 89.7305C146.146 90.25 146.023 90.6898 145.777 91.0498C145.536 91.4053 145.174 91.6764 144.69 91.8633C144.207 92.0456 143.606 92.1367 142.886 92.1367C142.353 92.1367 141.895 92.1025 141.512 92.0342C141.133 91.9658 140.751 91.8519 140.363 91.6924V89.9697C140.778 90.1566 141.222 90.3115 141.696 90.4346C142.175 90.5531 142.594 90.6123 142.954 90.6123C143.36 90.6123 143.649 90.5531 143.822 90.4346C144 90.3115 144.089 90.152 144.089 89.9561C144.089 89.8285 144.052 89.7145 143.979 89.6143C143.911 89.5094 143.761 89.3932 143.528 89.2656C143.296 89.1335 142.931 88.9626 142.435 88.7529C141.956 88.5524 141.562 88.3496 141.252 88.1445C140.947 87.9395 140.719 87.6979 140.568 87.4199C140.423 87.1374 140.35 86.7796 140.35 86.3467C140.35 85.6403 140.623 85.1094 141.17 84.7539C141.721 84.3939 142.457 84.2139 143.378 84.2139C143.852 84.2139 144.303 84.2617 144.731 84.3574C145.164 84.4531 145.609 84.6058 146.064 84.8154L145.436 86.3193C145.057 86.1553 144.7 86.0208 144.362 85.916C144.03 85.8112 143.69 85.7588 143.344 85.7588C143.038 85.7588 142.808 85.7998 142.653 85.8818C142.498 85.9639 142.421 86.0892 142.421 86.2578C142.421 86.3809 142.46 86.4902 142.537 86.5859C142.619 86.6816 142.774 86.7887 143.002 86.9072C143.234 87.0212 143.574 87.1693 144.021 87.3516C144.453 87.5293 144.829 87.7161 145.148 87.9121C145.467 88.1035 145.714 88.3428 145.887 88.6299C146.06 88.9124 146.146 89.2793 146.146 89.7305Z" fill="black"/>
<path d="M19.4453 119H18.8359V110.979H16.0586V110.434H22.2227V110.979H19.4453V119ZM28.2988 112.631V119H27.8184L27.7305 117.852H27.6953C27.5859 118.086 27.4316 118.299 27.2324 118.49C27.0332 118.682 26.7891 118.834 26.5 118.947C26.2109 119.061 25.875 119.117 25.4922 119.117C25.0039 119.117 24.5938 119.033 24.2617 118.865C23.9336 118.693 23.6855 118.436 23.5176 118.092C23.3496 117.748 23.2656 117.318 23.2656 116.803V112.631H23.8574V116.744C23.8574 117.381 24 117.85 24.2852 118.15C24.5742 118.451 24.9961 118.602 25.5508 118.602C26.0195 118.602 26.4121 118.512 26.7285 118.332C27.0488 118.152 27.291 117.881 27.4551 117.518C27.623 117.15 27.707 116.693 27.707 116.146V112.631H28.2988ZM37.5391 117.33C37.5391 117.709 37.4434 118.033 37.252 118.303C37.0645 118.568 36.7891 118.771 36.4258 118.912C36.0625 119.049 35.6152 119.117 35.084 119.117C34.6426 119.117 34.248 119.078 33.9004 119C33.5527 118.922 33.2617 118.826 33.0273 118.713V118.127C33.3203 118.271 33.6445 118.389 34 118.479C34.3555 118.568 34.7207 118.613 35.0957 118.613C35.752 118.613 36.2246 118.502 36.5137 118.279C36.8027 118.057 36.9473 117.752 36.9473 117.365C36.9473 117.111 36.875 116.902 36.7305 116.738C36.5898 116.57 36.3867 116.426 36.1211 116.305C35.8555 116.184 35.5352 116.061 35.1602 115.936C34.7695 115.803 34.4219 115.672 34.1172 115.543C33.8164 115.41 33.5801 115.236 33.4082 115.021C33.2363 114.803 33.1504 114.506 33.1504 114.131C33.1504 113.619 33.3555 113.221 33.7656 112.936C34.1758 112.65 34.7266 112.508 35.418 112.508C35.8008 112.508 36.1562 112.545 36.4844 112.619C36.8164 112.689 37.1172 112.781 37.3867 112.895L37.1758 113.398C36.9336 113.285 36.6543 113.193 36.3379 113.123C36.0215 113.053 35.7051 113.018 35.3887 113.018C34.8691 113.018 34.4629 113.109 34.1699 113.293C33.877 113.477 33.7305 113.746 33.7305 114.102C33.7305 114.375 33.8008 114.59 33.9414 114.746C34.082 114.898 34.2832 115.027 34.5449 115.133C34.8066 115.234 35.1172 115.348 35.4766 115.473C35.8477 115.602 36.1895 115.736 36.502 115.877C36.8184 116.018 37.0703 116.199 37.2578 116.422C37.4453 116.645 37.5391 116.947 37.5391 117.33ZM41.5586 112.508C42.1016 112.508 42.5527 112.635 42.9121 112.889C43.2754 113.143 43.5449 113.49 43.7207 113.932C43.9004 114.373 43.9902 114.879 43.9902 115.449V115.877H39.3906C39.3906 116.752 39.5918 117.424 39.9941 117.893C40.4004 118.361 40.9805 118.596 41.7344 118.596C42.1289 118.596 42.4707 118.564 42.7598 118.502C43.0527 118.436 43.377 118.324 43.7324 118.168V118.713C43.4199 118.854 43.1074 118.955 42.7949 119.018C42.4824 119.084 42.123 119.117 41.7168 119.117C41.0723 119.117 40.5312 118.984 40.0938 118.719C39.6602 118.449 39.332 118.07 39.1094 117.582C38.8906 117.094 38.7812 116.523 38.7812 115.871C38.7812 115.234 38.8867 114.662 39.0977 114.154C39.3125 113.646 39.625 113.246 40.0352 112.953C40.4492 112.656 40.957 112.508 41.5586 112.508ZM41.5527 113.018C40.9434 113.018 40.4492 113.221 40.0703 113.627C39.6953 114.029 39.4746 114.611 39.4082 115.373H43.375C43.375 114.908 43.3086 114.498 43.1758 114.143C43.043 113.787 42.8418 113.512 42.5723 113.316C42.3066 113.117 41.9668 113.018 41.5527 113.018ZM48.5488 112.508C49.2637 112.508 49.8125 112.695 50.1953 113.07C50.5781 113.445 50.7695 114.033 50.7695 114.834V119H50.1836V114.869C50.1836 114.236 50.0391 113.771 49.75 113.475C49.4609 113.178 49.041 113.029 48.4902 113.029C47.791 113.029 47.2559 113.234 46.8848 113.645C46.5176 114.051 46.334 114.666 46.334 115.49V119H45.7422V112.631H46.2227L46.3105 113.791H46.3457C46.459 113.553 46.6133 113.338 46.8086 113.146C47.0078 112.951 47.252 112.797 47.541 112.684C47.8301 112.566 48.166 112.508 48.5488 112.508ZM56.8164 117.33C56.8164 117.709 56.7207 118.033 56.5293 118.303C56.3418 118.568 56.0664 118.771 55.7031 118.912C55.3398 119.049 54.8926 119.117 54.3613 119.117C53.9199 119.117 53.5254 119.078 53.1777 119C52.8301 118.922 52.5391 118.826 52.3047 118.713V118.127C52.5977 118.271 52.9219 118.389 53.2773 118.479C53.6328 118.568 53.998 118.613 54.373 118.613C55.0293 118.613 55.502 118.502 55.791 118.279C56.0801 118.057 56.2246 117.752 56.2246 117.365C56.2246 117.111 56.1523 116.902 56.0078 116.738C55.8672 116.57 55.6641 116.426 55.3984 116.305C55.1328 116.184 54.8125 116.061 54.4375 115.936C54.0469 115.803 53.6992 115.672 53.3945 115.543C53.0938 115.41 52.8574 115.236 52.6855 115.021C52.5137 114.803 52.4277 114.506 52.4277 114.131C52.4277 113.619 52.6328 113.221 53.043 112.936C53.4531 112.65 54.0039 112.508 54.6953 112.508C55.0781 112.508 55.4336 112.545 55.7617 112.619C56.0938 112.689 56.3945 112.781 56.6641 112.895L56.4531 113.398C56.2109 113.285 55.9316 113.193 55.6152 113.123C55.2988 113.053 54.9824 113.018 54.666 113.018C54.1465 113.018 53.7402 113.109 53.4473 113.293C53.1543 113.477 53.0078 113.746 53.0078 114.102C53.0078 114.375 53.0781 114.59 53.2188 114.746C53.3594 114.898 53.5605 115.027 53.8223 115.133C54.084 115.234 54.3945 115.348 54.7539 115.473C55.125 115.602 55.4668 115.736 55.7793 115.877C56.0957 116.018 56.3477 116.199 56.5352 116.422C56.7227 116.645 56.8164 116.947 56.8164 117.33ZM63.707 115.807C63.707 116.299 63.6465 116.748 63.5254 117.154C63.4043 117.557 63.2246 117.904 62.9863 118.197C62.748 118.49 62.4512 118.717 62.0957 118.877C61.7441 119.037 61.334 119.117 60.8652 119.117C60.4199 119.117 60.0234 119.039 59.6758 118.883C59.3281 118.723 59.0332 118.496 58.791 118.203C58.5527 117.91 58.3711 117.562 58.2461 117.16C58.1211 116.754 58.0586 116.303 58.0586 115.807C58.0586 115.123 58.1719 114.535 58.3984 114.043C58.6289 113.547 58.957 113.168 59.3828 112.906C59.8125 112.641 60.3262 112.508 60.9238 112.508C61.541 112.508 62.0547 112.648 62.4648 112.93C62.8789 113.207 63.1895 113.594 63.3965 114.09C63.6035 114.586 63.707 115.158 63.707 115.807ZM58.668 115.807C58.668 116.365 58.748 116.854 58.9082 117.271C59.0684 117.689 59.3105 118.016 59.6348 118.25C59.9629 118.484 60.377 118.602 60.877 118.602C61.3887 118.602 61.8086 118.484 62.1367 118.25C62.4648 118.016 62.707 117.688 62.8633 117.266C63.0195 116.844 63.0977 116.357 63.0977 115.807C63.0977 115.271 63.0234 114.795 62.875 114.377C62.7266 113.959 62.4922 113.631 62.1719 113.393C61.8516 113.15 61.4336 113.029 60.918 113.029C60.1797 113.029 59.6191 113.275 59.2363 113.768C58.8574 114.26 58.668 114.939 58.668 115.807ZM68.002 112.52C68.1699 112.52 68.3281 112.529 68.4766 112.549C68.625 112.568 68.7637 112.596 68.8926 112.631L68.7988 113.176C68.6699 113.141 68.5391 113.115 68.4062 113.1C68.2734 113.08 68.1309 113.07 67.9785 113.07C67.6777 113.07 67.4082 113.127 67.1699 113.24C66.9355 113.354 66.7363 113.516 66.5723 113.727C66.4082 113.938 66.2832 114.191 66.1973 114.488C66.1113 114.785 66.0684 115.117 66.0684 115.484V119H65.4707V112.631H65.9805L66.0391 113.832H66.0742C66.1719 113.586 66.3086 113.365 66.4844 113.17C66.6641 112.971 66.8809 112.812 67.1348 112.695C67.3887 112.578 67.6777 112.52 68.002 112.52ZM75.6719 112.508C76.2148 112.508 76.666 112.635 77.0254 112.889C77.3887 113.143 77.6582 113.49 77.834 113.932C78.0137 114.373 78.1035 114.879 78.1035 115.449V115.877H73.5039C73.5039 116.752 73.7051 117.424 74.1074 117.893C74.5137 118.361 75.0938 118.596 75.8477 118.596C76.2422 118.596 76.584 118.564 76.873 118.502C77.166 118.436 77.4902 118.324 77.8457 118.168V118.713C77.5332 118.854 77.2207 118.955 76.9082 119.018C76.5957 119.084 76.2363 119.117 75.8301 119.117C75.1855 119.117 74.6445 118.984 74.207 118.719C73.7734 118.449 73.4453 118.07 73.2227 117.582C73.0039 117.094 72.8945 116.523 72.8945 115.871C72.8945 115.234 73 114.662 73.2109 114.154C73.4258 113.646 73.7383 113.246 74.1484 112.953C74.5625 112.656 75.0703 112.508 75.6719 112.508ZM75.666 113.018C75.0566 113.018 74.5625 113.221 74.1836 113.627C73.8086 114.029 73.5879 114.611 73.5215 115.373H77.4883C77.4883 114.908 77.4219 114.498 77.2891 114.143C77.1562 113.787 76.9551 113.512 76.6855 113.316C76.4199 113.117 76.0801 113.018 75.666 113.018ZM82.6621 112.508C83.377 112.508 83.9258 112.695 84.3086 113.07C84.6914 113.445 84.8828 114.033 84.8828 114.834V119H84.2969V114.869C84.2969 114.236 84.1523 113.771 83.8633 113.475C83.5742 113.178 83.1543 113.029 82.6035 113.029C81.9043 113.029 81.3691 113.234 80.998 113.645C80.6309 114.051 80.4473 114.666 80.4473 115.49V119H79.8555V112.631H80.3359L80.4238 113.791H80.459C80.5723 113.553 80.7266 113.338 80.9219 113.146C81.1211 112.951 81.3652 112.797 81.6543 112.684C81.9434 112.566 82.2793 112.508 82.6621 112.508ZM88.334 119L85.8906 112.631H86.5176L88.1523 116.973C88.2539 117.234 88.3438 117.486 88.4219 117.729C88.5039 117.967 88.5723 118.184 88.627 118.379H88.6562C88.7188 118.184 88.7891 117.965 88.8672 117.723C88.9492 117.48 89.0391 117.23 89.1367 116.973L90.7715 112.631H91.4043L88.9551 119H88.334ZM93.0566 119H92.4648V112.631H93.0566V119ZM94.4746 109.807V109.906C94.3809 110.031 94.2656 110.174 94.1289 110.334C93.9922 110.49 93.8438 110.652 93.6836 110.82C93.5234 110.988 93.3613 111.15 93.1973 111.307C93.0332 111.463 92.875 111.604 92.7227 111.729H92.3008V111.629C92.457 111.473 92.6289 111.287 92.8164 111.072C93.0039 110.854 93.1816 110.633 93.3496 110.41C93.5215 110.184 93.6621 109.982 93.7715 109.807H94.4746ZM97.4102 112.52C98.1094 112.52 98.6328 112.695 98.9805 113.047C99.3281 113.398 99.502 113.959 99.502 114.729V119H99.0449L98.9395 117.887H98.9043C98.7676 118.125 98.6016 118.338 98.4062 118.525C98.2109 118.709 97.9707 118.854 97.6855 118.959C97.4043 119.064 97.0605 119.117 96.6543 119.117C96.2441 119.117 95.8926 119.049 95.5996 118.912C95.3105 118.775 95.0859 118.576 94.9258 118.314C94.7695 118.053 94.6914 117.734 94.6914 117.359C94.6914 116.727 94.9531 116.246 95.4766 115.918C96 115.586 96.752 115.398 97.7324 115.355L98.916 115.297V114.834C98.916 114.182 98.7871 113.717 98.5293 113.439C98.2715 113.162 97.8906 113.023 97.3867 113.023C97.0586 113.023 96.7422 113.066 96.4375 113.152C96.1367 113.234 95.8301 113.354 95.5176 113.51L95.3301 113.018C95.6348 112.873 95.9609 112.754 96.3086 112.66C96.6602 112.566 97.0273 112.52 97.4102 112.52ZM98.9102 115.76L97.7969 115.807C96.9883 115.846 96.373 115.99 95.9512 116.24C95.5293 116.49 95.3184 116.865 95.3184 117.365C95.3184 117.768 95.4434 118.076 95.6934 118.291C95.9473 118.506 96.2988 118.613 96.748 118.613C97.4473 118.613 97.9805 118.414 98.3477 118.016C98.7188 117.617 98.9062 117.074 98.9102 116.387V115.76ZM111.238 112.508C111.852 112.508 112.336 112.686 112.691 113.041C113.047 113.396 113.225 113.957 113.225 114.723V119H112.645V114.746C112.645 114.156 112.51 113.723 112.24 113.445C111.971 113.168 111.615 113.029 111.174 113.029C110.568 113.029 110.094 113.207 109.75 113.562C109.41 113.914 109.24 114.469 109.24 115.227V119H108.654V114.746C108.654 114.352 108.592 114.029 108.467 113.779C108.346 113.525 108.176 113.338 107.957 113.217C107.738 113.092 107.48 113.029 107.184 113.029C106.789 113.029 106.447 113.111 106.158 113.275C105.869 113.436 105.646 113.686 105.49 114.025C105.334 114.361 105.256 114.789 105.256 115.309V119H104.664V112.631H105.145L105.232 113.674H105.268C105.373 113.467 105.514 113.275 105.689 113.1C105.865 112.924 106.082 112.781 106.34 112.672C106.602 112.562 106.908 112.508 107.26 112.508C107.717 112.508 108.104 112.611 108.42 112.818C108.74 113.021 108.963 113.324 109.088 113.727H109.129C109.301 113.344 109.566 113.045 109.926 112.83C110.289 112.615 110.727 112.508 111.238 112.508ZM117.684 112.508C118.227 112.508 118.678 112.635 119.037 112.889C119.4 113.143 119.67 113.49 119.846 113.932C120.025 114.373 120.115 114.879 120.115 115.449V115.877H115.516C115.516 116.752 115.717 117.424 116.119 117.893C116.525 118.361 117.105 118.596 117.859 118.596C118.254 118.596 118.596 118.564 118.885 118.502C119.178 118.436 119.502 118.324 119.857 118.168V118.713C119.545 118.854 119.232 118.955 118.92 119.018C118.607 119.084 118.248 119.117 117.842 119.117C117.197 119.117 116.656 118.984 116.219 118.719C115.785 118.449 115.457 118.07 115.234 117.582C115.016 117.094 114.906 116.523 114.906 115.871C114.906 115.234 115.012 114.662 115.223 114.154C115.438 113.646 115.75 113.246 116.16 112.953C116.574 112.656 117.082 112.508 117.684 112.508ZM117.678 113.018C117.068 113.018 116.574 113.221 116.195 113.627C115.82 114.029 115.6 114.611 115.533 115.373H119.5C119.5 114.908 119.434 114.498 119.301 114.143C119.168 113.787 118.967 113.512 118.697 113.316C118.432 113.117 118.092 113.018 117.678 113.018ZM124.176 119.117C123.305 119.117 122.641 118.844 122.184 118.297C121.73 117.746 121.504 116.945 121.504 115.895C121.504 114.793 121.744 113.953 122.225 113.375C122.705 112.797 123.375 112.508 124.234 112.508C124.602 112.508 124.92 112.564 125.189 112.678C125.463 112.791 125.691 112.945 125.875 113.141C126.062 113.332 126.207 113.551 126.309 113.797H126.355C126.34 113.59 126.328 113.367 126.32 113.129C126.312 112.891 126.309 112.672 126.309 112.473V109.883H126.9V119H126.42L126.344 117.834H126.309C126.203 118.068 126.057 118.283 125.869 118.479C125.686 118.674 125.455 118.83 125.178 118.947C124.9 119.061 124.566 119.117 124.176 119.117ZM124.24 118.602C124.99 118.602 125.523 118.369 125.84 117.904C126.156 117.436 126.314 116.768 126.314 115.9V115.807C126.314 114.908 126.156 114.221 125.84 113.744C125.523 113.264 125.008 113.023 124.293 113.023C123.586 113.023 123.045 113.27 122.67 113.762C122.299 114.254 122.113 114.969 122.113 115.906C122.113 116.789 122.287 117.459 122.635 117.916C122.986 118.373 123.521 118.602 124.24 118.602ZM129.607 112.631V119H129.016V112.631H129.607ZM129.32 110.275C129.469 110.275 129.578 110.32 129.648 110.41C129.719 110.496 129.754 110.613 129.754 110.762C129.754 110.91 129.719 111.027 129.648 111.113C129.578 111.199 129.469 111.242 129.32 111.242C129.18 111.242 129.074 111.199 129.004 111.113C128.934 111.027 128.898 110.91 128.898 110.762C128.898 110.613 128.934 110.496 129.004 110.41C129.074 110.32 129.18 110.275 129.32 110.275ZM134.289 119.117C133.656 119.117 133.121 118.986 132.684 118.725C132.25 118.459 131.922 118.082 131.699 117.594C131.48 117.102 131.371 116.52 131.371 115.848C131.371 115.148 131.498 114.551 131.752 114.055C132.006 113.555 132.363 113.172 132.824 112.906C133.285 112.641 133.826 112.508 134.447 112.508C134.752 112.508 135.035 112.535 135.297 112.59C135.559 112.645 135.795 112.721 136.006 112.818L135.848 113.34C135.629 113.242 135.396 113.168 135.15 113.117C134.904 113.066 134.668 113.041 134.441 113.041C133.918 113.041 133.473 113.156 133.105 113.387C132.742 113.613 132.463 113.938 132.268 114.359C132.076 114.777 131.98 115.271 131.98 115.842C131.98 116.377 132.062 116.852 132.227 117.266C132.391 117.676 132.643 118 132.982 118.238C133.322 118.473 133.758 118.59 134.289 118.59C134.598 118.59 134.891 118.559 135.168 118.496C135.449 118.434 135.705 118.354 135.936 118.256V118.795C135.729 118.889 135.488 118.965 135.215 119.023C134.945 119.086 134.637 119.117 134.289 119.117ZM138.033 112.631V119H137.441V112.631H138.033ZM137.746 110.275C137.895 110.275 138.004 110.32 138.074 110.41C138.145 110.496 138.18 110.613 138.18 110.762C138.18 110.91 138.145 111.027 138.074 111.113C138.004 111.199 137.895 111.242 137.746 111.242C137.605 111.242 137.5 111.199 137.43 111.113C137.359 111.027 137.324 110.91 137.324 110.762C137.324 110.613 137.359 110.496 137.43 110.41C137.5 110.32 137.605 110.275 137.746 110.275ZM145.445 115.807C145.445 116.299 145.385 116.748 145.264 117.154C145.143 117.557 144.963 117.904 144.725 118.197C144.486 118.49 144.189 118.717 143.834 118.877C143.482 119.037 143.072 119.117 142.604 119.117C142.158 119.117 141.762 119.039 141.414 118.883C141.066 118.723 140.771 118.496 140.529 118.203C140.291 117.91 140.109 117.562 139.984 117.16C139.859 116.754 139.797 116.303 139.797 115.807C139.797 115.123 139.91 114.535 140.137 114.043C140.367 113.547 140.695 113.168 141.121 112.906C141.551 112.641 142.064 112.508 142.662 112.508C143.279 112.508 143.793 112.648 144.203 112.93C144.617 113.207 144.928 113.594 145.135 114.09C145.342 114.586 145.445 115.158 145.445 115.807ZM140.406 115.807C140.406 116.365 140.486 116.854 140.646 117.271C140.807 117.689 141.049 118.016 141.373 118.25C141.701 118.484 142.115 118.602 142.615 118.602C143.127 118.602 143.547 118.484 143.875 118.25C144.203 118.016 144.445 117.688 144.602 117.266C144.758 116.844 144.836 116.357 144.836 115.807C144.836 115.271 144.762 114.795 144.613 114.377C144.465 113.959 144.23 113.631 143.91 113.393C143.59 113.15 143.172 113.029 142.656 113.029C141.918 113.029 141.357 113.275 140.975 113.768C140.596 114.26 140.406 114.939 140.406 115.807ZM150.01 112.508C150.725 112.508 151.273 112.695 151.656 113.07C152.039 113.445 152.23 114.033 152.23 114.834V119H151.645V114.869C151.645 114.236 151.5 113.771 151.211 113.475C150.922 113.178 150.502 113.029 149.951 113.029C149.252 113.029 148.717 113.234 148.346 113.645C147.979 114.051 147.795 114.666 147.795 115.49V119H147.203V112.631H147.684L147.771 113.791H147.807C147.92 113.553 148.074 113.338 148.27 113.146C148.469 112.951 148.713 112.797 149.002 112.684C149.291 112.566 149.627 112.508 150.01 112.508ZM156.707 112.508C157.25 112.508 157.701 112.635 158.061 112.889C158.424 113.143 158.693 113.49 158.869 113.932C159.049 114.373 159.139 114.879 159.139 115.449V115.877H154.539C154.539 116.752 154.74 117.424 155.143 117.893C155.549 118.361 156.129 118.596 156.883 118.596C157.277 118.596 157.619 118.564 157.908 118.502C158.201 118.436 158.525 118.324 158.881 118.168V118.713C158.568 118.854 158.256 118.955 157.943 119.018C157.631 119.084 157.271 119.117 156.865 119.117C156.221 119.117 155.68 118.984 155.242 118.719C154.809 118.449 154.48 118.07 154.258 117.582C154.039 117.094 153.93 116.523 153.93 115.871C153.93 115.234 154.035 114.662 154.246 114.154C154.461 113.646 154.773 113.246 155.184 112.953C155.598 112.656 156.105 112.508 156.707 112.508ZM156.701 113.018C156.092 113.018 155.598 113.221 155.219 113.627C154.844 114.029 154.623 114.611 154.557 115.373H158.523C158.523 114.908 158.457 114.498 158.324 114.143C158.191 113.787 157.99 113.512 157.721 113.316C157.455 113.117 157.115 113.018 156.701 113.018ZM164.875 117.33C164.875 117.709 164.779 118.033 164.588 118.303C164.4 118.568 164.125 118.771 163.762 118.912C163.398 119.049 162.951 119.117 162.42 119.117C161.979 119.117 161.584 119.078 161.236 119C160.889 118.922 160.598 118.826 160.363 118.713V118.127C160.656 118.271 160.98 118.389 161.336 118.479C161.691 118.568 162.057 118.613 162.432 118.613C163.088 118.613 163.561 118.502 163.85 118.279C164.139 118.057 164.283 117.752 164.283 117.365C164.283 117.111 164.211 116.902 164.066 116.738C163.926 116.57 163.723 116.426 163.457 116.305C163.191 116.184 162.871 116.061 162.496 115.936C162.105 115.803 161.758 115.672 161.453 115.543C161.152 115.41 160.916 115.236 160.744 115.021C160.572 114.803 160.486 114.506 160.486 114.131C160.486 113.619 160.691 113.221 161.102 112.936C161.512 112.65 162.062 112.508 162.754 112.508C163.137 112.508 163.492 112.545 163.82 112.619C164.152 112.689 164.453 112.781 164.723 112.895L164.512 113.398C164.27 113.285 163.99 113.193 163.674 113.123C163.357 113.053 163.041 113.018 162.725 113.018C162.205 113.018 161.799 113.109 161.506 113.293C161.213 113.477 161.066 113.746 161.066 114.102C161.066 114.375 161.137 114.59 161.277 114.746C161.418 114.898 161.619 115.027 161.881 115.133C162.143 115.234 162.453 115.348 162.812 115.473C163.184 115.602 163.525 115.736 163.838 115.877C164.154 116.018 164.406 116.199 164.594 116.422C164.781 116.645 164.875 116.947 164.875 117.33ZM171.285 121.883C170.484 121.883 169.861 121.729 169.416 121.42C168.975 121.111 168.754 120.68 168.754 120.125C168.754 119.695 168.889 119.324 169.158 119.012C169.428 118.703 169.793 118.518 170.254 118.455C170.07 118.369 169.92 118.252 169.803 118.104C169.689 117.955 169.633 117.783 169.633 117.588C169.633 117.369 169.701 117.166 169.838 116.979C169.975 116.787 170.18 116.611 170.453 116.451C170.086 116.318 169.797 116.094 169.586 115.777C169.375 115.457 169.27 115.072 169.27 114.623C169.27 114.193 169.361 113.82 169.545 113.504C169.729 113.188 169.988 112.943 170.324 112.771C170.664 112.596 171.064 112.508 171.525 112.508C171.666 112.508 171.793 112.512 171.906 112.52C172.023 112.527 172.131 112.541 172.229 112.561C172.326 112.576 172.414 112.598 172.492 112.625H174.549V113.047L173.236 113.135C173.408 113.342 173.537 113.566 173.623 113.809C173.709 114.047 173.752 114.299 173.752 114.564C173.752 115.197 173.553 115.699 173.154 116.07C172.756 116.441 172.201 116.627 171.49 116.627C171.295 116.627 171.104 116.609 170.916 116.574C170.678 116.715 170.496 116.857 170.371 117.002C170.246 117.143 170.184 117.318 170.184 117.529C170.184 117.662 170.223 117.771 170.301 117.857C170.379 117.939 170.492 118.004 170.641 118.051C170.789 118.094 170.971 118.115 171.186 118.115H172.305C172.996 118.115 173.525 118.256 173.893 118.537C174.26 118.818 174.443 119.232 174.443 119.779C174.443 120.447 174.168 120.965 173.617 121.332C173.07 121.699 172.293 121.883 171.285 121.883ZM171.326 121.385C171.885 121.385 172.35 121.324 172.721 121.203C173.096 121.082 173.377 120.902 173.564 120.664C173.752 120.43 173.846 120.139 173.846 119.791C173.846 119.506 173.777 119.285 173.641 119.129C173.504 118.973 173.311 118.865 173.061 118.807C172.811 118.744 172.516 118.713 172.176 118.713H171.109C170.77 118.713 170.467 118.76 170.201 118.854C169.936 118.943 169.729 119.088 169.58 119.287C169.436 119.486 169.363 119.752 169.363 120.084C169.363 120.51 169.529 120.832 169.861 121.051C170.197 121.273 170.686 121.385 171.326 121.385ZM171.514 116.152C172.041 116.152 172.445 116.02 172.727 115.754C173.008 115.488 173.148 115.104 173.148 114.6C173.148 114.061 173.004 113.656 172.715 113.387C172.426 113.117 172.021 112.982 171.502 112.982C170.998 112.982 170.602 113.127 170.312 113.416C170.027 113.701 169.885 114.104 169.885 114.623C169.885 115.107 170.021 115.484 170.295 115.754C170.568 116.02 170.975 116.152 171.514 116.152ZM178.246 112.508C178.789 112.508 179.24 112.635 179.6 112.889C179.963 113.143 180.232 113.49 180.408 113.932C180.588 114.373 180.678 114.879 180.678 115.449V115.877H176.078C176.078 116.752 176.279 117.424 176.682 117.893C177.088 118.361 177.668 118.596 178.422 118.596C178.816 118.596 179.158 118.564 179.447 118.502C179.74 118.436 180.064 118.324 180.42 118.168V118.713C180.107 118.854 179.795 118.955 179.482 119.018C179.17 119.084 178.811 119.117 178.404 119.117C177.76 119.117 177.219 118.984 176.781 118.719C176.348 118.449 176.02 118.07 175.797 117.582C175.578 117.094 175.469 116.523 175.469 115.871C175.469 115.234 175.574 114.662 175.785 114.154C176 113.646 176.312 113.246 176.723 112.953C177.137 112.656 177.645 112.508 178.246 112.508ZM178.24 113.018C177.631 113.018 177.137 113.221 176.758 113.627C176.383 114.029 176.162 114.611 176.096 115.373H180.062C180.062 114.908 179.996 114.498 179.863 114.143C179.73 113.787 179.529 113.512 179.26 113.316C178.994 113.117 178.654 113.018 178.24 113.018ZM187.715 115.807C187.715 116.299 187.654 116.748 187.533 117.154C187.412 117.557 187.232 117.904 186.994 118.197C186.756 118.49 186.459 118.717 186.104 118.877C185.752 119.037 185.342 119.117 184.873 119.117C184.428 119.117 184.031 119.039 183.684 118.883C183.336 118.723 183.041 118.496 182.799 118.203C182.561 117.91 182.379 117.562 182.254 117.16C182.129 116.754 182.066 116.303 182.066 115.807C182.066 115.123 182.18 114.535 182.406 114.043C182.637 113.547 182.965 113.168 183.391 112.906C183.82 112.641 184.334 112.508 184.932 112.508C185.549 112.508 186.062 112.648 186.473 112.93C186.887 113.207 187.197 113.594 187.404 114.09C187.611 114.586 187.715 115.158 187.715 115.807ZM182.676 115.807C182.676 116.365 182.756 116.854 182.916 117.271C183.076 117.689 183.318 118.016 183.643 118.25C183.971 118.484 184.385 118.602 184.885 118.602C185.396 118.602 185.816 118.484 186.145 118.25C186.473 118.016 186.715 117.688 186.871 117.266C187.027 116.844 187.105 116.357 187.105 115.807C187.105 115.271 187.031 114.795 186.883 114.377C186.734 113.959 186.5 113.631 186.18 113.393C185.859 113.15 185.441 113.029 184.926 113.029C184.188 113.029 183.627 113.275 183.244 113.768C182.865 114.26 182.676 114.939 182.676 115.807ZM192.297 112.508C193.117 112.508 193.752 112.783 194.201 113.334C194.654 113.885 194.881 114.697 194.881 115.771C194.881 116.49 194.773 117.1 194.559 117.6C194.344 118.096 194.037 118.473 193.639 118.73C193.244 118.988 192.77 119.117 192.215 119.117C191.832 119.117 191.498 119.061 191.213 118.947C190.932 118.83 190.697 118.674 190.51 118.479C190.322 118.279 190.178 118.061 190.076 117.822H190.035C190.047 118.045 190.057 118.277 190.064 118.52C190.072 118.762 190.076 118.99 190.076 119.205V121.818H189.479V112.631H189.971L190.041 113.902H190.076C190.182 113.66 190.33 113.432 190.521 113.217C190.713 113.002 190.955 112.83 191.248 112.701C191.541 112.572 191.891 112.508 192.297 112.508ZM192.221 113.029C191.74 113.029 191.34 113.135 191.02 113.346C190.703 113.553 190.467 113.857 190.311 114.26C190.158 114.658 190.08 115.146 190.076 115.725V115.824C190.076 116.445 190.152 116.963 190.305 117.377C190.461 117.787 190.693 118.094 191.002 118.297C191.314 118.5 191.701 118.602 192.162 118.602C192.615 118.602 192.998 118.49 193.311 118.268C193.623 118.045 193.861 117.723 194.025 117.301C194.189 116.879 194.271 116.367 194.271 115.766C194.271 114.871 194.1 114.191 193.756 113.727C193.416 113.262 192.904 113.029 192.221 113.029ZM201.906 115.807C201.906 116.299 201.846 116.748 201.725 117.154C201.604 117.557 201.424 117.904 201.186 118.197C200.947 118.49 200.65 118.717 200.295 118.877C199.943 119.037 199.533 119.117 199.064 119.117C198.619 119.117 198.223 119.039 197.875 118.883C197.527 118.723 197.232 118.496 196.99 118.203C196.752 117.91 196.57 117.562 196.445 117.16C196.32 116.754 196.258 116.303 196.258 115.807C196.258 115.123 196.371 114.535 196.598 114.043C196.828 113.547 197.156 113.168 197.582 112.906C198.012 112.641 198.525 112.508 199.123 112.508C199.74 112.508 200.254 112.648 200.664 112.93C201.078 113.207 201.389 113.594 201.596 114.09C201.803 114.586 201.906 115.158 201.906 115.807ZM196.867 115.807C196.867 116.365 196.947 116.854 197.107 117.271C197.268 117.689 197.51 118.016 197.834 118.25C198.162 118.484 198.576 118.602 199.076 118.602C199.588 118.602 200.008 118.484 200.336 118.25C200.664 118.016 200.906 117.688 201.062 117.266C201.219 116.844 201.297 116.357 201.297 115.807C201.297 115.271 201.223 114.795 201.074 114.377C200.926 113.959 200.691 113.631 200.371 113.393C200.051 113.15 199.633 113.029 199.117 113.029C198.379 113.029 197.818 113.275 197.436 113.768C197.057 114.26 196.867 114.939 196.867 115.807ZM207.648 117.33C207.648 117.709 207.553 118.033 207.361 118.303C207.174 118.568 206.898 118.771 206.535 118.912C206.172 119.049 205.725 119.117 205.193 119.117C204.752 119.117 204.357 119.078 204.01 119C203.662 118.922 203.371 118.826 203.137 118.713V118.127C203.43 118.271 203.754 118.389 204.109 118.479C204.465 118.568 204.83 118.613 205.205 118.613C205.861 118.613 206.334 118.502 206.623 118.279C206.912 118.057 207.057 117.752 207.057 117.365C207.057 117.111 206.984 116.902 206.84 116.738C206.699 116.57 206.496 116.426 206.23 116.305C205.965 116.184 205.645 116.061 205.27 115.936C204.879 115.803 204.531 115.672 204.227 115.543C203.926 115.41 203.689 115.236 203.518 115.021C203.346 114.803 203.26 114.506 203.26 114.131C203.26 113.619 203.465 113.221 203.875 112.936C204.285 112.65 204.836 112.508 205.527 112.508C205.91 112.508 206.266 112.545 206.594 112.619C206.926 112.689 207.227 112.781 207.496 112.895L207.285 113.398C207.043 113.285 206.764 113.193 206.447 113.123C206.131 113.053 205.814 113.018 205.498 113.018C204.979 113.018 204.572 113.109 204.279 113.293C203.986 113.477 203.84 113.746 203.84 114.102C203.84 114.375 203.91 114.59 204.051 114.746C204.191 114.898 204.393 115.027 204.654 115.133C204.916 115.234 205.227 115.348 205.586 115.473C205.957 115.602 206.299 115.736 206.611 115.877C206.928 116.018 207.18 116.199 207.367 116.422C207.555 116.645 207.648 116.947 207.648 117.33ZM209.846 112.631V119H209.254V112.631H209.846ZM209.559 110.275C209.707 110.275 209.816 110.32 209.887 110.41C209.957 110.496 209.992 110.613 209.992 110.762C209.992 110.91 209.957 111.027 209.887 111.113C209.816 111.199 209.707 111.242 209.559 111.242C209.418 111.242 209.312 111.199 209.242 111.113C209.172 111.027 209.137 110.91 209.137 110.762C209.137 110.613 209.172 110.496 209.242 110.41C209.312 110.32 209.418 110.275 209.559 110.275ZM214.527 119.117C213.895 119.117 213.359 118.986 212.922 118.725C212.488 118.459 212.16 118.082 211.938 117.594C211.719 117.102 211.609 116.52 211.609 115.848C211.609 115.148 211.736 114.551 211.99 114.055C212.244 113.555 212.602 113.172 213.062 112.906C213.523 112.641 214.064 112.508 214.686 112.508C214.99 112.508 215.273 112.535 215.535 112.59C215.797 112.645 216.033 112.721 216.244 112.818L216.086 113.34C215.867 113.242 215.635 113.168 215.389 113.117C215.143 113.066 214.906 113.041 214.68 113.041C214.156 113.041 213.711 113.156 213.344 113.387C212.98 113.613 212.701 113.938 212.506 114.359C212.314 114.777 212.219 115.271 212.219 115.842C212.219 116.377 212.301 116.852 212.465 117.266C212.629 117.676 212.881 118 213.221 118.238C213.561 118.473 213.996 118.59 214.527 118.59C214.836 118.59 215.129 118.559 215.406 118.496C215.688 118.434 215.943 118.354 216.174 118.256V118.795C215.967 118.889 215.727 118.965 215.453 119.023C215.184 119.086 214.875 119.117 214.527 119.117ZM218.271 112.631V119H217.68V112.631H218.271ZM217.984 110.275C218.133 110.275 218.242 110.32 218.312 110.41C218.383 110.496 218.418 110.613 218.418 110.762C218.418 110.91 218.383 111.027 218.312 111.113C218.242 111.199 218.133 111.242 217.984 111.242C217.844 111.242 217.738 111.199 217.668 111.113C217.598 111.027 217.562 110.91 217.562 110.762C217.562 110.613 217.598 110.496 217.668 110.41C217.738 110.32 217.844 110.275 217.984 110.275ZM225.684 115.807C225.684 116.299 225.623 116.748 225.502 117.154C225.381 117.557 225.201 117.904 224.963 118.197C224.725 118.49 224.428 118.717 224.072 118.877C223.721 119.037 223.311 119.117 222.842 119.117C222.396 119.117 222 119.039 221.652 118.883C221.305 118.723 221.01 118.496 220.768 118.203C220.529 117.91 220.348 117.562 220.223 117.16C220.098 116.754 220.035 116.303 220.035 115.807C220.035 115.123 220.148 114.535 220.375 114.043C220.605 113.547 220.934 113.168 221.359 112.906C221.789 112.641 222.303 112.508 222.9 112.508C223.518 112.508 224.031 112.648 224.441 112.93C224.855 113.207 225.166 113.594 225.373 114.09C225.58 114.586 225.684 115.158 225.684 115.807ZM220.645 115.807C220.645 116.365 220.725 116.854 220.885 117.271C221.045 117.689 221.287 118.016 221.611 118.25C221.939 118.484 222.354 118.602 222.854 118.602C223.365 118.602 223.785 118.484 224.113 118.25C224.441 118.016 224.684 117.688 224.84 117.266C224.996 116.844 225.074 116.357 225.074 115.807C225.074 115.271 225 114.795 224.852 114.377C224.703 113.959 224.469 113.631 224.148 113.393C223.828 113.15 223.41 113.029 222.895 113.029C222.156 113.029 221.596 113.275 221.213 113.768C220.834 114.26 220.645 114.939 220.645 115.807ZM230.248 112.508C230.963 112.508 231.512 112.695 231.895 113.07C232.277 113.445 232.469 114.033 232.469 114.834V119H231.883V114.869C231.883 114.236 231.738 113.771 231.449 113.475C231.16 113.178 230.74 113.029 230.189 113.029C229.49 113.029 228.955 113.234 228.584 113.645C228.217 114.051 228.033 114.666 228.033 115.49V119H227.441V112.631H227.922L228.01 113.791H228.045C228.158 113.553 228.312 113.338 228.508 113.146C228.707 112.951 228.951 112.797 229.24 112.684C229.529 112.566 229.865 112.508 230.248 112.508ZM236.758 112.52C237.457 112.52 237.98 112.695 238.328 113.047C238.676 113.398 238.85 113.959 238.85 114.729V119H238.393L238.287 117.887H238.252C238.115 118.125 237.949 118.338 237.754 118.525C237.559 118.709 237.318 118.854 237.033 118.959C236.752 119.064 236.408 119.117 236.002 119.117C235.592 119.117 235.24 119.049 234.947 118.912C234.658 118.775 234.434 118.576 234.273 118.314C234.117 118.053 234.039 117.734 234.039 117.359C234.039 116.727 234.301 116.246 234.824 115.918C235.348 115.586 236.1 115.398 237.08 115.355L238.264 115.297V114.834C238.264 114.182 238.135 113.717 237.877 113.439C237.619 113.162 237.238 113.023 236.734 113.023C236.406 113.023 236.09 113.066 235.785 113.152C235.484 113.234 235.178 113.354 234.865 113.51L234.678 113.018C234.982 112.873 235.309 112.754 235.656 112.66C236.008 112.566 236.375 112.52 236.758 112.52ZM238.258 115.76L237.145 115.807C236.336 115.846 235.721 115.99 235.299 116.24C234.877 116.49 234.666 116.865 234.666 117.365C234.666 117.768 234.791 118.076 235.041 118.291C235.295 118.506 235.646 118.613 236.096 118.613C236.795 118.613 237.328 118.414 237.695 118.016C238.066 117.617 238.254 117.074 238.258 116.387V115.76ZM243.203 119.117C242.332 119.117 241.668 118.844 241.211 118.297C240.758 117.746 240.531 116.945 240.531 115.895C240.531 114.793 240.771 113.953 241.252 113.375C241.732 112.797 242.402 112.508 243.262 112.508C243.629 112.508 243.947 112.564 244.217 112.678C244.49 112.791 244.719 112.945 244.902 113.141C245.09 113.332 245.234 113.551 245.336 113.797H245.383C245.367 113.59 245.355 113.367 245.348 113.129C245.34 112.891 245.336 112.672 245.336 112.473V109.883H245.928V119H245.447L245.371 117.834H245.336C245.23 118.068 245.084 118.283 244.896 118.479C244.713 118.674 244.482 118.83 244.205 118.947C243.928 119.061 243.594 119.117 243.203 119.117ZM243.268 118.602C244.018 118.602 244.551 118.369 244.867 117.904C245.184 117.436 245.342 116.768 245.342 115.9V115.807C245.342 114.908 245.184 114.221 244.867 113.744C244.551 113.264 244.035 113.023 243.32 113.023C242.613 113.023 242.072 113.27 241.697 113.762C241.326 114.254 241.141 114.969 241.141 115.906C241.141 116.789 241.314 117.459 241.662 117.916C242.014 118.373 242.549 118.602 243.268 118.602ZM250.27 112.52C250.969 112.52 251.492 112.695 251.84 113.047C252.188 113.398 252.361 113.959 252.361 114.729V119H251.904L251.799 117.887H251.764C251.627 118.125 251.461 118.338 251.266 118.525C251.07 118.709 250.83 118.854 250.545 118.959C250.264 119.064 249.92 119.117 249.514 119.117C249.104 119.117 248.752 119.049 248.459 118.912C248.17 118.775 247.945 118.576 247.785 118.314C247.629 118.053 247.551 117.734 247.551 117.359C247.551 116.727 247.812 116.246 248.336 115.918C248.859 115.586 249.611 115.398 250.592 115.355L251.775 115.297V114.834C251.775 114.182 251.646 113.717 251.389 113.439C251.131 113.162 250.75 113.023 250.246 113.023C249.918 113.023 249.602 113.066 249.297 113.152C248.996 113.234 248.689 113.354 248.377 113.51L248.189 113.018C248.494 112.873 248.82 112.754 249.168 112.66C249.52 112.566 249.887 112.52 250.27 112.52ZM251.77 115.76L250.656 115.807C249.848 115.846 249.232 115.99 248.811 116.24C248.389 116.49 248.178 116.865 248.178 117.365C248.178 117.768 248.303 118.076 248.553 118.291C248.807 118.506 249.158 118.613 249.607 118.613C250.307 118.613 250.84 118.414 251.207 118.016C251.578 117.617 251.766 117.074 251.77 116.387V115.76ZM258.391 117.33C258.391 117.709 258.295 118.033 258.104 118.303C257.916 118.568 257.641 118.771 257.277 118.912C256.914 119.049 256.467 119.117 255.936 119.117C255.494 119.117 255.1 119.078 254.752 119C254.404 118.922 254.113 118.826 253.879 118.713V118.127C254.172 118.271 254.496 118.389 254.852 118.479C255.207 118.568 255.572 118.613 255.947 118.613C256.604 118.613 257.076 118.502 257.365 118.279C257.654 118.057 257.799 117.752 257.799 117.365C257.799 117.111 257.727 116.902 257.582 116.738C257.441 116.57 257.238 116.426 256.973 116.305C256.707 116.184 256.387 116.061 256.012 115.936C255.621 115.803 255.273 115.672 254.969 115.543C254.668 115.41 254.432 115.236 254.26 115.021C254.088 114.803 254.002 114.506 254.002 114.131C254.002 113.619 254.207 113.221 254.617 112.936C255.027 112.65 255.578 112.508 256.27 112.508C256.652 112.508 257.008 112.545 257.336 112.619C257.668 112.689 257.969 112.781 258.238 112.895L258.027 113.398C257.785 113.285 257.506 113.193 257.189 113.123C256.873 113.053 256.557 113.018 256.24 113.018C255.721 113.018 255.314 113.109 255.021 113.293C254.729 113.477 254.582 113.746 254.582 114.102C254.582 114.375 254.652 114.59 254.793 114.746C254.934 114.898 255.135 115.027 255.396 115.133C255.658 115.234 255.969 115.348 256.328 115.473C256.699 115.602 257.041 115.736 257.354 115.877C257.67 116.018 257.922 116.199 258.109 116.422C258.297 116.645 258.391 116.947 258.391 117.33ZM19.4688 128.508C20.0117 128.508 20.4629 128.635 20.8223 128.889C21.1855 129.143 21.4551 129.49 21.6309 129.932C21.8105 130.373 21.9004 130.879 21.9004 131.449V131.877H17.3008C17.3008 132.752 17.502 133.424 17.9043 133.893C18.3105 134.361 18.8906 134.596 19.6445 134.596C20.0391 134.596 20.3809 134.564 20.6699 134.502C20.9629 134.436 21.2871 134.324 21.6426 134.168V134.713C21.3301 134.854 21.0176 134.955 20.7051 135.018C20.3926 135.084 20.0332 135.117 19.627 135.117C18.9824 135.117 18.4414 134.984 18.0039 134.719C17.5703 134.449 17.2422 134.07 17.0195 133.582C16.8008 133.094 16.6914 132.523 16.6914 131.871C16.6914 131.234 16.7969 130.662 17.0078 130.154C17.2227 129.646 17.5352 129.246 17.9453 128.953C18.3594 128.656 18.8672 128.508 19.4688 128.508ZM19.4629 129.018C18.8535 129.018 18.3594 129.221 17.9805 129.627C17.6055 130.029 17.3848 130.611 17.3184 131.373H21.2852C21.2852 130.908 21.2188 130.498 21.0859 130.143C20.9531 129.787 20.752 129.512 20.4824 129.316C20.2168 129.117 19.877 129.018 19.4629 129.018ZM26.459 128.508C27.1738 128.508 27.7227 128.695 28.1055 129.07C28.4883 129.445 28.6797 130.033 28.6797 130.834V135H28.0938V130.869C28.0938 130.236 27.9492 129.771 27.6602 129.475C27.3711 129.178 26.9512 129.029 26.4004 129.029C25.7012 129.029 25.166 129.234 24.7949 129.645C24.4277 130.051 24.2441 130.666 24.2441 131.49V135H23.6523V128.631H24.1328L24.2207 129.791H24.2559C24.3691 129.553 24.5234 129.338 24.7188 129.146C24.918 128.951 25.1621 128.797 25.4512 128.684C25.7402 128.566 26.0762 128.508 26.459 128.508ZM35.582 134.607C35.7656 134.607 35.9355 134.594 36.0918 134.566C36.252 134.539 36.3926 134.504 36.5137 134.461V134.953C36.3887 134.996 36.2422 135.033 36.0742 135.064C35.9062 135.1 35.7207 135.117 35.5176 135.117C35.1582 135.117 34.8594 135.051 34.6211 134.918C34.3828 134.781 34.2031 134.576 34.082 134.303C33.9609 134.025 33.9004 133.674 33.9004 133.248V129.123H32.9512V128.771L33.8945 128.59L34.0996 127.09H34.4922V128.631H36.4785V129.123H34.4922V133.213C34.4922 133.67 34.5762 134.018 34.7441 134.256C34.916 134.49 35.1953 134.607 35.582 134.607ZM38.4707 128.631V135H37.8789V128.631H38.4707ZM38.1836 126.275C38.332 126.275 38.4414 126.32 38.5117 126.41C38.582 126.496 38.6172 126.613 38.6172 126.762C38.6172 126.91 38.582 127.027 38.5117 127.113C38.4414 127.199 38.332 127.242 38.1836 127.242C38.043 127.242 37.9375 127.199 37.8672 127.113C37.7969 127.027 37.7617 126.91 37.7617 126.762C37.7617 126.613 37.7969 126.496 37.8672 126.41C37.9375 126.32 38.043 126.275 38.1836 126.275ZM43.0117 128.508C43.5547 128.508 44.0059 128.635 44.3652 128.889C44.7285 129.143 44.998 129.49 45.1738 129.932C45.3535 130.373 45.4434 130.879 45.4434 131.449V131.877H40.8438C40.8438 132.752 41.0449 133.424 41.4473 133.893C41.8535 134.361 42.4336 134.596 43.1875 134.596C43.582 134.596 43.9238 134.564 44.2129 134.502C44.5059 134.436 44.8301 134.324 45.1855 134.168V134.713C44.873 134.854 44.5605 134.955 44.248 135.018C43.9355 135.084 43.5762 135.117 43.1699 135.117C42.5254 135.117 41.9844 134.984 41.5469 134.719C41.1133 134.449 40.7852 134.07 40.5625 133.582C40.3438 133.094 40.2344 132.523 40.2344 131.871C40.2344 131.234 40.3398 130.662 40.5508 130.154C40.7656 129.646 41.0781 129.246 41.4883 128.953C41.9023 128.656 42.4102 128.508 43.0117 128.508ZM43.0059 129.018C42.3965 129.018 41.9023 129.221 41.5234 129.627C41.1484 130.029 40.9277 130.611 40.8613 131.373H44.8281C44.8281 130.908 44.7617 130.498 44.6289 130.143C44.4961 129.787 44.2949 129.512 44.0254 129.316C43.7598 129.117 43.4199 129.018 43.0059 129.018ZM53.7695 128.508C54.3828 128.508 54.8672 128.686 55.2227 129.041C55.5781 129.396 55.7559 129.957 55.7559 130.723V135H55.1758V130.746C55.1758 130.156 55.041 129.723 54.7715 129.445C54.502 129.168 54.1465 129.029 53.7051 129.029C53.0996 129.029 52.625 129.207 52.2812 129.562C51.9414 129.914 51.7715 130.469 51.7715 131.227V135H51.1855V130.746C51.1855 130.352 51.123 130.029 50.998 129.779C50.877 129.525 50.707 129.338 50.4883 129.217C50.2695 129.092 50.0117 129.029 49.7148 129.029C49.3203 129.029 48.9785 129.111 48.6895 129.275C48.4004 129.436 48.1777 129.686 48.0215 130.025C47.8652 130.361 47.7871 130.789 47.7871 131.309V135H47.1953V128.631H47.6758L47.7637 129.674H47.7988C47.9043 129.467 48.0449 129.275 48.2207 129.1C48.3965 128.924 48.6133 128.781 48.8711 128.672C49.1328 128.562 49.4395 128.508 49.791 128.508C50.248 128.508 50.6348 128.611 50.9512 128.818C51.2715 129.021 51.4941 129.324 51.6191 129.727H51.6602C51.832 129.344 52.0977 129.045 52.457 128.83C52.8203 128.615 53.2578 128.508 53.7695 128.508ZM60.625 128.508C61.4453 128.508 62.0801 128.783 62.5293 129.334C62.9824 129.885 63.209 130.697 63.209 131.771C63.209 132.49 63.1016 133.1 62.8867 133.6C62.6719 134.096 62.3652 134.473 61.9668 134.73C61.5723 134.988 61.0977 135.117 60.543 135.117C60.1602 135.117 59.8262 135.061 59.541 134.947C59.2598 134.83 59.0254 134.674 58.8379 134.479C58.6504 134.279 58.5059 134.061 58.4043 133.822H58.3633C58.375 134.045 58.3848 134.277 58.3926 134.52C58.4004 134.762 58.4043 134.99 58.4043 135.205V137.818H57.8066V128.631H58.2988L58.3691 129.902H58.4043C58.5098 129.66 58.6582 129.432 58.8496 129.217C59.041 129.002 59.2832 128.83 59.5762 128.701C59.8691 128.572 60.2188 128.508 60.625 128.508ZM60.5488 129.029C60.0684 129.029 59.668 129.135 59.3477 129.346C59.0312 129.553 58.7949 129.857 58.6387 130.26C58.4863 130.658 58.4082 131.146 58.4043 131.725V131.824C58.4043 132.445 58.4805 132.963 58.6328 133.377C58.7891 133.787 59.0215 134.094 59.3301 134.297C59.6426 134.5 60.0293 134.602 60.4902 134.602C60.9434 134.602 61.3262 134.49 61.6387 134.268C61.9512 134.045 62.1895 133.723 62.3535 133.301C62.5176 132.879 62.5996 132.367 62.5996 131.766C62.5996 130.871 62.4277 130.191 62.084 129.727C61.7441 129.262 61.2324 129.029 60.5488 129.029ZM70.2344 131.807C70.2344 132.299 70.1738 132.748 70.0527 133.154C69.9316 133.557 69.752 133.904 69.5137 134.197C69.2754 134.49 68.9785 134.717 68.623 134.877C68.2715 135.037 67.8613 135.117 67.3926 135.117C66.9473 135.117 66.5508 135.039 66.2031 134.883C65.8555 134.723 65.5605 134.496 65.3184 134.203C65.0801 133.91 64.8984 133.562 64.7734 133.16C64.6484 132.754 64.5859 132.303 64.5859 131.807C64.5859 131.123 64.6992 130.535 64.9258 130.043C65.1562 129.547 65.4844 129.168 65.9102 128.906C66.3398 128.641 66.8535 128.508 67.4512 128.508C68.0684 128.508 68.582 128.648 68.9922 128.93C69.4062 129.207 69.7168 129.594 69.9238 130.09C70.1309 130.586 70.2344 131.158 70.2344 131.807ZM65.1953 131.807C65.1953 132.365 65.2754 132.854 65.4355 133.271C65.5957 133.689 65.8379 134.016 66.1621 134.25C66.4902 134.484 66.9043 134.602 67.4043 134.602C67.916 134.602 68.3359 134.484 68.6641 134.25C68.9922 134.016 69.2344 133.688 69.3906 133.266C69.5469 132.844 69.625 132.357 69.625 131.807C69.625 131.271 69.5508 130.795 69.4023 130.377C69.2539 129.959 69.0195 129.631 68.6992 129.393C68.3789 129.15 67.9609 129.029 67.4453 129.029C66.707 129.029 66.1465 129.275 65.7637 129.768C65.3848 130.26 65.1953 130.939 65.1953 131.807ZM77.6465 128.52C77.8145 128.52 77.9727 128.529 78.1211 128.549C78.2695 128.568 78.4082 128.596 78.5371 128.631L78.4434 129.176C78.3145 129.141 78.1836 129.115 78.0508 129.1C77.918 129.08 77.7754 129.07 77.623 129.07C77.3223 129.07 77.0527 129.127 76.8145 129.24C76.5801 129.354 76.3809 129.516 76.2168 129.727C76.0527 129.938 75.9277 130.191 75.8418 130.488C75.7559 130.785 75.7129 131.117 75.7129 131.484V135H75.1152V128.631H75.625L75.6836 129.832H75.7188C75.8164 129.586 75.9531 129.365 76.1289 129.17C76.3086 128.971 76.5254 128.812 76.7793 128.695C77.0332 128.578 77.3223 128.52 77.6465 128.52ZM82.1992 128.508C82.7422 128.508 83.1934 128.635 83.5527 128.889C83.916 129.143 84.1855 129.49 84.3613 129.932C84.541 130.373 84.6309 130.879 84.6309 131.449V131.877H80.0312C80.0312 132.752 80.2324 133.424 80.6348 133.893C81.041 134.361 81.6211 134.596 82.375 134.596C82.7695 134.596 83.1113 134.564 83.4004 134.502C83.6934 134.436 84.0176 134.324 84.373 134.168V134.713C84.0605 134.854 83.748 134.955 83.4355 135.018C83.123 135.084 82.7637 135.117 82.3574 135.117C81.7129 135.117 81.1719 134.984 80.7344 134.719C80.3008 134.449 79.9727 134.07 79.75 133.582C79.5312 133.094 79.4219 132.523 79.4219 131.871C79.4219 131.234 79.5273 130.662 79.7383 130.154C79.9531 129.646 80.2656 129.246 80.6758 128.953C81.0898 128.656 81.5977 128.508 82.1992 128.508ZM82.1934 129.018C81.584 129.018 81.0898 129.221 80.7109 129.627C80.3359 130.029 80.1152 130.611 80.0488 131.373H84.0156C84.0156 130.908 83.9492 130.498 83.8164 130.143C83.6836 129.787 83.4824 129.512 83.2129 129.316C82.9473 129.117 82.6074 129.018 82.1934 129.018ZM88.6094 128.52C89.3086 128.52 89.832 128.695 90.1797 129.047C90.5273 129.398 90.7012 129.959 90.7012 130.729V135H90.2441L90.1387 133.887H90.1035C89.9668 134.125 89.8008 134.338 89.6055 134.525C89.4102 134.709 89.1699 134.854 88.8848 134.959C88.6035 135.064 88.2598 135.117 87.8535 135.117C87.4434 135.117 87.0918 135.049 86.7988 134.912C86.5098 134.775 86.2852 134.576 86.125 134.314C85.9688 134.053 85.8906 133.734 85.8906 133.359C85.8906 132.727 86.1523 132.246 86.6758 131.918C87.1992 131.586 87.9512 131.398 88.9316 131.355L90.1152 131.297V130.834C90.1152 130.182 89.9863 129.717 89.7285 129.439C89.4707 129.162 89.0898 129.023 88.5859 129.023C88.2578 129.023 87.9414 129.066 87.6367 129.152C87.3359 129.234 87.0293 129.354 86.7168 129.51L86.5293 129.018C86.834 128.873 87.1602 128.754 87.5078 128.66C87.8594 128.566 88.2266 128.52 88.6094 128.52ZM90.1094 131.76L88.9961 131.807C88.1875 131.846 87.5723 131.99 87.1504 132.24C86.7285 132.49 86.5176 132.865 86.5176 133.365C86.5176 133.768 86.6426 134.076 86.8926 134.291C87.1465 134.506 87.498 134.613 87.9473 134.613C88.6465 134.613 89.1797 134.414 89.5469 134.016C89.918 133.617 90.1055 133.074 90.1094 132.387V131.76ZM93.3496 135H92.752V125.883H93.3496V135ZM100.809 128.52C101.508 128.52 102.031 128.695 102.379 129.047C102.727 129.398 102.9 129.959 102.9 130.729V135H102.443L102.338 133.887H102.303C102.166 134.125 102 134.338 101.805 134.525C101.609 134.709 101.369 134.854 101.084 134.959C100.803 135.064 100.459 135.117 100.053 135.117C99.6426 135.117 99.291 135.049 98.998 134.912C98.709 134.775 98.4844 134.576 98.3242 134.314C98.168 134.053 98.0898 133.734 98.0898 133.359C98.0898 132.727 98.3516 132.246 98.875 131.918C99.3984 131.586 100.15 131.398 101.131 131.355L102.314 131.297V130.834C102.314 130.182 102.186 129.717 101.928 129.439C101.67 129.162 101.289 129.023 100.785 129.023C100.457 129.023 100.141 129.066 99.8359 129.152C99.5352 129.234 99.2285 129.354 98.916 129.51L98.7285 129.018C99.0332 128.873 99.3594 128.754 99.707 128.66C100.059 128.566 100.426 128.52 100.809 128.52ZM102.309 131.76L101.195 131.807C100.387 131.846 99.7715 131.99 99.3496 132.24C98.9277 132.49 98.7168 132.865 98.7168 133.365C98.7168 133.768 98.8418 134.076 99.0918 134.291C99.3457 134.506 99.6973 134.613 100.146 134.613C100.846 134.613 101.379 134.414 101.746 134.016C102.117 133.617 102.305 133.074 102.309 132.387V131.76ZM110.869 128.508C111.584 128.508 112.133 128.695 112.516 129.07C112.898 129.445 113.09 130.033 113.09 130.834V135H112.504V130.869C112.504 130.236 112.359 129.771 112.07 129.475C111.781 129.178 111.361 129.029 110.811 129.029C110.111 129.029 109.576 129.234 109.205 129.645C108.838 130.051 108.654 130.666 108.654 131.49V135H108.062V128.631H108.543L108.631 129.791H108.666C108.779 129.553 108.934 129.338 109.129 129.146C109.328 128.951 109.572 128.797 109.861 128.684C110.15 128.566 110.486 128.508 110.869 128.508ZM120.104 128.631V135H119.623L119.535 133.852H119.5C119.391 134.086 119.236 134.299 119.037 134.49C118.838 134.682 118.594 134.834 118.305 134.947C118.016 135.061 117.68 135.117 117.297 135.117C116.809 135.117 116.398 135.033 116.066 134.865C115.738 134.693 115.49 134.436 115.322 134.092C115.154 133.748 115.07 133.318 115.07 132.803V128.631H115.662V132.744C115.662 133.381 115.805 133.85 116.09 134.15C116.379 134.451 116.801 134.602 117.355 134.602C117.824 134.602 118.217 134.512 118.533 134.332C118.854 134.152 119.096 133.881 119.26 133.518C119.428 133.15 119.512 132.693 119.512 132.146V128.631H120.104ZM124.656 128.508C125.199 128.508 125.65 128.635 126.01 128.889C126.373 129.143 126.643 129.49 126.818 129.932C126.998 130.373 127.088 130.879 127.088 131.449V131.877H122.488C122.488 132.752 122.689 133.424 123.092 133.893C123.498 134.361 124.078 134.596 124.832 134.596C125.227 134.596 125.568 134.564 125.857 134.502C126.15 134.436 126.475 134.324 126.83 134.168V134.713C126.518 134.854 126.205 134.955 125.893 135.018C125.58 135.084 125.221 135.117 124.814 135.117C124.17 135.117 123.629 134.984 123.191 134.719C122.758 134.449 122.43 134.07 122.207 133.582C121.988 133.094 121.879 132.523 121.879 131.871C121.879 131.234 121.984 130.662 122.195 130.154C122.41 129.646 122.723 129.246 123.133 128.953C123.547 128.656 124.055 128.508 124.656 128.508ZM124.65 129.018C124.041 129.018 123.547 129.221 123.168 129.627C122.793 130.029 122.572 130.611 122.506 131.373H126.473C126.473 130.908 126.406 130.498 126.273 130.143C126.141 129.787 125.939 129.512 125.67 129.316C125.404 129.117 125.064 129.018 124.65 129.018ZM132.824 133.33C132.824 133.709 132.729 134.033 132.537 134.303C132.35 134.568 132.074 134.771 131.711 134.912C131.348 135.049 130.9 135.117 130.369 135.117C129.928 135.117 129.533 135.078 129.186 135C128.838 134.922 128.547 134.826 128.312 134.713V134.127C128.605 134.271 128.93 134.389 129.285 134.479C129.641 134.568 130.006 134.613 130.381 134.613C131.037 134.613 131.51 134.502 131.799 134.279C132.088 134.057 132.232 133.752 132.232 133.365C132.232 133.111 132.16 132.902 132.016 132.738C131.875 132.57 131.672 132.426 131.406 132.305C131.141 132.184 130.82 132.061 130.445 131.936C130.055 131.803 129.707 131.672 129.402 131.543C129.102 131.41 128.865 131.236 128.693 131.021C128.521 130.803 128.436 130.506 128.436 130.131C128.436 129.619 128.641 129.221 129.051 128.936C129.461 128.65 130.012 128.508 130.703 128.508C131.086 128.508 131.441 128.545 131.77 128.619C132.102 128.689 132.402 128.781 132.672 128.895L132.461 129.398C132.219 129.285 131.939 129.193 131.623 129.123C131.307 129.053 130.99 129.018 130.674 129.018C130.154 129.018 129.748 129.109 129.455 129.293C129.162 129.477 129.016 129.746 129.016 130.102C129.016 130.375 129.086 130.59 129.227 130.746C129.367 130.898 129.568 131.027 129.83 131.133C130.092 131.234 130.402 131.348 130.762 131.473C131.133 131.602 131.475 131.736 131.787 131.877C132.104 132.018 132.355 132.199 132.543 132.422C132.73 132.645 132.824 132.947 132.824 133.33ZM136.152 134.607C136.336 134.607 136.506 134.594 136.662 134.566C136.822 134.539 136.963 134.504 137.084 134.461V134.953C136.959 134.996 136.812 135.033 136.645 135.064C136.477 135.1 136.291 135.117 136.088 135.117C135.729 135.117 135.43 135.051 135.191 134.918C134.953 134.781 134.773 134.576 134.652 134.303C134.531 134.025 134.471 133.674 134.471 133.248V129.123H133.521V128.771L134.465 128.59L134.67 127.09H135.062V128.631H137.049V129.123H135.062V133.213C135.062 133.67 135.146 134.018 135.314 134.256C135.486 134.49 135.766 134.607 136.152 134.607ZM140.986 128.52C141.154 128.52 141.312 128.529 141.461 128.549C141.609 128.568 141.748 128.596 141.877 128.631L141.783 129.176C141.654 129.141 141.523 129.115 141.391 129.1C141.258 129.08 141.115 129.07 140.963 129.07C140.662 129.07 140.393 129.127 140.154 129.24C139.92 129.354 139.721 129.516 139.557 129.727C139.393 129.938 139.268 130.191 139.182 130.488C139.096 130.785 139.053 131.117 139.053 131.484V135H138.455V128.631H138.965L139.023 129.832H139.059C139.156 129.586 139.293 129.365 139.469 129.17C139.648 128.971 139.865 128.812 140.119 128.695C140.373 128.578 140.662 128.52 140.986 128.52ZM148.41 131.807C148.41 132.299 148.35 132.748 148.229 133.154C148.107 133.557 147.928 133.904 147.689 134.197C147.451 134.49 147.154 134.717 146.799 134.877C146.447 135.037 146.037 135.117 145.568 135.117C145.123 135.117 144.727 135.039 144.379 134.883C144.031 134.723 143.736 134.496 143.494 134.203C143.256 133.91 143.074 133.562 142.949 133.16C142.824 132.754 142.762 132.303 142.762 131.807C142.762 131.123 142.875 130.535 143.102 130.043C143.332 129.547 143.66 129.168 144.086 128.906C144.516 128.641 145.029 128.508 145.627 128.508C146.244 128.508 146.758 128.648 147.168 128.93C147.582 129.207 147.893 129.594 148.1 130.09C148.307 130.586 148.41 131.158 148.41 131.807ZM143.371 131.807C143.371 132.365 143.451 132.854 143.611 133.271C143.771 133.689 144.014 134.016 144.338 134.25C144.666 134.484 145.08 134.602 145.58 134.602C146.092 134.602 146.512 134.484 146.84 134.25C147.168 134.016 147.41 133.688 147.566 133.266C147.723 132.844 147.801 132.357 147.801 131.807C147.801 131.271 147.727 130.795 147.578 130.377C147.43 129.959 147.195 129.631 146.875 129.393C146.555 129.15 146.137 129.029 145.621 129.029C144.883 129.029 144.322 129.275 143.939 129.768C143.561 130.26 143.371 130.939 143.371 131.807ZM157.27 133.33C157.27 133.709 157.174 134.033 156.982 134.303C156.795 134.568 156.52 134.771 156.156 134.912C155.793 135.049 155.346 135.117 154.814 135.117C154.373 135.117 153.979 135.078 153.631 135C153.283 134.922 152.992 134.826 152.758 134.713V134.127C153.051 134.271 153.375 134.389 153.73 134.479C154.086 134.568 154.451 134.613 154.826 134.613C155.482 134.613 155.955 134.502 156.244 134.279C156.533 134.057 156.678 133.752 156.678 133.365C156.678 133.111 156.605 132.902 156.461 132.738C156.32 132.57 156.117 132.426 155.852 132.305C155.586 132.184 155.266 132.061 154.891 131.936C154.5 131.803 154.152 131.672 153.848 131.543C153.547 131.41 153.311 131.236 153.139 131.021C152.967 130.803 152.881 130.506 152.881 130.131C152.881 129.619 153.086 129.221 153.496 128.936C153.906 128.65 154.457 128.508 155.148 128.508C155.531 128.508 155.887 128.545 156.215 128.619C156.547 128.689 156.848 128.781 157.117 128.895L156.906 129.398C156.664 129.285 156.385 129.193 156.068 129.123C155.752 129.053 155.436 129.018 155.119 129.018C154.6 129.018 154.193 129.109 153.9 129.293C153.607 129.477 153.461 129.746 153.461 130.102C153.461 130.375 153.531 130.59 153.672 130.746C153.812 130.898 154.014 131.027 154.275 131.133C154.537 131.234 154.848 131.348 155.207 131.473C155.578 131.602 155.92 131.736 156.232 131.877C156.549 132.018 156.801 132.199 156.988 132.422C157.176 132.645 157.27 132.947 157.27 133.33ZM161.289 128.508C161.832 128.508 162.283 128.635 162.643 128.889C163.006 129.143 163.275 129.49 163.451 129.932C163.631 130.373 163.721 130.879 163.721 131.449V131.877H159.121C159.121 132.752 159.322 133.424 159.725 133.893C160.131 134.361 160.711 134.596 161.465 134.596C161.859 134.596 162.201 134.564 162.49 134.502C162.783 134.436 163.107 134.324 163.463 134.168V134.713C163.15 134.854 162.838 134.955 162.525 135.018C162.213 135.084 161.854 135.117 161.447 135.117C160.803 135.117 160.262 134.984 159.824 134.719C159.391 134.449 159.062 134.07 158.84 133.582C158.621 133.094 158.512 132.523 158.512 131.871C158.512 131.234 158.617 130.662 158.828 130.154C159.043 129.646 159.355 129.246 159.766 128.953C160.18 128.656 160.688 128.508 161.289 128.508ZM161.283 129.018C160.674 129.018 160.18 129.221 159.801 129.627C159.426 130.029 159.205 130.611 159.139 131.373H163.105C163.105 130.908 163.039 130.498 162.906 130.143C162.773 129.787 162.572 129.512 162.303 129.316C162.037 129.117 161.697 129.018 161.283 129.018ZM168.01 128.52C168.178 128.52 168.336 128.529 168.484 128.549C168.633 128.568 168.771 128.596 168.9 128.631L168.807 129.176C168.678 129.141 168.547 129.115 168.414 129.1C168.281 129.08 168.139 129.07 167.986 129.07C167.686 129.07 167.416 129.127 167.178 129.24C166.943 129.354 166.744 129.516 166.58 129.727C166.416 129.938 166.291 130.191 166.205 130.488C166.119 130.785 166.076 131.117 166.076 131.484V135H165.479V128.631H165.988L166.047 129.832H166.082C166.18 129.586 166.316 129.365 166.492 129.17C166.672 128.971 166.889 128.812 167.143 128.695C167.396 128.578 167.686 128.52 168.01 128.52ZM171.537 135L169.094 128.631H169.721L171.355 132.973C171.457 133.234 171.547 133.486 171.625 133.729C171.707 133.967 171.775 134.184 171.83 134.379H171.859C171.922 134.184 171.992 133.965 172.07 133.723C172.152 133.48 172.242 133.23 172.34 132.973L173.975 128.631H174.607L172.158 135H171.537ZM176.26 128.631V135H175.668V128.631H176.26ZM175.973 126.275C176.121 126.275 176.23 126.32 176.301 126.41C176.371 126.496 176.406 126.613 176.406 126.762C176.406 126.91 176.371 127.027 176.301 127.113C176.23 127.199 176.121 127.242 175.973 127.242C175.832 127.242 175.727 127.199 175.656 127.113C175.586 127.027 175.551 126.91 175.551 126.762C175.551 126.613 175.586 126.496 175.656 126.41C175.727 126.32 175.832 126.275 175.973 126.275ZM180.695 135.117C179.824 135.117 179.16 134.844 178.703 134.297C178.25 133.746 178.023 132.945 178.023 131.895C178.023 130.793 178.264 129.953 178.744 129.375C179.225 128.797 179.895 128.508 180.754 128.508C181.121 128.508 181.439 128.564 181.709 128.678C181.982 128.791 182.211 128.945 182.395 129.141C182.582 129.332 182.727 129.551 182.828 129.797H182.875C182.859 129.59 182.848 129.367 182.84 129.129C182.832 128.891 182.828 128.672 182.828 128.473V125.883H183.42V135H182.939L182.863 133.834H182.828C182.723 134.068 182.576 134.283 182.389 134.479C182.205 134.674 181.975 134.83 181.697 134.947C181.42 135.061 181.086 135.117 180.695 135.117ZM180.76 134.602C181.51 134.602 182.043 134.369 182.359 133.904C182.676 133.436 182.834 132.768 182.834 131.9V131.807C182.834 130.908 182.676 130.221 182.359 129.744C182.043 129.264 181.527 129.023 180.812 129.023C180.105 129.023 179.564 129.27 179.189 129.762C178.818 130.254 178.633 130.969 178.633 131.906C178.633 132.789 178.807 133.459 179.154 133.916C179.506 134.373 180.041 134.602 180.76 134.602ZM190.82 131.807C190.82 132.299 190.76 132.748 190.639 133.154C190.518 133.557 190.338 133.904 190.1 134.197C189.861 134.49 189.564 134.717 189.209 134.877C188.857 135.037 188.447 135.117 187.979 135.117C187.533 135.117 187.137 135.039 186.789 134.883C186.441 134.723 186.146 134.496 185.904 134.203C185.666 133.91 185.484 133.562 185.359 133.16C185.234 132.754 185.172 132.303 185.172 131.807C185.172 131.123 185.285 130.535 185.512 130.043C185.742 129.547 186.07 129.168 186.496 128.906C186.926 128.641 187.439 128.508 188.037 128.508C188.654 128.508 189.168 128.648 189.578 128.93C189.992 129.207 190.303 129.594 190.51 130.09C190.717 130.586 190.82 131.158 190.82 131.807ZM185.781 131.807C185.781 132.365 185.861 132.854 186.021 133.271C186.182 133.689 186.424 134.016 186.748 134.25C187.076 134.484 187.49 134.602 187.99 134.602C188.502 134.602 188.922 134.484 189.25 134.25C189.578 134.016 189.82 133.688 189.977 133.266C190.133 132.844 190.211 132.357 190.211 131.807C190.211 131.271 190.137 130.795 189.988 130.377C189.84 129.959 189.605 129.631 189.285 129.393C188.965 129.15 188.547 129.029 188.031 129.029C187.293 129.029 186.732 129.275 186.35 129.768C185.971 130.26 185.781 130.939 185.781 131.807ZM195.115 128.52C195.283 128.52 195.441 128.529 195.59 128.549C195.738 128.568 195.877 128.596 196.006 128.631L195.912 129.176C195.783 129.141 195.652 129.115 195.52 129.1C195.387 129.08 195.244 129.07 195.092 129.07C194.791 129.07 194.521 129.127 194.283 129.24C194.049 129.354 193.85 129.516 193.686 129.727C193.521 129.938 193.396 130.191 193.311 130.488C193.225 130.785 193.182 131.117 193.182 131.484V135H192.584V128.631H193.094L193.152 129.832H193.188C193.285 129.586 193.422 129.365 193.598 129.17C193.777 128.971 193.994 128.812 194.248 128.695C194.502 128.578 194.791 128.52 195.115 128.52ZM202.926 135.117C202.293 135.117 201.758 134.986 201.32 134.725C200.887 134.459 200.559 134.082 200.336 133.594C200.117 133.102 200.008 132.52 200.008 131.848C200.008 131.148 200.135 130.551 200.389 130.055C200.643 129.555 201 129.172 201.461 128.906C201.922 128.641 202.463 128.508 203.084 128.508C203.389 128.508 203.672 128.535 203.934 128.59C204.195 128.645 204.432 128.721 204.643 128.818L204.484 129.34C204.266 129.242 204.033 129.168 203.787 129.117C203.541 129.066 203.305 129.041 203.078 129.041C202.555 129.041 202.109 129.156 201.742 129.387C201.379 129.613 201.1 129.938 200.904 130.359C200.713 130.777 200.617 131.271 200.617 131.842C200.617 132.377 200.699 132.852 200.863 133.266C201.027 133.676 201.279 134 201.619 134.238C201.959 134.473 202.395 134.59 202.926 134.59C203.234 134.59 203.527 134.559 203.805 134.496C204.086 134.434 204.342 134.354 204.572 134.256V134.795C204.365 134.889 204.125 134.965 203.852 135.023C203.582 135.086 203.273 135.117 202.926 135.117ZM208.492 128.508C209.035 128.508 209.486 128.635 209.846 128.889C210.209 129.143 210.479 129.49 210.654 129.932C210.834 130.373 210.924 130.879 210.924 131.449V131.877H206.324C206.324 132.752 206.525 133.424 206.928 133.893C207.334 134.361 207.914 134.596 208.668 134.596C209.062 134.596 209.404 134.564 209.693 134.502C209.986 134.436 210.311 134.324 210.666 134.168V134.713C210.354 134.854 210.041 134.955 209.729 135.018C209.416 135.084 209.057 135.117 208.65 135.117C208.006 135.117 207.465 134.984 207.027 134.719C206.594 134.449 206.266 134.07 206.043 133.582C205.824 133.094 205.715 132.523 205.715 131.871C205.715 131.234 205.82 130.662 206.031 130.154C206.246 129.646 206.559 129.246 206.969 128.953C207.383 128.656 207.891 128.508 208.492 128.508ZM208.486 129.018C207.877 129.018 207.383 129.221 207.004 129.627C206.629 130.029 206.408 130.611 206.342 131.373H210.309C210.309 130.908 210.242 130.498 210.109 130.143C209.977 129.787 209.775 129.512 209.506 129.316C209.24 129.117 208.9 129.018 208.486 129.018ZM215.482 128.508C216.197 128.508 216.746 128.695 217.129 129.07C217.512 129.445 217.703 130.033 217.703 130.834V135H217.117V130.869C217.117 130.236 216.973 129.771 216.684 129.475C216.395 129.178 215.975 129.029 215.424 129.029C214.725 129.029 214.189 129.234 213.818 129.645C213.451 130.051 213.268 130.666 213.268 131.49V135H212.676V128.631H213.156L213.244 129.791H213.279C213.393 129.553 213.547 129.338 213.742 129.146C213.941 128.951 214.186 128.797 214.475 128.684C214.764 128.566 215.1 128.508 215.482 128.508ZM221.488 134.607C221.672 134.607 221.842 134.594 221.998 134.566C222.158 134.539 222.299 134.504 222.42 134.461V134.953C222.295 134.996 222.148 135.033 221.98 135.064C221.812 135.1 221.627 135.117 221.424 135.117C221.064 135.117 220.766 135.051 220.527 134.918C220.289 134.781 220.109 134.576 219.988 134.303C219.867 134.025 219.807 133.674 219.807 133.248V129.123H218.857V128.771L219.801 128.59L220.006 127.09H220.398V128.631H222.385V129.123H220.398V133.213C220.398 133.67 220.482 134.018 220.65 134.256C220.822 134.49 221.102 134.607 221.488 134.607ZM226.322 128.52C226.49 128.52 226.648 128.529 226.797 128.549C226.945 128.568 227.084 128.596 227.213 128.631L227.119 129.176C226.99 129.141 226.859 129.115 226.727 129.1C226.594 129.08 226.451 129.07 226.299 129.07C225.998 129.07 225.729 129.127 225.49 129.24C225.256 129.354 225.057 129.516 224.893 129.727C224.729 129.938 224.604 130.191 224.518 130.488C224.432 130.785 224.389 131.117 224.389 131.484V135H223.791V128.631H224.301L224.359 129.832H224.395C224.492 129.586 224.629 129.365 224.805 129.17C224.984 128.971 225.201 128.812 225.455 128.695C225.709 128.578 225.998 128.52 226.322 128.52ZM230.688 128.52C231.387 128.52 231.91 128.695 232.258 129.047C232.605 129.398 232.779 129.959 232.779 130.729V135H232.322L232.217 133.887H232.182C232.045 134.125 231.879 134.338 231.684 134.525C231.488 134.709 231.248 134.854 230.963 134.959C230.682 135.064 230.338 135.117 229.932 135.117C229.521 135.117 229.17 135.049 228.877 134.912C228.588 134.775 228.363 134.576 228.203 134.314C228.047 134.053 227.969 133.734 227.969 133.359C227.969 132.727 228.23 132.246 228.754 131.918C229.277 131.586 230.029 131.398 231.01 131.355L232.193 131.297V130.834C232.193 130.182 232.064 129.717 231.807 129.439C231.549 129.162 231.168 129.023 230.664 129.023C230.336 129.023 230.02 129.066 229.715 129.152C229.414 129.234 229.107 129.354 228.795 129.51L228.607 129.018C228.912 128.873 229.238 128.754 229.586 128.66C229.938 128.566 230.305 128.52 230.688 128.52ZM232.188 131.76L231.074 131.807C230.266 131.846 229.65 131.99 229.229 132.24C228.807 132.49 228.596 132.865 228.596 133.365C228.596 133.768 228.721 134.076 228.971 134.291C229.225 134.506 229.576 134.613 230.025 134.613C230.725 134.613 231.258 134.414 231.625 134.016C231.996 133.617 232.184 133.074 232.188 132.387V131.76ZM235.428 135H234.83V125.883H235.428V135ZM237.449 134.584C237.449 134.412 237.488 134.281 237.566 134.191C237.645 134.098 237.76 134.051 237.912 134.051C238.08 134.051 238.203 134.098 238.281 134.191C238.359 134.281 238.398 134.412 238.398 134.584C238.398 134.756 238.359 134.889 238.281 134.982C238.203 135.076 238.08 135.123 237.912 135.123C237.76 135.123 237.645 135.076 237.566 134.982C237.488 134.889 237.449 134.756 237.449 134.584Z" fill="black"/>
<rect x="15" y="14" width="40" height="40" rx="10" fill="#0284C7"/>
<path d="M40.4018 34.8512C39.6595 36.3779 38.6537 37.8988 37.6252 39.2644C36.6484 40.5509 35.6053 41.7841 34.5 42.9587C33.3947 41.7841 32.3516 40.5509 31.3748 39.2644C30.3463 37.8988 29.3405 36.3779 28.5982 34.8512C27.8473 33.3088 27.4167 31.8641 27.4167 30.625C27.4167 28.7188 28.1629 26.8906 29.4913 25.5427C30.8197 24.1948 32.6214 23.4375 34.5 23.4375C36.3786 23.4375 38.1803 24.1948 39.5087 25.5427C40.8371 26.8906 41.5833 28.7188 41.5833 30.625C41.5833 31.8641 41.1512 33.3088 40.4018 34.8512ZM34.5 45C34.5 45 43 36.8264 43 30.625C43 28.3375 42.1045 26.1437 40.5104 24.5262C38.9163 22.9087 36.7543 22 34.5 22C32.2457 22 30.0837 22.9087 28.4896 24.5262C26.8955 26.1437 26 28.3375 26 30.625C26 36.8264 34.5 45 34.5 45Z" fill="white"/>
<path d="M34.5 33.5C33.7044 33.5 32.9413 33.1839 32.3787 32.6213C31.8161 32.0587 31.5 31.2956 31.5 30.5C31.5 29.7044 31.8161 28.9413 32.3787 28.3787C32.9413 27.8161 33.7044 27.5 34.5 27.5C35.2956 27.5 36.0587 27.8161 36.6213 28.3787C37.1839 28.9413 37.5 29.7044 37.5 30.5C37.5 31.2956 37.1839 32.0587 36.6213 32.6213C36.0587 33.1839 35.2956 33.5 34.5 33.5ZM34.5 35C35.6935 35 36.8381 34.5259 37.682 33.682C38.5259 32.8381 39 31.6935 39 30.5C39 29.3065 38.5259 28.1619 37.682 27.318C36.8381 26.4741 35.6935 26 34.5 26C33.3065 26 32.1619 26.4741 31.318 27.318C30.4741 28.1619 30 29.3065 30 30.5C30 31.6935 30.4741 32.8381 31.318 33.682C32.1619 34.5259 33.3065 35 34.5 35Z" fill="white"/>
</svg>
