<svg width="45" height="45" viewBox="0 0 45 45" fill="none" xmlns="http://www.w3.org/2000/svg">
<path d="M24.2574 35.8593C24.2574 36.207 24.1543 36.5468 23.9612 36.8359C23.768 37.125 23.4935 37.3503 23.1723 37.4833C22.8511 37.6164 22.4977 37.6512 22.1567 37.5833C21.8157 37.5155 21.5025 37.3481 21.2567 37.1023C21.0108 36.8564 20.8434 36.5432 20.7756 36.2022C20.7078 35.8613 20.7426 35.5078 20.8756 35.1866C21.0087 34.8654 21.234 34.5909 21.523 34.3977C21.8121 34.2046 22.152 34.1015 22.4996 34.1015C22.9658 34.1015 23.4129 34.2867 23.7426 34.6163C24.0722 34.946 24.2574 35.3931 24.2574 35.8593ZM41.4506 15.5654C36.1073 11.1828 29.4103 8.7876 22.4996 8.7876C15.589 8.7876 8.89189 11.1828 3.54865 15.5654C3.44097 15.6531 3.35169 15.7612 3.28592 15.8836C3.22014 16.0059 3.17918 16.14 3.16538 16.2782C3.15157 16.4164 3.1652 16.556 3.20548 16.6889C3.24576 16.8218 3.3119 16.9455 3.40009 17.0527C3.48828 17.16 3.5968 17.2489 3.71941 17.3141C3.84202 17.3793 3.97631 17.4197 4.11457 17.4329C4.25283 17.4461 4.39234 17.4319 4.52508 17.391C4.65782 17.3502 4.78119 17.2835 4.8881 17.1949C9.85391 13.1225 16.0775 10.8969 22.4996 10.8969C28.9217 10.8969 35.1453 13.1225 40.1111 17.1949C40.2181 17.2835 40.3414 17.3502 40.4742 17.391C40.6069 17.4319 40.7464 17.4461 40.8847 17.4329C41.0229 17.4197 41.1572 17.3793 41.2798 17.3141C41.4024 17.2489 41.511 17.16 41.5992 17.0527C41.6874 16.9455 41.7535 16.8218 41.7938 16.6889C41.834 16.556 41.8477 16.4164 41.8339 16.2782C41.8201 16.14 41.7791 16.0059 41.7133 15.8836C41.6476 15.7612 41.5583 15.6531 41.4506 15.5654ZM35.8115 21.8566C32.0228 18.8569 27.332 17.2248 22.4996 17.2248C17.6672 17.2248 12.9764 18.8569 9.18771 21.8566C8.96836 22.0305 8.82708 22.2844 8.79493 22.5624C8.76279 22.8405 8.84243 23.1199 9.01632 23.3393C9.19021 23.5586 9.44412 23.6999 9.72218 23.7321C10.0002 23.7642 10.2797 23.6846 10.499 23.5107C13.9148 20.807 18.1434 19.336 22.4996 19.336C26.8559 19.336 31.0845 20.807 34.5002 23.5107C34.6879 23.6555 34.9188 23.7329 35.1559 23.7304C35.3748 23.7304 35.5883 23.6623 35.7667 23.5355C35.9452 23.4088 36.0798 23.2296 36.1519 23.0229C36.2239 22.8162 36.2299 22.5922 36.1689 22.3819C36.1079 22.1717 35.983 21.9856 35.8115 21.8495V21.8566ZM30.1514 28.1513C27.9279 26.5339 25.2491 25.6627 22.4996 25.6627C19.7501 25.6627 17.0713 26.5339 14.8479 28.1513C14.6284 28.3184 14.4831 28.5647 14.4431 28.8376C14.4032 29.1105 14.4716 29.3882 14.6339 29.6112C14.7962 29.8342 15.0394 29.9847 15.3114 30.0305C15.5834 30.0764 15.8625 30.0139 16.0889 29.8564C17.9518 28.5014 20.1961 27.7715 22.4996 27.7715C24.8032 27.7715 27.0475 28.5014 28.9104 29.8564C29.1365 30.0209 29.4187 30.0889 29.6949 30.0453C29.9712 30.0018 30.2188 29.8504 30.3834 29.6244C30.5479 29.3982 30.6159 29.116 30.5724 28.8398C30.5289 28.5636 30.3774 28.3159 30.1514 28.1513Z" fill="black" stroke="black" stroke-width="0.5"/>
</svg>
