<svg width="45" height="45" viewBox="0 0 45 45" fill="none" xmlns="http://www.w3.org/2000/svg">
<path d="M24.6091 35.8594C24.6091 36.2766 24.4854 36.6844 24.2536 37.0313C24.0219 37.3782 23.6924 37.6486 23.307 37.8082C22.9216 37.9679 22.4974 38.0096 22.0882 37.9282C21.6791 37.8469 21.3032 37.646 21.0082 37.351C20.7132 37.056 20.5123 36.6801 20.4309 36.2709C20.3495 35.8617 20.3913 35.4376 20.551 35.0522C20.7106 34.6667 20.981 34.3373 21.3279 34.1055C21.6747 33.8737 22.0826 33.75 22.4998 33.75C23.0592 33.75 23.5957 33.9723 23.9913 34.3678C24.3869 34.7634 24.6091 35.3 24.6091 35.8594ZM36.0349 21.5807C32.1841 18.532 27.4166 16.8732 22.505 16.8732C17.5935 16.8732 12.8259 18.532 8.97516 21.5807C8.68285 21.8124 8.49456 22.1507 8.4517 22.5213C8.40885 22.8918 8.51494 23.2642 8.74664 23.5565C8.97834 23.8488 9.31667 24.0371 9.6872 24.0799C10.0577 24.1228 10.4301 24.0167 10.7224 23.785C14.0761 21.1304 18.2279 19.6861 22.505 19.6861C26.7822 19.6861 30.934 21.1304 34.2877 23.785C34.4324 23.8997 34.5983 23.9848 34.7759 24.0355C34.9536 24.0861 35.1394 24.1012 35.3229 24.08C35.5064 24.0588 35.6839 24.0016 35.8452 23.9118C36.0066 23.822 36.1487 23.7012 36.2634 23.5565C36.3782 23.4117 36.4633 23.2458 36.5139 23.0682C36.5645 22.8906 36.5797 22.7047 36.5584 22.5212C36.5372 22.3378 36.4801 22.1603 36.3902 21.9989C36.3004 21.8375 36.1797 21.6954 36.0349 21.5807ZM30.3642 27.8666C28.08 26.2065 25.3288 25.3124 22.505 25.3124C19.6813 25.3124 16.9301 26.2065 14.6459 27.8666C14.3442 28.0862 14.1422 28.4166 14.0842 28.7852C14.0261 29.1537 14.1169 29.5302 14.3365 29.8319C14.5561 30.1335 14.8865 30.3355 15.255 30.3936C15.6236 30.4516 16.0001 30.3608 16.3017 30.1412C18.1044 28.8302 20.2761 28.124 22.505 28.124C24.734 28.124 26.9057 28.8302 28.7084 30.1412C28.8577 30.25 29.027 30.3282 29.2066 30.3715C29.3862 30.4148 29.5726 30.4223 29.7551 30.3936C29.9375 30.3648 30.1126 30.3004 30.2702 30.2041C30.4278 30.1077 30.5649 29.9812 30.6736 29.8319C30.7823 29.6825 30.8606 29.5132 30.9039 29.3336C30.9472 29.154 30.9546 28.9677 30.9259 28.7852C30.8972 28.6027 30.8328 28.4276 30.7364 28.27C30.64 28.1124 30.5136 27.9754 30.3642 27.8666Z" fill="black"/>
</svg>
