<svg width="34" height="35" viewBox="0 0 34 35" fill="none" xmlns="http://www.w3.org/2000/svg">
<g clip-path="url(#clip0_813_414)">
<path d="M1.41699 1.45837L32.5837 33.5417M23.687 16.1292C24.8474 16.7122 25.9325 17.4421 26.917 18.3021M7.08366 18.3021C9.18328 16.495 11.7103 15.2924 14.4078 14.8167M15.1728 7.36462C18.2079 7.11287 21.2612 7.4932 24.1503 8.4829C27.0395 9.47261 29.7053 11.0514 31.9887 13.125M2.01199 13.125C3.97714 11.3369 6.2304 9.91558 8.67033 8.92504M12.0845 23.4938C13.5227 22.442 15.2432 21.8769 17.0074 21.8769C18.7716 21.8769 20.4921 22.442 21.9303 23.4938M17.0003 29.1667H17.0145" stroke="#1E1E1E" stroke-width="2.5" stroke-linecap="round" stroke-linejoin="round"/>
</g>
<defs>
<clipPath id="clip0_813_414">
<rect width="34" height="35" fill="white"/>
</clipPath>
</defs>
</svg>
