<svg width="282" height="165" viewBox="0 0 282 165" fill="none" xmlns="http://www.w3.org/2000/svg">
<g clip-path="url(#clip0_267_167)">
<rect width="282" height="165" rx="10" fill="#EDFDF6"/>
<path d="M23.2152 92H21.1029V86.2168C21.1029 86.0573 21.1052 85.8613 21.1097 85.6289C21.1143 85.3919 21.1211 85.1504 21.1303 84.9043C21.1394 84.6536 21.1485 84.4281 21.1576 84.2275C21.1075 84.2868 21.0049 84.3893 20.85 84.5352C20.6996 84.6764 20.5583 84.804 20.4262 84.918L19.2777 85.8408L18.2592 84.5693L21.4789 82.0059H23.2152V92ZM26.2435 91.0225C26.2435 90.5941 26.3597 90.2933 26.5922 90.1201C26.8291 89.9469 27.114 89.8604 27.4467 89.8604C27.7702 89.8604 28.0482 89.9469 28.2806 90.1201C28.5176 90.2933 28.6361 90.5941 28.6361 91.0225C28.6361 91.4326 28.5176 91.7288 28.2806 91.9111C28.0482 92.0934 27.7702 92.1846 27.4467 92.1846C27.114 92.1846 26.8291 92.0934 26.5922 91.9111C26.3597 91.7288 26.2435 91.4326 26.2435 91.0225ZM39.6055 83.626C39.1999 83.626 38.8398 83.7057 38.5254 83.8652C38.2155 84.0202 37.9535 84.2458 37.7393 84.542C37.5296 84.8382 37.3701 85.196 37.2607 85.6152C37.1514 86.0345 37.0967 86.5062 37.0967 87.0303C37.0967 87.7367 37.1833 88.3405 37.3564 88.8418C37.5342 89.3385 37.8076 89.7191 38.1768 89.9834C38.5459 90.2432 39.0221 90.373 39.6055 90.373C40.0111 90.373 40.4167 90.3275 40.8223 90.2363C41.2324 90.1452 41.6768 90.0153 42.1553 89.8467V91.624C41.7132 91.8063 41.278 91.9362 40.8496 92.0137C40.4212 92.0957 39.9404 92.1367 39.4072 92.1367C38.3773 92.1367 37.5296 91.9248 36.8643 91.501C36.2035 91.0726 35.7135 90.4756 35.3945 89.71C35.0755 88.9398 34.916 88.042 34.916 87.0166C34.916 86.2601 35.0186 85.5674 35.2236 84.9385C35.4287 84.3096 35.7295 83.765 36.126 83.3047C36.5225 82.8444 37.0124 82.4889 37.5957 82.2383C38.179 81.9876 38.849 81.8623 39.6055 81.8623C40.1022 81.8623 40.599 81.9261 41.0957 82.0537C41.597 82.1768 42.0755 82.3477 42.5312 82.5664L41.8477 84.2891C41.474 84.1113 41.098 83.9564 40.7197 83.8242C40.3415 83.6921 39.9701 83.626 39.6055 83.626ZM51.0693 88.165C51.0693 88.8031 50.9827 89.3682 50.8096 89.8604C50.641 90.3525 50.3926 90.7695 50.0645 91.1113C49.7409 91.4486 49.349 91.7038 48.8887 91.877C48.4329 92.0501 47.918 92.1367 47.3438 92.1367C46.806 92.1367 46.3115 92.0501 45.8604 91.877C45.4137 91.7038 45.0241 91.4486 44.6914 91.1113C44.3633 90.7695 44.1081 90.3525 43.9258 89.8604C43.748 89.3682 43.6592 88.8031 43.6592 88.165C43.6592 87.3174 43.8096 86.5996 44.1104 86.0117C44.4111 85.4238 44.8395 84.9772 45.3955 84.6719C45.9515 84.3665 46.6146 84.2139 47.3848 84.2139C48.1003 84.2139 48.7337 84.3665 49.2852 84.6719C49.8411 84.9772 50.2764 85.4238 50.5908 86.0117C50.9098 86.5996 51.0693 87.3174 51.0693 88.165ZM45.7852 88.165C45.7852 88.6663 45.8398 89.0879 45.9492 89.4297C46.0586 89.7715 46.2295 90.029 46.4619 90.2021C46.6943 90.3753 46.9974 90.4619 47.3711 90.4619C47.7402 90.4619 48.0387 90.3753 48.2666 90.2021C48.499 90.029 48.6676 89.7715 48.7725 89.4297C48.8818 89.0879 48.9365 88.6663 48.9365 88.165C48.9365 87.6592 48.8818 87.2399 48.7725 86.9072C48.6676 86.57 48.499 86.3171 48.2666 86.1484C48.0342 85.9798 47.7311 85.8955 47.3574 85.8955C46.806 85.8955 46.4049 86.0846 46.1543 86.4629C45.9082 86.8411 45.7852 87.4085 45.7852 88.165ZM57.1328 84.2139C57.9486 84.2139 58.6048 84.4372 59.1016 84.8838C59.5983 85.3258 59.8467 86.0368 59.8467 87.0166V92H57.7617V87.5361C57.7617 86.9893 57.6615 86.5768 57.4609 86.2988C57.265 86.0208 56.9551 85.8818 56.5312 85.8818C55.8932 85.8818 55.458 86.0983 55.2256 86.5312C54.9932 86.9642 54.877 87.5885 54.877 88.4043V92H52.792V84.3574H54.3848L54.665 85.335H54.7812C54.9453 85.0706 55.1481 84.8564 55.3896 84.6924C55.6357 84.5283 55.9069 84.4076 56.2031 84.3301C56.5039 84.2526 56.8138 84.2139 57.1328 84.2139ZM65.1445 84.2139C65.8509 84.2139 66.4593 84.3506 66.9697 84.624C67.4801 84.8929 67.8743 85.2848 68.1523 85.7998C68.4303 86.3148 68.5693 86.9437 68.5693 87.6865V88.6982H63.6406C63.6634 89.2861 63.8389 89.7487 64.167 90.0859C64.4997 90.4186 64.96 90.585 65.5479 90.585C66.0355 90.585 66.4821 90.5348 66.8877 90.4346C67.2933 90.3343 67.7103 90.1839 68.1387 89.9834V91.5967C67.7604 91.7835 67.3639 91.9202 66.9492 92.0068C66.5391 92.0934 66.04 92.1367 65.4521 92.1367C64.6865 92.1367 64.0075 91.9954 63.415 91.7129C62.8271 91.4303 62.3646 90.9997 62.0273 90.4209C61.6947 89.8421 61.5283 89.113 61.5283 88.2334C61.5283 87.3402 61.6787 86.5973 61.9795 86.0049C62.2848 85.4079 62.7087 84.9613 63.251 84.665C63.7933 84.3643 64.4245 84.2139 65.1445 84.2139ZM65.1582 85.6973C64.7526 85.6973 64.4154 85.8271 64.1465 86.0869C63.8822 86.3467 63.7295 86.7546 63.6885 87.3105H66.6143C66.6097 87.0007 66.5527 86.7249 66.4434 86.4834C66.3385 86.2419 66.179 86.0505 65.9648 85.9092C65.7552 85.7679 65.4863 85.6973 65.1582 85.6973ZM73.3682 92.1367C72.6117 92.1367 71.9668 92 71.4336 91.7266C70.9004 91.4486 70.4948 91.0202 70.2168 90.4414C69.9388 89.8626 69.7998 89.1221 69.7998 88.2197C69.7998 87.2855 69.957 86.5244 70.2715 85.9365C70.5905 85.3441 71.0303 84.9089 71.5908 84.6309C72.1559 84.3529 72.8099 84.2139 73.5527 84.2139C74.0814 84.2139 74.5371 84.2663 74.9199 84.3711C75.3073 84.4714 75.6445 84.5921 75.9316 84.7334L75.3164 86.3467C74.9883 86.2145 74.6829 86.1074 74.4004 86.0254C74.1178 85.9388 73.8353 85.8955 73.5527 85.8955C73.1882 85.8955 72.8851 85.9821 72.6436 86.1553C72.402 86.3239 72.222 86.5791 72.1035 86.9209C71.985 87.2627 71.9258 87.6911 71.9258 88.2061C71.9258 88.7119 71.9896 89.1312 72.1172 89.4639C72.2448 89.7965 72.4294 90.0449 72.6709 90.209C72.9124 90.3685 73.2064 90.4482 73.5527 90.4482C73.9857 90.4482 74.3708 90.3913 74.708 90.2773C75.0452 90.1589 75.3734 89.9948 75.6924 89.7852V91.5693C75.3734 91.7699 75.0384 91.9134 74.6875 92C74.3411 92.0911 73.9014 92.1367 73.3682 92.1367ZM80.6895 90.4756C80.9173 90.4756 81.1383 90.4528 81.3525 90.4072C81.5713 90.3617 81.7878 90.3047 82.002 90.2363V91.7881C81.7786 91.8883 81.5007 91.9704 81.168 92.0342C80.8398 92.1025 80.4798 92.1367 80.0879 92.1367C79.6322 92.1367 79.222 92.0638 78.8574 91.918C78.4974 91.7676 78.2126 91.5101 78.0029 91.1455C77.7979 90.7764 77.6953 90.2637 77.6953 89.6074V85.9229H76.6973V85.041L77.8457 84.3438L78.4473 82.7305H79.7803V84.3574H81.9199V85.9229H79.7803V89.6074C79.7803 89.8991 79.8623 90.1178 80.0264 90.2637C80.195 90.4049 80.416 90.4756 80.6895 90.4756ZM86.6846 84.2002C87.71 84.2002 88.4961 84.4235 89.043 84.8701C89.5898 85.3167 89.8633 85.9958 89.8633 86.9072V92H88.4072L88.0039 90.9609H87.9492C87.7305 91.2344 87.5072 91.4577 87.2793 91.6309C87.0514 91.804 86.7894 91.9316 86.4932 92.0137C86.1969 92.0957 85.8369 92.1367 85.4131 92.1367C84.9619 92.1367 84.5563 92.0501 84.1963 91.877C83.8408 91.7038 83.5605 91.4395 83.3555 91.084C83.1504 90.724 83.0479 90.2682 83.0479 89.7168C83.0479 88.9056 83.3327 88.3086 83.9023 87.9258C84.472 87.5384 85.3265 87.3242 86.4658 87.2832L87.792 87.2422V86.9072C87.792 86.5062 87.6872 86.2122 87.4775 86.0254C87.2679 85.8385 86.9762 85.7451 86.6025 85.7451C86.2334 85.7451 85.8711 85.7975 85.5156 85.9023C85.1602 86.0072 84.8047 86.1393 84.4492 86.2988L83.7588 84.8906C84.1644 84.6764 84.6178 84.5078 85.1191 84.3848C85.625 84.2617 86.1468 84.2002 86.6846 84.2002ZM87.792 88.459L86.9854 88.4863C86.3109 88.5046 85.8415 88.6253 85.5771 88.8486C85.3174 89.0719 85.1875 89.3659 85.1875 89.7305C85.1875 90.0495 85.2809 90.2773 85.4678 90.4141C85.6546 90.5462 85.8984 90.6123 86.1992 90.6123C86.6458 90.6123 87.0218 90.4801 87.3271 90.2158C87.637 89.9515 87.792 89.5755 87.792 89.0879V88.459ZM98.873 90.4756C99.1009 90.4756 99.3219 90.4528 99.5361 90.4072C99.7549 90.3617 99.9714 90.3047 100.186 90.2363V91.7881C99.9622 91.8883 99.6842 91.9704 99.3516 92.0342C99.0234 92.1025 98.6634 92.1367 98.2715 92.1367C97.8158 92.1367 97.4056 92.0638 97.041 91.918C96.681 91.7676 96.3962 91.5101 96.1865 91.1455C95.9814 90.7764 95.8789 90.2637 95.8789 89.6074V85.9229H94.8809V85.041L96.0293 84.3438L96.6309 82.7305H97.9639V84.3574H100.104V85.9229H97.9639V89.6074C97.9639 89.8991 98.0459 90.1178 98.21 90.2637C98.3786 90.4049 98.5996 90.4756 98.873 90.4756ZM108.751 84.3574V92H107.151L106.871 91.0225H106.762C106.598 91.2822 106.393 91.4941 106.146 91.6582C105.9 91.8223 105.629 91.943 105.333 92.0205C105.037 92.098 104.729 92.1367 104.41 92.1367C103.863 92.1367 103.387 92.041 102.981 91.8496C102.576 91.6536 102.259 91.3506 102.031 90.9404C101.808 90.5303 101.696 89.9971 101.696 89.3408V84.3574H103.781V88.8213C103.781 89.3682 103.879 89.7806 104.075 90.0586C104.271 90.3366 104.583 90.4756 105.012 90.4756C105.436 90.4756 105.768 90.3799 106.01 90.1885C106.251 89.9925 106.42 89.7077 106.516 89.334C106.616 88.9557 106.666 88.4954 106.666 87.9531V84.3574H108.751ZM119.907 89.7305C119.907 90.25 119.784 90.6898 119.538 91.0498C119.297 91.4053 118.934 91.6764 118.451 91.8633C117.968 92.0456 117.367 92.1367 116.646 92.1367C116.113 92.1367 115.655 92.1025 115.272 92.0342C114.894 91.9658 114.511 91.8519 114.124 91.6924V89.9697C114.539 90.1566 114.983 90.3115 115.457 90.4346C115.936 90.5531 116.355 90.6123 116.715 90.6123C117.12 90.6123 117.41 90.5531 117.583 90.4346C117.761 90.3115 117.85 90.152 117.85 89.9561C117.85 89.8285 117.813 89.7145 117.74 89.6143C117.672 89.5094 117.521 89.3932 117.289 89.2656C117.057 89.1335 116.692 88.9626 116.195 88.7529C115.717 88.5524 115.323 88.3496 115.013 88.1445C114.707 87.9395 114.479 87.6979 114.329 87.4199C114.183 87.1374 114.11 86.7796 114.11 86.3467C114.11 85.6403 114.384 85.1094 114.931 84.7539C115.482 84.3939 116.218 84.2139 117.139 84.2139C117.613 84.2139 118.064 84.2617 118.492 84.3574C118.925 84.4531 119.369 84.6058 119.825 84.8154L119.196 86.3193C118.818 86.1553 118.46 86.0208 118.123 85.916C117.79 85.8112 117.451 85.7588 117.104 85.7588C116.799 85.7588 116.569 85.7998 116.414 85.8818C116.259 85.9639 116.182 86.0892 116.182 86.2578C116.182 86.3809 116.22 86.4902 116.298 86.5859C116.38 86.6816 116.535 86.7887 116.763 86.9072C116.995 87.0212 117.335 87.1693 117.781 87.3516C118.214 87.5293 118.59 87.7161 118.909 87.9121C119.228 88.1035 119.474 88.3428 119.647 88.6299C119.821 88.9124 119.907 89.2793 119.907 89.7305ZM124.686 84.2139C125.392 84.2139 126 84.3506 126.511 84.624C127.021 84.8929 127.415 85.2848 127.693 85.7998C127.971 86.3148 128.11 86.9437 128.11 87.6865V88.6982H123.182C123.204 89.2861 123.38 89.7487 123.708 90.0859C124.041 90.4186 124.501 90.585 125.089 90.585C125.576 90.585 126.023 90.5348 126.429 90.4346C126.834 90.3343 127.251 90.1839 127.68 89.9834V91.5967C127.301 91.7835 126.905 91.9202 126.49 92.0068C126.08 92.0934 125.581 92.1367 124.993 92.1367C124.228 92.1367 123.549 91.9954 122.956 91.7129C122.368 91.4303 121.906 90.9997 121.568 90.4209C121.236 89.8421 121.069 89.113 121.069 88.2334C121.069 87.3402 121.22 86.5973 121.521 86.0049C121.826 85.4079 122.25 84.9613 122.792 84.665C123.334 84.3643 123.965 84.2139 124.686 84.2139ZM124.699 85.6973C124.294 85.6973 123.956 85.8271 123.688 86.0869C123.423 86.3467 123.271 86.7546 123.229 87.3105H126.155C126.151 87.0007 126.094 86.7249 125.984 86.4834C125.88 86.2419 125.72 86.0505 125.506 85.9092C125.296 85.7679 125.027 85.6973 124.699 85.6973ZM134.146 84.2139C134.962 84.2139 135.618 84.4372 136.115 84.8838C136.612 85.3258 136.86 86.0368 136.86 87.0166V92H134.775V87.5361C134.775 86.9893 134.675 86.5768 134.475 86.2988C134.279 86.0208 133.969 85.8818 133.545 85.8818C132.907 85.8818 132.472 86.0983 132.239 86.5312C132.007 86.9642 131.891 87.5885 131.891 88.4043V92H129.806V84.3574H131.398L131.679 85.335H131.795C131.959 85.0706 132.162 84.8564 132.403 84.6924C132.649 84.5283 132.921 84.4076 133.217 84.3301C133.518 84.2526 133.827 84.2139 134.146 84.2139ZM144.339 89.7305C144.339 90.25 144.216 90.6898 143.97 91.0498C143.728 91.4053 143.366 91.6764 142.883 91.8633C142.4 92.0456 141.798 92.1367 141.078 92.1367C140.545 92.1367 140.087 92.1025 139.704 92.0342C139.326 91.9658 138.943 91.8519 138.556 91.6924V89.9697C138.97 90.1566 139.415 90.3115 139.889 90.4346C140.367 90.5531 140.786 90.6123 141.146 90.6123C141.552 90.6123 141.841 90.5531 142.015 90.4346C142.192 90.3115 142.281 90.152 142.281 89.9561C142.281 89.8285 142.245 89.7145 142.172 89.6143C142.104 89.5094 141.953 89.3932 141.721 89.2656C141.488 89.1335 141.124 88.9626 140.627 88.7529C140.148 88.5524 139.754 88.3496 139.444 88.1445C139.139 87.9395 138.911 87.6979 138.761 87.4199C138.615 87.1374 138.542 86.7796 138.542 86.3467C138.542 85.6403 138.815 85.1094 139.362 84.7539C139.914 84.3939 140.65 84.2139 141.57 84.2139C142.044 84.2139 142.495 84.2617 142.924 84.3574C143.357 84.4531 143.801 84.6058 144.257 84.8154L143.628 86.3193C143.25 86.1553 142.892 86.0208 142.555 85.916C142.222 85.8112 141.882 85.7588 141.536 85.7588C141.231 85.7588 141.001 85.7998 140.846 85.8818C140.691 85.9639 140.613 86.0892 140.613 86.2578C140.613 86.3809 140.652 86.4902 140.729 86.5859C140.812 86.6816 140.966 86.7887 141.194 86.9072C141.427 87.0212 141.766 87.1693 142.213 87.3516C142.646 87.5293 143.022 87.7161 143.341 87.9121C143.66 88.1035 143.906 88.3428 144.079 88.6299C144.252 88.9124 144.339 89.2793 144.339 89.7305ZM152.911 88.165C152.911 88.8031 152.825 89.3682 152.651 89.8604C152.483 90.3525 152.234 90.7695 151.906 91.1113C151.583 91.4486 151.191 91.7038 150.73 91.877C150.275 92.0501 149.76 92.1367 149.186 92.1367C148.648 92.1367 148.153 92.0501 147.702 91.877C147.256 91.7038 146.866 91.4486 146.533 91.1113C146.205 90.7695 145.95 90.3525 145.768 89.8604C145.59 89.3682 145.501 88.8031 145.501 88.165C145.501 87.3174 145.651 86.5996 145.952 86.0117C146.253 85.4238 146.681 84.9772 147.237 84.6719C147.793 84.3665 148.456 84.2139 149.227 84.2139C149.942 84.2139 150.576 84.3665 151.127 84.6719C151.683 84.9772 152.118 85.4238 152.433 86.0117C152.752 86.5996 152.911 87.3174 152.911 88.165ZM147.627 88.165C147.627 88.6663 147.682 89.0879 147.791 89.4297C147.9 89.7715 148.071 90.029 148.304 90.2021C148.536 90.3753 148.839 90.4619 149.213 90.4619C149.582 90.4619 149.881 90.3753 150.108 90.2021C150.341 90.029 150.509 89.7715 150.614 89.4297C150.724 89.0879 150.778 88.6663 150.778 88.165C150.778 87.6592 150.724 87.2399 150.614 86.9072C150.509 86.57 150.341 86.3171 150.108 86.1484C149.876 85.9798 149.573 85.8955 149.199 85.8955C148.648 85.8955 148.247 86.0846 147.996 86.4629C147.75 86.8411 147.627 87.4085 147.627 88.165ZM158.899 84.2139C159.004 84.2139 159.125 84.2207 159.262 84.2344C159.403 84.2435 159.517 84.2572 159.604 84.2754L159.446 86.2305C159.378 86.2077 159.28 86.1917 159.152 86.1826C159.029 86.1689 158.922 86.1621 158.831 86.1621C158.562 86.1621 158.3 86.1963 158.045 86.2646C157.794 86.333 157.569 86.4447 157.368 86.5996C157.168 86.75 157.008 86.9505 156.89 87.2012C156.776 87.4473 156.719 87.7503 156.719 88.1104V92H154.634V84.3574H156.213L156.521 85.6426H156.623C156.773 85.3828 156.96 85.1458 157.184 84.9316C157.411 84.7129 157.669 84.5397 157.956 84.4121C158.248 84.2799 158.562 84.2139 158.899 84.2139Z" fill="black"/>
<rect x="16" y="19" width="40" height="40" rx="10" fill="#059669"/>
<path d="M40.8 26.6875C41.2243 26.6875 41.6313 26.8653 41.9314 27.1818C42.2314 27.4982 42.4 27.9274 42.4 28.375V48.625C42.4 49.0726 42.2314 49.5018 41.9314 49.8182C41.6313 50.1347 41.2243 50.3125 40.8 50.3125H31.2C30.7757 50.3125 30.3687 50.1347 30.0686 49.8182C29.7686 49.5018 29.6 49.0726 29.6 48.625V28.375C29.6 27.9274 29.7686 27.4982 30.0686 27.1818C30.3687 26.8653 30.7757 26.6875 31.2 26.6875H40.8ZM31.2 25C30.3513 25 29.5374 25.3556 28.9373 25.9885C28.3371 26.6214 28 27.4799 28 28.375V48.625C28 49.5201 28.3371 50.3785 28.9373 51.0115C29.5374 51.6444 30.3513 52 31.2 52H40.8C41.6487 52 42.4626 51.6444 43.0627 51.0115C43.6629 50.3785 44 49.5201 44 48.625V28.375C44 27.4799 43.6629 26.6214 43.0627 25.9885C42.4626 25.3556 41.6487 25 40.8 25H31.2Z" fill="white"/>
<path d="M36 49C36.5304 49 37.0391 48.7893 37.4142 48.4142C37.7893 48.0391 38 47.5304 38 47C38 46.4696 37.7893 45.9609 37.4142 45.5858C37.0391 45.2107 36.5304 45 36 45C35.4696 45 34.9609 45.2107 34.5858 45.5858C34.2107 45.9609 34 46.4696 34 47C34 47.5304 34.2107 48.0391 34.5858 48.4142C34.9609 48.7893 35.4696 49 36 49Z" fill="white"/>
<path d="M20.8457 110.855C20.2988 110.855 19.8105 110.949 19.3809 111.137C18.9512 111.32 18.5879 111.582 18.291 111.922C17.9941 112.262 17.7676 112.668 17.6113 113.141C17.4551 113.609 17.377 114.127 17.377 114.693C17.377 115.475 17.5 116.158 17.7461 116.744C17.9922 117.326 18.3613 117.777 18.8535 118.098C19.3496 118.418 19.9668 118.578 20.7051 118.578C21.1348 118.578 21.5254 118.547 21.877 118.484C22.2285 118.418 22.5547 118.334 22.8555 118.232V118.76C22.5703 118.865 22.248 118.951 21.8887 119.018C21.5332 119.084 21.1191 119.117 20.6465 119.117C19.791 119.117 19.0723 118.934 18.4902 118.566C17.9121 118.199 17.4766 117.684 17.1836 117.02C16.8906 116.355 16.7441 115.58 16.7441 114.693C16.7441 114.057 16.8359 113.473 17.0195 112.941C17.2031 112.406 17.4707 111.943 17.8223 111.553C18.1777 111.158 18.6094 110.854 19.1172 110.639C19.625 110.42 20.2031 110.311 20.8516 110.311C21.2617 110.311 21.6523 110.352 22.0234 110.434C22.3984 110.512 22.75 110.627 23.0781 110.779L22.8438 111.307C22.5273 111.15 22.2031 111.037 21.8711 110.967C21.5391 110.893 21.1973 110.855 20.8457 110.855ZM29.793 115.807C29.793 116.299 29.7324 116.748 29.6113 117.154C29.4902 117.557 29.3105 117.904 29.0723 118.197C28.834 118.49 28.5371 118.717 28.1816 118.877C27.8301 119.037 27.4199 119.117 26.9512 119.117C26.5059 119.117 26.1094 119.039 25.7617 118.883C25.4141 118.723 25.1191 118.496 24.877 118.203C24.6387 117.91 24.457 117.562 24.332 117.16C24.207 116.754 24.1445 116.303 24.1445 115.807C24.1445 115.123 24.2578 114.535 24.4844 114.043C24.7148 113.547 25.043 113.168 25.4688 112.906C25.8984 112.641 26.4121 112.508 27.0098 112.508C27.627 112.508 28.1406 112.648 28.5508 112.93C28.9648 113.207 29.2754 113.594 29.4824 114.09C29.6895 114.586 29.793 115.158 29.793 115.807ZM24.7539 115.807C24.7539 116.365 24.834 116.854 24.9941 117.271C25.1543 117.689 25.3965 118.016 25.7207 118.25C26.0488 118.484 26.4629 118.602 26.9629 118.602C27.4746 118.602 27.8945 118.484 28.2227 118.25C28.5508 118.016 28.793 117.688 28.9492 117.266C29.1055 116.844 29.1836 116.357 29.1836 115.807C29.1836 115.271 29.1094 114.795 28.9609 114.377C28.8125 113.959 28.5781 113.631 28.2578 113.393C27.9375 113.15 27.5195 113.029 27.0039 113.029C26.2656 113.029 25.7051 113.275 25.3223 113.768C24.9434 114.26 24.7539 114.939 24.7539 115.807ZM34.3574 112.508C35.0723 112.508 35.6211 112.695 36.0039 113.07C36.3867 113.445 36.5781 114.033 36.5781 114.834V119H35.9922V114.869C35.9922 114.236 35.8477 113.771 35.5586 113.475C35.2695 113.178 34.8496 113.029 34.2988 113.029C33.5996 113.029 33.0645 113.234 32.6934 113.645C32.3262 114.051 32.1426 114.666 32.1426 115.49V119H31.5508V112.631H32.0312L32.1191 113.791H32.1543C32.2676 113.553 32.4219 113.338 32.6172 113.146C32.8164 112.951 33.0605 112.797 33.3496 112.684C33.6387 112.566 33.9746 112.508 34.3574 112.508ZM41.0547 112.508C41.5977 112.508 42.0488 112.635 42.4082 112.889C42.7715 113.143 43.041 113.49 43.2168 113.932C43.3965 114.373 43.4863 114.879 43.4863 115.449V115.877H38.8867C38.8867 116.752 39.0879 117.424 39.4902 117.893C39.8965 118.361 40.4766 118.596 41.2305 118.596C41.625 118.596 41.9668 118.564 42.2559 118.502C42.5488 118.436 42.873 118.324 43.2285 118.168V118.713C42.916 118.854 42.6035 118.955 42.291 119.018C41.9785 119.084 41.6191 119.117 41.2129 119.117C40.5684 119.117 40.0273 118.984 39.5898 118.719C39.1562 118.449 38.8281 118.07 38.6055 117.582C38.3867 117.094 38.2773 116.523 38.2773 115.871C38.2773 115.234 38.3828 114.662 38.5938 114.154C38.8086 113.646 39.1211 113.246 39.5312 112.953C39.9453 112.656 40.4531 112.508 41.0547 112.508ZM41.0488 113.018C40.4395 113.018 39.9453 113.221 39.5664 113.627C39.1914 114.029 38.9707 114.611 38.9043 115.373H42.8711C42.8711 114.908 42.8047 114.498 42.6719 114.143C42.5391 113.787 42.3379 113.512 42.0684 113.316C41.8027 113.117 41.4629 113.018 41.0488 113.018ZM47.793 119.117C47.1602 119.117 46.625 118.986 46.1875 118.725C45.7539 118.459 45.4258 118.082 45.2031 117.594C44.9844 117.102 44.875 116.52 44.875 115.848C44.875 115.148 45.002 114.551 45.2559 114.055C45.5098 113.555 45.8672 113.172 46.3281 112.906C46.7891 112.641 47.3301 112.508 47.9512 112.508C48.2559 112.508 48.5391 112.535 48.8008 112.59C49.0625 112.645 49.2988 112.721 49.5098 112.818L49.3516 113.34C49.1328 113.242 48.9004 113.168 48.6543 113.117C48.4082 113.066 48.1719 113.041 47.9453 113.041C47.4219 113.041 46.9766 113.156 46.6094 113.387C46.2461 113.613 45.9668 113.938 45.7715 114.359C45.5801 114.777 45.4844 115.271 45.4844 115.842C45.4844 116.377 45.5664 116.852 45.7305 117.266C45.8945 117.676 46.1465 118 46.4863 118.238C46.8262 118.473 47.2617 118.59 47.793 118.59C48.1016 118.59 48.3945 118.559 48.6719 118.496C48.9531 118.434 49.209 118.354 49.4395 118.256V118.795C49.2324 118.889 48.9922 118.965 48.7188 119.023C48.4492 119.086 48.1406 119.117 47.793 119.117ZM52.668 118.607C52.8516 118.607 53.0215 118.594 53.1777 118.566C53.3379 118.539 53.4785 118.504 53.5996 118.461V118.953C53.4746 118.996 53.3281 119.033 53.1602 119.064C52.9922 119.1 52.8066 119.117 52.6035 119.117C52.2441 119.117 51.9453 119.051 51.707 118.918C51.4688 118.781 51.2891 118.576 51.168 118.303C51.0469 118.025 50.9863 117.674 50.9863 117.248V113.123H50.0371V112.771L50.9805 112.59L51.1855 111.09H51.5781V112.631H53.5645V113.123H51.5781V117.213C51.5781 117.67 51.6621 118.018 51.8301 118.256C52.002 118.49 52.2812 118.607 52.668 118.607ZM57.1914 112.52C57.8906 112.52 58.4141 112.695 58.7617 113.047C59.1094 113.398 59.2832 113.959 59.2832 114.729V119H58.8262L58.7207 117.887H58.6855C58.5488 118.125 58.3828 118.338 58.1875 118.525C57.9922 118.709 57.752 118.854 57.4668 118.959C57.1855 119.064 56.8418 119.117 56.4355 119.117C56.0254 119.117 55.6738 119.049 55.3809 118.912C55.0918 118.775 54.8672 118.576 54.707 118.314C54.5508 118.053 54.4727 117.734 54.4727 117.359C54.4727 116.727 54.7344 116.246 55.2578 115.918C55.7812 115.586 56.5332 115.398 57.5137 115.355L58.6973 115.297V114.834C58.6973 114.182 58.5684 113.717 58.3105 113.439C58.0527 113.162 57.6719 113.023 57.168 113.023C56.8398 113.023 56.5234 113.066 56.2188 113.152C55.918 113.234 55.6113 113.354 55.2988 113.51L55.1113 113.018C55.416 112.873 55.7422 112.754 56.0898 112.66C56.4414 112.566 56.8086 112.52 57.1914 112.52ZM58.6914 115.76L57.5781 115.807C56.7695 115.846 56.1543 115.99 55.7324 116.24C55.3105 116.49 55.0996 116.865 55.0996 117.365C55.0996 117.768 55.2246 118.076 55.4746 118.291C55.7285 118.506 56.0801 118.613 56.5293 118.613C57.2285 118.613 57.7617 118.414 58.1289 118.016C58.5 117.617 58.6875 117.074 58.6914 116.387V115.76ZM66.168 118.607C66.3516 118.607 66.5215 118.594 66.6777 118.566C66.8379 118.539 66.9785 118.504 67.0996 118.461V118.953C66.9746 118.996 66.8281 119.033 66.6602 119.064C66.4922 119.1 66.3066 119.117 66.1035 119.117C65.7441 119.117 65.4453 119.051 65.207 118.918C64.9688 118.781 64.7891 118.576 64.668 118.303C64.5469 118.025 64.4863 117.674 64.4863 117.248V113.123H63.5371V112.771L64.4805 112.59L64.6855 111.09H65.0781V112.631H67.0645V113.123H65.0781V117.213C65.0781 117.67 65.1621 118.018 65.3301 118.256C65.502 118.49 65.7812 118.607 66.168 118.607ZM73.416 112.631V119H72.9355L72.8477 117.852H72.8125C72.7031 118.086 72.5488 118.299 72.3496 118.49C72.1504 118.682 71.9062 118.834 71.6172 118.947C71.3281 119.061 70.9922 119.117 70.6094 119.117C70.1211 119.117 69.7109 119.033 69.3789 118.865C69.0508 118.693 68.8027 118.436 68.6348 118.092C68.4668 117.748 68.3828 117.318 68.3828 116.803V112.631H68.9746V116.744C68.9746 117.381 69.1172 117.85 69.4023 118.15C69.6914 118.451 70.1133 118.602 70.668 118.602C71.1367 118.602 71.5293 118.512 71.8457 118.332C72.166 118.152 72.4082 117.881 72.5723 117.518C72.7402 117.15 72.8242 116.693 72.8242 116.146V112.631H73.416ZM82.6562 117.33C82.6562 117.709 82.5605 118.033 82.3691 118.303C82.1816 118.568 81.9062 118.771 81.543 118.912C81.1797 119.049 80.7324 119.117 80.2012 119.117C79.7598 119.117 79.3652 119.078 79.0176 119C78.6699 118.922 78.3789 118.826 78.1445 118.713V118.127C78.4375 118.271 78.7617 118.389 79.1172 118.479C79.4727 118.568 79.8379 118.613 80.2129 118.613C80.8691 118.613 81.3418 118.502 81.6309 118.279C81.9199 118.057 82.0645 117.752 82.0645 117.365C82.0645 117.111 81.9922 116.902 81.8477 116.738C81.707 116.57 81.5039 116.426 81.2383 116.305C80.9727 116.184 80.6523 116.061 80.2773 115.936C79.8867 115.803 79.5391 115.672 79.2344 115.543C78.9336 115.41 78.6973 115.236 78.5254 115.021C78.3535 114.803 78.2676 114.506 78.2676 114.131C78.2676 113.619 78.4727 113.221 78.8828 112.936C79.293 112.65 79.8438 112.508 80.5352 112.508C80.918 112.508 81.2734 112.545 81.6016 112.619C81.9336 112.689 82.2344 112.781 82.5039 112.895L82.293 113.398C82.0508 113.285 81.7715 113.193 81.4551 113.123C81.1387 113.053 80.8223 113.018 80.5059 113.018C79.9863 113.018 79.5801 113.109 79.2871 113.293C78.9941 113.477 78.8477 113.746 78.8477 114.102C78.8477 114.375 78.918 114.59 79.0586 114.746C79.1992 114.898 79.4004 115.027 79.6621 115.133C79.9238 115.234 80.2344 115.348 80.5938 115.473C80.9648 115.602 81.3066 115.736 81.6191 115.877C81.9355 116.018 82.1875 116.199 82.375 116.422C82.5625 116.645 82.6562 116.947 82.6562 117.33ZM86.6758 112.508C87.2188 112.508 87.6699 112.635 88.0293 112.889C88.3926 113.143 88.6621 113.49 88.8379 113.932C89.0176 114.373 89.1074 114.879 89.1074 115.449V115.877H84.5078C84.5078 116.752 84.709 117.424 85.1113 117.893C85.5176 118.361 86.0977 118.596 86.8516 118.596C87.2461 118.596 87.5879 118.564 87.877 118.502C88.1699 118.436 88.4941 118.324 88.8496 118.168V118.713C88.5371 118.854 88.2246 118.955 87.9121 119.018C87.5996 119.084 87.2402 119.117 86.834 119.117C86.1895 119.117 85.6484 118.984 85.2109 118.719C84.7773 118.449 84.4492 118.07 84.2266 117.582C84.0078 117.094 83.8984 116.523 83.8984 115.871C83.8984 115.234 84.0039 114.662 84.2148 114.154C84.4297 113.646 84.7422 113.246 85.1523 112.953C85.5664 112.656 86.0742 112.508 86.6758 112.508ZM86.6699 113.018C86.0605 113.018 85.5664 113.221 85.1875 113.627C84.8125 114.029 84.5918 114.611 84.5254 115.373H88.4922C88.4922 114.908 88.4258 114.498 88.293 114.143C88.1602 113.787 87.959 113.512 87.6895 113.316C87.4238 113.117 87.084 113.018 86.6699 113.018ZM93.666 112.508C94.3809 112.508 94.9297 112.695 95.3125 113.07C95.6953 113.445 95.8867 114.033 95.8867 114.834V119H95.3008V114.869C95.3008 114.236 95.1562 113.771 94.8672 113.475C94.5781 113.178 94.1582 113.029 93.6074 113.029C92.9082 113.029 92.373 113.234 92.002 113.645C91.6348 114.051 91.4512 114.666 91.4512 115.49V119H90.8594V112.631H91.3398L91.4277 113.791H91.4629C91.5762 113.553 91.7305 113.338 91.9258 113.146C92.125 112.951 92.3691 112.797 92.6582 112.684C92.9473 112.566 93.2832 112.508 93.666 112.508ZM101.934 117.33C101.934 117.709 101.838 118.033 101.646 118.303C101.459 118.568 101.184 118.771 100.82 118.912C100.457 119.049 100.01 119.117 99.4785 119.117C99.0371 119.117 98.6426 119.078 98.2949 119C97.9473 118.922 97.6562 118.826 97.4219 118.713V118.127C97.7148 118.271 98.0391 118.389 98.3945 118.479C98.75 118.568 99.1152 118.613 99.4902 118.613C100.146 118.613 100.619 118.502 100.908 118.279C101.197 118.057 101.342 117.752 101.342 117.365C101.342 117.111 101.27 116.902 101.125 116.738C100.984 116.57 100.781 116.426 100.516 116.305C100.25 116.184 99.9297 116.061 99.5547 115.936C99.1641 115.803 98.8164 115.672 98.5117 115.543C98.2109 115.41 97.9746 115.236 97.8027 115.021C97.6309 114.803 97.5449 114.506 97.5449 114.131C97.5449 113.619 97.75 113.221 98.1602 112.936C98.5703 112.65 99.1211 112.508 99.8125 112.508C100.195 112.508 100.551 112.545 100.879 112.619C101.211 112.689 101.512 112.781 101.781 112.895L101.57 113.398C101.328 113.285 101.049 113.193 100.732 113.123C100.416 113.053 100.1 113.018 99.7832 113.018C99.2637 113.018 98.8574 113.109 98.5645 113.293C98.2715 113.477 98.125 113.746 98.125 114.102C98.125 114.375 98.1953 114.59 98.3359 114.746C98.4766 114.898 98.6777 115.027 98.9395 115.133C99.2012 115.234 99.5117 115.348 99.8711 115.473C100.242 115.602 100.584 115.736 100.896 115.877C101.213 116.018 101.465 116.199 101.652 116.422C101.84 116.645 101.934 116.947 101.934 117.33ZM108.824 115.807C108.824 116.299 108.764 116.748 108.643 117.154C108.521 117.557 108.342 117.904 108.104 118.197C107.865 118.49 107.568 118.717 107.213 118.877C106.861 119.037 106.451 119.117 105.982 119.117C105.537 119.117 105.141 119.039 104.793 118.883C104.445 118.723 104.15 118.496 103.908 118.203C103.67 117.91 103.488 117.562 103.363 117.16C103.238 116.754 103.176 116.303 103.176 115.807C103.176 115.123 103.289 114.535 103.516 114.043C103.746 113.547 104.074 113.168 104.5 112.906C104.93 112.641 105.443 112.508 106.041 112.508C106.658 112.508 107.172 112.648 107.582 112.93C107.996 113.207 108.307 113.594 108.514 114.09C108.721 114.586 108.824 115.158 108.824 115.807ZM103.785 115.807C103.785 116.365 103.865 116.854 104.025 117.271C104.186 117.689 104.428 118.016 104.752 118.25C105.08 118.484 105.494 118.602 105.994 118.602C106.506 118.602 106.926 118.484 107.254 118.25C107.582 118.016 107.824 117.688 107.98 117.266C108.137 116.844 108.215 116.357 108.215 115.807C108.215 115.271 108.141 114.795 107.992 114.377C107.844 113.959 107.609 113.631 107.289 113.393C106.969 113.15 106.551 113.029 106.035 113.029C105.297 113.029 104.736 113.275 104.354 113.768C103.975 114.26 103.785 114.939 103.785 115.807ZM113.119 112.52C113.287 112.52 113.445 112.529 113.594 112.549C113.742 112.568 113.881 112.596 114.01 112.631L113.916 113.176C113.787 113.141 113.656 113.115 113.523 113.1C113.391 113.08 113.248 113.07 113.096 113.07C112.795 113.07 112.525 113.127 112.287 113.24C112.053 113.354 111.854 113.516 111.689 113.727C111.525 113.938 111.4 114.191 111.314 114.488C111.229 114.785 111.186 115.117 111.186 115.484V119H110.588V112.631H111.098L111.156 113.832H111.191C111.289 113.586 111.426 113.365 111.602 113.17C111.781 112.971 111.998 112.812 112.252 112.695C112.506 112.578 112.795 112.52 113.119 112.52ZM121.199 112.508C122.02 112.508 122.654 112.783 123.104 113.334C123.557 113.885 123.783 114.697 123.783 115.771C123.783 116.49 123.676 117.1 123.461 117.6C123.246 118.096 122.939 118.473 122.541 118.73C122.146 118.988 121.672 119.117 121.117 119.117C120.734 119.117 120.4 119.061 120.115 118.947C119.834 118.83 119.6 118.674 119.412 118.479C119.225 118.279 119.08 118.061 118.979 117.822H118.938C118.949 118.045 118.959 118.277 118.967 118.52C118.975 118.762 118.979 118.99 118.979 119.205V121.818H118.381V112.631H118.873L118.943 113.902H118.979C119.084 113.66 119.232 113.432 119.424 113.217C119.615 113.002 119.857 112.83 120.15 112.701C120.443 112.572 120.793 112.508 121.199 112.508ZM121.123 113.029C120.643 113.029 120.242 113.135 119.922 113.346C119.605 113.553 119.369 113.857 119.213 114.26C119.061 114.658 118.982 115.146 118.979 115.725V115.824C118.979 116.445 119.055 116.963 119.207 117.377C119.363 117.787 119.596 118.094 119.904 118.297C120.217 118.5 120.604 118.602 121.064 118.602C121.518 118.602 121.9 118.49 122.213 118.268C122.525 118.045 122.764 117.723 122.928 117.301C123.092 116.879 123.174 116.367 123.174 115.766C123.174 114.871 123.002 114.191 122.658 113.727C122.318 113.262 121.807 113.029 121.123 113.029ZM127.938 112.508C128.48 112.508 128.932 112.635 129.291 112.889C129.654 113.143 129.924 113.49 130.1 113.932C130.279 114.373 130.369 114.879 130.369 115.449V115.877H125.77C125.77 116.752 125.971 117.424 126.373 117.893C126.779 118.361 127.359 118.596 128.113 118.596C128.508 118.596 128.85 118.564 129.139 118.502C129.432 118.436 129.756 118.324 130.111 118.168V118.713C129.799 118.854 129.486 118.955 129.174 119.018C128.861 119.084 128.502 119.117 128.096 119.117C127.451 119.117 126.91 118.984 126.473 118.719C126.039 118.449 125.711 118.07 125.488 117.582C125.27 117.094 125.16 116.523 125.16 115.871C125.16 115.234 125.266 114.662 125.477 114.154C125.691 113.646 126.004 113.246 126.414 112.953C126.828 112.656 127.336 112.508 127.938 112.508ZM127.932 113.018C127.322 113.018 126.828 113.221 126.449 113.627C126.074 114.029 125.854 114.611 125.787 115.373H129.754C129.754 114.908 129.688 114.498 129.555 114.143C129.422 113.787 129.221 113.512 128.951 113.316C128.686 113.117 128.346 113.018 127.932 113.018ZM134.658 112.52C134.826 112.52 134.984 112.529 135.133 112.549C135.281 112.568 135.42 112.596 135.549 112.631L135.455 113.176C135.326 113.141 135.195 113.115 135.062 113.1C134.93 113.08 134.787 113.07 134.635 113.07C134.334 113.07 134.064 113.127 133.826 113.24C133.592 113.354 133.393 113.516 133.229 113.727C133.064 113.938 132.939 114.191 132.854 114.488C132.768 114.785 132.725 115.117 132.725 115.484V119H132.127V112.631H132.637L132.695 113.832H132.73C132.828 113.586 132.965 113.365 133.141 113.17C133.32 112.971 133.537 112.812 133.791 112.695C134.045 112.578 134.334 112.52 134.658 112.52ZM140.781 117.33C140.781 117.709 140.686 118.033 140.494 118.303C140.307 118.568 140.031 118.771 139.668 118.912C139.305 119.049 138.857 119.117 138.326 119.117C137.885 119.117 137.49 119.078 137.143 119C136.795 118.922 136.504 118.826 136.27 118.713V118.127C136.562 118.271 136.887 118.389 137.242 118.479C137.598 118.568 137.963 118.613 138.338 118.613C138.994 118.613 139.467 118.502 139.756 118.279C140.045 118.057 140.189 117.752 140.189 117.365C140.189 117.111 140.117 116.902 139.973 116.738C139.832 116.57 139.629 116.426 139.363 116.305C139.098 116.184 138.777 116.061 138.402 115.936C138.012 115.803 137.664 115.672 137.359 115.543C137.059 115.41 136.822 115.236 136.65 115.021C136.479 114.803 136.393 114.506 136.393 114.131C136.393 113.619 136.598 113.221 137.008 112.936C137.418 112.65 137.969 112.508 138.66 112.508C139.043 112.508 139.398 112.545 139.727 112.619C140.059 112.689 140.359 112.781 140.629 112.895L140.418 113.398C140.176 113.285 139.896 113.193 139.58 113.123C139.264 113.053 138.947 113.018 138.631 113.018C138.111 113.018 137.705 113.109 137.412 113.293C137.119 113.477 136.973 113.746 136.973 114.102C136.973 114.375 137.043 114.59 137.184 114.746C137.324 114.898 137.525 115.027 137.787 115.133C138.049 115.234 138.359 115.348 138.719 115.473C139.09 115.602 139.432 115.736 139.744 115.877C140.061 116.018 140.312 116.199 140.5 116.422C140.688 116.645 140.781 116.947 140.781 117.33ZM147.672 115.807C147.672 116.299 147.611 116.748 147.49 117.154C147.369 117.557 147.189 117.904 146.951 118.197C146.713 118.49 146.416 118.717 146.061 118.877C145.709 119.037 145.299 119.117 144.83 119.117C144.385 119.117 143.988 119.039 143.641 118.883C143.293 118.723 142.998 118.496 142.756 118.203C142.518 117.91 142.336 117.562 142.211 117.16C142.086 116.754 142.023 116.303 142.023 115.807C142.023 115.123 142.137 114.535 142.363 114.043C142.594 113.547 142.922 113.168 143.348 112.906C143.777 112.641 144.291 112.508 144.889 112.508C145.506 112.508 146.02 112.648 146.43 112.93C146.844 113.207 147.154 113.594 147.361 114.09C147.568 114.586 147.672 115.158 147.672 115.807ZM142.633 115.807C142.633 116.365 142.713 116.854 142.873 117.271C143.033 117.689 143.275 118.016 143.6 118.25C143.928 118.484 144.342 118.602 144.842 118.602C145.354 118.602 145.773 118.484 146.102 118.25C146.43 118.016 146.672 117.688 146.828 117.266C146.984 116.844 147.062 116.357 147.062 115.807C147.062 115.271 146.988 114.795 146.84 114.377C146.691 113.959 146.457 113.631 146.137 113.393C145.816 113.15 145.398 113.029 144.883 113.029C144.145 113.029 143.584 113.275 143.201 113.768C142.822 114.26 142.633 114.939 142.633 115.807ZM152.236 112.508C152.951 112.508 153.5 112.695 153.883 113.07C154.266 113.445 154.457 114.033 154.457 114.834V119H153.871V114.869C153.871 114.236 153.727 113.771 153.438 113.475C153.148 113.178 152.729 113.029 152.178 113.029C151.479 113.029 150.943 113.234 150.572 113.645C150.205 114.051 150.021 114.666 150.021 115.49V119H149.43V112.631H149.91L149.998 113.791H150.033C150.146 113.553 150.301 113.338 150.496 113.146C150.695 112.951 150.939 112.797 151.229 112.684C151.518 112.566 151.854 112.508 152.236 112.508ZM158.746 112.52C159.445 112.52 159.969 112.695 160.316 113.047C160.664 113.398 160.838 113.959 160.838 114.729V119H160.381L160.275 117.887H160.24C160.104 118.125 159.938 118.338 159.742 118.525C159.547 118.709 159.307 118.854 159.021 118.959C158.74 119.064 158.396 119.117 157.99 119.117C157.58 119.117 157.229 119.049 156.936 118.912C156.646 118.775 156.422 118.576 156.262 118.314C156.105 118.053 156.027 117.734 156.027 117.359C156.027 116.727 156.289 116.246 156.812 115.918C157.336 115.586 158.088 115.398 159.068 115.355L160.252 115.297V114.834C160.252 114.182 160.123 113.717 159.865 113.439C159.607 113.162 159.227 113.023 158.723 113.023C158.395 113.023 158.078 113.066 157.773 113.152C157.473 113.234 157.166 113.354 156.854 113.51L156.666 113.018C156.971 112.873 157.297 112.754 157.645 112.66C157.996 112.566 158.363 112.52 158.746 112.52ZM160.246 115.76L159.133 115.807C158.324 115.846 157.709 115.99 157.287 116.24C156.865 116.49 156.654 116.865 156.654 117.365C156.654 117.768 156.779 118.076 157.029 118.291C157.283 118.506 157.635 118.613 158.084 118.613C158.783 118.613 159.316 118.414 159.684 118.016C160.055 117.617 160.242 117.074 160.246 116.387V115.76ZM163.486 119H162.889V109.883H163.486V119ZM171.543 112.508C172.363 112.508 172.998 112.783 173.447 113.334C173.9 113.885 174.127 114.697 174.127 115.771C174.127 116.49 174.02 117.1 173.805 117.6C173.59 118.096 173.283 118.473 172.885 118.73C172.49 118.988 172.016 119.117 171.461 119.117C171.078 119.117 170.744 119.061 170.459 118.947C170.178 118.83 169.943 118.674 169.756 118.479C169.568 118.279 169.424 118.061 169.322 117.822H169.281C169.293 118.045 169.303 118.277 169.311 118.52C169.318 118.762 169.322 118.99 169.322 119.205V121.818H168.725V112.631H169.217L169.287 113.902H169.322C169.428 113.66 169.576 113.432 169.768 113.217C169.959 113.002 170.201 112.83 170.494 112.701C170.787 112.572 171.137 112.508 171.543 112.508ZM171.467 113.029C170.986 113.029 170.586 113.135 170.266 113.346C169.949 113.553 169.713 113.857 169.557 114.26C169.404 114.658 169.326 115.146 169.322 115.725V115.824C169.322 116.445 169.398 116.963 169.551 117.377C169.707 117.787 169.939 118.094 170.248 118.297C170.561 118.5 170.947 118.602 171.408 118.602C171.861 118.602 172.244 118.49 172.557 118.268C172.869 118.045 173.107 117.723 173.271 117.301C173.436 116.879 173.518 116.367 173.518 115.766C173.518 114.871 173.346 114.191 173.002 113.727C172.662 113.262 172.15 113.029 171.467 113.029ZM181.152 115.807C181.152 116.299 181.092 116.748 180.971 117.154C180.85 117.557 180.67 117.904 180.432 118.197C180.193 118.49 179.896 118.717 179.541 118.877C179.189 119.037 178.779 119.117 178.311 119.117C177.865 119.117 177.469 119.039 177.121 118.883C176.773 118.723 176.479 118.496 176.236 118.203C175.998 117.91 175.816 117.562 175.691 117.16C175.566 116.754 175.504 116.303 175.504 115.807C175.504 115.123 175.617 114.535 175.844 114.043C176.074 113.547 176.402 113.168 176.828 112.906C177.258 112.641 177.771 112.508 178.369 112.508C178.986 112.508 179.5 112.648 179.91 112.93C180.324 113.207 180.635 113.594 180.842 114.09C181.049 114.586 181.152 115.158 181.152 115.807ZM176.113 115.807C176.113 116.365 176.193 116.854 176.354 117.271C176.514 117.689 176.756 118.016 177.08 118.25C177.408 118.484 177.822 118.602 178.322 118.602C178.834 118.602 179.254 118.484 179.582 118.25C179.91 118.016 180.152 117.688 180.309 117.266C180.465 116.844 180.543 116.357 180.543 115.807C180.543 115.271 180.469 114.795 180.32 114.377C180.172 113.959 179.938 113.631 179.617 113.393C179.297 113.15 178.879 113.029 178.363 113.029C177.625 113.029 177.064 113.275 176.682 113.768C176.303 114.26 176.113 114.939 176.113 115.807ZM185.447 112.52C185.615 112.52 185.773 112.529 185.922 112.549C186.07 112.568 186.209 112.596 186.338 112.631L186.244 113.176C186.115 113.141 185.984 113.115 185.852 113.1C185.719 113.08 185.576 113.07 185.424 113.07C185.123 113.07 184.854 113.127 184.615 113.24C184.381 113.354 184.182 113.516 184.018 113.727C183.854 113.938 183.729 114.191 183.643 114.488C183.557 114.785 183.514 115.117 183.514 115.484V119H182.916V112.631H183.426L183.484 113.832H183.52C183.617 113.586 183.754 113.365 183.93 113.17C184.109 112.971 184.326 112.812 184.58 112.695C184.834 112.578 185.123 112.52 185.447 112.52ZM190.855 110.434H193.205C194.264 110.434 195.037 110.6 195.525 110.932C196.018 111.264 196.264 111.793 196.264 112.52C196.264 112.848 196.199 113.146 196.07 113.416C195.945 113.686 195.758 113.912 195.508 114.096C195.262 114.275 194.957 114.398 194.594 114.465V114.506C195.027 114.572 195.385 114.693 195.666 114.869C195.951 115.041 196.162 115.27 196.299 115.555C196.439 115.836 196.51 116.172 196.51 116.562C196.51 117.125 196.381 117.586 196.123 117.945C195.869 118.305 195.516 118.57 195.062 118.742C194.609 118.914 194.086 119 193.492 119H190.855V110.434ZM191.459 114.242H193.357C194.162 114.242 194.744 114.102 195.104 113.82C195.463 113.539 195.643 113.123 195.643 112.572C195.643 112.002 195.449 111.592 195.062 111.342C194.676 111.092 194.057 110.967 193.205 110.967H191.459V114.242ZM191.459 114.77V118.467H193.475C194.268 118.467 194.865 118.307 195.268 117.986C195.67 117.662 195.871 117.18 195.871 116.539C195.871 116.117 195.777 115.777 195.59 115.52C195.402 115.258 195.121 115.068 194.746 114.951C194.375 114.83 193.912 114.77 193.357 114.77H191.459ZM198.83 119H198.232V109.883H198.83V119ZM205.896 112.631V119H205.416L205.328 117.852H205.293C205.184 118.086 205.029 118.299 204.83 118.49C204.631 118.682 204.387 118.834 204.098 118.947C203.809 119.061 203.473 119.117 203.09 119.117C202.602 119.117 202.191 119.033 201.859 118.865C201.531 118.693 201.283 118.436 201.115 118.092C200.947 117.748 200.863 117.318 200.863 116.803V112.631H201.455V116.744C201.455 117.381 201.598 117.85 201.883 118.15C202.172 118.451 202.594 118.602 203.148 118.602C203.617 118.602 204.01 118.512 204.326 118.332C204.646 118.152 204.889 117.881 205.053 117.518C205.221 117.15 205.305 116.693 205.305 116.146V112.631H205.896ZM210.449 112.508C210.992 112.508 211.443 112.635 211.803 112.889C212.166 113.143 212.436 113.49 212.611 113.932C212.791 114.373 212.881 114.879 212.881 115.449V115.877H208.281C208.281 116.752 208.482 117.424 208.885 117.893C209.291 118.361 209.871 118.596 210.625 118.596C211.02 118.596 211.361 118.564 211.65 118.502C211.943 118.436 212.268 118.324 212.623 118.168V118.713C212.311 118.854 211.998 118.955 211.686 119.018C211.373 119.084 211.014 119.117 210.607 119.117C209.963 119.117 209.422 118.984 208.984 118.719C208.551 118.449 208.223 118.07 208 117.582C207.781 117.094 207.672 116.523 207.672 115.871C207.672 115.234 207.777 114.662 207.988 114.154C208.203 113.646 208.516 113.246 208.926 112.953C209.34 112.656 209.848 112.508 210.449 112.508ZM210.443 113.018C209.834 113.018 209.34 113.221 208.961 113.627C208.586 114.029 208.365 114.611 208.299 115.373H212.266C212.266 114.908 212.199 114.498 212.066 114.143C211.934 113.787 211.732 113.512 211.463 113.316C211.197 113.117 210.857 113.018 210.443 113.018ZM216.355 118.607C216.539 118.607 216.709 118.594 216.865 118.566C217.025 118.539 217.166 118.504 217.287 118.461V118.953C217.162 118.996 217.016 119.033 216.848 119.064C216.68 119.1 216.494 119.117 216.291 119.117C215.932 119.117 215.633 119.051 215.395 118.918C215.156 118.781 214.977 118.576 214.855 118.303C214.734 118.025 214.674 117.674 214.674 117.248V113.123H213.725V112.771L214.668 112.59L214.873 111.09H215.266V112.631H217.252V113.123H215.266V117.213C215.266 117.67 215.35 118.018 215.518 118.256C215.689 118.49 215.969 118.607 216.355 118.607ZM223.938 115.807C223.938 116.299 223.877 116.748 223.756 117.154C223.635 117.557 223.455 117.904 223.217 118.197C222.979 118.49 222.682 118.717 222.326 118.877C221.975 119.037 221.564 119.117 221.096 119.117C220.65 119.117 220.254 119.039 219.906 118.883C219.559 118.723 219.264 118.496 219.021 118.203C218.783 117.91 218.602 117.562 218.477 117.16C218.352 116.754 218.289 116.303 218.289 115.807C218.289 115.123 218.402 114.535 218.629 114.043C218.859 113.547 219.188 113.168 219.613 112.906C220.043 112.641 220.557 112.508 221.154 112.508C221.771 112.508 222.285 112.648 222.695 112.93C223.109 113.207 223.42 113.594 223.627 114.09C223.834 114.586 223.938 115.158 223.938 115.807ZM218.898 115.807C218.898 116.365 218.979 116.854 219.139 117.271C219.299 117.689 219.541 118.016 219.865 118.25C220.193 118.484 220.607 118.602 221.107 118.602C221.619 118.602 222.039 118.484 222.367 118.25C222.695 118.016 222.938 117.688 223.094 117.266C223.25 116.844 223.328 116.357 223.328 115.807C223.328 115.271 223.254 114.795 223.105 114.377C222.957 113.959 222.723 113.631 222.402 113.393C222.082 113.15 221.664 113.029 221.148 113.029C220.41 113.029 219.85 113.275 219.467 113.768C219.088 114.26 218.898 114.939 218.898 115.807ZM230.98 115.807C230.98 116.299 230.92 116.748 230.799 117.154C230.678 117.557 230.498 117.904 230.26 118.197C230.021 118.49 229.725 118.717 229.369 118.877C229.018 119.037 228.607 119.117 228.139 119.117C227.693 119.117 227.297 119.039 226.949 118.883C226.602 118.723 226.307 118.496 226.064 118.203C225.826 117.91 225.645 117.562 225.52 117.16C225.395 116.754 225.332 116.303 225.332 115.807C225.332 115.123 225.445 114.535 225.672 114.043C225.902 113.547 226.23 113.168 226.656 112.906C227.086 112.641 227.6 112.508 228.197 112.508C228.814 112.508 229.328 112.648 229.738 112.93C230.152 113.207 230.463 113.594 230.67 114.09C230.877 114.586 230.98 115.158 230.98 115.807ZM225.941 115.807C225.941 116.365 226.021 116.854 226.182 117.271C226.342 117.689 226.584 118.016 226.908 118.25C227.236 118.484 227.65 118.602 228.15 118.602C228.662 118.602 229.082 118.484 229.41 118.25C229.738 118.016 229.98 117.688 230.137 117.266C230.293 116.844 230.371 116.357 230.371 115.807C230.371 115.271 230.297 114.795 230.148 114.377C230 113.959 229.766 113.631 229.445 113.393C229.125 113.15 228.707 113.029 228.191 113.029C227.453 113.029 226.893 113.275 226.51 113.768C226.131 114.26 225.941 114.939 225.941 115.807ZM234.461 118.607C234.645 118.607 234.814 118.594 234.971 118.566C235.131 118.539 235.271 118.504 235.393 118.461V118.953C235.268 118.996 235.121 119.033 234.953 119.064C234.785 119.1 234.6 119.117 234.396 119.117C234.037 119.117 233.738 119.051 233.5 118.918C233.262 118.781 233.082 118.576 232.961 118.303C232.84 118.025 232.779 117.674 232.779 117.248V113.123H231.83V112.771L232.773 112.59L232.979 111.09H233.371V112.631H235.357V113.123H233.371V117.213C233.371 117.67 233.455 118.018 233.623 118.256C233.795 118.49 234.074 118.607 234.461 118.607ZM237.35 109.883V112.859C237.35 113.031 237.346 113.191 237.338 113.34C237.334 113.488 237.326 113.639 237.314 113.791H237.355C237.461 113.549 237.611 113.332 237.807 113.141C238.006 112.949 238.25 112.797 238.539 112.684C238.832 112.57 239.17 112.514 239.553 112.514C240.037 112.514 240.443 112.598 240.771 112.766C241.104 112.93 241.355 113.182 241.527 113.521C241.699 113.861 241.785 114.299 241.785 114.834V119H241.199V114.869C241.199 114.236 241.055 113.771 240.766 113.475C240.477 113.178 240.057 113.029 239.506 113.029C239.037 113.029 238.643 113.121 238.322 113.305C238.002 113.484 237.76 113.758 237.596 114.125C237.432 114.488 237.35 114.943 237.35 115.49V119H236.758V109.883H237.35ZM249.191 112.52C249.891 112.52 250.414 112.695 250.762 113.047C251.109 113.398 251.283 113.959 251.283 114.729V119H250.826L250.721 117.887H250.686C250.549 118.125 250.383 118.338 250.188 118.525C249.992 118.709 249.752 118.854 249.467 118.959C249.186 119.064 248.842 119.117 248.436 119.117C248.025 119.117 247.674 119.049 247.381 118.912C247.092 118.775 246.867 118.576 246.707 118.314C246.551 118.053 246.473 117.734 246.473 117.359C246.473 116.727 246.734 116.246 247.258 115.918C247.781 115.586 248.533 115.398 249.514 115.355L250.697 115.297V114.834C250.697 114.182 250.568 113.717 250.311 113.439C250.053 113.162 249.672 113.023 249.168 113.023C248.84 113.023 248.523 113.066 248.219 113.152C247.918 113.234 247.611 113.354 247.299 113.51L247.111 113.018C247.416 112.873 247.742 112.754 248.09 112.66C248.441 112.566 248.809 112.52 249.191 112.52ZM250.691 115.76L249.578 115.807C248.77 115.846 248.154 115.99 247.732 116.24C247.311 116.49 247.1 116.865 247.1 117.365C247.1 117.768 247.225 118.076 247.475 118.291C247.729 118.506 248.08 118.613 248.529 118.613C249.229 118.613 249.762 118.414 250.129 118.016C250.5 117.617 250.688 117.074 250.691 116.387V115.76ZM19.8613 128.508C20.5762 128.508 21.125 128.695 21.5078 129.07C21.8906 129.445 22.082 130.033 22.082 130.834V135H21.4961V130.869C21.4961 130.236 21.3516 129.771 21.0625 129.475C20.7734 129.178 20.3535 129.029 19.8027 129.029C19.1035 129.029 18.5684 129.234 18.1973 129.645C17.8301 130.051 17.6465 130.666 17.6465 131.49V135H17.0547V128.631H17.5352L17.623 129.791H17.6582C17.7715 129.553 17.9258 129.338 18.1211 129.146C18.3203 128.951 18.5645 128.797 18.8535 128.684C19.1426 128.566 19.4785 128.508 19.8613 128.508ZM29.0957 128.631V135H28.6152L28.5273 133.852H28.4922C28.3828 134.086 28.2285 134.299 28.0293 134.49C27.8301 134.682 27.5859 134.834 27.2969 134.947C27.0078 135.061 26.6719 135.117 26.2891 135.117C25.8008 135.117 25.3906 135.033 25.0586 134.865C24.7305 134.693 24.4824 134.436 24.3145 134.092C24.1465 133.748 24.0625 133.318 24.0625 132.803V128.631H24.6543V132.744C24.6543 133.381 24.7969 133.85 25.082 134.15C25.3711 134.451 25.793 134.602 26.3477 134.602C26.8164 134.602 27.209 134.512 27.5254 134.332C27.8457 134.152 28.0879 133.881 28.252 133.518C28.4199 133.15 28.5039 132.693 28.5039 132.146V128.631H29.0957ZM33.6484 128.508C34.1914 128.508 34.6426 128.635 35.002 128.889C35.3652 129.143 35.6348 129.49 35.8105 129.932C35.9902 130.373 36.0801 130.879 36.0801 131.449V131.877H31.4805C31.4805 132.752 31.6816 133.424 32.084 133.893C32.4902 134.361 33.0703 134.596 33.8242 134.596C34.2188 134.596 34.5605 134.564 34.8496 134.502C35.1426 134.436 35.4668 134.324 35.8223 134.168V134.713C35.5098 134.854 35.1973 134.955 34.8848 135.018C34.5723 135.084 34.2129 135.117 33.8066 135.117C33.1621 135.117 32.6211 134.984 32.1836 134.719C31.75 134.449 31.4219 134.07 31.1992 133.582C30.9805 133.094 30.8711 132.523 30.8711 131.871C30.8711 131.234 30.9766 130.662 31.1875 130.154C31.4023 129.646 31.7148 129.246 32.125 128.953C32.5391 128.656 33.0469 128.508 33.6484 128.508ZM33.6426 129.018C33.0332 129.018 32.5391 129.221 32.1602 129.627C31.7852 130.029 31.5645 130.611 31.498 131.373H35.4648C35.4648 130.908 35.3984 130.498 35.2656 130.143C35.1328 129.787 34.9316 129.512 34.6621 129.316C34.3965 129.117 34.0566 129.018 33.6426 129.018ZM41.8164 133.33C41.8164 133.709 41.7207 134.033 41.5293 134.303C41.3418 134.568 41.0664 134.771 40.7031 134.912C40.3398 135.049 39.8926 135.117 39.3613 135.117C38.9199 135.117 38.5254 135.078 38.1777 135C37.8301 134.922 37.5391 134.826 37.3047 134.713V134.127C37.5977 134.271 37.9219 134.389 38.2773 134.479C38.6328 134.568 38.998 134.613 39.373 134.613C40.0293 134.613 40.502 134.502 40.791 134.279C41.0801 134.057 41.2246 133.752 41.2246 133.365C41.2246 133.111 41.1523 132.902 41.0078 132.738C40.8672 132.57 40.6641 132.426 40.3984 132.305C40.1328 132.184 39.8125 132.061 39.4375 131.936C39.0469 131.803 38.6992 131.672 38.3945 131.543C38.0938 131.41 37.8574 131.236 37.6855 131.021C37.5137 130.803 37.4277 130.506 37.4277 130.131C37.4277 129.619 37.6328 129.221 38.043 128.936C38.4531 128.65 39.0039 128.508 39.6953 128.508C40.0781 128.508 40.4336 128.545 40.7617 128.619C41.0938 128.689 41.3945 128.781 41.6641 128.895L41.4531 129.398C41.2109 129.285 40.9316 129.193 40.6152 129.123C40.2988 129.053 39.9824 129.018 39.666 129.018C39.1465 129.018 38.7402 129.109 38.4473 129.293C38.1543 129.477 38.0078 129.746 38.0078 130.102C38.0078 130.375 38.0781 130.59 38.2188 130.746C38.3594 130.898 38.5605 131.027 38.8223 131.133C39.084 131.234 39.3945 131.348 39.7539 131.473C40.125 131.602 40.4668 131.736 40.7793 131.877C41.0957 132.018 41.3477 132.199 41.5352 132.422C41.7227 132.645 41.8164 132.947 41.8164 133.33ZM45.1445 134.607C45.3281 134.607 45.498 134.594 45.6543 134.566C45.8145 134.539 45.9551 134.504 46.0762 134.461V134.953C45.9512 134.996 45.8047 135.033 45.6367 135.064C45.4688 135.1 45.2832 135.117 45.0801 135.117C44.7207 135.117 44.4219 135.051 44.1836 134.918C43.9453 134.781 43.7656 134.576 43.6445 134.303C43.5234 134.025 43.4629 133.674 43.4629 133.248V129.123H42.5137V128.771L43.457 128.59L43.6621 127.09H44.0547V128.631H46.041V129.123H44.0547V133.213C44.0547 133.67 44.1387 134.018 44.3066 134.256C44.4785 134.49 44.7578 134.607 45.1445 134.607ZM49.9785 128.52C50.1465 128.52 50.3047 128.529 50.4531 128.549C50.6016 128.568 50.7402 128.596 50.8691 128.631L50.7754 129.176C50.6465 129.141 50.5156 129.115 50.3828 129.1C50.25 129.08 50.1074 129.07 49.9551 129.07C49.6543 129.07 49.3848 129.127 49.1465 129.24C48.9121 129.354 48.7129 129.516 48.5488 129.727C48.3848 129.938 48.2598 130.191 48.1738 130.488C48.0879 130.785 48.0449 131.117 48.0449 131.484V135H47.4473V128.631H47.957L48.0156 129.832H48.0508C48.1484 129.586 48.2852 129.365 48.4609 129.17C48.6406 128.971 48.8574 128.812 49.1113 128.695C49.3652 128.578 49.6543 128.52 49.9785 128.52ZM54.3438 128.52C55.043 128.52 55.5664 128.695 55.9141 129.047C56.2617 129.398 56.4355 129.959 56.4355 130.729V135H55.9785L55.873 133.887H55.8379C55.7012 134.125 55.5352 134.338 55.3398 134.525C55.1445 134.709 54.9043 134.854 54.6191 134.959C54.3379 135.064 53.9941 135.117 53.5879 135.117C53.1777 135.117 52.8262 135.049 52.5332 134.912C52.2441 134.775 52.0195 134.576 51.8594 134.314C51.7031 134.053 51.625 133.734 51.625 133.359C51.625 132.727 51.8867 132.246 52.4102 131.918C52.9336 131.586 53.6855 131.398 54.666 131.355L55.8496 131.297V130.834C55.8496 130.182 55.7207 129.717 55.4629 129.439C55.2051 129.162 54.8242 129.023 54.3203 129.023C53.9922 129.023 53.6758 129.066 53.3711 129.152C53.0703 129.234 52.7637 129.354 52.4512 129.51L52.2637 129.018C52.5684 128.873 52.8945 128.754 53.2422 128.66C53.5938 128.566 53.9609 128.52 54.3438 128.52ZM55.8438 131.76L54.7305 131.807C53.9219 131.846 53.3066 131.99 52.8848 132.24C52.4629 132.49 52.252 132.865 52.252 133.365C52.252 133.768 52.377 134.076 52.627 134.291C52.8809 134.506 53.2324 134.613 53.6816 134.613C54.3809 134.613 54.9141 134.414 55.2812 134.016C55.6523 133.617 55.8398 133.074 55.8438 132.387V131.76ZM63.8242 128.52C64.5234 128.52 65.0469 128.695 65.3945 129.047C65.7422 129.398 65.916 129.959 65.916 130.729V135H65.459L65.3535 133.887H65.3184C65.1816 134.125 65.0156 134.338 64.8203 134.525C64.625 134.709 64.3848 134.854 64.0996 134.959C63.8184 135.064 63.4746 135.117 63.0684 135.117C62.6582 135.117 62.3066 135.049 62.0137 134.912C61.7246 134.775 61.5 134.576 61.3398 134.314C61.1836 134.053 61.1055 133.734 61.1055 133.359C61.1055 132.727 61.3672 132.246 61.8906 131.918C62.4141 131.586 63.166 131.398 64.1465 131.355L65.3301 131.297V130.834C65.3301 130.182 65.2012 129.717 64.9434 129.439C64.6855 129.162 64.3047 129.023 63.8008 129.023C63.4727 129.023 63.1562 129.066 62.8516 129.152C62.5508 129.234 62.2441 129.354 61.9316 129.51L61.7441 129.018C62.0488 128.873 62.375 128.754 62.7227 128.66C63.0742 128.566 63.4414 128.52 63.8242 128.52ZM65.3242 131.76L64.2109 131.807C63.4023 131.846 62.7871 131.99 62.3652 132.24C61.9434 132.49 61.7324 132.865 61.7324 133.365C61.7324 133.768 61.8574 134.076 62.1074 134.291C62.3613 134.506 62.7129 134.613 63.1621 134.613C63.8613 134.613 64.3945 134.414 64.7617 134.016C65.1328 133.617 65.3203 133.074 65.3242 132.387V131.76ZM70.7852 128.508C71.6055 128.508 72.2402 128.783 72.6895 129.334C73.1426 129.885 73.3691 130.697 73.3691 131.771C73.3691 132.49 73.2617 133.1 73.0469 133.6C72.832 134.096 72.5254 134.473 72.127 134.73C71.7324 134.988 71.2578 135.117 70.7031 135.117C70.3203 135.117 69.9863 135.061 69.7012 134.947C69.4199 134.83 69.1855 134.674 68.998 134.479C68.8105 134.279 68.666 134.061 68.5645 133.822H68.5234C68.5352 134.045 68.5449 134.277 68.5527 134.52C68.5605 134.762 68.5645 134.99 68.5645 135.205V137.818H67.9668V128.631H68.459L68.5293 129.902H68.5645C68.6699 129.66 68.8184 129.432 69.0098 129.217C69.2012 129.002 69.4434 128.83 69.7363 128.701C70.0293 128.572 70.3789 128.508 70.7852 128.508ZM70.709 129.029C70.2285 129.029 69.8281 129.135 69.5078 129.346C69.1914 129.553 68.9551 129.857 68.7988 130.26C68.6465 130.658 68.5684 131.146 68.5645 131.725V131.824C68.5645 132.445 68.6406 132.963 68.793 133.377C68.9492 133.787 69.1816 134.094 69.4902 134.297C69.8027 134.5 70.1895 134.602 70.6504 134.602C71.1035 134.602 71.4863 134.49 71.7988 134.268C72.1113 134.045 72.3496 133.723 72.5137 133.301C72.6777 132.879 72.7598 132.367 72.7598 131.766C72.7598 130.871 72.5879 130.191 72.2441 129.727C71.9043 129.262 71.3926 129.029 70.709 129.029ZM77.9336 128.508C78.7539 128.508 79.3887 128.783 79.8379 129.334C80.291 129.885 80.5176 130.697 80.5176 131.771C80.5176 132.49 80.4102 133.1 80.1953 133.6C79.9805 134.096 79.6738 134.473 79.2754 134.73C78.8809 134.988 78.4062 135.117 77.8516 135.117C77.4688 135.117 77.1348 135.061 76.8496 134.947C76.5684 134.83 76.334 134.674 76.1465 134.479C75.959 134.279 75.8145 134.061 75.7129 133.822H75.6719C75.6836 134.045 75.6934 134.277 75.7012 134.52C75.709 134.762 75.7129 134.99 75.7129 135.205V137.818H75.1152V128.631H75.6074L75.6777 129.902H75.7129C75.8184 129.66 75.9668 129.432 76.1582 129.217C76.3496 129.002 76.5918 128.83 76.8848 128.701C77.1777 128.572 77.5273 128.508 77.9336 128.508ZM77.8574 129.029C77.377 129.029 76.9766 129.135 76.6562 129.346C76.3398 129.553 76.1035 129.857 75.9473 130.26C75.7949 130.658 75.7168 131.146 75.7129 131.725V131.824C75.7129 132.445 75.7891 132.963 75.9414 133.377C76.0977 133.787 76.3301 134.094 76.6387 134.297C76.9512 134.5 77.3379 134.602 77.7988 134.602C78.252 134.602 78.6348 134.49 78.9473 134.268C79.2598 134.045 79.498 133.723 79.6621 133.301C79.8262 132.879 79.9082 132.367 79.9082 131.766C79.9082 130.871 79.7363 130.191 79.3926 129.727C79.0527 129.262 78.541 129.029 77.8574 129.029ZM91.9492 128.508C92.5625 128.508 93.0469 128.686 93.4023 129.041C93.7578 129.396 93.9355 129.957 93.9355 130.723V135H93.3555V130.746C93.3555 130.156 93.2207 129.723 92.9512 129.445C92.6816 129.168 92.3262 129.029 91.8848 129.029C91.2793 129.029 90.8047 129.207 90.4609 129.562C90.1211 129.914 89.9512 130.469 89.9512 131.227V135H89.3652V130.746C89.3652 130.352 89.3027 130.029 89.1777 129.779C89.0566 129.525 88.8867 129.338 88.668 129.217C88.4492 129.092 88.1914 129.029 87.8945 129.029C87.5 129.029 87.1582 129.111 86.8691 129.275C86.5801 129.436 86.3574 129.686 86.2012 130.025C86.0449 130.361 85.9668 130.789 85.9668 131.309V135H85.375V128.631H85.8555L85.9434 129.674H85.9785C86.084 129.467 86.2246 129.275 86.4004 129.1C86.5762 128.924 86.793 128.781 87.0508 128.672C87.3125 128.562 87.6191 128.508 87.9707 128.508C88.4277 128.508 88.8145 128.611 89.1309 128.818C89.4512 129.021 89.6738 129.324 89.7988 129.727H89.8398C90.0117 129.344 90.2773 129.045 90.6367 128.83C91 128.615 91.4375 128.508 91.9492 128.508ZM101.266 131.807C101.266 132.299 101.205 132.748 101.084 133.154C100.963 133.557 100.783 133.904 100.545 134.197C100.307 134.49 100.01 134.717 99.6543 134.877C99.3027 135.037 98.8926 135.117 98.4238 135.117C97.9785 135.117 97.582 135.039 97.2344 134.883C96.8867 134.723 96.5918 134.496 96.3496 134.203C96.1113 133.91 95.9297 133.562 95.8047 133.16C95.6797 132.754 95.6172 132.303 95.6172 131.807C95.6172 131.123 95.7305 130.535 95.957 130.043C96.1875 129.547 96.5156 129.168 96.9414 128.906C97.3711 128.641 97.8848 128.508 98.4824 128.508C99.0996 128.508 99.6133 128.648 100.023 128.93C100.438 129.207 100.748 129.594 100.955 130.09C101.162 130.586 101.266 131.158 101.266 131.807ZM96.2266 131.807C96.2266 132.365 96.3066 132.854 96.4668 133.271C96.627 133.689 96.8691 134.016 97.1934 134.25C97.5215 134.484 97.9355 134.602 98.4355 134.602C98.9473 134.602 99.3672 134.484 99.6953 134.25C100.023 134.016 100.266 133.688 100.422 133.266C100.578 132.844 100.656 132.357 100.656 131.807C100.656 131.271 100.582 130.795 100.434 130.377C100.285 129.959 100.051 129.631 99.7305 129.393C99.4102 129.15 98.9922 129.029 98.4766 129.029C97.7383 129.029 97.1777 129.275 96.7949 129.768C96.416 130.26 96.2266 130.939 96.2266 131.807ZM100.152 125.807V125.906C100.059 126.031 99.9434 126.174 99.8066 126.334C99.6699 126.49 99.5215 126.652 99.3613 126.82C99.2012 126.988 99.0391 127.15 98.875 127.307C98.7109 127.463 98.5527 127.604 98.4004 127.729H97.9785V127.629C98.1348 127.473 98.3066 127.287 98.4941 127.072C98.6816 126.854 98.8594 126.633 99.0273 126.41C99.1992 126.184 99.3398 125.982 99.4492 125.807H100.152ZM104.412 135L101.969 128.631H102.596L104.23 132.973C104.332 133.234 104.422 133.486 104.5 133.729C104.582 133.967 104.65 134.184 104.705 134.379H104.734C104.797 134.184 104.867 133.965 104.945 133.723C105.027 133.48 105.117 133.23 105.215 132.973L106.85 128.631H107.482L105.033 135H104.412ZM109.135 128.631V135H108.543V128.631H109.135ZM108.848 126.275C108.996 126.275 109.105 126.32 109.176 126.41C109.246 126.496 109.281 126.613 109.281 126.762C109.281 126.91 109.246 127.027 109.176 127.113C109.105 127.199 108.996 127.242 108.848 127.242C108.707 127.242 108.602 127.199 108.531 127.113C108.461 127.027 108.426 126.91 108.426 126.762C108.426 126.613 108.461 126.496 108.531 126.41C108.602 126.32 108.707 126.275 108.848 126.275ZM111.865 135H111.268V125.883H111.865V135ZM113.887 134.584C113.887 134.412 113.926 134.281 114.004 134.191C114.082 134.098 114.197 134.051 114.35 134.051C114.518 134.051 114.641 134.098 114.719 134.191C114.797 134.281 114.836 134.412 114.836 134.584C114.836 134.756 114.797 134.889 114.719 134.982C114.641 135.076 114.518 135.123 114.35 135.123C114.197 135.123 114.082 135.076 114.004 134.982C113.926 134.889 113.887 134.756 113.887 134.584ZM120.713 135H120.109V126.434H124.797V126.979H120.713V130.629H124.574V131.168H120.713V135ZM128.219 128.52C128.918 128.52 129.441 128.695 129.789 129.047C130.137 129.398 130.311 129.959 130.311 130.729V135H129.854L129.748 133.887H129.713C129.576 134.125 129.41 134.338 129.215 134.525C129.02 134.709 128.779 134.854 128.494 134.959C128.213 135.064 127.869 135.117 127.463 135.117C127.053 135.117 126.701 135.049 126.408 134.912C126.119 134.775 125.895 134.576 125.734 134.314C125.578 134.053 125.5 133.734 125.5 133.359C125.5 132.727 125.762 132.246 126.285 131.918C126.809 131.586 127.561 131.398 128.541 131.355L129.725 131.297V130.834C129.725 130.182 129.596 129.717 129.338 129.439C129.08 129.162 128.699 129.023 128.195 129.023C127.867 129.023 127.551 129.066 127.246 129.152C126.945 129.234 126.639 129.354 126.326 129.51L126.139 129.018C126.443 128.873 126.77 128.754 127.117 128.66C127.469 128.566 127.836 128.52 128.219 128.52ZM129.719 131.76L128.605 131.807C127.797 131.846 127.182 131.99 126.76 132.24C126.338 132.49 126.127 132.865 126.127 133.365C126.127 133.768 126.252 134.076 126.502 134.291C126.756 134.506 127.107 134.613 127.557 134.613C128.256 134.613 128.789 134.414 129.156 134.016C129.527 133.617 129.715 133.074 129.719 132.387V131.76ZM129.795 125.807V125.906C129.701 126.031 129.586 126.174 129.449 126.334C129.312 126.49 129.164 126.652 129.004 126.82C128.844 126.988 128.682 127.15 128.518 127.307C128.354 127.463 128.195 127.604 128.043 127.729H127.621V127.629C127.777 127.473 127.949 127.287 128.137 127.072C128.324 126.854 128.502 126.633 128.67 126.41C128.842 126.184 128.982 125.982 129.092 125.807H129.795ZM134.91 135.117C134.277 135.117 133.742 134.986 133.305 134.725C132.871 134.459 132.543 134.082 132.32 133.594C132.102 133.102 131.992 132.52 131.992 131.848C131.992 131.148 132.119 130.551 132.373 130.055C132.627 129.555 132.984 129.172 133.445 128.906C133.906 128.641 134.447 128.508 135.068 128.508C135.373 128.508 135.656 128.535 135.918 128.59C136.18 128.645 136.416 128.721 136.627 128.818L136.469 129.34C136.25 129.242 136.018 129.168 135.771 129.117C135.525 129.066 135.289 129.041 135.062 129.041C134.539 129.041 134.094 129.156 133.727 129.387C133.363 129.613 133.084 129.938 132.889 130.359C132.697 130.777 132.602 131.271 132.602 131.842C132.602 132.377 132.684 132.852 132.848 133.266C133.012 133.676 133.264 134 133.604 134.238C133.943 134.473 134.379 134.59 134.91 134.59C135.219 134.59 135.512 134.559 135.789 134.496C136.07 134.434 136.326 134.354 136.557 134.256V134.795C136.35 134.889 136.109 134.965 135.836 135.023C135.566 135.086 135.258 135.117 134.91 135.117ZM138.654 128.631V135H138.062V128.631H138.654ZM138.367 126.275C138.516 126.275 138.625 126.32 138.695 126.41C138.766 126.496 138.801 126.613 138.801 126.762C138.801 126.91 138.766 127.027 138.695 127.113C138.625 127.199 138.516 127.242 138.367 127.242C138.227 127.242 138.121 127.199 138.051 127.113C137.98 127.027 137.945 126.91 137.945 126.762C137.945 126.613 137.98 126.496 138.051 126.41C138.121 126.32 138.227 126.275 138.367 126.275ZM141.385 135H140.787V125.883H141.385V135ZM144.191 133.605L144.244 133.746C144.182 134.039 144.104 134.348 144.01 134.672C143.92 134.996 143.82 135.318 143.711 135.639C143.605 135.963 143.492 136.266 143.371 136.547H142.914C143.016 136.191 143.107 135.844 143.189 135.504C143.271 135.168 143.344 134.842 143.406 134.525C143.469 134.205 143.52 133.898 143.559 133.605H144.191ZM151.732 128.52C151.9 128.52 152.059 128.529 152.207 128.549C152.355 128.568 152.494 128.596 152.623 128.631L152.529 129.176C152.4 129.141 152.27 129.115 152.137 129.1C152.004 129.08 151.861 129.07 151.709 129.07C151.408 129.07 151.139 129.127 150.9 129.24C150.666 129.354 150.467 129.516 150.303 129.727C150.139 129.938 150.014 130.191 149.928 130.488C149.842 130.785 149.799 131.117 149.799 131.484V135H149.201V128.631H149.711L149.77 129.832H149.805C149.902 129.586 150.039 129.365 150.215 129.17C150.395 128.971 150.611 128.812 150.865 128.695C151.119 128.578 151.408 128.52 151.732 128.52ZM156.098 128.52C156.797 128.52 157.32 128.695 157.668 129.047C158.016 129.398 158.189 129.959 158.189 130.729V135H157.732L157.627 133.887H157.592C157.455 134.125 157.289 134.338 157.094 134.525C156.898 134.709 156.658 134.854 156.373 134.959C156.092 135.064 155.748 135.117 155.342 135.117C154.932 135.117 154.58 135.049 154.287 134.912C153.998 134.775 153.773 134.576 153.613 134.314C153.457 134.053 153.379 133.734 153.379 133.359C153.379 132.727 153.641 132.246 154.164 131.918C154.688 131.586 155.439 131.398 156.42 131.355L157.604 131.297V130.834C157.604 130.182 157.475 129.717 157.217 129.439C156.959 129.162 156.578 129.023 156.074 129.023C155.746 129.023 155.43 129.066 155.125 129.152C154.824 129.234 154.518 129.354 154.205 129.51L154.018 129.018C154.322 128.873 154.648 128.754 154.996 128.66C155.348 128.566 155.715 128.52 156.098 128.52ZM157.598 131.76L156.484 131.807C155.676 131.846 155.061 131.99 154.639 132.24C154.217 132.49 154.006 132.865 154.006 133.365C154.006 133.768 154.131 134.076 154.381 134.291C154.635 134.506 154.986 134.613 155.436 134.613C156.135 134.613 156.668 134.414 157.035 134.016C157.406 133.617 157.594 133.074 157.598 132.387V131.76ZM157.674 125.807V125.906C157.58 126.031 157.465 126.174 157.328 126.334C157.191 126.49 157.043 126.652 156.883 126.82C156.723 126.988 156.561 127.15 156.396 127.307C156.232 127.463 156.074 127.604 155.922 127.729H155.5V127.629C155.656 127.473 155.828 127.287 156.016 127.072C156.203 126.854 156.381 126.633 156.549 126.41C156.721 126.184 156.861 125.982 156.971 125.807H157.674ZM163.059 128.508C163.879 128.508 164.514 128.783 164.963 129.334C165.416 129.885 165.643 130.697 165.643 131.771C165.643 132.49 165.535 133.1 165.32 133.6C165.105 134.096 164.799 134.473 164.4 134.73C164.006 134.988 163.531 135.117 162.977 135.117C162.594 135.117 162.26 135.061 161.975 134.947C161.693 134.83 161.459 134.674 161.271 134.479C161.084 134.279 160.939 134.061 160.838 133.822H160.797C160.809 134.045 160.818 134.277 160.826 134.52C160.834 134.762 160.838 134.99 160.838 135.205V137.818H160.24V128.631H160.732L160.803 129.902H160.838C160.943 129.66 161.092 129.432 161.283 129.217C161.475 129.002 161.717 128.83 162.01 128.701C162.303 128.572 162.652 128.508 163.059 128.508ZM162.982 129.029C162.502 129.029 162.102 129.135 161.781 129.346C161.465 129.553 161.229 129.857 161.072 130.26C160.92 130.658 160.842 131.146 160.838 131.725V131.824C160.838 132.445 160.914 132.963 161.066 133.377C161.223 133.787 161.455 134.094 161.764 134.297C162.076 134.5 162.463 134.602 162.924 134.602C163.377 134.602 163.76 134.49 164.072 134.268C164.385 134.045 164.623 133.723 164.787 133.301C164.951 132.879 165.033 132.367 165.033 131.766C165.033 130.871 164.861 130.191 164.518 129.727C164.178 129.262 163.666 129.029 162.982 129.029ZM167.975 128.631V135H167.383V128.631H167.975ZM167.688 126.275C167.836 126.275 167.945 126.32 168.016 126.41C168.086 126.496 168.121 126.613 168.121 126.762C168.121 126.91 168.086 127.027 168.016 127.113C167.945 127.199 167.836 127.242 167.688 127.242C167.547 127.242 167.441 127.199 167.371 127.113C167.301 127.027 167.266 126.91 167.266 126.762C167.266 126.613 167.301 126.496 167.371 126.41C167.441 126.32 167.547 126.275 167.688 126.275ZM172.41 135.117C171.539 135.117 170.875 134.844 170.418 134.297C169.965 133.746 169.738 132.945 169.738 131.895C169.738 130.793 169.979 129.953 170.459 129.375C170.939 128.797 171.609 128.508 172.469 128.508C172.836 128.508 173.154 128.564 173.424 128.678C173.697 128.791 173.926 128.945 174.109 129.141C174.297 129.332 174.441 129.551 174.543 129.797H174.59C174.574 129.59 174.562 129.367 174.555 129.129C174.547 128.891 174.543 128.672 174.543 128.473V125.883H175.135V135H174.654L174.578 133.834H174.543C174.438 134.068 174.291 134.283 174.104 134.479C173.92 134.674 173.689 134.83 173.412 134.947C173.135 135.061 172.801 135.117 172.41 135.117ZM172.475 134.602C173.225 134.602 173.758 134.369 174.074 133.904C174.391 133.436 174.549 132.768 174.549 131.9V131.807C174.549 130.908 174.391 130.221 174.074 129.744C173.758 129.264 173.242 129.023 172.527 129.023C171.82 129.023 171.279 129.27 170.904 129.762C170.533 130.254 170.348 130.969 170.348 131.906C170.348 132.789 170.521 133.459 170.869 133.916C171.221 134.373 171.756 134.602 172.475 134.602ZM182.535 131.807C182.535 132.299 182.475 132.748 182.354 133.154C182.232 133.557 182.053 133.904 181.814 134.197C181.576 134.49 181.279 134.717 180.924 134.877C180.572 135.037 180.162 135.117 179.693 135.117C179.248 135.117 178.852 135.039 178.504 134.883C178.156 134.723 177.861 134.496 177.619 134.203C177.381 133.91 177.199 133.562 177.074 133.16C176.949 132.754 176.887 132.303 176.887 131.807C176.887 131.123 177 130.535 177.227 130.043C177.457 129.547 177.785 129.168 178.211 128.906C178.641 128.641 179.154 128.508 179.752 128.508C180.369 128.508 180.883 128.648 181.293 128.93C181.707 129.207 182.018 129.594 182.225 130.09C182.432 130.586 182.535 131.158 182.535 131.807ZM177.496 131.807C177.496 132.365 177.576 132.854 177.736 133.271C177.896 133.689 178.139 134.016 178.463 134.25C178.791 134.484 179.205 134.602 179.705 134.602C180.217 134.602 180.637 134.484 180.965 134.25C181.293 134.016 181.535 133.688 181.691 133.266C181.848 132.844 181.926 132.357 181.926 131.807C181.926 131.271 181.852 130.795 181.703 130.377C181.555 129.959 181.32 129.631 181 129.393C180.68 129.15 180.262 129.029 179.746 129.029C179.008 129.029 178.447 129.275 178.064 129.768C177.686 130.26 177.496 130.939 177.496 131.807ZM186.361 128.631H186.988L188.535 132.674C188.629 132.912 188.711 133.133 188.781 133.336C188.855 133.535 188.92 133.719 188.975 133.887C189.029 134.051 189.074 134.201 189.109 134.338H189.145C189.203 134.158 189.281 133.928 189.379 133.646C189.477 133.361 189.588 133.045 189.713 132.697L191.242 128.631H191.875L188.969 136.195C188.828 136.562 188.674 136.873 188.506 137.127C188.338 137.385 188.141 137.578 187.914 137.707C187.688 137.84 187.414 137.906 187.094 137.906C186.949 137.906 186.818 137.895 186.701 137.871C186.584 137.852 186.471 137.824 186.361 137.789V137.279C186.463 137.311 186.566 137.336 186.672 137.355C186.781 137.379 186.9 137.391 187.029 137.391C187.252 137.391 187.443 137.344 187.604 137.25C187.768 137.16 187.914 137.02 188.043 136.828C188.172 136.637 188.293 136.393 188.406 136.096L188.84 134.965L186.361 128.631ZM200.02 133.33C200.02 133.709 199.924 134.033 199.732 134.303C199.545 134.568 199.27 134.771 198.906 134.912C198.543 135.049 198.096 135.117 197.564 135.117C197.123 135.117 196.729 135.078 196.381 135C196.033 134.922 195.742 134.826 195.508 134.713V134.127C195.801 134.271 196.125 134.389 196.48 134.479C196.836 134.568 197.201 134.613 197.576 134.613C198.232 134.613 198.705 134.502 198.994 134.279C199.283 134.057 199.428 133.752 199.428 133.365C199.428 133.111 199.355 132.902 199.211 132.738C199.07 132.57 198.867 132.426 198.602 132.305C198.336 132.184 198.016 132.061 197.641 131.936C197.25 131.803 196.902 131.672 196.598 131.543C196.297 131.41 196.061 131.236 195.889 131.021C195.717 130.803 195.631 130.506 195.631 130.131C195.631 129.619 195.836 129.221 196.246 128.936C196.656 128.65 197.207 128.508 197.898 128.508C198.281 128.508 198.637 128.545 198.965 128.619C199.297 128.689 199.598 128.781 199.867 128.895L199.656 129.398C199.414 129.285 199.135 129.193 198.818 129.123C198.502 129.053 198.186 129.018 197.869 129.018C197.35 129.018 196.943 129.109 196.65 129.293C196.357 129.477 196.211 129.746 196.211 130.102C196.211 130.375 196.281 130.59 196.422 130.746C196.562 130.898 196.764 131.027 197.025 131.133C197.287 131.234 197.598 131.348 197.957 131.473C198.328 131.602 198.67 131.736 198.982 131.877C199.299 132.018 199.551 132.199 199.738 132.422C199.926 132.645 200.02 132.947 200.02 133.33ZM204.039 128.508C204.582 128.508 205.033 128.635 205.393 128.889C205.756 129.143 206.025 129.49 206.201 129.932C206.381 130.373 206.471 130.879 206.471 131.449V131.877H201.871C201.871 132.752 202.072 133.424 202.475 133.893C202.881 134.361 203.461 134.596 204.215 134.596C204.609 134.596 204.951 134.564 205.24 134.502C205.533 134.436 205.857 134.324 206.213 134.168V134.713C205.9 134.854 205.588 134.955 205.275 135.018C204.963 135.084 204.604 135.117 204.197 135.117C203.553 135.117 203.012 134.984 202.574 134.719C202.141 134.449 201.812 134.07 201.59 133.582C201.371 133.094 201.262 132.523 201.262 131.871C201.262 131.234 201.367 130.662 201.578 130.154C201.793 129.646 202.105 129.246 202.516 128.953C202.93 128.656 203.438 128.508 204.039 128.508ZM204.033 129.018C203.424 129.018 202.93 129.221 202.551 129.627C202.176 130.029 201.955 130.611 201.889 131.373H205.855C205.855 130.908 205.789 130.498 205.656 130.143C205.523 129.787 205.322 129.512 205.053 129.316C204.787 129.117 204.447 129.018 204.033 129.018ZM209.91 137.883C209.109 137.883 208.486 137.729 208.041 137.42C207.6 137.111 207.379 136.68 207.379 136.125C207.379 135.695 207.514 135.324 207.783 135.012C208.053 134.703 208.418 134.518 208.879 134.455C208.695 134.369 208.545 134.252 208.428 134.104C208.314 133.955 208.258 133.783 208.258 133.588C208.258 133.369 208.326 133.166 208.463 132.979C208.6 132.787 208.805 132.611 209.078 132.451C208.711 132.318 208.422 132.094 208.211 131.777C208 131.457 207.895 131.072 207.895 130.623C207.895 130.193 207.986 129.82 208.17 129.504C208.354 129.188 208.613 128.943 208.949 128.771C209.289 128.596 209.689 128.508 210.15 128.508C210.291 128.508 210.418 128.512 210.531 128.52C210.648 128.527 210.756 128.541 210.854 128.561C210.951 128.576 211.039 128.598 211.117 128.625H213.174V129.047L211.861 129.135C212.033 129.342 212.162 129.566 212.248 129.809C212.334 130.047 212.377 130.299 212.377 130.564C212.377 131.197 212.178 131.699 211.779 132.07C211.381 132.441 210.826 132.627 210.115 132.627C209.92 132.627 209.729 132.609 209.541 132.574C209.303 132.715 209.121 132.857 208.996 133.002C208.871 133.143 208.809 133.318 208.809 133.529C208.809 133.662 208.848 133.771 208.926 133.857C209.004 133.939 209.117 134.004 209.266 134.051C209.414 134.094 209.596 134.115 209.811 134.115H210.93C211.621 134.115 212.15 134.256 212.518 134.537C212.885 134.818 213.068 135.232 213.068 135.779C213.068 136.447 212.793 136.965 212.242 137.332C211.695 137.699 210.918 137.883 209.91 137.883ZM209.951 137.385C210.51 137.385 210.975 137.324 211.346 137.203C211.721 137.082 212.002 136.902 212.189 136.664C212.377 136.43 212.471 136.139 212.471 135.791C212.471 135.506 212.402 135.285 212.266 135.129C212.129 134.973 211.936 134.865 211.686 134.807C211.436 134.744 211.141 134.713 210.801 134.713H209.734C209.395 134.713 209.092 134.76 208.826 134.854C208.561 134.943 208.354 135.088 208.205 135.287C208.061 135.486 207.988 135.752 207.988 136.084C207.988 136.51 208.154 136.832 208.486 137.051C208.822 137.273 209.311 137.385 209.951 137.385ZM210.139 132.152C210.666 132.152 211.07 132.02 211.352 131.754C211.633 131.488 211.773 131.104 211.773 130.6C211.773 130.061 211.629 129.656 211.34 129.387C211.051 129.117 210.646 128.982 210.127 128.982C209.623 128.982 209.227 129.127 208.938 129.416C208.652 129.701 208.51 130.104 208.51 130.623C208.51 131.107 208.646 131.484 208.92 131.754C209.193 132.02 209.6 132.152 210.139 132.152ZM219.408 128.631V135H218.928L218.84 133.852H218.805C218.695 134.086 218.541 134.299 218.342 134.49C218.143 134.682 217.898 134.834 217.609 134.947C217.32 135.061 216.984 135.117 216.602 135.117C216.113 135.117 215.703 135.033 215.371 134.865C215.043 134.693 214.795 134.436 214.627 134.092C214.459 133.748 214.375 133.318 214.375 132.803V128.631H214.967V132.744C214.967 133.381 215.109 133.85 215.395 134.15C215.684 134.451 216.105 134.602 216.66 134.602C217.129 134.602 217.521 134.512 217.838 134.332C218.158 134.152 218.4 133.881 218.564 133.518C218.732 133.15 218.816 132.693 218.816 132.146V128.631H219.408ZM224.084 128.52C224.252 128.52 224.41 128.529 224.559 128.549C224.707 128.568 224.846 128.596 224.975 128.631L224.881 129.176C224.752 129.141 224.621 129.115 224.488 129.1C224.355 129.08 224.213 129.07 224.061 129.07C223.76 129.07 223.49 129.127 223.252 129.24C223.018 129.354 222.818 129.516 222.654 129.727C222.49 129.938 222.365 130.191 222.279 130.488C222.193 130.785 222.15 131.117 222.15 131.484V135H221.553V128.631H222.062L222.121 129.832H222.156C222.254 129.586 222.391 129.365 222.566 129.17C222.746 128.971 222.963 128.812 223.217 128.695C223.471 128.578 223.76 128.52 224.084 128.52ZM231.508 131.807C231.508 132.299 231.447 132.748 231.326 133.154C231.205 133.557 231.025 133.904 230.787 134.197C230.549 134.49 230.252 134.717 229.896 134.877C229.545 135.037 229.135 135.117 228.666 135.117C228.221 135.117 227.824 135.039 227.477 134.883C227.129 134.723 226.834 134.496 226.592 134.203C226.354 133.91 226.172 133.562 226.047 133.16C225.922 132.754 225.859 132.303 225.859 131.807C225.859 131.123 225.973 130.535 226.199 130.043C226.43 129.547 226.758 129.168 227.184 128.906C227.613 128.641 228.127 128.508 228.725 128.508C229.342 128.508 229.855 128.648 230.266 128.93C230.68 129.207 230.99 129.594 231.197 130.09C231.404 130.586 231.508 131.158 231.508 131.807ZM226.469 131.807C226.469 132.365 226.549 132.854 226.709 133.271C226.869 133.689 227.111 134.016 227.436 134.25C227.764 134.484 228.178 134.602 228.678 134.602C229.189 134.602 229.609 134.484 229.938 134.25C230.266 134.016 230.508 133.688 230.664 133.266C230.82 132.844 230.898 132.357 230.898 131.807C230.898 131.271 230.824 130.795 230.676 130.377C230.527 129.959 230.293 129.631 229.973 129.393C229.652 129.15 229.234 129.029 228.719 129.029C227.98 129.029 227.42 129.275 227.037 129.768C226.658 130.26 226.469 130.939 226.469 131.807ZM233.172 134.584C233.172 134.412 233.211 134.281 233.289 134.191C233.367 134.098 233.482 134.051 233.635 134.051C233.803 134.051 233.926 134.098 234.004 134.191C234.082 134.281 234.121 134.412 234.121 134.584C234.121 134.756 234.082 134.889 234.004 134.982C233.926 135.076 233.803 135.123 233.635 135.123C233.482 135.123 233.367 135.076 233.289 134.982C233.211 134.889 233.172 134.756 233.172 134.584Z" fill="black"/>
</g>
<rect x="0.5" y="0.5" width="281" height="164" rx="9.5" stroke="#D1FAE5"/>
<defs>
<clipPath id="clip0_267_167">
<rect width="282" height="165" rx="10" fill="white"/>
</clipPath>
</defs>
</svg>
