<svg width="290" height="165" viewBox="0 0 290 165" fill="none" xmlns="http://www.w3.org/2000/svg">
<rect x="0.75" y="0.75" width="288.5" height="163.5" rx="9.25" stroke="#059669" stroke-width="1.5"/>
<path d="M28.1021 24.7197V30.7246C28.1021 31.3636 27.9603 31.9412 27.6768 32.4575C27.3975 32.9696 26.9722 33.3758 26.4009 33.6763C25.8338 33.9767 25.1187 34.127 24.2554 34.127C23.0282 34.127 22.0929 33.8138 21.4497 33.1875C20.8065 32.5612 20.4849 31.7318 20.4849 30.6992V24.7197H22.4463V30.4009C22.4463 31.1668 22.6029 31.7043 22.916 32.0132C23.2292 32.3221 23.6925 32.4766 24.3062 32.4766C24.7378 32.4766 25.0869 32.4025 25.3535 32.2544C25.6243 32.1063 25.8232 31.8778 25.9502 31.5688C26.0771 31.2599 26.1406 30.8664 26.1406 30.3882V24.7197H28.1021ZM35.1733 31.8926C35.1733 32.375 35.0591 32.7834 34.8306 33.1177C34.6063 33.4478 34.2699 33.6995 33.8213 33.873C33.3727 34.0423 32.8141 34.127 32.1455 34.127C31.6504 34.127 31.2251 34.0952 30.8696 34.0317C30.5184 33.9683 30.1629 33.8625 29.8032 33.7144V32.1147C30.1883 32.2882 30.6009 32.4321 31.041 32.5464C31.4854 32.6564 31.8747 32.7114 32.209 32.7114C32.5856 32.7114 32.8543 32.6564 33.0151 32.5464C33.1802 32.4321 33.2627 32.284 33.2627 32.1021C33.2627 31.9836 33.2288 31.8778 33.1611 31.7847C33.0977 31.6873 32.958 31.5794 32.7422 31.4609C32.5264 31.3382 32.1878 31.1795 31.7266 30.9849C31.2822 30.7987 30.9162 30.6104 30.6284 30.4199C30.3449 30.2295 30.1333 30.0052 29.9937 29.7471C29.8582 29.4847 29.7905 29.1525 29.7905 28.7505C29.7905 28.0946 30.0444 27.6016 30.5522 27.2715C31.0643 26.9372 31.7477 26.77 32.6025 26.77C33.0426 26.77 33.4616 26.8145 33.8594 26.9033C34.2614 26.9922 34.674 27.134 35.0972 27.3286L34.5132 28.7251C34.1619 28.5728 33.8298 28.4479 33.5166 28.3506C33.2077 28.2533 32.8924 28.2046 32.5708 28.2046C32.2873 28.2046 32.0736 28.2427 31.9297 28.3188C31.7858 28.395 31.7139 28.5114 31.7139 28.668C31.7139 28.7822 31.7498 28.8838 31.8218 28.9727C31.8979 29.0615 32.0418 29.161 32.2534 29.271C32.4692 29.3768 32.7845 29.5143 33.1992 29.6836C33.6012 29.8486 33.9504 30.0221 34.2466 30.2041C34.5428 30.3818 34.7713 30.604 34.9321 30.8706C35.0929 31.133 35.1733 31.4736 35.1733 31.8926ZM43.1968 26.9033V34H41.7114L41.4512 33.0923H41.3496C41.1973 33.3335 41.0068 33.5303 40.7783 33.6826C40.5498 33.835 40.298 33.9471 40.0229 34.019C39.7479 34.091 39.4622 34.127 39.166 34.127C38.6582 34.127 38.216 34.0381 37.8394 33.8604C37.4627 33.6784 37.1686 33.397 36.957 33.0161C36.7497 32.6353 36.646 32.1401 36.646 31.5308V26.9033H38.582V31.0483C38.582 31.5562 38.673 31.9391 38.855 32.1973C39.0369 32.4554 39.3268 32.5845 39.7246 32.5845C40.1182 32.5845 40.4271 32.4956 40.6514 32.3179C40.8757 32.1359 41.0322 31.8714 41.1211 31.5244C41.2142 31.1732 41.2607 30.7458 41.2607 30.2422V26.9033H43.1968ZM48.1353 26.7573C49.0874 26.7573 49.8174 26.9647 50.3252 27.3794C50.833 27.7941 51.0869 28.4246 51.0869 29.271V34H49.7349L49.3604 33.0352H49.3096C49.1064 33.2891 48.8991 33.4964 48.6875 33.6572C48.4759 33.818 48.2326 33.9365 47.9575 34.0127C47.6825 34.0889 47.3481 34.127 46.9546 34.127C46.5356 34.127 46.159 34.0465 45.8247 33.8857C45.4946 33.7249 45.2344 33.4795 45.0439 33.1494C44.8535 32.8151 44.7583 32.3919 44.7583 31.8799C44.7583 31.1266 45.0228 30.5723 45.5518 30.2168C46.0807 29.8571 46.8742 29.6582 47.9321 29.6201L49.1636 29.582V29.271C49.1636 28.8986 49.0662 28.6257 48.8716 28.4521C48.6769 28.2786 48.4061 28.1919 48.0591 28.1919C47.7163 28.1919 47.3799 28.2406 47.0498 28.3379C46.7197 28.4352 46.3896 28.5579 46.0596 28.7061L45.4185 27.3984C45.7951 27.1995 46.2161 27.043 46.6816 26.9287C47.1514 26.8145 47.6359 26.7573 48.1353 26.7573ZM49.1636 30.7119L48.4146 30.7373C47.7882 30.7542 47.3524 30.8664 47.1069 31.0737C46.8657 31.2811 46.7451 31.554 46.7451 31.8926C46.7451 32.1888 46.8319 32.4004 47.0054 32.5273C47.1789 32.6501 47.4053 32.7114 47.6846 32.7114C48.0993 32.7114 48.4484 32.5887 48.7319 32.3433C49.0197 32.0978 49.1636 31.7487 49.1636 31.2959V30.7119ZM57.0474 26.77C57.1447 26.77 57.2568 26.7764 57.3838 26.7891C57.515 26.7975 57.6208 26.8102 57.7012 26.8271L57.5552 28.6426C57.4917 28.6214 57.4007 28.6066 57.2822 28.5981C57.168 28.5854 57.0685 28.5791 56.9839 28.5791C56.7342 28.5791 56.4909 28.6108 56.2539 28.6743C56.0212 28.7378 55.8117 28.8415 55.6255 28.9854C55.4393 29.125 55.2912 29.3112 55.1812 29.5439C55.0754 29.7725 55.0225 30.0539 55.0225 30.3882V34H53.0864V26.9033H54.5527L54.8384 28.0967H54.9336C55.0732 27.8555 55.2467 27.6354 55.4541 27.4365C55.6657 27.2334 55.9048 27.0726 56.1714 26.9541C56.4422 26.8314 56.7342 26.77 57.0474 26.77ZM60.9258 26.9033V34H58.9897V26.9033H60.9258ZM59.9609 24.123C60.2487 24.123 60.4963 24.1908 60.7036 24.3262C60.911 24.4574 61.0146 24.7049 61.0146 25.0688C61.0146 25.4285 60.911 25.6782 60.7036 25.8179C60.4963 25.9533 60.2487 26.021 59.9609 26.021C59.6689 26.021 59.4193 25.9533 59.2119 25.8179C59.0088 25.6782 58.9072 25.4285 58.9072 25.0688C58.9072 24.7049 59.0088 24.4574 59.2119 24.3262C59.4193 24.1908 59.6689 24.123 59.9609 24.123ZM69.4126 30.439C69.4126 31.0314 69.3322 31.5562 69.1714 32.0132C69.0148 32.4702 68.7842 32.8574 68.4795 33.1748C68.179 33.488 67.8151 33.7249 67.3877 33.8857C66.9645 34.0465 66.4863 34.127 65.9531 34.127C65.4538 34.127 64.9946 34.0465 64.5757 33.8857C64.161 33.7249 63.7992 33.488 63.4902 33.1748C63.1855 32.8574 62.9486 32.4702 62.7793 32.0132C62.6143 31.5562 62.5317 31.0314 62.5317 30.439C62.5317 29.6519 62.6714 28.9854 62.9507 28.4395C63.23 27.8936 63.6278 27.4788 64.144 27.1953C64.6603 26.9118 65.276 26.77 65.9912 26.77C66.6556 26.77 67.2438 26.9118 67.7559 27.1953C68.2721 27.4788 68.6763 27.8936 68.9683 28.4395C69.2645 28.9854 69.4126 29.6519 69.4126 30.439ZM64.5059 30.439C64.5059 30.9045 64.5566 31.2959 64.6582 31.6133C64.7598 31.9307 64.9185 32.1698 65.1343 32.3306C65.3501 32.4914 65.6315 32.5718 65.9785 32.5718C66.3213 32.5718 66.5985 32.4914 66.8101 32.3306C67.0259 32.1698 67.1825 31.9307 67.2798 31.6133C67.3813 31.2959 67.4321 30.9045 67.4321 30.439C67.4321 29.9692 67.3813 29.5799 67.2798 29.271C67.1825 28.9578 67.0259 28.723 66.8101 28.5664C66.5942 28.4098 66.3128 28.3315 65.9658 28.3315C65.4538 28.3315 65.0814 28.5072 64.8486 28.8584C64.6201 29.2096 64.5059 29.7365 64.5059 30.439ZM81.8223 24.7197L78.6675 34H76.522L73.3735 24.7197H75.3604L77.106 30.2422C77.1356 30.3353 77.1842 30.5109 77.252 30.769C77.3197 31.0229 77.3874 31.2938 77.4551 31.5815C77.527 31.8651 77.5757 32.0999 77.6011 32.2861C77.6265 32.0999 77.6709 31.8651 77.7344 31.5815C77.8021 31.298 77.8677 31.0293 77.9312 30.7754C77.9989 30.5173 78.0475 30.3395 78.0771 30.2422L79.8354 24.7197H81.8223ZM84.7803 26.9033V34H82.8442V26.9033H84.7803ZM83.8154 24.123C84.1032 24.123 84.3507 24.1908 84.5581 24.3262C84.7655 24.4574 84.8691 24.7049 84.8691 25.0688C84.8691 25.4285 84.7655 25.6782 84.5581 25.8179C84.3507 25.9533 84.1032 26.021 83.8154 26.021C83.5234 26.021 83.2738 25.9533 83.0664 25.8179C82.8633 25.6782 82.7617 25.4285 82.7617 25.0688C82.7617 24.7049 82.8633 24.4574 83.0664 24.3262C83.2738 24.1908 83.5234 24.123 83.8154 24.123ZM91.769 31.8926C91.769 32.375 91.6548 32.7834 91.4263 33.1177C91.202 33.4478 90.8656 33.6995 90.417 33.873C89.9684 34.0423 89.4098 34.127 88.7412 34.127C88.2461 34.127 87.8208 34.0952 87.4653 34.0317C87.1141 33.9683 86.7586 33.8625 86.3989 33.7144V32.1147C86.784 32.2882 87.1966 32.4321 87.6367 32.5464C88.0811 32.6564 88.4704 32.7114 88.8047 32.7114C89.1813 32.7114 89.45 32.6564 89.6108 32.5464C89.7759 32.4321 89.8584 32.284 89.8584 32.1021C89.8584 31.9836 89.8245 31.8778 89.7568 31.7847C89.6934 31.6873 89.5537 31.5794 89.3379 31.4609C89.1221 31.3382 88.7835 31.1795 88.3223 30.9849C87.8779 30.7987 87.5119 30.6104 87.2241 30.4199C86.9406 30.2295 86.729 30.0052 86.5894 29.7471C86.4539 29.4847 86.3862 29.1525 86.3862 28.7505C86.3862 28.0946 86.6401 27.6016 87.1479 27.2715C87.66 26.9372 88.3434 26.77 89.1982 26.77C89.6383 26.77 90.0573 26.8145 90.4551 26.9033C90.8571 26.9922 91.2697 27.134 91.6929 27.3286L91.1089 28.7251C90.7576 28.5728 90.4255 28.4479 90.1123 28.3506C89.8034 28.2533 89.4881 28.2046 89.1665 28.2046C88.883 28.2046 88.6693 28.2427 88.5254 28.3188C88.3815 28.395 88.3096 28.5114 88.3096 28.668C88.3096 28.7822 88.3455 28.8838 88.4175 28.9727C88.4937 29.0615 88.6375 29.161 88.8491 29.271C89.0649 29.3768 89.3802 29.5143 89.7949 29.6836C90.1969 29.8486 90.5461 30.0221 90.8423 30.2041C91.1385 30.3818 91.367 30.604 91.5278 30.8706C91.6886 31.133 91.769 31.4736 91.769 31.8926ZM95.2158 26.9033V34H93.2798V26.9033H95.2158ZM94.251 24.123C94.5387 24.123 94.7863 24.1908 94.9937 24.3262C95.201 24.4574 95.3047 24.7049 95.3047 25.0688C95.3047 25.4285 95.201 25.6782 94.9937 25.8179C94.7863 25.9533 94.5387 26.021 94.251 26.021C93.959 26.021 93.7093 25.9533 93.502 25.8179C93.2988 25.6782 93.1973 25.4285 93.1973 25.0688C93.1973 24.7049 93.2988 24.4574 93.502 24.3262C93.7093 24.1908 93.959 24.123 94.251 24.123ZM100.243 32.5845C100.455 32.5845 100.66 32.5633 100.859 32.521C101.062 32.4787 101.263 32.4258 101.462 32.3623V33.8032C101.255 33.8963 100.996 33.9725 100.688 34.0317C100.383 34.0952 100.049 34.127 99.6846 34.127C99.2614 34.127 98.8805 34.0592 98.542 33.9238C98.2077 33.7842 97.9432 33.5451 97.7485 33.2065C97.5581 32.8638 97.4629 32.3877 97.4629 31.7783V28.3569H96.5361V27.5381L97.6025 26.8906L98.1611 25.3926H99.3989V26.9033H101.386V28.3569H99.3989V31.7783C99.3989 32.0492 99.4751 32.2523 99.6274 32.3877C99.784 32.5189 99.9893 32.5845 100.243 32.5845ZM105.81 26.7573C106.762 26.7573 107.492 26.9647 108 27.3794C108.508 27.7941 108.762 28.4246 108.762 29.271V34H107.41L107.035 33.0352H106.984C106.781 33.2891 106.574 33.4964 106.362 33.6572C106.151 33.818 105.907 33.9365 105.632 34.0127C105.357 34.0889 105.023 34.127 104.629 34.127C104.21 34.127 103.834 34.0465 103.5 33.8857C103.169 33.7249 102.909 33.4795 102.719 33.1494C102.528 32.8151 102.433 32.3919 102.433 31.8799C102.433 31.1266 102.698 30.5723 103.227 30.2168C103.756 29.8571 104.549 29.6582 105.607 29.6201L106.838 29.582V29.271C106.838 28.8986 106.741 28.6257 106.546 28.4521C106.352 28.2786 106.081 28.1919 105.734 28.1919C105.391 28.1919 105.055 28.2406 104.725 28.3379C104.395 28.4352 104.064 28.5579 103.734 28.7061L103.093 27.3984C103.47 27.1995 103.891 27.043 104.356 26.9287C104.826 26.8145 105.311 26.7573 105.81 26.7573ZM106.838 30.7119L106.089 30.7373C105.463 30.7542 105.027 30.8664 104.782 31.0737C104.541 31.2811 104.42 31.554 104.42 31.8926C104.42 32.1888 104.507 32.4004 104.68 32.5273C104.854 32.6501 105.08 32.7114 105.359 32.7114C105.774 32.7114 106.123 32.5887 106.407 32.3433C106.694 32.0978 106.838 31.7487 106.838 31.2959V30.7119ZM114.792 26.77C115.549 26.77 116.159 26.9774 116.62 27.3921C117.081 27.8026 117.312 28.4627 117.312 29.3726V34H115.376V29.855C115.376 29.3472 115.283 28.9642 115.097 28.7061C114.915 28.4479 114.627 28.3188 114.233 28.3188C113.641 28.3188 113.237 28.5199 113.021 28.9219C112.805 29.3239 112.697 29.9036 112.697 30.6611V34H110.761V26.9033H112.24L112.5 27.811H112.608C112.761 27.5656 112.949 27.3667 113.173 27.2144C113.402 27.062 113.654 26.9499 113.929 26.8779C114.208 26.806 114.496 26.77 114.792 26.77ZM122.295 32.5845C122.507 32.5845 122.712 32.5633 122.911 32.521C123.114 32.4787 123.315 32.4258 123.514 32.3623V33.8032C123.306 33.8963 123.048 33.9725 122.739 34.0317C122.435 34.0952 122.1 34.127 121.736 34.127C121.313 34.127 120.932 34.0592 120.594 33.9238C120.259 33.7842 119.995 33.5451 119.8 33.2065C119.61 32.8638 119.515 32.3877 119.515 31.7783V28.3569H118.588V27.5381L119.654 26.8906L120.213 25.3926H121.451V26.9033H123.438V28.3569H121.451V31.7783C121.451 32.0492 121.527 32.2523 121.679 32.3877C121.836 32.5189 122.041 32.5845 122.295 32.5845ZM127.881 26.77C128.537 26.77 129.102 26.897 129.576 27.1509C130.05 27.4006 130.416 27.7645 130.674 28.2427C130.932 28.7209 131.061 29.3049 131.061 29.9946V30.9341H126.484C126.506 31.48 126.668 31.9095 126.973 32.2227C127.282 32.5316 127.709 32.686 128.255 32.686C128.708 32.686 129.123 32.6395 129.5 32.5464C129.876 32.4533 130.263 32.3136 130.661 32.1274V33.6255C130.31 33.799 129.942 33.9259 129.557 34.0063C129.176 34.0868 128.712 34.127 128.167 34.127C127.456 34.127 126.825 33.9958 126.275 33.7334C125.729 33.471 125.299 33.0711 124.986 32.5337C124.677 31.9963 124.523 31.3192 124.523 30.5024C124.523 29.673 124.663 28.9832 124.942 28.4331C125.225 27.8787 125.619 27.464 126.123 27.189C126.626 26.9097 127.212 26.77 127.881 26.77ZM127.894 28.1475C127.517 28.1475 127.204 28.2681 126.954 28.5093C126.709 28.7505 126.567 29.1292 126.529 29.6455H129.246C129.241 29.3577 129.188 29.1017 129.087 28.8774C128.99 28.6532 128.841 28.4754 128.643 28.3442C128.448 28.2131 128.198 28.1475 127.894 28.1475Z" fill="black"/>
<path d="M27.1035 91.6172C27.1035 91.3828 27.1387 91.1895 27.209 91.0371C27.2832 90.8809 27.3867 90.7637 27.5195 90.6855C27.6523 90.6074 27.8125 90.5684 28 90.5684C28.1875 90.5684 28.3477 90.6094 28.4805 90.6914C28.6172 90.7695 28.7207 90.8867 28.791 91.043C28.8652 91.1992 28.9023 91.3906 28.9023 91.6172C28.9023 91.8359 28.8652 92.0254 28.791 92.1855C28.7207 92.3418 28.6172 92.4629 28.4805 92.5488C28.3477 92.6309 28.1875 92.6719 28 92.6719C27.8125 92.6719 27.6523 92.6309 27.5195 92.5488C27.3867 92.4668 27.2832 92.3477 27.209 92.1914C27.1387 92.0352 27.1035 91.8438 27.1035 91.6172ZM38.207 96V87.4336H38.8105V96H38.207ZM43.8848 89.5078C44.5996 89.5078 45.1484 89.6953 45.5312 90.0703C45.9141 90.4453 46.1055 91.0332 46.1055 91.834V96H45.5195V91.8691C45.5195 91.2363 45.375 90.7715 45.0859 90.4746C44.7969 90.1777 44.377 90.0293 43.8262 90.0293C43.127 90.0293 42.5918 90.2344 42.2207 90.6445C41.8535 91.0508 41.6699 91.666 41.6699 92.4902V96H41.0781V89.6309H41.5586L41.6465 90.791H41.6816C41.7949 90.5527 41.9492 90.3379 42.1445 90.1465C42.3438 89.9512 42.5879 89.7969 42.877 89.6836C43.166 89.5664 43.502 89.5078 43.8848 89.5078ZM50.541 90.123H49.041V96H48.4492V90.123H47.2656V89.7715L48.4492 89.6191V88.916C48.4492 88.4473 48.5156 88.0586 48.6484 87.75C48.7852 87.4375 48.9902 87.2051 49.2637 87.0527C49.541 86.8965 49.8906 86.8184 50.3125 86.8184C50.5312 86.8184 50.7285 86.8359 50.9043 86.8711C51.0801 86.9023 51.2441 86.9434 51.3965 86.9941L51.2617 87.4922C51.125 87.4453 50.9727 87.4062 50.8047 87.375C50.6406 87.3438 50.4785 87.3281 50.3184 87.3281C49.8691 87.3281 49.543 87.4531 49.3398 87.7031C49.1406 87.9492 49.041 88.3516 49.041 88.9102V89.6309H50.541V90.123ZM57.0625 92.8066C57.0625 93.2988 57.002 93.748 56.8809 94.1543C56.7598 94.5566 56.5801 94.9043 56.3418 95.1973C56.1035 95.4902 55.8066 95.7168 55.4512 95.877C55.0996 96.0371 54.6895 96.1172 54.2207 96.1172C53.7754 96.1172 53.3789 96.0391 53.0312 95.8828C52.6836 95.7227 52.3887 95.4961 52.1465 95.2031C51.9082 94.9102 51.7266 94.5625 51.6016 94.1602C51.4766 93.7539 51.4141 93.3027 51.4141 92.8066C51.4141 92.123 51.5273 91.5352 51.7539 91.043C51.9844 90.5469 52.3125 90.168 52.7383 89.9062C53.168 89.6406 53.6816 89.5078 54.2793 89.5078C54.8965 89.5078 55.4102 89.6484 55.8203 89.9297C56.2344 90.207 56.5449 90.5938 56.752 91.0898C56.959 91.5859 57.0625 92.1582 57.0625 92.8066ZM52.0234 92.8066C52.0234 93.3652 52.1035 93.8535 52.2637 94.2715C52.4238 94.6895 52.666 95.0156 52.9902 95.25C53.3184 95.4844 53.7324 95.6016 54.2324 95.6016C54.7441 95.6016 55.1641 95.4844 55.4922 95.25C55.8203 95.0156 56.0625 94.6875 56.2188 94.2656C56.375 93.8438 56.4531 93.3574 56.4531 92.8066C56.4531 92.2715 56.3789 91.7949 56.2305 91.377C56.082 90.959 55.8477 90.6309 55.5273 90.3926C55.207 90.1504 54.7891 90.0293 54.2734 90.0293C53.5352 90.0293 52.9746 90.2754 52.5918 90.7676C52.2129 91.2598 52.0234 91.9395 52.0234 92.8066ZM61.3574 89.5195C61.5254 89.5195 61.6836 89.5293 61.832 89.5488C61.9805 89.5684 62.1191 89.5957 62.248 89.6309L62.1543 90.1758C62.0254 90.1406 61.8945 90.1152 61.7617 90.0996C61.6289 90.0801 61.4863 90.0703 61.334 90.0703C61.0332 90.0703 60.7637 90.127 60.5254 90.2402C60.291 90.3535 60.0918 90.5156 59.9277 90.7266C59.7637 90.9375 59.6387 91.1914 59.5527 91.4883C59.4668 91.7852 59.4238 92.1172 59.4238 92.4844V96H58.8262V89.6309H59.3359L59.3945 90.832H59.4297C59.5273 90.5859 59.6641 90.3652 59.8398 90.1699C60.0195 89.9707 60.2363 89.8125 60.4902 89.6953C60.7441 89.5781 61.0332 89.5195 61.3574 89.5195ZM70.0703 89.5078C70.6836 89.5078 71.168 89.6855 71.5234 90.041C71.8789 90.3965 72.0566 90.957 72.0566 91.7227V96H71.4766V91.7461C71.4766 91.1562 71.3418 90.7227 71.0723 90.4453C70.8027 90.168 70.4473 90.0293 70.0059 90.0293C69.4004 90.0293 68.9258 90.207 68.582 90.5625C68.2422 90.9141 68.0723 91.4688 68.0723 92.2266V96H67.4863V91.7461C67.4863 91.3516 67.4238 91.0293 67.2988 90.7793C67.1777 90.5254 67.0078 90.3379 66.7891 90.2168C66.5703 90.0918 66.3125 90.0293 66.0156 90.0293C65.6211 90.0293 65.2793 90.1113 64.9902 90.2754C64.7012 90.4355 64.4785 90.6855 64.3223 91.0254C64.166 91.3613 64.0879 91.7891 64.0879 92.3086V96H63.4961V89.6309H63.9766L64.0645 90.6738H64.0996C64.2051 90.4668 64.3457 90.2754 64.5215 90.0996C64.6973 89.9238 64.9141 89.7812 65.1719 89.6719C65.4336 89.5625 65.7402 89.5078 66.0918 89.5078C66.5488 89.5078 66.9355 89.6113 67.252 89.8184C67.5723 90.0215 67.7949 90.3242 67.9199 90.7266H67.9609C68.1328 90.3438 68.3984 90.0449 68.7578 89.8301C69.1211 89.6152 69.5586 89.5078 70.0703 89.5078ZM76.3281 89.5195C77.0273 89.5195 77.5508 89.6953 77.8984 90.0469C78.2461 90.3984 78.4199 90.959 78.4199 91.7285V96H77.9629L77.8574 94.8867H77.8223C77.6855 95.125 77.5195 95.3379 77.3242 95.5254C77.1289 95.709 76.8887 95.8535 76.6035 95.959C76.3223 96.0645 75.9785 96.1172 75.5723 96.1172C75.1621 96.1172 74.8105 96.0488 74.5176 95.9121C74.2285 95.7754 74.0039 95.5762 73.8438 95.3145C73.6875 95.0527 73.6094 94.7344 73.6094 94.3594C73.6094 93.7266 73.8711 93.2461 74.3945 92.918C74.918 92.5859 75.6699 92.3984 76.6504 92.3555L77.834 92.2969V91.834C77.834 91.1816 77.7051 90.7168 77.4473 90.4395C77.1895 90.1621 76.8086 90.0234 76.3047 90.0234C75.9766 90.0234 75.6602 90.0664 75.3555 90.1523C75.0547 90.2344 74.748 90.3535 74.4355 90.5098L74.248 90.0176C74.5527 89.873 74.8789 89.7539 75.2266 89.6602C75.5781 89.5664 75.9453 89.5195 76.3281 89.5195ZM77.8281 92.7598L76.7148 92.8066C75.9062 92.8457 75.291 92.9902 74.8691 93.2402C74.4473 93.4902 74.2363 93.8652 74.2363 94.3652C74.2363 94.7676 74.3613 95.0762 74.6113 95.291C74.8652 95.5059 75.2168 95.6133 75.666 95.6133C76.3652 95.6133 76.8984 95.4141 77.2656 95.0156C77.6367 94.6172 77.8242 94.0742 77.8281 93.3867V92.7598ZM83.0195 96.1172C82.3867 96.1172 81.8516 95.9863 81.4141 95.7246C80.9805 95.459 80.6523 95.082 80.4297 94.5938C80.2109 94.1016 80.1016 93.5195 80.1016 92.8477C80.1016 92.1484 80.2285 91.5508 80.4824 91.0547C80.7363 90.5547 81.0938 90.1719 81.5547 89.9062C82.0156 89.6406 82.5566 89.5078 83.1777 89.5078C83.4824 89.5078 83.7656 89.5352 84.0273 89.5898C84.2891 89.6445 84.5254 89.7207 84.7363 89.8184L84.5781 90.3398C84.3594 90.2422 84.127 90.168 83.8809 90.1172C83.6348 90.0664 83.3984 90.041 83.1719 90.041C82.6484 90.041 82.2031 90.1562 81.8359 90.3867C81.4727 90.6133 81.1934 90.9375 80.998 91.3594C80.8066 91.7773 80.7109 92.2715 80.7109 92.8418C80.7109 93.377 80.793 93.8516 80.957 94.2656C81.1211 94.6758 81.373 95 81.7129 95.2383C82.0527 95.4727 82.4883 95.5898 83.0195 95.5898C83.3281 95.5898 83.6211 95.5586 83.8984 95.4961C84.1797 95.4336 84.4355 95.3535 84.666 95.2559V95.7949C84.459 95.8887 84.2188 95.9648 83.9453 96.0234C83.6758 96.0859 83.3672 96.1172 83.0195 96.1172ZM86.7637 89.6309V96H86.1719V89.6309H86.7637ZM86.4766 87.2754C86.625 87.2754 86.7344 87.3203 86.8047 87.4102C86.875 87.4961 86.9102 87.6133 86.9102 87.7617C86.9102 87.9102 86.875 88.0273 86.8047 88.1133C86.7344 88.1992 86.625 88.2422 86.4766 88.2422C86.3359 88.2422 86.2305 88.1992 86.1602 88.1133C86.0898 88.0273 86.0547 87.9102 86.0547 87.7617C86.0547 87.6133 86.0898 87.4961 86.1602 87.4102C86.2305 87.3203 86.3359 87.2754 86.4766 87.2754ZM94.1758 92.8066C94.1758 93.2988 94.1152 93.748 93.9941 94.1543C93.873 94.5566 93.6934 94.9043 93.4551 95.1973C93.2168 95.4902 92.9199 95.7168 92.5645 95.877C92.2129 96.0371 91.8027 96.1172 91.334 96.1172C90.8887 96.1172 90.4922 96.0391 90.1445 95.8828C89.7969 95.7227 89.502 95.4961 89.2598 95.2031C89.0215 94.9102 88.8398 94.5625 88.7148 94.1602C88.5898 93.7539 88.5273 93.3027 88.5273 92.8066C88.5273 92.123 88.6406 91.5352 88.8672 91.043C89.0977 90.5469 89.4258 90.168 89.8516 89.9062C90.2812 89.6406 90.7949 89.5078 91.3926 89.5078C92.0098 89.5078 92.5234 89.6484 92.9336 89.9297C93.3477 90.207 93.6582 90.5938 93.8652 91.0898C94.0723 91.5859 94.1758 92.1582 94.1758 92.8066ZM89.1367 92.8066C89.1367 93.3652 89.2168 93.8535 89.377 94.2715C89.5371 94.6895 89.7793 95.0156 90.1035 95.25C90.4316 95.4844 90.8457 95.6016 91.3457 95.6016C91.8574 95.6016 92.2773 95.4844 92.6055 95.25C92.9336 95.0156 93.1758 94.6875 93.332 94.2656C93.4883 93.8438 93.5664 93.3574 93.5664 92.8066C93.5664 92.2715 93.4922 91.7949 93.3438 91.377C93.1953 90.959 92.9609 90.6309 92.6406 90.3926C92.3203 90.1504 91.9023 90.0293 91.3867 90.0293C90.6484 90.0293 90.0879 90.2754 89.7051 90.7676C89.3262 91.2598 89.1367 91.9395 89.1367 92.8066ZM93.0625 86.8066V86.9062C92.9688 87.0312 92.8535 87.1738 92.7168 87.334C92.5801 87.4902 92.4316 87.6523 92.2715 87.8203C92.1113 87.9883 91.9492 88.1504 91.7852 88.3066C91.6211 88.4629 91.4629 88.6035 91.3105 88.7285H90.8887V88.6289C91.0449 88.4727 91.2168 88.2871 91.4043 88.0723C91.5918 87.8535 91.7695 87.6328 91.9375 87.4102C92.1094 87.1836 92.25 86.9824 92.3594 86.8066H93.0625ZM98.7402 89.5078C99.4551 89.5078 100.004 89.6953 100.387 90.0703C100.77 90.4453 100.961 91.0332 100.961 91.834V96H100.375V91.8691C100.375 91.2363 100.23 90.7715 99.9414 90.4746C99.6523 90.1777 99.2324 90.0293 98.6816 90.0293C97.9824 90.0293 97.4473 90.2344 97.0762 90.6445C96.709 91.0508 96.5254 91.666 96.5254 92.4902V96H95.9336V89.6309H96.4141L96.502 90.791H96.5371C96.6504 90.5527 96.8047 90.3379 97 90.1465C97.1992 89.9512 97.4434 89.7969 97.7324 89.6836C98.0215 89.5664 98.3574 89.5078 98.7402 89.5078ZM107.828 98.8828C107.027 98.8828 106.404 98.7285 105.959 98.4199C105.518 98.1113 105.297 97.6797 105.297 97.125C105.297 96.6953 105.432 96.3242 105.701 96.0117C105.971 95.7031 106.336 95.5176 106.797 95.4551C106.613 95.3691 106.463 95.252 106.346 95.1035C106.232 94.9551 106.176 94.7832 106.176 94.5879C106.176 94.3691 106.244 94.166 106.381 93.9785C106.518 93.7871 106.723 93.6113 106.996 93.4512C106.629 93.3184 106.34 93.0938 106.129 92.7773C105.918 92.457 105.812 92.0723 105.812 91.623C105.812 91.1934 105.904 90.8203 106.088 90.5039C106.271 90.1875 106.531 89.9434 106.867 89.7715C107.207 89.5957 107.607 89.5078 108.068 89.5078C108.209 89.5078 108.336 89.5117 108.449 89.5195C108.566 89.5273 108.674 89.541 108.771 89.5605C108.869 89.5762 108.957 89.5977 109.035 89.625H111.092V90.0469L109.779 90.1348C109.951 90.3418 110.08 90.5664 110.166 90.8086C110.252 91.0469 110.295 91.2988 110.295 91.5645C110.295 92.1973 110.096 92.6992 109.697 93.0703C109.299 93.4414 108.744 93.627 108.033 93.627C107.838 93.627 107.646 93.6094 107.459 93.5742C107.221 93.7148 107.039 93.8574 106.914 94.002C106.789 94.1426 106.727 94.3184 106.727 94.5293C106.727 94.6621 106.766 94.7715 106.844 94.8574C106.922 94.9395 107.035 95.0039 107.184 95.0508C107.332 95.0938 107.514 95.1152 107.729 95.1152H108.848C109.539 95.1152 110.068 95.2559 110.436 95.5371C110.803 95.8184 110.986 96.2324 110.986 96.7793C110.986 97.4473 110.711 97.9648 110.16 98.332C109.613 98.6992 108.836 98.8828 107.828 98.8828ZM107.869 98.3848C108.428 98.3848 108.893 98.3242 109.264 98.2031C109.639 98.082 109.92 97.9023 110.107 97.6641C110.295 97.4297 110.389 97.1387 110.389 96.791C110.389 96.5059 110.32 96.2852 110.184 96.1289C110.047 95.9727 109.854 95.8652 109.604 95.8066C109.354 95.7441 109.059 95.7129 108.719 95.7129H107.652C107.312 95.7129 107.01 95.7598 106.744 95.8535C106.479 95.9434 106.271 96.0879 106.123 96.2871C105.979 96.4863 105.906 96.752 105.906 97.084C105.906 97.5098 106.072 97.832 106.404 98.0508C106.74 98.2734 107.229 98.3848 107.869 98.3848ZM108.057 93.1523C108.584 93.1523 108.988 93.0195 109.27 92.7539C109.551 92.4883 109.691 92.1035 109.691 91.5996C109.691 91.0605 109.547 90.6562 109.258 90.3867C108.969 90.1172 108.564 89.9824 108.045 89.9824C107.541 89.9824 107.145 90.127 106.855 90.416C106.57 90.7012 106.428 91.1035 106.428 91.623C106.428 92.1074 106.564 92.4844 106.838 92.7539C107.111 93.0195 107.518 93.1523 108.057 93.1523ZM114.789 89.5078C115.332 89.5078 115.783 89.6348 116.143 89.8887C116.506 90.1426 116.775 90.4902 116.951 90.9316C117.131 91.373 117.221 91.8789 117.221 92.4492V92.877H112.621C112.621 93.752 112.822 94.4238 113.225 94.8926C113.631 95.3613 114.211 95.5957 114.965 95.5957C115.359 95.5957 115.701 95.5645 115.99 95.502C116.283 95.4355 116.607 95.3242 116.963 95.168V95.7129C116.65 95.8535 116.338 95.9551 116.025 96.0176C115.713 96.084 115.354 96.1172 114.947 96.1172C114.303 96.1172 113.762 95.9844 113.324 95.7188C112.891 95.4492 112.562 95.0703 112.34 94.582C112.121 94.0938 112.012 93.5234 112.012 92.8711C112.012 92.2344 112.117 91.6621 112.328 91.1543C112.543 90.6465 112.855 90.2461 113.266 89.9531C113.68 89.6562 114.188 89.5078 114.789 89.5078ZM114.783 90.0176C114.174 90.0176 113.68 90.2207 113.301 90.627C112.926 91.0293 112.705 91.6113 112.639 92.373H116.605C116.605 91.9082 116.539 91.498 116.406 91.1426C116.273 90.7871 116.072 90.5117 115.803 90.3164C115.537 90.1172 115.197 90.0176 114.783 90.0176ZM121.779 89.5078C122.494 89.5078 123.043 89.6953 123.426 90.0703C123.809 90.4453 124 91.0332 124 91.834V96H123.414V91.8691C123.414 91.2363 123.27 90.7715 122.98 90.4746C122.691 90.1777 122.271 90.0293 121.721 90.0293C121.021 90.0293 120.486 90.2344 120.115 90.6445C119.748 91.0508 119.564 91.666 119.564 92.4902V96H118.973V89.6309H119.453L119.541 90.791H119.576C119.689 90.5527 119.844 90.3379 120.039 90.1465C120.238 89.9512 120.482 89.7969 120.771 89.6836C121.061 89.5664 121.396 89.5078 121.779 89.5078ZM128.477 89.5078C129.02 89.5078 129.471 89.6348 129.83 89.8887C130.193 90.1426 130.463 90.4902 130.639 90.9316C130.818 91.373 130.908 91.8789 130.908 92.4492V92.877H126.309C126.309 93.752 126.51 94.4238 126.912 94.8926C127.318 95.3613 127.898 95.5957 128.652 95.5957C129.047 95.5957 129.389 95.5645 129.678 95.502C129.971 95.4355 130.295 95.3242 130.65 95.168V95.7129C130.338 95.8535 130.025 95.9551 129.713 96.0176C129.4 96.084 129.041 96.1172 128.635 96.1172C127.99 96.1172 127.449 95.9844 127.012 95.7188C126.578 95.4492 126.25 95.0703 126.027 94.582C125.809 94.0938 125.699 93.5234 125.699 92.8711C125.699 92.2344 125.805 91.6621 126.016 91.1543C126.23 90.6465 126.543 90.2461 126.953 89.9531C127.367 89.6562 127.875 89.5078 128.477 89.5078ZM128.471 90.0176C127.861 90.0176 127.367 90.2207 126.988 90.627C126.613 91.0293 126.393 91.6113 126.326 92.373H130.293C130.293 91.9082 130.227 91.498 130.094 91.1426C129.961 90.7871 129.76 90.5117 129.49 90.3164C129.225 90.1172 128.885 90.0176 128.471 90.0176ZM135.197 89.5195C135.365 89.5195 135.523 89.5293 135.672 89.5488C135.82 89.5684 135.959 89.5957 136.088 89.6309L135.994 90.1758C135.865 90.1406 135.734 90.1152 135.602 90.0996C135.469 90.0801 135.326 90.0703 135.174 90.0703C134.873 90.0703 134.604 90.127 134.365 90.2402C134.131 90.3535 133.932 90.5156 133.768 90.7266C133.604 90.9375 133.479 91.1914 133.393 91.4883C133.307 91.7852 133.264 92.1172 133.264 92.4844V96H132.666V89.6309H133.176L133.234 90.832H133.27C133.367 90.5859 133.504 90.3652 133.68 90.1699C133.859 89.9707 134.076 89.8125 134.33 89.6953C134.584 89.5781 134.873 89.5195 135.197 89.5195ZM139.562 89.5195C140.262 89.5195 140.785 89.6953 141.133 90.0469C141.48 90.3984 141.654 90.959 141.654 91.7285V96H141.197L141.092 94.8867H141.057C140.92 95.125 140.754 95.3379 140.559 95.5254C140.363 95.709 140.123 95.8535 139.838 95.959C139.557 96.0645 139.213 96.1172 138.807 96.1172C138.396 96.1172 138.045 96.0488 137.752 95.9121C137.463 95.7754 137.238 95.5762 137.078 95.3145C136.922 95.0527 136.844 94.7344 136.844 94.3594C136.844 93.7266 137.105 93.2461 137.629 92.918C138.152 92.5859 138.904 92.3984 139.885 92.3555L141.068 92.2969V91.834C141.068 91.1816 140.939 90.7168 140.682 90.4395C140.424 90.1621 140.043 90.0234 139.539 90.0234C139.211 90.0234 138.895 90.0664 138.59 90.1523C138.289 90.2344 137.982 90.3535 137.67 90.5098L137.482 90.0176C137.787 89.873 138.113 89.7539 138.461 89.6602C138.812 89.5664 139.18 89.5195 139.562 89.5195ZM141.062 92.7598L139.949 92.8066C139.141 92.8457 138.525 92.9902 138.104 93.2402C137.682 93.4902 137.471 93.8652 137.471 94.3652C137.471 94.7676 137.596 95.0762 137.846 95.291C138.1 95.5059 138.451 95.6133 138.9 95.6133C139.6 95.6133 140.133 95.4141 140.5 95.0156C140.871 94.6172 141.059 94.0742 141.062 93.3867V92.7598ZM144.303 96H143.705V86.8828H144.303V96ZM153.52 94.3301C153.52 94.709 153.424 95.0332 153.232 95.3027C153.045 95.5684 152.77 95.7715 152.406 95.9121C152.043 96.0488 151.596 96.1172 151.064 96.1172C150.623 96.1172 150.229 96.0781 149.881 96C149.533 95.9219 149.242 95.8262 149.008 95.7129V95.127C149.301 95.2715 149.625 95.3887 149.98 95.4785C150.336 95.5684 150.701 95.6133 151.076 95.6133C151.732 95.6133 152.205 95.502 152.494 95.2793C152.783 95.0566 152.928 94.752 152.928 94.3652C152.928 94.1113 152.855 93.9023 152.711 93.7383C152.57 93.5703 152.367 93.4258 152.102 93.3047C151.836 93.1836 151.516 93.0605 151.141 92.9355C150.75 92.8027 150.402 92.6719 150.098 92.543C149.797 92.4102 149.561 92.2363 149.389 92.0215C149.217 91.8027 149.131 91.5059 149.131 91.1309C149.131 90.6191 149.336 90.2207 149.746 89.9355C150.156 89.6504 150.707 89.5078 151.398 89.5078C151.781 89.5078 152.137 89.5449 152.465 89.6191C152.797 89.6895 153.098 89.7812 153.367 89.8945L153.156 90.3984C152.914 90.2852 152.635 90.1934 152.318 90.123C152.002 90.0527 151.686 90.0176 151.369 90.0176C150.85 90.0176 150.443 90.1094 150.15 90.293C149.857 90.4766 149.711 90.7461 149.711 91.1016C149.711 91.375 149.781 91.5898 149.922 91.7461C150.062 91.8984 150.264 92.0273 150.525 92.1328C150.787 92.2344 151.098 92.3477 151.457 92.4727C151.828 92.6016 152.17 92.7363 152.482 92.877C152.799 93.0176 153.051 93.1992 153.238 93.4219C153.426 93.6445 153.52 93.9473 153.52 94.3301ZM160.41 92.8066C160.41 93.2988 160.35 93.748 160.229 94.1543C160.107 94.5566 159.928 94.9043 159.689 95.1973C159.451 95.4902 159.154 95.7168 158.799 95.877C158.447 96.0371 158.037 96.1172 157.568 96.1172C157.123 96.1172 156.727 96.0391 156.379 95.8828C156.031 95.7227 155.736 95.4961 155.494 95.2031C155.256 94.9102 155.074 94.5625 154.949 94.1602C154.824 93.7539 154.762 93.3027 154.762 92.8066C154.762 92.123 154.875 91.5352 155.102 91.043C155.332 90.5469 155.66 90.168 156.086 89.9062C156.516 89.6406 157.029 89.5078 157.627 89.5078C158.244 89.5078 158.758 89.6484 159.168 89.9297C159.582 90.207 159.893 90.5938 160.1 91.0898C160.307 91.5859 160.41 92.1582 160.41 92.8066ZM155.371 92.8066C155.371 93.3652 155.451 93.8535 155.611 94.2715C155.771 94.6895 156.014 95.0156 156.338 95.25C156.666 95.4844 157.08 95.6016 157.58 95.6016C158.092 95.6016 158.512 95.4844 158.84 95.25C159.168 95.0156 159.41 94.6875 159.566 94.2656C159.723 93.8438 159.801 93.3574 159.801 92.8066C159.801 92.2715 159.727 91.7949 159.578 91.377C159.43 90.959 159.195 90.6309 158.875 90.3926C158.555 90.1504 158.137 90.0293 157.621 90.0293C156.883 90.0293 156.322 90.2754 155.939 90.7676C155.561 91.2598 155.371 91.9395 155.371 92.8066ZM162.754 86.8828V89.4727C162.754 89.6953 162.75 89.9395 162.742 90.2051C162.734 90.4707 162.727 90.6914 162.719 90.8672H162.754C162.906 90.4727 163.172 90.1465 163.551 89.8887C163.93 89.6309 164.402 89.502 164.969 89.502C165.797 89.502 166.436 89.7812 166.885 90.3398C167.338 90.8984 167.564 91.7168 167.564 92.7949C167.564 93.4551 167.463 94.0352 167.26 94.5352C167.057 95.0312 166.754 95.4199 166.352 95.7012C165.953 95.9785 165.453 96.1172 164.852 96.1172C164.309 96.1172 163.865 96.0039 163.521 95.7773C163.178 95.5469 162.928 95.2598 162.771 94.916H162.725L162.613 96H162.162V86.8828H162.754ZM164.904 90.0176C164.4 90.0176 163.99 90.127 163.674 90.3457C163.357 90.5605 163.125 90.875 162.977 91.2891C162.828 91.7031 162.754 92.209 162.754 92.8066V92.9004C162.754 93.7793 162.914 94.4492 163.234 94.9102C163.555 95.3711 164.074 95.6016 164.793 95.6016C165.504 95.6016 166.041 95.3594 166.404 94.875C166.771 94.3867 166.955 93.6934 166.955 92.7949C166.955 91.877 166.785 91.1855 166.445 90.7207C166.105 90.252 165.592 90.0176 164.904 90.0176ZM171.854 89.5195C172.021 89.5195 172.18 89.5293 172.328 89.5488C172.477 89.5684 172.615 89.5957 172.744 89.6309L172.65 90.1758C172.521 90.1406 172.391 90.1152 172.258 90.0996C172.125 90.0801 171.982 90.0703 171.83 90.0703C171.529 90.0703 171.26 90.127 171.021 90.2402C170.787 90.3535 170.588 90.5156 170.424 90.7266C170.26 90.9375 170.135 91.1914 170.049 91.4883C169.963 91.7852 169.92 92.1172 169.92 92.4844V96H169.322V89.6309H169.832L169.891 90.832H169.926C170.023 90.5859 170.16 90.3652 170.336 90.1699C170.516 89.9707 170.732 89.8125 170.986 89.6953C171.24 89.5781 171.529 89.5195 171.854 89.5195ZM176.406 89.5078C176.949 89.5078 177.4 89.6348 177.76 89.8887C178.123 90.1426 178.393 90.4902 178.568 90.9316C178.748 91.373 178.838 91.8789 178.838 92.4492V92.877H174.238C174.238 93.752 174.439 94.4238 174.842 94.8926C175.248 95.3613 175.828 95.5957 176.582 95.5957C176.977 95.5957 177.318 95.5645 177.607 95.502C177.9 95.4355 178.225 95.3242 178.58 95.168V95.7129C178.268 95.8535 177.955 95.9551 177.643 96.0176C177.33 96.084 176.971 96.1172 176.564 96.1172C175.92 96.1172 175.379 95.9844 174.941 95.7188C174.508 95.4492 174.18 95.0703 173.957 94.582C173.738 94.0938 173.629 93.5234 173.629 92.8711C173.629 92.2344 173.734 91.6621 173.945 91.1543C174.16 90.6465 174.473 90.2461 174.883 89.9531C175.297 89.6562 175.805 89.5078 176.406 89.5078ZM176.4 90.0176C175.791 90.0176 175.297 90.2207 174.918 90.627C174.543 91.0293 174.322 91.6113 174.256 92.373H178.223C178.223 91.9082 178.156 91.498 178.023 91.1426C177.891 90.7871 177.689 90.5117 177.42 90.3164C177.154 90.1172 176.814 90.0176 176.4 90.0176ZM185.395 98.8828C184.594 98.8828 183.971 98.7285 183.525 98.4199C183.084 98.1113 182.863 97.6797 182.863 97.125C182.863 96.6953 182.998 96.3242 183.268 96.0117C183.537 95.7031 183.902 95.5176 184.363 95.4551C184.18 95.3691 184.029 95.252 183.912 95.1035C183.799 94.9551 183.742 94.7832 183.742 94.5879C183.742 94.3691 183.811 94.166 183.947 93.9785C184.084 93.7871 184.289 93.6113 184.562 93.4512C184.195 93.3184 183.906 93.0938 183.695 92.7773C183.484 92.457 183.379 92.0723 183.379 91.623C183.379 91.1934 183.471 90.8203 183.654 90.5039C183.838 90.1875 184.098 89.9434 184.434 89.7715C184.773 89.5957 185.174 89.5078 185.635 89.5078C185.775 89.5078 185.902 89.5117 186.016 89.5195C186.133 89.5273 186.24 89.541 186.338 89.5605C186.436 89.5762 186.523 89.5977 186.602 89.625H188.658V90.0469L187.346 90.1348C187.518 90.3418 187.646 90.5664 187.732 90.8086C187.818 91.0469 187.861 91.2988 187.861 91.5645C187.861 92.1973 187.662 92.6992 187.264 93.0703C186.865 93.4414 186.311 93.627 185.6 93.627C185.404 93.627 185.213 93.6094 185.025 93.5742C184.787 93.7148 184.605 93.8574 184.48 94.002C184.355 94.1426 184.293 94.3184 184.293 94.5293C184.293 94.6621 184.332 94.7715 184.41 94.8574C184.488 94.9395 184.602 95.0039 184.75 95.0508C184.898 95.0938 185.08 95.1152 185.295 95.1152H186.414C187.105 95.1152 187.635 95.2559 188.002 95.5371C188.369 95.8184 188.553 96.2324 188.553 96.7793C188.553 97.4473 188.277 97.9648 187.727 98.332C187.18 98.6992 186.402 98.8828 185.395 98.8828ZM185.436 98.3848C185.994 98.3848 186.459 98.3242 186.83 98.2031C187.205 98.082 187.486 97.9023 187.674 97.6641C187.861 97.4297 187.955 97.1387 187.955 96.791C187.955 96.5059 187.887 96.2852 187.75 96.1289C187.613 95.9727 187.42 95.8652 187.17 95.8066C186.92 95.7441 186.625 95.7129 186.285 95.7129H185.219C184.879 95.7129 184.576 95.7598 184.311 95.8535C184.045 95.9434 183.838 96.0879 183.689 96.2871C183.545 96.4863 183.473 96.752 183.473 97.084C183.473 97.5098 183.639 97.832 183.971 98.0508C184.307 98.2734 184.795 98.3848 185.436 98.3848ZM185.623 93.1523C186.15 93.1523 186.555 93.0195 186.836 92.7539C187.117 92.4883 187.258 92.1035 187.258 91.5996C187.258 91.0605 187.113 90.6562 186.824 90.3867C186.535 90.1172 186.131 89.9824 185.611 89.9824C185.107 89.9824 184.711 90.127 184.422 90.416C184.137 90.7012 183.994 91.1035 183.994 91.623C183.994 92.1074 184.131 92.4844 184.404 92.7539C184.678 93.0195 185.084 93.1523 185.623 93.1523ZM192.168 89.5195C192.867 89.5195 193.391 89.6953 193.738 90.0469C194.086 90.3984 194.26 90.959 194.26 91.7285V96H193.803L193.697 94.8867H193.662C193.525 95.125 193.359 95.3379 193.164 95.5254C192.969 95.709 192.729 95.8535 192.443 95.959C192.162 96.0645 191.818 96.1172 191.412 96.1172C191.002 96.1172 190.65 96.0488 190.357 95.9121C190.068 95.7754 189.844 95.5762 189.684 95.3145C189.527 95.0527 189.449 94.7344 189.449 94.3594C189.449 93.7266 189.711 93.2461 190.234 92.918C190.758 92.5859 191.51 92.3984 192.49 92.3555L193.674 92.2969V91.834C193.674 91.1816 193.545 90.7168 193.287 90.4395C193.029 90.1621 192.648 90.0234 192.145 90.0234C191.816 90.0234 191.5 90.0664 191.195 90.1523C190.895 90.2344 190.588 90.3535 190.275 90.5098L190.088 90.0176C190.393 89.873 190.719 89.7539 191.066 89.6602C191.418 89.5664 191.785 89.5195 192.168 89.5195ZM193.668 92.7598L192.555 92.8066C191.746 92.8457 191.131 92.9902 190.709 93.2402C190.287 93.4902 190.076 93.8652 190.076 94.3652C190.076 94.7676 190.201 95.0762 190.451 95.291C190.705 95.5059 191.057 95.6133 191.506 95.6133C192.205 95.6133 192.738 95.4141 193.105 95.0156C193.477 94.6172 193.664 94.0742 193.668 93.3867V92.7598ZM200.289 94.3301C200.289 94.709 200.193 95.0332 200.002 95.3027C199.814 95.5684 199.539 95.7715 199.176 95.9121C198.812 96.0488 198.365 96.1172 197.834 96.1172C197.393 96.1172 196.998 96.0781 196.65 96C196.303 95.9219 196.012 95.8262 195.777 95.7129V95.127C196.07 95.2715 196.395 95.3887 196.75 95.4785C197.105 95.5684 197.471 95.6133 197.846 95.6133C198.502 95.6133 198.975 95.502 199.264 95.2793C199.553 95.0566 199.697 94.752 199.697 94.3652C199.697 94.1113 199.625 93.9023 199.48 93.7383C199.34 93.5703 199.137 93.4258 198.871 93.3047C198.605 93.1836 198.285 93.0605 197.91 92.9355C197.52 92.8027 197.172 92.6719 196.867 92.543C196.566 92.4102 196.33 92.2363 196.158 92.0215C195.986 91.8027 195.9 91.5059 195.9 91.1309C195.9 90.6191 196.105 90.2207 196.516 89.9355C196.926 89.6504 197.477 89.5078 198.168 89.5078C198.551 89.5078 198.906 89.5449 199.234 89.6191C199.566 89.6895 199.867 89.7812 200.137 89.8945L199.926 90.3984C199.684 90.2852 199.404 90.1934 199.088 90.123C198.771 90.0527 198.455 90.0176 198.139 90.0176C197.619 90.0176 197.213 90.1094 196.92 90.293C196.627 90.4766 196.48 90.7461 196.48 91.1016C196.48 91.375 196.551 91.5898 196.691 91.7461C196.832 91.8984 197.033 92.0273 197.295 92.1328C197.557 92.2344 197.867 92.3477 198.227 92.4727C198.598 92.6016 198.939 92.7363 199.252 92.877C199.568 93.0176 199.82 93.1992 200.008 93.4219C200.195 93.6445 200.289 93.9473 200.289 94.3301ZM204.309 89.5078C204.852 89.5078 205.303 89.6348 205.662 89.8887C206.025 90.1426 206.295 90.4902 206.471 90.9316C206.65 91.373 206.74 91.8789 206.74 92.4492V92.877H202.141C202.141 93.752 202.342 94.4238 202.744 94.8926C203.15 95.3613 203.73 95.5957 204.484 95.5957C204.879 95.5957 205.221 95.5645 205.51 95.502C205.803 95.4355 206.127 95.3242 206.482 95.168V95.7129C206.17 95.8535 205.857 95.9551 205.545 96.0176C205.232 96.084 204.873 96.1172 204.467 96.1172C203.822 96.1172 203.281 95.9844 202.844 95.7188C202.41 95.4492 202.082 95.0703 201.859 94.582C201.641 94.0938 201.531 93.5234 201.531 92.8711C201.531 92.2344 201.637 91.6621 201.848 91.1543C202.062 90.6465 202.375 90.2461 202.785 89.9531C203.199 89.6562 203.707 89.5078 204.309 89.5078ZM204.303 90.0176C203.693 90.0176 203.199 90.2207 202.82 90.627C202.445 91.0293 202.225 91.6113 202.158 92.373H206.125C206.125 91.9082 206.059 91.498 205.926 91.1426C205.793 90.7871 205.592 90.5117 205.322 90.3164C205.057 90.1172 204.717 90.0176 204.303 90.0176ZM212.477 94.3301C212.477 94.709 212.381 95.0332 212.189 95.3027C212.002 95.5684 211.727 95.7715 211.363 95.9121C211 96.0488 210.553 96.1172 210.021 96.1172C209.58 96.1172 209.186 96.0781 208.838 96C208.49 95.9219 208.199 95.8262 207.965 95.7129V95.127C208.258 95.2715 208.582 95.3887 208.938 95.4785C209.293 95.5684 209.658 95.6133 210.033 95.6133C210.689 95.6133 211.162 95.502 211.451 95.2793C211.74 95.0566 211.885 94.752 211.885 94.3652C211.885 94.1113 211.812 93.9023 211.668 93.7383C211.527 93.5703 211.324 93.4258 211.059 93.3047C210.793 93.1836 210.473 93.0605 210.098 92.9355C209.707 92.8027 209.359 92.6719 209.055 92.543C208.754 92.4102 208.518 92.2363 208.346 92.0215C208.174 91.8027 208.088 91.5059 208.088 91.1309C208.088 90.6191 208.293 90.2207 208.703 89.9355C209.113 89.6504 209.664 89.5078 210.355 89.5078C210.738 89.5078 211.094 89.5449 211.422 89.6191C211.754 89.6895 212.055 89.7812 212.324 89.8945L212.113 90.3984C211.871 90.2852 211.592 90.1934 211.275 90.123C210.959 90.0527 210.643 90.0176 210.326 90.0176C209.807 90.0176 209.4 90.1094 209.107 90.293C208.814 90.4766 208.668 90.7461 208.668 91.1016C208.668 91.375 208.738 91.5898 208.879 91.7461C209.02 91.8984 209.221 92.0273 209.482 92.1328C209.744 92.2344 210.055 92.3477 210.414 92.4727C210.785 92.6016 211.127 92.7363 211.439 92.877C211.756 93.0176 212.008 93.1992 212.195 93.4219C212.383 93.6445 212.477 93.9473 212.477 94.3301ZM27.1035 111.617C27.1035 111.383 27.1387 111.189 27.209 111.037C27.2832 110.881 27.3867 110.764 27.5195 110.686C27.6523 110.607 27.8125 110.568 28 110.568C28.1875 110.568 28.3477 110.609 28.4805 110.691C28.6172 110.77 28.7207 110.887 28.791 111.043C28.8652 111.199 28.9023 111.391 28.9023 111.617C28.9023 111.836 28.8652 112.025 28.791 112.186C28.7207 112.342 28.6172 112.463 28.4805 112.549C28.3477 112.631 28.1875 112.672 28 112.672C27.8125 112.672 27.6523 112.631 27.5195 112.549C27.3867 112.467 27.2832 112.348 27.209 112.191C27.1387 112.035 27.1035 111.844 27.1035 111.617ZM43.9258 107.434L40.7617 116H40.1641L37 107.434H37.6328L39.9766 113.773C40.043 113.957 40.1055 114.137 40.1641 114.312C40.2227 114.484 40.2773 114.65 40.3281 114.811C40.3789 114.971 40.4238 115.125 40.4629 115.273C40.502 115.125 40.5449 114.975 40.5918 114.822C40.6426 114.666 40.6973 114.502 40.7559 114.33C40.8145 114.154 40.8789 113.967 40.9492 113.768L43.2871 107.434H43.9258ZM47.3945 109.508C47.9375 109.508 48.3887 109.635 48.748 109.889C49.1113 110.143 49.3809 110.49 49.5566 110.932C49.7363 111.373 49.8262 111.879 49.8262 112.449V112.877H45.2266C45.2266 113.752 45.4277 114.424 45.8301 114.893C46.2363 115.361 46.8164 115.596 47.5703 115.596C47.9648 115.596 48.3066 115.564 48.5957 115.502C48.8887 115.436 49.2129 115.324 49.5684 115.168V115.713C49.2559 115.854 48.9434 115.955 48.6309 116.018C48.3184 116.084 47.959 116.117 47.5527 116.117C46.9082 116.117 46.3672 115.984 45.9297 115.719C45.4961 115.449 45.168 115.07 44.9453 114.582C44.7266 114.094 44.6172 113.523 44.6172 112.871C44.6172 112.234 44.7227 111.662 44.9336 111.154C45.1484 110.646 45.4609 110.246 45.8711 109.953C46.2852 109.656 46.793 109.508 47.3945 109.508ZM47.3887 110.018C46.7793 110.018 46.2852 110.221 45.9062 110.627C45.5312 111.029 45.3105 111.611 45.2441 112.373H49.2109C49.2109 111.908 49.1445 111.498 49.0117 111.143C48.8789 110.787 48.6777 110.512 48.4082 110.316C48.1426 110.117 47.8027 110.018 47.3887 110.018ZM54.1152 109.52C54.2832 109.52 54.4414 109.529 54.5898 109.549C54.7383 109.568 54.877 109.596 55.0059 109.631L54.9121 110.176C54.7832 110.141 54.6523 110.115 54.5195 110.1C54.3867 110.08 54.2441 110.07 54.0918 110.07C53.791 110.07 53.5215 110.127 53.2832 110.24C53.0488 110.354 52.8496 110.516 52.6855 110.727C52.5215 110.938 52.3965 111.191 52.3105 111.488C52.2246 111.785 52.1816 112.117 52.1816 112.484V116H51.584V109.631H52.0938L52.1523 110.832H52.1875C52.2852 110.586 52.4219 110.365 52.5977 110.17C52.7773 109.971 52.9941 109.812 53.248 109.695C53.502 109.578 53.791 109.52 54.1152 109.52ZM65.9453 109.508C66.5586 109.508 67.043 109.686 67.3984 110.041C67.7539 110.396 67.9316 110.957 67.9316 111.723V116H67.3516V111.746C67.3516 111.156 67.2168 110.723 66.9473 110.445C66.6777 110.168 66.3223 110.029 65.8809 110.029C65.2754 110.029 64.8008 110.207 64.457 110.562C64.1172 110.914 63.9473 111.469 63.9473 112.227V116H63.3613V111.746C63.3613 111.352 63.2988 111.029 63.1738 110.779C63.0527 110.525 62.8828 110.338 62.6641 110.217C62.4453 110.092 62.1875 110.029 61.8906 110.029C61.4961 110.029 61.1543 110.111 60.8652 110.275C60.5762 110.436 60.3535 110.686 60.1973 111.025C60.041 111.361 59.9629 111.789 59.9629 112.309V116H59.3711V109.631H59.8516L59.9395 110.674H59.9746C60.0801 110.467 60.2207 110.275 60.3965 110.1C60.5723 109.924 60.7891 109.781 61.0469 109.672C61.3086 109.562 61.6152 109.508 61.9668 109.508C62.4238 109.508 62.8105 109.611 63.127 109.818C63.4473 110.021 63.6699 110.324 63.7949 110.727H63.8359C64.0078 110.344 64.2734 110.045 64.6328 109.83C64.9961 109.615 65.4336 109.508 65.9453 109.508ZM72.2031 109.52C72.9023 109.52 73.4258 109.695 73.7734 110.047C74.1211 110.398 74.2949 110.959 74.2949 111.729V116H73.8379L73.7324 114.887H73.6973C73.5605 115.125 73.3945 115.338 73.1992 115.525C73.0039 115.709 72.7637 115.854 72.4785 115.959C72.1973 116.064 71.8535 116.117 71.4473 116.117C71.0371 116.117 70.6855 116.049 70.3926 115.912C70.1035 115.775 69.8789 115.576 69.7188 115.314C69.5625 115.053 69.4844 114.734 69.4844 114.359C69.4844 113.727 69.7461 113.246 70.2695 112.918C70.793 112.586 71.5449 112.398 72.5254 112.355L73.709 112.297V111.834C73.709 111.182 73.5801 110.717 73.3223 110.439C73.0645 110.162 72.6836 110.023 72.1797 110.023C71.8516 110.023 71.5352 110.066 71.2305 110.152C70.9297 110.234 70.623 110.354 70.3105 110.51L70.123 110.018C70.4277 109.873 70.7539 109.754 71.1016 109.66C71.4531 109.566 71.8203 109.52 72.2031 109.52ZM73.7031 112.76L72.5898 112.807C71.7812 112.846 71.166 112.99 70.7441 113.24C70.3223 113.49 70.1113 113.865 70.1113 114.365C70.1113 114.768 70.2363 115.076 70.4863 115.291C70.7402 115.506 71.0918 115.613 71.541 115.613C72.2402 115.613 72.7734 115.414 73.1406 115.016C73.5117 114.617 73.6992 114.074 73.7031 113.387V112.76ZM79.1641 109.508C79.9844 109.508 80.6191 109.783 81.0684 110.334C81.5215 110.885 81.748 111.697 81.748 112.771C81.748 113.49 81.6406 114.1 81.4258 114.6C81.2109 115.096 80.9043 115.473 80.5059 115.73C80.1113 115.988 79.6367 116.117 79.082 116.117C78.6992 116.117 78.3652 116.061 78.0801 115.947C77.7988 115.83 77.5645 115.674 77.377 115.479C77.1895 115.279 77.0449 115.061 76.9434 114.822H76.9023C76.9141 115.045 76.9238 115.277 76.9316 115.52C76.9395 115.762 76.9434 115.99 76.9434 116.205V118.818H76.3457V109.631H76.8379L76.9082 110.902H76.9434C77.0488 110.66 77.1973 110.432 77.3887 110.217C77.5801 110.002 77.8223 109.83 78.1152 109.701C78.4082 109.572 78.7578 109.508 79.1641 109.508ZM79.0879 110.029C78.6074 110.029 78.207 110.135 77.8867 110.346C77.5703 110.553 77.334 110.857 77.1777 111.26C77.0254 111.658 76.9473 112.146 76.9434 112.725V112.824C76.9434 113.445 77.0195 113.963 77.1719 114.377C77.3281 114.787 77.5605 115.094 77.8691 115.297C78.1816 115.5 78.5684 115.602 79.0293 115.602C79.4824 115.602 79.8652 115.49 80.1777 115.268C80.4902 115.045 80.7285 114.723 80.8926 114.301C81.0566 113.879 81.1387 113.367 81.1387 112.766C81.1387 111.871 80.9668 111.191 80.623 110.727C80.2832 110.262 79.7715 110.029 79.0879 110.029ZM85.7148 109.52C86.4141 109.52 86.9375 109.695 87.2852 110.047C87.6328 110.398 87.8066 110.959 87.8066 111.729V116H87.3496L87.2441 114.887H87.209C87.0723 115.125 86.9062 115.338 86.7109 115.525C86.5156 115.709 86.2754 115.854 85.9902 115.959C85.709 116.064 85.3652 116.117 84.959 116.117C84.5488 116.117 84.1973 116.049 83.9043 115.912C83.6152 115.775 83.3906 115.576 83.2305 115.314C83.0742 115.053 82.9961 114.734 82.9961 114.359C82.9961 113.727 83.2578 113.246 83.7812 112.918C84.3047 112.586 85.0566 112.398 86.0371 112.355L87.2207 112.297V111.834C87.2207 111.182 87.0918 110.717 86.834 110.439C86.5762 110.162 86.1953 110.023 85.6914 110.023C85.3633 110.023 85.0469 110.066 84.7422 110.152C84.4414 110.234 84.1348 110.354 83.8223 110.51L83.6348 110.018C83.9395 109.873 84.2656 109.754 84.6133 109.66C84.9648 109.566 85.332 109.52 85.7148 109.52ZM87.2148 112.76L86.1016 112.807C85.293 112.846 84.6777 112.99 84.2559 113.24C83.834 113.49 83.623 113.865 83.623 114.365C83.623 114.768 83.748 115.076 83.998 115.291C84.252 115.506 84.6035 115.613 85.0527 115.613C85.752 115.613 86.2852 115.414 86.6523 115.016C87.0234 114.617 87.2109 114.074 87.2148 113.387V112.76ZM94.6562 118.883C93.8555 118.883 93.2324 118.729 92.7871 118.42C92.3457 118.111 92.125 117.68 92.125 117.125C92.125 116.695 92.2598 116.324 92.5293 116.012C92.7988 115.703 93.1641 115.518 93.625 115.455C93.4414 115.369 93.291 115.252 93.1738 115.104C93.0605 114.955 93.0039 114.783 93.0039 114.588C93.0039 114.369 93.0723 114.166 93.209 113.979C93.3457 113.787 93.5508 113.611 93.8242 113.451C93.457 113.318 93.168 113.094 92.957 112.777C92.7461 112.457 92.6406 112.072 92.6406 111.623C92.6406 111.193 92.7324 110.82 92.916 110.504C93.0996 110.188 93.3594 109.943 93.6953 109.771C94.0352 109.596 94.4355 109.508 94.8965 109.508C95.0371 109.508 95.1641 109.512 95.2773 109.52C95.3945 109.527 95.502 109.541 95.5996 109.561C95.6973 109.576 95.7852 109.598 95.8633 109.625H97.9199V110.047L96.6074 110.135C96.7793 110.342 96.9082 110.566 96.9941 110.809C97.0801 111.047 97.123 111.299 97.123 111.564C97.123 112.197 96.9238 112.699 96.5254 113.07C96.127 113.441 95.5723 113.627 94.8613 113.627C94.666 113.627 94.4746 113.609 94.2871 113.574C94.0488 113.715 93.8672 113.857 93.7422 114.002C93.6172 114.143 93.5547 114.318 93.5547 114.529C93.5547 114.662 93.5938 114.771 93.6719 114.857C93.75 114.939 93.8633 115.004 94.0117 115.051C94.1602 115.094 94.3418 115.115 94.5566 115.115H95.6758C96.3672 115.115 96.8965 115.256 97.2637 115.537C97.6309 115.818 97.8145 116.232 97.8145 116.779C97.8145 117.447 97.5391 117.965 96.9883 118.332C96.4414 118.699 95.6641 118.883 94.6562 118.883ZM94.6973 118.385C95.2559 118.385 95.7207 118.324 96.0918 118.203C96.4668 118.082 96.748 117.902 96.9355 117.664C97.123 117.43 97.2168 117.139 97.2168 116.791C97.2168 116.506 97.1484 116.285 97.0117 116.129C96.875 115.973 96.6816 115.865 96.4316 115.807C96.1816 115.744 95.8867 115.713 95.5469 115.713H94.4805C94.1406 115.713 93.8379 115.76 93.5723 115.854C93.3066 115.943 93.0996 116.088 92.9512 116.287C92.8066 116.486 92.7344 116.752 92.7344 117.084C92.7344 117.51 92.9004 117.832 93.2324 118.051C93.5684 118.273 94.0566 118.385 94.6973 118.385ZM94.8848 113.152C95.4121 113.152 95.8164 113.02 96.0977 112.754C96.3789 112.488 96.5195 112.104 96.5195 111.6C96.5195 111.061 96.375 110.656 96.0859 110.387C95.7969 110.117 95.3926 109.982 94.873 109.982C94.3691 109.982 93.9727 110.127 93.6836 110.416C93.3984 110.701 93.2559 111.104 93.2559 111.623C93.2559 112.107 93.3926 112.484 93.666 112.754C93.9395 113.02 94.3457 113.152 94.8848 113.152ZM101.617 109.508C102.16 109.508 102.611 109.635 102.971 109.889C103.334 110.143 103.604 110.49 103.779 110.932C103.959 111.373 104.049 111.879 104.049 112.449V112.877H99.4492C99.4492 113.752 99.6504 114.424 100.053 114.893C100.459 115.361 101.039 115.596 101.793 115.596C102.188 115.596 102.529 115.564 102.818 115.502C103.111 115.436 103.436 115.324 103.791 115.168V115.713C103.479 115.854 103.166 115.955 102.854 116.018C102.541 116.084 102.182 116.117 101.775 116.117C101.131 116.117 100.59 115.984 100.152 115.719C99.7188 115.449 99.3906 115.07 99.168 114.582C98.9492 114.094 98.8398 113.523 98.8398 112.871C98.8398 112.234 98.9453 111.662 99.1562 111.154C99.3711 110.646 99.6836 110.246 100.094 109.953C100.508 109.656 101.016 109.508 101.617 109.508ZM101.611 110.018C101.002 110.018 100.508 110.221 100.129 110.627C99.7539 111.029 99.5332 111.611 99.4668 112.373H103.434C103.434 111.908 103.367 111.498 103.234 111.143C103.102 110.787 102.9 110.512 102.631 110.316C102.365 110.117 102.025 110.018 101.611 110.018ZM108.607 109.508C109.322 109.508 109.871 109.695 110.254 110.07C110.637 110.445 110.828 111.033 110.828 111.834V116H110.242V111.869C110.242 111.236 110.098 110.771 109.809 110.475C109.52 110.178 109.1 110.029 108.549 110.029C107.85 110.029 107.314 110.234 106.943 110.645C106.576 111.051 106.393 111.666 106.393 112.49V116H105.801V109.631H106.281L106.369 110.791H106.404C106.518 110.553 106.672 110.338 106.867 110.146C107.066 109.951 107.311 109.797 107.6 109.684C107.889 109.566 108.225 109.508 108.607 109.508ZM115.305 109.508C115.848 109.508 116.299 109.635 116.658 109.889C117.021 110.143 117.291 110.49 117.467 110.932C117.646 111.373 117.736 111.879 117.736 112.449V112.877H113.137C113.137 113.752 113.338 114.424 113.74 114.893C114.146 115.361 114.727 115.596 115.48 115.596C115.875 115.596 116.217 115.564 116.506 115.502C116.799 115.436 117.123 115.324 117.479 115.168V115.713C117.166 115.854 116.854 115.955 116.541 116.018C116.229 116.084 115.869 116.117 115.463 116.117C114.818 116.117 114.277 115.984 113.84 115.719C113.406 115.449 113.078 115.07 112.855 114.582C112.637 114.094 112.527 113.523 112.527 112.871C112.527 112.234 112.633 111.662 112.844 111.154C113.059 110.646 113.371 110.246 113.781 109.953C114.195 109.656 114.703 109.508 115.305 109.508ZM115.299 110.018C114.689 110.018 114.195 110.221 113.816 110.627C113.441 111.029 113.221 111.611 113.154 112.373H117.121C117.121 111.908 117.055 111.498 116.922 111.143C116.789 110.787 116.588 110.512 116.318 110.316C116.053 110.117 115.713 110.018 115.299 110.018ZM122.025 109.52C122.193 109.52 122.352 109.529 122.5 109.549C122.648 109.568 122.787 109.596 122.916 109.631L122.822 110.176C122.693 110.141 122.562 110.115 122.43 110.1C122.297 110.08 122.154 110.07 122.002 110.07C121.701 110.07 121.432 110.127 121.193 110.24C120.959 110.354 120.76 110.516 120.596 110.727C120.432 110.938 120.307 111.191 120.221 111.488C120.135 111.785 120.092 112.117 120.092 112.484V116H119.494V109.631H120.004L120.062 110.832H120.098C120.195 110.586 120.332 110.365 120.508 110.17C120.688 109.971 120.904 109.812 121.158 109.695C121.412 109.578 121.701 109.52 122.025 109.52ZM126.391 109.52C127.09 109.52 127.613 109.695 127.961 110.047C128.309 110.398 128.482 110.959 128.482 111.729V116H128.025L127.92 114.887H127.885C127.748 115.125 127.582 115.338 127.387 115.525C127.191 115.709 126.951 115.854 126.666 115.959C126.385 116.064 126.041 116.117 125.635 116.117C125.225 116.117 124.873 116.049 124.58 115.912C124.291 115.775 124.066 115.576 123.906 115.314C123.75 115.053 123.672 114.734 123.672 114.359C123.672 113.727 123.934 113.246 124.457 112.918C124.98 112.586 125.732 112.398 126.713 112.355L127.896 112.297V111.834C127.896 111.182 127.768 110.717 127.51 110.439C127.252 110.162 126.871 110.023 126.367 110.023C126.039 110.023 125.723 110.066 125.418 110.152C125.117 110.234 124.811 110.354 124.498 110.51L124.311 110.018C124.615 109.873 124.941 109.754 125.289 109.66C125.641 109.566 126.008 109.52 126.391 109.52ZM127.891 112.76L126.777 112.807C125.969 112.846 125.354 112.99 124.932 113.24C124.51 113.49 124.299 113.865 124.299 114.365C124.299 114.768 124.424 115.076 124.674 115.291C124.928 115.506 125.279 115.613 125.729 115.613C126.428 115.613 126.961 115.414 127.328 115.016C127.699 114.617 127.887 114.074 127.891 113.387V112.76ZM131.131 116H130.533V106.883H131.131V116ZM138.672 116.117C137.801 116.117 137.137 115.844 136.68 115.297C136.227 114.746 136 113.945 136 112.895C136 111.793 136.24 110.953 136.721 110.375C137.201 109.797 137.871 109.508 138.73 109.508C139.098 109.508 139.416 109.564 139.686 109.678C139.959 109.791 140.188 109.945 140.371 110.141C140.559 110.332 140.703 110.551 140.805 110.797H140.852C140.836 110.59 140.824 110.367 140.816 110.129C140.809 109.891 140.805 109.672 140.805 109.473V106.883H141.396V116H140.916L140.84 114.834H140.805C140.699 115.068 140.553 115.283 140.365 115.479C140.182 115.674 139.951 115.83 139.674 115.947C139.396 116.061 139.062 116.117 138.672 116.117ZM138.736 115.602C139.486 115.602 140.02 115.369 140.336 114.904C140.652 114.436 140.811 113.768 140.811 112.9V112.807C140.811 111.908 140.652 111.221 140.336 110.744C140.02 110.264 139.504 110.023 138.789 110.023C138.082 110.023 137.541 110.27 137.166 110.762C136.795 111.254 136.609 111.969 136.609 112.906C136.609 113.789 136.783 114.459 137.131 114.916C137.482 115.373 138.018 115.602 138.736 115.602ZM145.926 109.508C146.469 109.508 146.92 109.635 147.279 109.889C147.643 110.143 147.912 110.49 148.088 110.932C148.268 111.373 148.357 111.879 148.357 112.449V112.877H143.758C143.758 113.752 143.959 114.424 144.361 114.893C144.768 115.361 145.348 115.596 146.102 115.596C146.496 115.596 146.838 115.564 147.127 115.502C147.42 115.436 147.744 115.324 148.1 115.168V115.713C147.787 115.854 147.475 115.955 147.162 116.018C146.85 116.084 146.49 116.117 146.084 116.117C145.439 116.117 144.898 115.984 144.461 115.719C144.027 115.449 143.699 115.07 143.477 114.582C143.258 114.094 143.148 113.523 143.148 112.871C143.148 112.234 143.254 111.662 143.465 111.154C143.68 110.646 143.992 110.246 144.402 109.953C144.816 109.656 145.324 109.508 145.926 109.508ZM145.92 110.018C145.311 110.018 144.816 110.221 144.438 110.627C144.062 111.029 143.842 111.611 143.775 112.373H147.742C147.742 111.908 147.676 111.498 147.543 111.143C147.41 110.787 147.209 110.512 146.939 110.316C146.674 110.117 146.334 110.018 145.92 110.018ZM155.781 116.117C155.148 116.117 154.613 115.986 154.176 115.725C153.742 115.459 153.414 115.082 153.191 114.594C152.973 114.102 152.863 113.52 152.863 112.848C152.863 112.148 152.99 111.551 153.244 111.055C153.498 110.555 153.855 110.172 154.316 109.906C154.777 109.641 155.318 109.508 155.939 109.508C156.244 109.508 156.527 109.535 156.789 109.59C157.051 109.645 157.287 109.721 157.498 109.818L157.34 110.34C157.121 110.242 156.889 110.168 156.643 110.117C156.396 110.066 156.16 110.041 155.934 110.041C155.41 110.041 154.965 110.156 154.598 110.387C154.234 110.613 153.955 110.938 153.76 111.359C153.568 111.777 153.473 112.271 153.473 112.842C153.473 113.377 153.555 113.852 153.719 114.266C153.883 114.676 154.135 115 154.475 115.238C154.814 115.473 155.25 115.59 155.781 115.59C156.09 115.59 156.383 115.559 156.66 115.496C156.941 115.434 157.197 115.354 157.428 115.256V115.795C157.221 115.889 156.98 115.965 156.707 116.023C156.438 116.086 156.129 116.117 155.781 116.117ZM164.219 112.807C164.219 113.299 164.158 113.748 164.037 114.154C163.916 114.557 163.736 114.904 163.498 115.197C163.26 115.49 162.963 115.717 162.607 115.877C162.256 116.037 161.846 116.117 161.377 116.117C160.932 116.117 160.535 116.039 160.188 115.883C159.84 115.723 159.545 115.496 159.303 115.203C159.064 114.91 158.883 114.562 158.758 114.16C158.633 113.754 158.57 113.303 158.57 112.807C158.57 112.123 158.684 111.535 158.91 111.043C159.141 110.547 159.469 110.168 159.895 109.906C160.324 109.641 160.838 109.508 161.436 109.508C162.053 109.508 162.566 109.648 162.977 109.93C163.391 110.207 163.701 110.594 163.908 111.09C164.115 111.586 164.219 112.158 164.219 112.807ZM159.18 112.807C159.18 113.365 159.26 113.854 159.42 114.271C159.58 114.689 159.822 115.016 160.146 115.25C160.475 115.484 160.889 115.602 161.389 115.602C161.9 115.602 162.32 115.484 162.648 115.25C162.977 115.016 163.219 114.688 163.375 114.266C163.531 113.844 163.609 113.357 163.609 112.807C163.609 112.271 163.535 111.795 163.387 111.377C163.238 110.959 163.004 110.631 162.684 110.393C162.363 110.15 161.945 110.029 161.43 110.029C160.691 110.029 160.131 110.275 159.748 110.768C159.369 111.26 159.18 111.939 159.18 112.807ZM168.783 109.508C169.498 109.508 170.047 109.695 170.43 110.07C170.812 110.445 171.004 111.033 171.004 111.834V116H170.418V111.869C170.418 111.236 170.273 110.771 169.984 110.475C169.695 110.178 169.275 110.029 168.725 110.029C168.025 110.029 167.49 110.234 167.119 110.645C166.752 111.051 166.568 111.666 166.568 112.49V116H165.977V109.631H166.457L166.545 110.791H166.58C166.693 110.553 166.848 110.338 167.043 110.146C167.242 109.951 167.486 109.797 167.775 109.684C168.064 109.566 168.4 109.508 168.783 109.508ZM174.789 115.607C174.973 115.607 175.143 115.594 175.299 115.566C175.459 115.539 175.6 115.504 175.721 115.461V115.953C175.596 115.996 175.449 116.033 175.281 116.064C175.113 116.1 174.928 116.117 174.725 116.117C174.365 116.117 174.066 116.051 173.828 115.918C173.59 115.781 173.41 115.576 173.289 115.303C173.168 115.025 173.107 114.674 173.107 114.248V110.123H172.158V109.771L173.102 109.59L173.307 108.09H173.699V109.631H175.686V110.123H173.699V114.213C173.699 114.67 173.783 115.018 173.951 115.256C174.123 115.49 174.402 115.607 174.789 115.607ZM179.312 109.52C180.012 109.52 180.535 109.695 180.883 110.047C181.23 110.398 181.404 110.959 181.404 111.729V116H180.947L180.842 114.887H180.807C180.67 115.125 180.504 115.338 180.309 115.525C180.113 115.709 179.873 115.854 179.588 115.959C179.307 116.064 178.963 116.117 178.557 116.117C178.146 116.117 177.795 116.049 177.502 115.912C177.213 115.775 176.988 115.576 176.828 115.314C176.672 115.053 176.594 114.734 176.594 114.359C176.594 113.727 176.855 113.246 177.379 112.918C177.902 112.586 178.654 112.398 179.635 112.355L180.818 112.297V111.834C180.818 111.182 180.689 110.717 180.432 110.439C180.174 110.162 179.793 110.023 179.289 110.023C178.961 110.023 178.645 110.066 178.34 110.152C178.039 110.234 177.732 110.354 177.42 110.51L177.232 110.018C177.537 109.873 177.863 109.754 178.211 109.66C178.562 109.566 178.93 109.52 179.312 109.52ZM180.812 112.76L179.699 112.807C178.891 112.846 178.275 112.99 177.854 113.24C177.432 113.49 177.221 113.865 177.221 114.365C177.221 114.768 177.346 115.076 177.596 115.291C177.85 115.506 178.201 115.613 178.65 115.613C179.35 115.613 179.883 115.414 180.25 115.016C180.621 114.617 180.809 114.074 180.812 113.387V112.76ZM190.023 109.508C190.637 109.508 191.121 109.686 191.477 110.041C191.832 110.396 192.01 110.957 192.01 111.723V116H191.43V111.746C191.43 111.156 191.295 110.723 191.025 110.445C190.756 110.168 190.4 110.029 189.959 110.029C189.354 110.029 188.879 110.207 188.535 110.562C188.195 110.914 188.025 111.469 188.025 112.227V116H187.439V111.746C187.439 111.352 187.377 111.029 187.252 110.779C187.131 110.525 186.961 110.338 186.742 110.217C186.523 110.092 186.266 110.029 185.969 110.029C185.574 110.029 185.232 110.111 184.943 110.275C184.654 110.436 184.432 110.686 184.275 111.025C184.119 111.361 184.041 111.789 184.041 112.309V116H183.449V109.631H183.93L184.018 110.674H184.053C184.158 110.467 184.299 110.275 184.475 110.1C184.65 109.924 184.867 109.781 185.125 109.672C185.387 109.562 185.693 109.508 186.045 109.508C186.502 109.508 186.889 109.611 187.205 109.818C187.525 110.021 187.748 110.324 187.873 110.727H187.914C188.086 110.344 188.352 110.045 188.711 109.83C189.074 109.615 189.512 109.508 190.023 109.508ZM194.646 109.631V116H194.055V109.631H194.646ZM194.359 107.275C194.508 107.275 194.617 107.32 194.688 107.41C194.758 107.496 194.793 107.613 194.793 107.762C194.793 107.91 194.758 108.027 194.688 108.113C194.617 108.199 194.508 108.242 194.359 108.242C194.219 108.242 194.113 108.199 194.043 108.113C193.973 108.027 193.938 107.91 193.938 107.762C193.938 107.613 193.973 107.496 194.043 107.41C194.113 107.32 194.219 107.275 194.359 107.275ZM199.58 109.508C200.295 109.508 200.844 109.695 201.227 110.07C201.609 110.445 201.801 111.033 201.801 111.834V116H201.215V111.869C201.215 111.236 201.07 110.771 200.781 110.475C200.492 110.178 200.072 110.029 199.521 110.029C198.822 110.029 198.287 110.234 197.916 110.645C197.549 111.051 197.365 111.666 197.365 112.49V116H196.773V109.631H197.254L197.342 110.791H197.377C197.49 110.553 197.645 110.338 197.84 110.146C198.039 109.951 198.283 109.797 198.572 109.684C198.861 109.566 199.197 109.508 199.58 109.508ZM206.09 109.52C206.789 109.52 207.312 109.695 207.66 110.047C208.008 110.398 208.182 110.959 208.182 111.729V116H207.725L207.619 114.887H207.584C207.447 115.125 207.281 115.338 207.086 115.525C206.891 115.709 206.65 115.854 206.365 115.959C206.084 116.064 205.74 116.117 205.334 116.117C204.924 116.117 204.572 116.049 204.279 115.912C203.99 115.775 203.766 115.576 203.605 115.314C203.449 115.053 203.371 114.734 203.371 114.359C203.371 113.727 203.633 113.246 204.156 112.918C204.68 112.586 205.432 112.398 206.412 112.355L207.596 112.297V111.834C207.596 111.182 207.467 110.717 207.209 110.439C206.951 110.162 206.57 110.023 206.066 110.023C205.738 110.023 205.422 110.066 205.117 110.152C204.816 110.234 204.51 110.354 204.197 110.51L204.01 110.018C204.314 109.873 204.641 109.754 204.988 109.66C205.34 109.566 205.707 109.52 206.09 109.52ZM207.59 112.76L206.477 112.807C205.668 112.846 205.053 112.99 204.631 113.24C204.209 113.49 203.998 113.865 203.998 114.365C203.998 114.768 204.123 115.076 204.373 115.291C204.627 115.506 204.979 115.613 205.428 115.613C206.127 115.613 206.66 115.414 207.027 115.016C207.398 114.617 207.586 114.074 207.59 113.387V112.76ZM212.781 116.117C212.148 116.117 211.613 115.986 211.176 115.725C210.742 115.459 210.414 115.082 210.191 114.594C209.973 114.102 209.863 113.52 209.863 112.848C209.863 112.148 209.99 111.551 210.244 111.055C210.498 110.555 210.855 110.172 211.316 109.906C211.777 109.641 212.318 109.508 212.939 109.508C213.244 109.508 213.527 109.535 213.789 109.59C214.051 109.645 214.287 109.721 214.498 109.818L214.34 110.34C214.121 110.242 213.889 110.168 213.643 110.117C213.396 110.066 213.16 110.041 212.934 110.041C212.41 110.041 211.965 110.156 211.598 110.387C211.234 110.613 210.955 110.938 210.76 111.359C210.568 111.777 210.473 112.271 210.473 112.842C210.473 113.377 210.555 113.852 210.719 114.266C210.883 114.676 211.135 115 211.475 115.238C211.814 115.473 212.25 115.59 212.781 115.59C213.09 115.59 213.383 115.559 213.66 115.496C213.941 115.434 214.197 115.354 214.428 115.256V115.795C214.221 115.889 213.98 115.965 213.707 116.023C213.438 116.086 213.129 116.117 212.781 116.117ZM216.525 109.631V116H215.934V109.631H216.525ZM216.238 107.275C216.387 107.275 216.496 107.32 216.566 107.41C216.637 107.496 216.672 107.613 216.672 107.762C216.672 107.91 216.637 108.027 216.566 108.113C216.496 108.199 216.387 108.242 216.238 108.242C216.098 108.242 215.992 108.199 215.922 108.113C215.852 108.027 215.816 107.91 215.816 107.762C215.816 107.613 215.852 107.496 215.922 107.41C215.992 107.32 216.098 107.275 216.238 107.275ZM223.938 112.807C223.938 113.299 223.877 113.748 223.756 114.154C223.635 114.557 223.455 114.904 223.217 115.197C222.979 115.49 222.682 115.717 222.326 115.877C221.975 116.037 221.564 116.117 221.096 116.117C220.65 116.117 220.254 116.039 219.906 115.883C219.559 115.723 219.264 115.496 219.021 115.203C218.783 114.91 218.602 114.562 218.477 114.16C218.352 113.754 218.289 113.303 218.289 112.807C218.289 112.123 218.402 111.535 218.629 111.043C218.859 110.547 219.188 110.168 219.613 109.906C220.043 109.641 220.557 109.508 221.154 109.508C221.771 109.508 222.285 109.648 222.695 109.93C223.109 110.207 223.42 110.594 223.627 111.09C223.834 111.586 223.938 112.158 223.938 112.807ZM218.898 112.807C218.898 113.365 218.979 113.854 219.139 114.271C219.299 114.689 219.541 115.016 219.865 115.25C220.193 115.484 220.607 115.602 221.107 115.602C221.619 115.602 222.039 115.484 222.367 115.25C222.695 115.016 222.938 114.688 223.094 114.266C223.25 113.844 223.328 113.357 223.328 112.807C223.328 112.271 223.254 111.795 223.105 111.377C222.957 110.959 222.723 110.631 222.402 110.393C222.082 110.15 221.664 110.029 221.148 110.029C220.41 110.029 219.85 110.275 219.467 110.768C219.088 111.26 218.898 111.939 218.898 112.807ZM222.824 106.807V106.906C222.73 107.031 222.615 107.174 222.479 107.334C222.342 107.49 222.193 107.652 222.033 107.82C221.873 107.988 221.711 108.15 221.547 108.307C221.383 108.463 221.225 108.604 221.072 108.729H220.65V108.629C220.807 108.473 220.979 108.287 221.166 108.072C221.354 107.854 221.531 107.633 221.699 107.41C221.871 107.184 222.012 106.982 222.121 106.807H222.824ZM228.502 109.508C229.217 109.508 229.766 109.695 230.148 110.07C230.531 110.445 230.723 111.033 230.723 111.834V116H230.137V111.869C230.137 111.236 229.992 110.771 229.703 110.475C229.414 110.178 228.994 110.029 228.443 110.029C227.744 110.029 227.209 110.234 226.838 110.645C226.471 111.051 226.287 111.666 226.287 112.49V116H225.695V109.631H226.176L226.264 110.791H226.299C226.412 110.553 226.566 110.338 226.762 110.146C226.961 109.951 227.205 109.797 227.494 109.684C227.783 109.566 228.119 109.508 228.502 109.508Z" fill="black"/>
<path d="M25.5684 60L24.4023 56.9707H20.8047L19.6152 60H19L22.3691 51.4043H22.9199L26.2012 60H25.5684ZM24.209 56.4258L23.0254 53.2148C22.9941 53.1328 22.9551 53.0273 22.9082 52.8984C22.8652 52.7695 22.8184 52.6328 22.7676 52.4883C22.7207 52.3438 22.6738 52.207 22.627 52.0781C22.5879 52.2148 22.5449 52.3516 22.498 52.4883C22.4512 52.625 22.4062 52.7578 22.3633 52.8867C22.3203 53.0117 22.2793 53.125 22.2402 53.2266L21.0098 56.4258H24.209ZM29.8164 60.1172C29.1836 60.1172 28.6484 59.9863 28.2109 59.7246C27.7773 59.459 27.4492 59.082 27.2266 58.5938C27.0078 58.1016 26.8984 57.5195 26.8984 56.8477C26.8984 56.1484 27.0254 55.5508 27.2793 55.0547C27.5332 54.5547 27.8906 54.1719 28.3516 53.9062C28.8125 53.6406 29.3535 53.5078 29.9746 53.5078C30.2793 53.5078 30.5625 53.5352 30.8242 53.5898C31.0859 53.6445 31.3223 53.7207 31.5332 53.8184L31.375 54.3398C31.1562 54.2422 30.9238 54.168 30.6777 54.1172C30.4316 54.0664 30.1953 54.041 29.9688 54.041C29.4453 54.041 29 54.1562 28.6328 54.3867C28.2695 54.6133 27.9902 54.9375 27.7949 55.3594C27.6035 55.7773 27.5078 56.2715 27.5078 56.8418C27.5078 57.377 27.5898 57.8516 27.7539 58.2656C27.918 58.6758 28.1699 59 28.5098 59.2383C28.8496 59.4727 29.2852 59.5898 29.8164 59.5898C30.125 59.5898 30.418 59.5586 30.6953 59.4961C30.9766 59.4336 31.2324 59.3535 31.4629 59.2559V59.7949C31.2559 59.8887 31.0156 59.9648 30.7422 60.0234C30.4727 60.0859 30.1641 60.1172 29.8164 60.1172ZM35.5234 60.1172C34.8906 60.1172 34.3555 59.9863 33.918 59.7246C33.4844 59.459 33.1562 59.082 32.9336 58.5938C32.7148 58.1016 32.6055 57.5195 32.6055 56.8477C32.6055 56.1484 32.7324 55.5508 32.9863 55.0547C33.2402 54.5547 33.5977 54.1719 34.0586 53.9062C34.5195 53.6406 35.0605 53.5078 35.6816 53.5078C35.9863 53.5078 36.2695 53.5352 36.5312 53.5898C36.793 53.6445 37.0293 53.7207 37.2402 53.8184L37.082 54.3398C36.8633 54.2422 36.6309 54.168 36.3848 54.1172C36.1387 54.0664 35.9023 54.041 35.6758 54.041C35.1523 54.041 34.707 54.1562 34.3398 54.3867C33.9766 54.6133 33.6973 54.9375 33.502 55.3594C33.3105 55.7773 33.2148 56.2715 33.2148 56.8418C33.2148 57.377 33.2969 57.8516 33.4609 58.2656C33.625 58.6758 33.877 59 34.2168 59.2383C34.5566 59.4727 34.9922 59.5898 35.5234 59.5898C35.832 59.5898 36.125 59.5586 36.4023 59.4961C36.6836 59.4336 36.9395 59.3535 37.1699 59.2559V59.7949C36.9629 59.8887 36.7227 59.9648 36.4492 60.0234C36.1797 60.0859 35.8711 60.1172 35.5234 60.1172ZM41.0898 53.5078C41.6328 53.5078 42.084 53.6348 42.4434 53.8887C42.8066 54.1426 43.0762 54.4902 43.252 54.9316C43.4316 55.373 43.5215 55.8789 43.5215 56.4492V56.877H38.9219C38.9219 57.752 39.123 58.4238 39.5254 58.8926C39.9316 59.3613 40.5117 59.5957 41.2656 59.5957C41.6602 59.5957 42.002 59.5645 42.291 59.502C42.584 59.4355 42.9082 59.3242 43.2637 59.168V59.7129C42.9512 59.8535 42.6387 59.9551 42.3262 60.0176C42.0137 60.084 41.6543 60.1172 41.248 60.1172C40.6035 60.1172 40.0625 59.9844 39.625 59.7188C39.1914 59.4492 38.8633 59.0703 38.6406 58.582C38.4219 58.0938 38.3125 57.5234 38.3125 56.8711C38.3125 56.2344 38.418 55.6621 38.6289 55.1543C38.8438 54.6465 39.1562 54.2461 39.5664 53.9531C39.9805 53.6562 40.4883 53.5078 41.0898 53.5078ZM41.084 54.0176C40.4746 54.0176 39.9805 54.2207 39.6016 54.627C39.2266 55.0293 39.0059 55.6113 38.9395 56.373H42.9062C42.9062 55.9082 42.8398 55.498 42.707 55.1426C42.5742 54.7871 42.373 54.5117 42.1035 54.3164C41.8379 54.1172 41.498 54.0176 41.084 54.0176ZM49.2578 58.3301C49.2578 58.709 49.1621 59.0332 48.9707 59.3027C48.7832 59.5684 48.5078 59.7715 48.1445 59.9121C47.7812 60.0488 47.334 60.1172 46.8027 60.1172C46.3613 60.1172 45.9668 60.0781 45.6191 60C45.2715 59.9219 44.9805 59.8262 44.7461 59.7129V59.127C45.0391 59.2715 45.3633 59.3887 45.7188 59.4785C46.0742 59.5684 46.4395 59.6133 46.8145 59.6133C47.4707 59.6133 47.9434 59.502 48.2324 59.2793C48.5215 59.0566 48.666 58.752 48.666 58.3652C48.666 58.1113 48.5938 57.9023 48.4492 57.7383C48.3086 57.5703 48.1055 57.4258 47.8398 57.3047C47.5742 57.1836 47.2539 57.0605 46.8789 56.9355C46.4883 56.8027 46.1406 56.6719 45.8359 56.543C45.5352 56.4102 45.2988 56.2363 45.127 56.0215C44.9551 55.8027 44.8691 55.5059 44.8691 55.1309C44.8691 54.6191 45.0742 54.2207 45.4844 53.9355C45.8945 53.6504 46.4453 53.5078 47.1367 53.5078C47.5195 53.5078 47.875 53.5449 48.2031 53.6191C48.5352 53.6895 48.8359 53.7812 49.1055 53.8945L48.8945 54.3984C48.6523 54.2852 48.373 54.1934 48.0566 54.123C47.7402 54.0527 47.4238 54.0176 47.1074 54.0176C46.5879 54.0176 46.1816 54.1094 45.8887 54.293C45.5957 54.4766 45.4492 54.7461 45.4492 55.1016C45.4492 55.375 45.5195 55.5898 45.6602 55.7461C45.8008 55.8984 46.002 56.0273 46.2637 56.1328C46.5254 56.2344 46.8359 56.3477 47.1953 56.4727C47.5664 56.6016 47.9082 56.7363 48.2207 56.877C48.5371 57.0176 48.7891 57.1992 48.9766 57.4219C49.1641 57.6445 49.2578 57.9473 49.2578 58.3301ZM56.1484 56.8066C56.1484 57.2988 56.0879 57.748 55.9668 58.1543C55.8457 58.5566 55.666 58.9043 55.4277 59.1973C55.1895 59.4902 54.8926 59.7168 54.5371 59.877C54.1855 60.0371 53.7754 60.1172 53.3066 60.1172C52.8613 60.1172 52.4648 60.0391 52.1172 59.8828C51.7695 59.7227 51.4746 59.4961 51.2324 59.2031C50.9941 58.9102 50.8125 58.5625 50.6875 58.1602C50.5625 57.7539 50.5 57.3027 50.5 56.8066C50.5 56.123 50.6133 55.5352 50.8398 55.043C51.0703 54.5469 51.3984 54.168 51.8242 53.9062C52.2539 53.6406 52.7676 53.5078 53.3652 53.5078C53.9824 53.5078 54.4961 53.6484 54.9062 53.9297C55.3203 54.207 55.6309 54.5938 55.8379 55.0898C56.0449 55.5859 56.1484 56.1582 56.1484 56.8066ZM51.1094 56.8066C51.1094 57.3652 51.1895 57.8535 51.3496 58.2715C51.5098 58.6895 51.752 59.0156 52.0762 59.25C52.4043 59.4844 52.8184 59.6016 53.3184 59.6016C53.8301 59.6016 54.25 59.4844 54.5781 59.25C54.9062 59.0156 55.1484 58.6875 55.3047 58.2656C55.4609 57.8438 55.5391 57.3574 55.5391 56.8066C55.5391 56.2715 55.4648 55.7949 55.3164 55.377C55.168 54.959 54.9336 54.6309 54.6133 54.3926C54.293 54.1504 53.875 54.0293 53.3594 54.0293C52.6211 54.0293 52.0605 54.2754 51.6777 54.7676C51.2988 55.2598 51.1094 55.9395 51.1094 56.8066ZM61.627 60H61.0293V50.8828H61.627V60ZM64.334 53.6309V60H63.7422V53.6309H64.334ZM64.0469 51.2754C64.1953 51.2754 64.3047 51.3203 64.375 51.4102C64.4453 51.4961 64.4805 51.6133 64.4805 51.7617C64.4805 51.9102 64.4453 52.0273 64.375 52.1133C64.3047 52.1992 64.1953 52.2422 64.0469 52.2422C63.9062 52.2422 63.8008 52.1992 63.7305 52.1133C63.6602 52.0273 63.625 51.9102 63.625 51.7617C63.625 51.6133 63.6602 51.4961 63.7305 51.4102C63.8008 51.3203 63.9062 51.2754 64.0469 51.2754ZM67.0469 50.8828V53.4727C67.0469 53.6953 67.043 53.9395 67.0352 54.2051C67.0273 54.4707 67.0195 54.6914 67.0117 54.8672H67.0469C67.1992 54.4727 67.4648 54.1465 67.8438 53.8887C68.2227 53.6309 68.6953 53.502 69.2617 53.502C70.0898 53.502 70.7285 53.7812 71.1777 54.3398C71.6309 54.8984 71.8574 55.7168 71.8574 56.7949C71.8574 57.4551 71.7559 58.0352 71.5527 58.5352C71.3496 59.0312 71.0469 59.4199 70.6445 59.7012C70.2461 59.9785 69.7461 60.1172 69.1445 60.1172C68.6016 60.1172 68.1582 60.0039 67.8145 59.7773C67.4707 59.5469 67.2207 59.2598 67.0645 58.916H67.0176L66.9062 60H66.4551V50.8828H67.0469ZM69.1973 54.0176C68.6934 54.0176 68.2832 54.127 67.9668 54.3457C67.6504 54.5605 67.418 54.875 67.2695 55.2891C67.1211 55.7031 67.0469 56.209 67.0469 56.8066V56.9004C67.0469 57.7793 67.207 58.4492 67.5273 58.9102C67.8477 59.3711 68.3672 59.6016 69.0859 59.6016C69.7969 59.6016 70.334 59.3594 70.6973 58.875C71.0645 58.3867 71.248 57.6934 71.248 56.7949C71.248 55.877 71.0781 55.1855 70.7383 54.7207C70.3984 54.252 69.8848 54.0176 69.1973 54.0176ZM76.1465 53.5195C76.3145 53.5195 76.4727 53.5293 76.6211 53.5488C76.7695 53.5684 76.9082 53.5957 77.0371 53.6309L76.9434 54.1758C76.8145 54.1406 76.6836 54.1152 76.5508 54.0996C76.418 54.0801 76.2754 54.0703 76.123 54.0703C75.8223 54.0703 75.5527 54.127 75.3145 54.2402C75.0801 54.3535 74.8809 54.5156 74.7168 54.7266C74.5527 54.9375 74.4277 55.1914 74.3418 55.4883C74.2559 55.7852 74.2129 56.1172 74.2129 56.4844V60H73.6152V53.6309H74.125L74.1836 54.832H74.2188C74.3164 54.5859 74.4531 54.3652 74.6289 54.1699C74.8086 53.9707 75.0254 53.8125 75.2793 53.6953C75.5332 53.5781 75.8223 53.5195 76.1465 53.5195ZM80.6992 53.5078C81.2422 53.5078 81.6934 53.6348 82.0527 53.8887C82.416 54.1426 82.6855 54.4902 82.8613 54.9316C83.041 55.373 83.1309 55.8789 83.1309 56.4492V56.877H78.5312C78.5312 57.752 78.7324 58.4238 79.1348 58.8926C79.541 59.3613 80.1211 59.5957 80.875 59.5957C81.2695 59.5957 81.6113 59.5645 81.9004 59.502C82.1934 59.4355 82.5176 59.3242 82.873 59.168V59.7129C82.5605 59.8535 82.248 59.9551 81.9355 60.0176C81.623 60.084 81.2637 60.1172 80.8574 60.1172C80.2129 60.1172 79.6719 59.9844 79.2344 59.7188C78.8008 59.4492 78.4727 59.0703 78.25 58.582C78.0312 58.0938 77.9219 57.5234 77.9219 56.8711C77.9219 56.2344 78.0273 55.6621 78.2383 55.1543C78.4531 54.6465 78.7656 54.2461 79.1758 53.9531C79.5898 53.6562 80.0977 53.5078 80.6992 53.5078ZM80.6934 54.0176C80.084 54.0176 79.5898 54.2207 79.2109 54.627C78.8359 55.0293 78.6152 55.6113 78.5488 56.373H82.5156C82.5156 55.9082 82.4492 55.498 82.3164 55.1426C82.1836 54.7871 81.9824 54.5117 81.7129 54.3164C81.4473 54.1172 81.1074 54.0176 80.6934 54.0176ZM91.9844 58.3301C91.9844 58.709 91.8887 59.0332 91.6973 59.3027C91.5098 59.5684 91.2344 59.7715 90.8711 59.9121C90.5078 60.0488 90.0605 60.1172 89.5293 60.1172C89.0879 60.1172 88.6934 60.0781 88.3457 60C87.998 59.9219 87.707 59.8262 87.4727 59.7129V59.127C87.7656 59.2715 88.0898 59.3887 88.4453 59.4785C88.8008 59.5684 89.166 59.6133 89.541 59.6133C90.1973 59.6133 90.6699 59.502 90.959 59.2793C91.248 59.0566 91.3926 58.752 91.3926 58.3652C91.3926 58.1113 91.3203 57.9023 91.1758 57.7383C91.0352 57.5703 90.832 57.4258 90.5664 57.3047C90.3008 57.1836 89.9805 57.0605 89.6055 56.9355C89.2148 56.8027 88.8672 56.6719 88.5625 56.543C88.2617 56.4102 88.0254 56.2363 87.8535 56.0215C87.6816 55.8027 87.5957 55.5059 87.5957 55.1309C87.5957 54.6191 87.8008 54.2207 88.2109 53.9355C88.6211 53.6504 89.1719 53.5078 89.8633 53.5078C90.2461 53.5078 90.6016 53.5449 90.9297 53.6191C91.2617 53.6895 91.5625 53.7812 91.832 53.8945L91.6211 54.3984C91.3789 54.2852 91.0996 54.1934 90.7832 54.123C90.4668 54.0527 90.1504 54.0176 89.834 54.0176C89.3145 54.0176 88.9082 54.1094 88.6152 54.293C88.3223 54.4766 88.1758 54.7461 88.1758 55.1016C88.1758 55.375 88.2461 55.5898 88.3867 55.7461C88.5273 55.8984 88.7285 56.0273 88.9902 56.1328C89.252 56.2344 89.5625 56.3477 89.9219 56.4727C90.293 56.6016 90.6348 56.7363 90.9473 56.877C91.2637 57.0176 91.5156 57.1992 91.7031 57.4219C91.8906 57.6445 91.9844 57.9473 91.9844 58.3301ZM94.1816 53.6309V60H93.5898V53.6309H94.1816ZM93.8945 51.2754C94.043 51.2754 94.1523 51.3203 94.2227 51.4102C94.293 51.4961 94.3281 51.6133 94.3281 51.7617C94.3281 51.9102 94.293 52.0273 94.2227 52.1133C94.1523 52.1992 94.043 52.2422 93.8945 52.2422C93.7539 52.2422 93.6484 52.1992 93.5781 52.1133C93.5078 52.0273 93.4727 51.9102 93.4727 51.7617C93.4727 51.6133 93.5078 51.4961 93.5781 51.4102C93.6484 51.3203 93.7539 51.2754 93.8945 51.2754ZM99.1152 53.5078C99.8301 53.5078 100.379 53.6953 100.762 54.0703C101.145 54.4453 101.336 55.0332 101.336 55.834V60H100.75V55.8691C100.75 55.2363 100.605 54.7715 100.316 54.4746C100.027 54.1777 99.6074 54.0293 99.0566 54.0293C98.3574 54.0293 97.8223 54.2344 97.4512 54.6445C97.084 55.0508 96.9004 55.666 96.9004 56.4902V60H96.3086V53.6309H96.7891L96.877 54.791H96.9121C97.0254 54.5527 97.1797 54.3379 97.375 54.1465C97.5742 53.9512 97.8184 53.7969 98.1074 53.6836C98.3965 53.5664 98.7324 53.5078 99.1152 53.5078ZM109.053 53.5195C109.221 53.5195 109.379 53.5293 109.527 53.5488C109.676 53.5684 109.814 53.5957 109.943 53.6309L109.85 54.1758C109.721 54.1406 109.59 54.1152 109.457 54.0996C109.324 54.0801 109.182 54.0703 109.029 54.0703C108.729 54.0703 108.459 54.127 108.221 54.2402C107.986 54.3535 107.787 54.5156 107.623 54.7266C107.459 54.9375 107.334 55.1914 107.248 55.4883C107.162 55.7852 107.119 56.1172 107.119 56.4844V60H106.521V53.6309H107.031L107.09 54.832H107.125C107.223 54.5859 107.359 54.3652 107.535 54.1699C107.715 53.9707 107.932 53.8125 108.186 53.6953C108.439 53.5781 108.729 53.5195 109.053 53.5195ZM113.605 53.5078C114.148 53.5078 114.6 53.6348 114.959 53.8887C115.322 54.1426 115.592 54.4902 115.768 54.9316C115.947 55.373 116.037 55.8789 116.037 56.4492V56.877H111.438C111.438 57.752 111.639 58.4238 112.041 58.8926C112.447 59.3613 113.027 59.5957 113.781 59.5957C114.176 59.5957 114.518 59.5645 114.807 59.502C115.1 59.4355 115.424 59.3242 115.779 59.168V59.7129C115.467 59.8535 115.154 59.9551 114.842 60.0176C114.529 60.084 114.17 60.1172 113.764 60.1172C113.119 60.1172 112.578 59.9844 112.141 59.7188C111.707 59.4492 111.379 59.0703 111.156 58.582C110.938 58.0938 110.828 57.5234 110.828 56.8711C110.828 56.2344 110.934 55.6621 111.145 55.1543C111.359 54.6465 111.672 54.2461 112.082 53.9531C112.496 53.6562 113.004 53.5078 113.605 53.5078ZM113.6 54.0176C112.99 54.0176 112.496 54.2207 112.117 54.627C111.742 55.0293 111.521 55.6113 111.455 56.373H115.422C115.422 55.9082 115.355 55.498 115.223 55.1426C115.09 54.7871 114.889 54.5117 114.619 54.3164C114.354 54.1172 114.014 54.0176 113.6 54.0176ZM119.477 62.8828C118.676 62.8828 118.053 62.7285 117.607 62.4199C117.166 62.1113 116.945 61.6797 116.945 61.125C116.945 60.6953 117.08 60.3242 117.35 60.0117C117.619 59.7031 117.984 59.5176 118.445 59.4551C118.262 59.3691 118.111 59.252 117.994 59.1035C117.881 58.9551 117.824 58.7832 117.824 58.5879C117.824 58.3691 117.893 58.166 118.029 57.9785C118.166 57.7871 118.371 57.6113 118.645 57.4512C118.277 57.3184 117.988 57.0938 117.777 56.7773C117.566 56.457 117.461 56.0723 117.461 55.623C117.461 55.1934 117.553 54.8203 117.736 54.5039C117.92 54.1875 118.18 53.9434 118.516 53.7715C118.855 53.5957 119.256 53.5078 119.717 53.5078C119.857 53.5078 119.984 53.5117 120.098 53.5195C120.215 53.5273 120.322 53.541 120.42 53.5605C120.518 53.5762 120.605 53.5977 120.684 53.625H122.74V54.0469L121.428 54.1348C121.6 54.3418 121.729 54.5664 121.814 54.8086C121.9 55.0469 121.943 55.2988 121.943 55.5645C121.943 56.1973 121.744 56.6992 121.346 57.0703C120.947 57.4414 120.393 57.627 119.682 57.627C119.486 57.627 119.295 57.6094 119.107 57.5742C118.869 57.7148 118.688 57.8574 118.562 58.002C118.438 58.1426 118.375 58.3184 118.375 58.5293C118.375 58.6621 118.414 58.7715 118.492 58.8574C118.57 58.9395 118.684 59.0039 118.832 59.0508C118.98 59.0938 119.162 59.1152 119.377 59.1152H120.496C121.188 59.1152 121.717 59.2559 122.084 59.5371C122.451 59.8184 122.635 60.2324 122.635 60.7793C122.635 61.4473 122.359 61.9648 121.809 62.332C121.262 62.6992 120.484 62.8828 119.477 62.8828ZM119.518 62.3848C120.076 62.3848 120.541 62.3242 120.912 62.2031C121.287 62.082 121.568 61.9023 121.756 61.6641C121.943 61.4297 122.037 61.1387 122.037 60.791C122.037 60.5059 121.969 60.2852 121.832 60.1289C121.695 59.9727 121.502 59.8652 121.252 59.8066C121.002 59.7441 120.707 59.7129 120.367 59.7129H119.301C118.961 59.7129 118.658 59.7598 118.393 59.8535C118.127 59.9434 117.92 60.0879 117.771 60.2871C117.627 60.4863 117.555 60.752 117.555 61.084C117.555 61.5098 117.721 61.832 118.053 62.0508C118.389 62.2734 118.877 62.3848 119.518 62.3848ZM119.705 57.1523C120.232 57.1523 120.637 57.0195 120.918 56.7539C121.199 56.4883 121.34 56.1035 121.34 55.5996C121.34 55.0605 121.195 54.6562 120.906 54.3867C120.617 54.1172 120.213 53.9824 119.693 53.9824C119.189 53.9824 118.793 54.127 118.504 54.416C118.219 54.7012 118.076 55.1035 118.076 55.623C118.076 56.1074 118.213 56.4844 118.486 56.7539C118.76 57.0195 119.166 57.1523 119.705 57.1523ZM124.615 53.6309V60H124.023V53.6309H124.615ZM124.328 51.2754C124.477 51.2754 124.586 51.3203 124.656 51.4102C124.727 51.4961 124.762 51.6133 124.762 51.7617C124.762 51.9102 124.727 52.0273 124.656 52.1133C124.586 52.1992 124.477 52.2422 124.328 52.2422C124.188 52.2422 124.082 52.1992 124.012 52.1133C123.941 52.0273 123.906 51.9102 123.906 51.7617C123.906 51.6133 123.941 51.4961 124.012 51.4102C124.082 51.3203 124.188 51.2754 124.328 51.2754ZM130.727 58.3301C130.727 58.709 130.631 59.0332 130.439 59.3027C130.252 59.5684 129.977 59.7715 129.613 59.9121C129.25 60.0488 128.803 60.1172 128.271 60.1172C127.83 60.1172 127.436 60.0781 127.088 60C126.74 59.9219 126.449 59.8262 126.215 59.7129V59.127C126.508 59.2715 126.832 59.3887 127.188 59.4785C127.543 59.5684 127.908 59.6133 128.283 59.6133C128.939 59.6133 129.412 59.502 129.701 59.2793C129.99 59.0566 130.135 58.752 130.135 58.3652C130.135 58.1113 130.062 57.9023 129.918 57.7383C129.777 57.5703 129.574 57.4258 129.309 57.3047C129.043 57.1836 128.723 57.0605 128.348 56.9355C127.957 56.8027 127.609 56.6719 127.305 56.543C127.004 56.4102 126.768 56.2363 126.596 56.0215C126.424 55.8027 126.338 55.5059 126.338 55.1309C126.338 54.6191 126.543 54.2207 126.953 53.9355C127.363 53.6504 127.914 53.5078 128.605 53.5078C128.988 53.5078 129.344 53.5449 129.672 53.6191C130.004 53.6895 130.305 53.7812 130.574 53.8945L130.363 54.3984C130.121 54.2852 129.842 54.1934 129.525 54.123C129.209 54.0527 128.893 54.0176 128.576 54.0176C128.057 54.0176 127.65 54.1094 127.357 54.293C127.064 54.4766 126.918 54.7461 126.918 55.1016C126.918 55.375 126.988 55.5898 127.129 55.7461C127.27 55.8984 127.471 56.0273 127.732 56.1328C127.994 56.2344 128.305 56.3477 128.664 56.4727C129.035 56.6016 129.377 56.7363 129.689 56.877C130.006 57.0176 130.258 57.1992 130.445 57.4219C130.633 57.6445 130.727 57.9473 130.727 58.3301ZM134.055 59.6074C134.238 59.6074 134.408 59.5938 134.564 59.5664C134.725 59.5391 134.865 59.5039 134.986 59.4609V59.9531C134.861 59.9961 134.715 60.0332 134.547 60.0645C134.379 60.0996 134.193 60.1172 133.99 60.1172C133.631 60.1172 133.332 60.0508 133.094 59.918C132.855 59.7812 132.676 59.5762 132.555 59.3027C132.434 59.0254 132.373 58.6738 132.373 58.248V54.123H131.424V53.7715L132.367 53.5898L132.572 52.0898H132.965V53.6309H134.951V54.123H132.965V58.2129C132.965 58.6699 133.049 59.0176 133.217 59.2559C133.389 59.4902 133.668 59.6074 134.055 59.6074ZM138.889 53.5195C139.057 53.5195 139.215 53.5293 139.363 53.5488C139.512 53.5684 139.65 53.5957 139.779 53.6309L139.686 54.1758C139.557 54.1406 139.426 54.1152 139.293 54.0996C139.16 54.0801 139.018 54.0703 138.865 54.0703C138.564 54.0703 138.295 54.127 138.057 54.2402C137.822 54.3535 137.623 54.5156 137.459 54.7266C137.295 54.9375 137.17 55.1914 137.084 55.4883C136.998 55.7852 136.955 56.1172 136.955 56.4844V60H136.357V53.6309H136.867L136.926 54.832H136.961C137.059 54.5859 137.195 54.3652 137.371 54.1699C137.551 53.9707 137.768 53.8125 138.021 53.6953C138.275 53.5781 138.564 53.5195 138.889 53.5195ZM146.312 56.8066C146.312 57.2988 146.252 57.748 146.131 58.1543C146.01 58.5566 145.83 58.9043 145.592 59.1973C145.354 59.4902 145.057 59.7168 144.701 59.877C144.35 60.0371 143.939 60.1172 143.471 60.1172C143.025 60.1172 142.629 60.0391 142.281 59.8828C141.934 59.7227 141.639 59.4961 141.396 59.2031C141.158 58.9102 140.977 58.5625 140.852 58.1602C140.727 57.7539 140.664 57.3027 140.664 56.8066C140.664 56.123 140.777 55.5352 141.004 55.043C141.234 54.5469 141.562 54.168 141.988 53.9062C142.418 53.6406 142.932 53.5078 143.529 53.5078C144.146 53.5078 144.66 53.6484 145.07 53.9297C145.484 54.207 145.795 54.5938 146.002 55.0898C146.209 55.5859 146.312 56.1582 146.312 56.8066ZM141.273 56.8066C141.273 57.3652 141.354 57.8535 141.514 58.2715C141.674 58.6895 141.916 59.0156 142.24 59.25C142.568 59.4844 142.982 59.6016 143.482 59.6016C143.994 59.6016 144.414 59.4844 144.742 59.25C145.07 59.0156 145.312 58.6875 145.469 58.2656C145.625 57.8438 145.703 57.3574 145.703 56.8066C145.703 56.2715 145.629 55.7949 145.48 55.377C145.332 54.959 145.098 54.6309 144.777 54.3926C144.457 54.1504 144.039 54.0293 143.523 54.0293C142.785 54.0293 142.225 54.2754 141.842 54.7676C141.463 55.2598 141.273 55.9395 141.273 56.8066Z" fill="black"/>
<path d="M253.5 23.7C253.5 22.58 253.5 22.02 253.718 21.592C253.91 21.2157 254.216 20.9097 254.592 20.718C255.02 20.5 255.58 20.5 256.7 20.5H269.3C270.42 20.5 270.98 20.5 271.408 20.718C271.784 20.9097 272.09 21.2157 272.282 21.592C272.5 22.02 272.5 22.58 272.5 23.7V36.3C272.5 37.42 272.5 37.98 272.282 38.408C272.09 38.7843 271.784 39.0903 271.408 39.282C270.98 39.5 270.42 39.5 269.3 39.5H256.7C255.58 39.5 255.02 39.5 254.592 39.282C254.216 39.0903 253.91 38.7843 253.718 38.408C253.5 37.98 253.5 37.42 253.5 36.3V23.7Z" stroke="#059669" stroke-linecap="round"/>
<path d="M269.5 39.5L263.5 24.5M272.5 22.5L253.5 26.5M263.5 33.03C263.5 35.188 261.36 36.704 260.427 37.263C260.298 37.3404 260.15 37.3813 260 37.3813C259.85 37.3813 259.702 37.3404 259.573 37.263C258.64 36.704 256.5 35.188 256.5 33.029C256.5 30.912 258.196 29.5 260 29.5C261.867 29.5 263.5 30.912 263.5 33.03Z" stroke="#059669"/>
<path d="M260 34C260.552 34 261 33.5523 261 33C261 32.4477 260.552 32 260 32C259.448 32 259 32.4477 259 33C259 33.5523 259.448 34 260 34Z" fill="#059669"/>
</svg>
