<svg width="282" height="165" viewBox="0 0 282 165" fill="none" xmlns="http://www.w3.org/2000/svg">
<rect x="0.5" y="0.5" width="281" height="164" rx="9.5" fill="#F5F4FF"/>
<rect x="0.5" y="0.5" width="281" height="164" rx="9.5" stroke="#EDE9FE"/>
<path d="M24.5463 84.2412C24.5463 84.7015 24.4506 85.1003 24.2592 85.4375C24.0678 85.7747 23.808 86.0505 23.4799 86.2646C23.1563 86.4788 22.7917 86.6361 22.3861 86.7363V86.7773C23.1882 86.8776 23.7966 87.1237 24.2113 87.5156C24.6306 87.9076 24.8402 88.4316 24.8402 89.0879C24.8402 89.6712 24.6967 90.193 24.4096 90.6533C24.127 91.1136 23.6895 91.4759 23.0971 91.7402C22.5046 92.0046 21.7413 92.1367 20.807 92.1367C20.2556 92.1367 19.7406 92.0911 19.2621 92C18.7881 91.9134 18.3415 91.779 17.9222 91.5967V89.7988C18.3506 90.0176 18.7995 90.1839 19.2689 90.2979C19.7383 90.4072 20.1758 90.4619 20.5814 90.4619C21.3379 90.4619 21.8666 90.332 22.1674 90.0723C22.4727 89.8079 22.6254 89.4388 22.6254 88.9648C22.6254 88.6868 22.5547 88.4521 22.4135 88.2607C22.2722 88.0693 22.0261 87.9235 21.6752 87.8232C21.3288 87.723 20.8435 87.6729 20.2191 87.6729H19.4603V86.0527H20.2328C20.848 86.0527 21.3152 85.9958 21.6342 85.8818C21.9577 85.7633 22.1765 85.6038 22.2904 85.4033C22.4089 85.1982 22.4681 84.9658 22.4681 84.7061C22.4681 84.3506 22.3588 84.0726 22.14 83.8721C21.9213 83.6715 21.5567 83.5713 21.0463 83.5713C20.7273 83.5713 20.4356 83.6123 20.1713 83.6943C19.9115 83.7718 19.6768 83.8675 19.4672 83.9814C19.2575 84.0908 19.073 84.1979 18.9135 84.3027L17.9359 82.8467C18.3278 82.5641 18.7859 82.3294 19.3099 82.1426C19.8386 81.9557 20.4675 81.8623 21.1967 81.8623C22.2266 81.8623 23.0424 82.0697 23.6439 82.4844C24.2455 82.8991 24.5463 83.4847 24.5463 84.2412ZM26.2006 91.0225C26.2006 90.5941 26.3168 90.2933 26.5492 90.1201C26.7862 89.9469 27.071 89.8604 27.4037 89.8604C27.7273 89.8604 28.0053 89.9469 28.2377 90.1201C28.4747 90.2933 28.5931 90.5941 28.5931 91.0225C28.5931 91.4326 28.4747 91.7288 28.2377 91.9111C28.0053 92.0934 27.7273 92.1846 27.4037 92.1846C27.071 92.1846 26.7862 92.0934 26.5492 91.9111C26.3168 91.7288 26.2006 91.4326 26.2006 91.0225ZM43.1582 82.0059L39.7607 92H37.4502L34.0596 82.0059H36.1992L38.0791 87.9531C38.111 88.0534 38.1634 88.2425 38.2363 88.5205C38.3092 88.7939 38.3822 89.0856 38.4551 89.3955C38.5326 89.7008 38.585 89.9538 38.6123 90.1543C38.6396 89.9538 38.6875 89.7008 38.7559 89.3955C38.8288 89.0902 38.8994 88.8008 38.9678 88.5273C39.0407 88.2493 39.0931 88.0579 39.125 87.9531L41.0186 82.0059H43.1582ZM46.3438 84.3574V92H44.2588V84.3574H46.3438ZM45.3047 81.3633C45.6146 81.3633 45.8812 81.4362 46.1045 81.582C46.3278 81.7233 46.4395 81.9899 46.4395 82.3818C46.4395 82.7692 46.3278 83.0381 46.1045 83.1885C45.8812 83.3343 45.6146 83.4072 45.3047 83.4072C44.9902 83.4072 44.7214 83.3343 44.498 83.1885C44.2793 83.0381 44.1699 82.7692 44.1699 82.3818C44.1699 81.9899 44.2793 81.7233 44.498 81.582C44.7214 81.4362 44.9902 81.3633 45.3047 81.3633ZM53.8701 89.7305C53.8701 90.25 53.7471 90.6898 53.501 91.0498C53.2594 91.4053 52.8971 91.6764 52.4141 91.8633C51.931 92.0456 51.3294 92.1367 50.6094 92.1367C50.0762 92.1367 49.6182 92.1025 49.2354 92.0342C48.8571 91.9658 48.4743 91.8519 48.0869 91.6924V89.9697C48.5016 90.1566 48.946 90.3115 49.4199 90.4346C49.8984 90.5531 50.3177 90.6123 50.6777 90.6123C51.0833 90.6123 51.3727 90.5531 51.5459 90.4346C51.7236 90.3115 51.8125 90.152 51.8125 89.9561C51.8125 89.8285 51.776 89.7145 51.7031 89.6143C51.6348 89.5094 51.4844 89.3932 51.252 89.2656C51.0195 89.1335 50.6549 88.9626 50.1582 88.7529C49.6797 88.5524 49.2855 88.3496 48.9756 88.1445C48.6702 87.9395 48.4424 87.6979 48.292 87.4199C48.1462 87.1374 48.0732 86.7796 48.0732 86.3467C48.0732 85.6403 48.3467 85.1094 48.8936 84.7539C49.445 84.3939 50.181 84.2139 51.1016 84.2139C51.5755 84.2139 52.0267 84.2617 52.4551 84.3574C52.888 84.4531 53.3324 84.6058 53.7881 84.8154L53.1592 86.3193C52.7809 86.1553 52.4232 86.0208 52.0859 85.916C51.7533 85.8112 51.4137 85.7588 51.0674 85.7588C50.762 85.7588 50.5319 85.7998 50.377 85.8818C50.222 85.9639 50.1445 86.0892 50.1445 86.2578C50.1445 86.3809 50.1833 86.4902 50.2607 86.5859C50.3428 86.6816 50.4977 86.7887 50.7256 86.9072C50.958 87.0212 51.2975 87.1693 51.7441 87.3516C52.1771 87.5293 52.5531 87.7161 52.8721 87.9121C53.1911 88.1035 53.4372 88.3428 53.6104 88.6299C53.7835 88.9124 53.8701 89.2793 53.8701 89.7305ZM62.5107 84.3574V92H60.9111L60.6309 91.0225H60.5215C60.3574 91.2822 60.1523 91.4941 59.9062 91.6582C59.6602 91.8223 59.389 91.943 59.0928 92.0205C58.7965 92.098 58.4889 92.1367 58.1699 92.1367C57.623 92.1367 57.1468 92.041 56.7412 91.8496C56.3356 91.6536 56.0189 91.3506 55.791 90.9404C55.5677 90.5303 55.4561 89.9971 55.4561 89.3408V84.3574H57.541V88.8213C57.541 89.3682 57.639 89.7806 57.835 90.0586C58.0309 90.3366 58.3431 90.4756 58.7715 90.4756C59.1953 90.4756 59.528 90.3799 59.7695 90.1885C60.0111 89.9925 60.1797 89.7077 60.2754 89.334C60.3757 88.9557 60.4258 88.4954 60.4258 87.9531V84.3574H62.5107ZM67.8291 84.2002C68.8545 84.2002 69.6406 84.4235 70.1875 84.8701C70.7344 85.3167 71.0078 85.9958 71.0078 86.9072V92H69.5518L69.1484 90.9609H69.0938C68.875 91.2344 68.6517 91.4577 68.4238 91.6309C68.196 91.804 67.9339 91.9316 67.6377 92.0137C67.3415 92.0957 66.9814 92.1367 66.5576 92.1367C66.1064 92.1367 65.7008 92.0501 65.3408 91.877C64.9854 91.7038 64.7051 91.4395 64.5 91.084C64.2949 90.724 64.1924 90.2682 64.1924 89.7168C64.1924 88.9056 64.4772 88.3086 65.0469 87.9258C65.6165 87.5384 66.471 87.3242 67.6104 87.2832L68.9365 87.2422V86.9072C68.9365 86.5062 68.8317 86.2122 68.6221 86.0254C68.4124 85.8385 68.1208 85.7451 67.7471 85.7451C67.3779 85.7451 67.0156 85.7975 66.6602 85.9023C66.3047 86.0072 65.9492 86.1393 65.5938 86.2988L64.9033 84.8906C65.3089 84.6764 65.7624 84.5078 66.2637 84.3848C66.7695 84.2617 67.2913 84.2002 67.8291 84.2002ZM68.9365 88.459L68.1299 88.4863C67.4554 88.5046 66.986 88.6253 66.7217 88.8486C66.4619 89.0719 66.332 89.3659 66.332 89.7305C66.332 90.0495 66.4255 90.2773 66.6123 90.4141C66.7992 90.5462 67.043 90.6123 67.3438 90.6123C67.7904 90.6123 68.1663 90.4801 68.4717 90.2158C68.7816 89.9515 68.9365 89.5755 68.9365 89.0879V88.459ZM75.2461 92H73.1611V81.3633H75.2461V92ZM79.5254 84.3574V92H77.4404V84.3574H79.5254ZM78.4863 81.3633C78.7962 81.3633 79.0628 81.4362 79.2861 81.582C79.5094 81.7233 79.6211 81.9899 79.6211 82.3818C79.6211 82.7692 79.5094 83.0381 79.2861 83.1885C79.0628 83.3343 78.7962 83.4072 78.4863 83.4072C78.1719 83.4072 77.903 83.3343 77.6797 83.1885C77.4609 83.0381 77.3516 82.7692 77.3516 82.3818C77.3516 81.9899 77.4609 81.7233 77.6797 81.582C77.903 81.4362 78.1719 81.3633 78.4863 81.3633ZM87.0381 92H81.002V90.7695L84.543 85.9502H81.2139V84.3574H86.915V85.7109L83.4697 90.4072H87.0381V92ZM91.6865 84.2002C92.7119 84.2002 93.498 84.4235 94.0449 84.8701C94.5918 85.3167 94.8652 85.9958 94.8652 86.9072V92H93.4092L93.0059 90.9609H92.9512C92.7324 91.2344 92.5091 91.4577 92.2812 91.6309C92.0534 91.804 91.7913 91.9316 91.4951 92.0137C91.1989 92.0957 90.8389 92.1367 90.415 92.1367C89.9639 92.1367 89.5583 92.0501 89.1982 91.877C88.8428 91.7038 88.5625 91.4395 88.3574 91.084C88.1523 90.724 88.0498 90.2682 88.0498 89.7168C88.0498 88.9056 88.3346 88.3086 88.9043 87.9258C89.474 87.5384 90.3285 87.3242 91.4678 87.2832L92.7939 87.2422V86.9072C92.7939 86.5062 92.6891 86.2122 92.4795 86.0254C92.2699 85.8385 91.9782 85.7451 91.6045 85.7451C91.2354 85.7451 90.873 85.7975 90.5176 85.9023C90.1621 86.0072 89.8066 86.1393 89.4512 86.2988L88.7607 84.8906C89.1663 84.6764 89.6198 84.5078 90.1211 84.3848C90.627 84.2617 91.1488 84.2002 91.6865 84.2002ZM92.7939 88.459L91.9873 88.4863C91.3128 88.5046 90.8434 88.6253 90.5791 88.8486C90.3193 89.0719 90.1895 89.3659 90.1895 89.7305C90.1895 90.0495 90.2829 90.2773 90.4697 90.4141C90.6566 90.5462 90.9004 90.6123 91.2012 90.6123C91.6478 90.6123 92.0238 90.4801 92.3291 90.2158C92.639 89.9515 92.7939 89.5755 92.7939 89.0879V88.459ZM103.875 90.4756C104.103 90.4756 104.324 90.4528 104.538 90.4072C104.757 90.3617 104.973 90.3047 105.188 90.2363V91.7881C104.964 91.8883 104.686 91.9704 104.354 92.0342C104.025 92.1025 103.665 92.1367 103.273 92.1367C102.818 92.1367 102.408 92.0638 102.043 91.918C101.683 91.7676 101.398 91.5101 101.188 91.1455C100.983 90.7764 100.881 90.2637 100.881 89.6074V85.9229H99.8828V85.041L101.031 84.3438L101.633 82.7305H102.966V84.3574H105.105V85.9229H102.966V89.6074C102.966 89.8991 103.048 90.1178 103.212 90.2637C103.381 90.4049 103.602 90.4756 103.875 90.4756ZM113.753 84.3574V92H112.153L111.873 91.0225H111.764C111.6 91.2822 111.395 91.4941 111.148 91.6582C110.902 91.8223 110.631 91.943 110.335 92.0205C110.039 92.098 109.731 92.1367 109.412 92.1367C108.865 92.1367 108.389 92.041 107.983 91.8496C107.578 91.6536 107.261 91.3506 107.033 90.9404C106.81 90.5303 106.698 89.9971 106.698 89.3408V84.3574H108.783V88.8213C108.783 89.3682 108.881 89.7806 109.077 90.0586C109.273 90.3366 109.585 90.4756 110.014 90.4756C110.438 90.4756 110.77 90.3799 111.012 90.1885C111.253 89.9925 111.422 89.7077 111.518 89.334C111.618 88.9557 111.668 88.4954 111.668 87.9531V84.3574H113.753ZM121.272 89.7305C121.272 90.25 121.149 90.6898 120.903 91.0498C120.662 91.4053 120.299 91.6764 119.816 91.8633C119.333 92.0456 118.732 92.1367 118.012 92.1367C117.479 92.1367 117.021 92.1025 116.638 92.0342C116.259 91.9658 115.877 91.8519 115.489 91.6924V89.9697C115.904 90.1566 116.348 90.3115 116.822 90.4346C117.301 90.5531 117.72 90.6123 118.08 90.6123C118.486 90.6123 118.775 90.5531 118.948 90.4346C119.126 90.3115 119.215 90.152 119.215 89.9561C119.215 89.8285 119.178 89.7145 119.105 89.6143C119.037 89.5094 118.887 89.3932 118.654 89.2656C118.422 89.1335 118.057 88.9626 117.561 88.7529C117.082 88.5524 116.688 88.3496 116.378 88.1445C116.073 87.9395 115.845 87.6979 115.694 87.4199C115.549 87.1374 115.476 86.7796 115.476 86.3467C115.476 85.6403 115.749 85.1094 116.296 84.7539C116.847 84.3939 117.583 84.2139 118.504 84.2139C118.978 84.2139 119.429 84.2617 119.857 84.3574C120.29 84.4531 120.735 84.6058 121.19 84.8154L120.562 86.3193C120.183 86.1553 119.826 86.0208 119.488 85.916C119.156 85.8112 118.816 85.7588 118.47 85.7588C118.164 85.7588 117.934 85.7998 117.779 85.8818C117.624 85.9639 117.547 86.0892 117.547 86.2578C117.547 86.3809 117.586 86.4902 117.663 86.5859C117.745 86.6816 117.9 86.7887 118.128 86.9072C118.36 87.0212 118.7 87.1693 119.146 87.3516C119.579 87.5293 119.955 87.7161 120.274 87.9121C120.593 88.1035 120.84 88.3428 121.013 88.6299C121.186 88.9124 121.272 89.2793 121.272 89.7305ZM135.512 84.2139C136.378 84.2139 137.032 84.4372 137.474 84.8838C137.92 85.3258 138.144 86.0368 138.144 87.0166V92H136.052V87.5361C136.052 86.9893 135.958 86.5768 135.771 86.2988C135.585 86.0208 135.295 85.8818 134.903 85.8818C134.352 85.8818 133.96 86.0801 133.728 86.4766C133.495 86.8685 133.379 87.4313 133.379 88.165V92H131.294V87.5361C131.294 87.1715 131.253 86.8662 131.171 86.6201C131.089 86.374 130.964 86.1895 130.795 86.0664C130.626 85.9434 130.41 85.8818 130.146 85.8818C129.758 85.8818 129.453 85.9798 129.229 86.1758C129.011 86.3672 128.854 86.652 128.758 87.0303C128.667 87.404 128.621 87.862 128.621 88.4043V92H126.536V84.3574H128.129L128.409 85.335H128.525C128.68 85.0706 128.874 84.8564 129.106 84.6924C129.343 84.5283 129.603 84.4076 129.886 84.3301C130.168 84.2526 130.455 84.2139 130.747 84.2139C131.308 84.2139 131.782 84.305 132.169 84.4873C132.561 84.6696 132.862 84.9521 133.071 85.335H133.256C133.484 84.943 133.805 84.6582 134.22 84.4805C134.639 84.3027 135.07 84.2139 135.512 84.2139ZM143.421 84.2002C144.446 84.2002 145.232 84.4235 145.779 84.8701C146.326 85.3167 146.6 85.9958 146.6 86.9072V92H145.144L144.74 90.9609H144.686C144.467 91.2344 144.243 91.4577 144.016 91.6309C143.788 91.804 143.526 91.9316 143.229 92.0137C142.933 92.0957 142.573 92.1367 142.149 92.1367C141.698 92.1367 141.293 92.0501 140.933 91.877C140.577 91.7038 140.297 91.4395 140.092 91.084C139.887 90.724 139.784 90.2682 139.784 89.7168C139.784 88.9056 140.069 88.3086 140.639 87.9258C141.208 87.5384 142.063 87.3242 143.202 87.2832L144.528 87.2422V86.9072C144.528 86.5062 144.424 86.2122 144.214 86.0254C144.004 85.8385 143.713 85.7451 143.339 85.7451C142.97 85.7451 142.607 85.7975 142.252 85.9023C141.896 86.0072 141.541 86.1393 141.186 86.2988L140.495 84.8906C140.901 84.6764 141.354 84.5078 141.855 84.3848C142.361 84.2617 142.883 84.2002 143.421 84.2002ZM144.528 88.459L143.722 88.4863C143.047 88.5046 142.578 88.6253 142.313 88.8486C142.054 89.0719 141.924 89.3659 141.924 89.7305C141.924 90.0495 142.017 90.2773 142.204 90.4141C142.391 90.5462 142.635 90.6123 142.936 90.6123C143.382 90.6123 143.758 90.4801 144.063 90.2158C144.373 89.9515 144.528 89.5755 144.528 89.0879V88.459ZM153.005 84.2139C153.866 84.2139 154.561 84.5488 155.09 85.2188C155.623 85.8887 155.89 86.8708 155.89 88.165C155.89 89.0309 155.764 89.7601 155.514 90.3525C155.263 90.9404 154.917 91.3848 154.475 91.6855C154.033 91.9863 153.524 92.1367 152.95 92.1367C152.581 92.1367 152.264 92.0911 152 92C151.736 91.9043 151.51 91.7835 151.323 91.6377C151.136 91.4873 150.975 91.3278 150.838 91.1592H150.729C150.765 91.3415 150.792 91.5283 150.811 91.7197C150.829 91.9111 150.838 92.098 150.838 92.2803V95.3633H148.753V84.3574H150.448L150.742 85.3486H150.838C150.975 85.1436 151.141 84.9544 151.337 84.7812C151.533 84.6081 151.768 84.4714 152.041 84.3711C152.319 84.2663 152.64 84.2139 153.005 84.2139ZM152.335 85.8818C151.97 85.8818 151.681 85.957 151.467 86.1074C151.253 86.2578 151.095 86.4834 150.995 86.7842C150.899 87.085 150.847 87.4655 150.838 87.9258V88.1514C150.838 88.6436 150.883 89.0605 150.975 89.4023C151.07 89.7441 151.228 90.0039 151.446 90.1816C151.67 90.3594 151.975 90.4482 152.362 90.4482C152.681 90.4482 152.943 90.3594 153.148 90.1816C153.354 90.0039 153.506 89.7441 153.606 89.4023C153.711 89.056 153.764 88.6344 153.764 88.1377C153.764 87.3903 153.647 86.8275 153.415 86.4492C153.183 86.071 152.823 85.8818 152.335 85.8818ZM160.743 84.2002C161.769 84.2002 162.555 84.4235 163.102 84.8701C163.648 85.3167 163.922 85.9958 163.922 86.9072V92H162.466L162.062 90.9609H162.008C161.789 91.2344 161.566 91.4577 161.338 91.6309C161.11 91.804 160.848 91.9316 160.552 92.0137C160.256 92.0957 159.896 92.1367 159.472 92.1367C159.021 92.1367 158.615 92.0501 158.255 91.877C157.899 91.7038 157.619 91.4395 157.414 91.084C157.209 90.724 157.106 90.2682 157.106 89.7168C157.106 88.9056 157.391 88.3086 157.961 87.9258C158.531 87.5384 159.385 87.3242 160.524 87.2832L161.851 87.2422V86.9072C161.851 86.5062 161.746 86.2122 161.536 86.0254C161.326 85.8385 161.035 85.7451 160.661 85.7451C160.292 85.7451 159.93 85.7975 159.574 85.9023C159.219 86.0072 158.863 86.1393 158.508 86.2988L157.817 84.8906C158.223 84.6764 158.676 84.5078 159.178 84.3848C159.684 84.2617 160.205 84.2002 160.743 84.2002ZM161.851 88.459L161.044 88.4863C160.369 88.5046 159.9 88.6253 159.636 88.8486C159.376 89.0719 159.246 89.3659 159.246 89.7305C159.246 90.0495 159.34 90.2773 159.526 90.4141C159.713 90.5462 159.957 90.6123 160.258 90.6123C160.704 90.6123 161.08 90.4801 161.386 90.2158C161.696 89.9515 161.851 89.5755 161.851 89.0879V88.459ZM171.407 89.7305C171.407 90.25 171.284 90.6898 171.038 91.0498C170.797 91.4053 170.434 91.6764 169.951 91.8633C169.468 92.0456 168.867 92.1367 168.146 92.1367C167.613 92.1367 167.155 92.1025 166.772 92.0342C166.394 91.9658 166.011 91.8519 165.624 91.6924V89.9697C166.039 90.1566 166.483 90.3115 166.957 90.4346C167.436 90.5531 167.855 90.6123 168.215 90.6123C168.62 90.6123 168.91 90.5531 169.083 90.4346C169.261 90.3115 169.35 90.152 169.35 89.9561C169.35 89.8285 169.313 89.7145 169.24 89.6143C169.172 89.5094 169.021 89.3932 168.789 89.2656C168.557 89.1335 168.192 88.9626 167.695 88.7529C167.217 88.5524 166.823 88.3496 166.513 88.1445C166.207 87.9395 165.979 87.6979 165.829 87.4199C165.683 87.1374 165.61 86.7796 165.61 86.3467C165.61 85.6403 165.884 85.1094 166.431 84.7539C166.982 84.3939 167.718 84.2139 168.639 84.2139C169.113 84.2139 169.564 84.2617 169.992 84.3574C170.425 84.4531 170.869 84.6058 171.325 84.8154L170.696 86.3193C170.318 86.1553 169.96 86.0208 169.623 85.916C169.29 85.8112 168.951 85.7588 168.604 85.7588C168.299 85.7588 168.069 85.7998 167.914 85.8818C167.759 85.9639 167.682 86.0892 167.682 86.2578C167.682 86.3809 167.72 86.4902 167.798 86.5859C167.88 86.6816 168.035 86.7887 168.263 86.9072C168.495 87.0212 168.835 87.1693 169.281 87.3516C169.714 87.5293 170.09 87.7161 170.409 87.9121C170.728 88.1035 170.974 88.3428 171.147 88.6299C171.321 88.9124 171.407 89.2793 171.407 89.7305Z" fill="black"/>
<path d="M20.8457 110.855C20.2988 110.855 19.8105 110.949 19.3809 111.137C18.9512 111.32 18.5879 111.582 18.291 111.922C17.9941 112.262 17.7676 112.668 17.6113 113.141C17.4551 113.609 17.377 114.127 17.377 114.693C17.377 115.475 17.5 116.158 17.7461 116.744C17.9922 117.326 18.3613 117.777 18.8535 118.098C19.3496 118.418 19.9668 118.578 20.7051 118.578C21.1348 118.578 21.5254 118.547 21.877 118.484C22.2285 118.418 22.5547 118.334 22.8555 118.232V118.76C22.5703 118.865 22.248 118.951 21.8887 119.018C21.5332 119.084 21.1191 119.117 20.6465 119.117C19.791 119.117 19.0723 118.934 18.4902 118.566C17.9121 118.199 17.4766 117.684 17.1836 117.02C16.8906 116.355 16.7441 115.58 16.7441 114.693C16.7441 114.057 16.8359 113.473 17.0195 112.941C17.2031 112.406 17.4707 111.943 17.8223 111.553C18.1777 111.158 18.6094 110.854 19.1172 110.639C19.625 110.42 20.2031 110.311 20.8516 110.311C21.2617 110.311 21.6523 110.352 22.0234 110.434C22.3984 110.512 22.75 110.627 23.0781 110.779L22.8438 111.307C22.5273 111.15 22.2031 111.037 21.8711 110.967C21.5391 110.893 21.1973 110.855 20.8457 110.855ZM29.793 115.807C29.793 116.299 29.7324 116.748 29.6113 117.154C29.4902 117.557 29.3105 117.904 29.0723 118.197C28.834 118.49 28.5371 118.717 28.1816 118.877C27.8301 119.037 27.4199 119.117 26.9512 119.117C26.5059 119.117 26.1094 119.039 25.7617 118.883C25.4141 118.723 25.1191 118.496 24.877 118.203C24.6387 117.91 24.457 117.562 24.332 117.16C24.207 116.754 24.1445 116.303 24.1445 115.807C24.1445 115.123 24.2578 114.535 24.4844 114.043C24.7148 113.547 25.043 113.168 25.4688 112.906C25.8984 112.641 26.4121 112.508 27.0098 112.508C27.627 112.508 28.1406 112.648 28.5508 112.93C28.9648 113.207 29.2754 113.594 29.4824 114.09C29.6895 114.586 29.793 115.158 29.793 115.807ZM24.7539 115.807C24.7539 116.365 24.834 116.854 24.9941 117.271C25.1543 117.689 25.3965 118.016 25.7207 118.25C26.0488 118.484 26.4629 118.602 26.9629 118.602C27.4746 118.602 27.8945 118.484 28.2227 118.25C28.5508 118.016 28.793 117.688 28.9492 117.266C29.1055 116.844 29.1836 116.357 29.1836 115.807C29.1836 115.271 29.1094 114.795 28.9609 114.377C28.8125 113.959 28.5781 113.631 28.2578 113.393C27.9375 113.15 27.5195 113.029 27.0039 113.029C26.2656 113.029 25.7051 113.275 25.3223 113.768C24.9434 114.26 24.7539 114.939 24.7539 115.807ZM34.3574 112.508C35.0723 112.508 35.6211 112.695 36.0039 113.07C36.3867 113.445 36.5781 114.033 36.5781 114.834V119H35.9922V114.869C35.9922 114.236 35.8477 113.771 35.5586 113.475C35.2695 113.178 34.8496 113.029 34.2988 113.029C33.5996 113.029 33.0645 113.234 32.6934 113.645C32.3262 114.051 32.1426 114.666 32.1426 115.49V119H31.5508V112.631H32.0312L32.1191 113.791H32.1543C32.2676 113.553 32.4219 113.338 32.6172 113.146C32.8164 112.951 33.0605 112.797 33.3496 112.684C33.6387 112.566 33.9746 112.508 34.3574 112.508ZM42.625 117.33C42.625 117.709 42.5293 118.033 42.3379 118.303C42.1504 118.568 41.875 118.771 41.5117 118.912C41.1484 119.049 40.7012 119.117 40.1699 119.117C39.7285 119.117 39.334 119.078 38.9863 119C38.6387 118.922 38.3477 118.826 38.1133 118.713V118.127C38.4062 118.271 38.7305 118.389 39.0859 118.479C39.4414 118.568 39.8066 118.613 40.1816 118.613C40.8379 118.613 41.3105 118.502 41.5996 118.279C41.8887 118.057 42.0332 117.752 42.0332 117.365C42.0332 117.111 41.9609 116.902 41.8164 116.738C41.6758 116.57 41.4727 116.426 41.207 116.305C40.9414 116.184 40.6211 116.061 40.2461 115.936C39.8555 115.803 39.5078 115.672 39.2031 115.543C38.9023 115.41 38.666 115.236 38.4941 115.021C38.3223 114.803 38.2363 114.506 38.2363 114.131C38.2363 113.619 38.4414 113.221 38.8516 112.936C39.2617 112.65 39.8125 112.508 40.5039 112.508C40.8867 112.508 41.2422 112.545 41.5703 112.619C41.9023 112.689 42.2031 112.781 42.4727 112.895L42.2617 113.398C42.0195 113.285 41.7402 113.193 41.4238 113.123C41.1074 113.053 40.791 113.018 40.4746 113.018C39.9551 113.018 39.5488 113.109 39.2559 113.293C38.9629 113.477 38.8164 113.746 38.8164 114.102C38.8164 114.375 38.8867 114.59 39.0273 114.746C39.168 114.898 39.3691 115.027 39.6309 115.133C39.8926 115.234 40.2031 115.348 40.5625 115.473C40.9336 115.602 41.2754 115.736 41.5879 115.877C41.9043 116.018 42.1562 116.199 42.3438 116.422C42.5312 116.645 42.625 116.947 42.625 117.33ZM49.1816 112.631V119H48.7012L48.6133 117.852H48.5781C48.4688 118.086 48.3145 118.299 48.1152 118.49C47.916 118.682 47.6719 118.834 47.3828 118.947C47.0938 119.061 46.7578 119.117 46.375 119.117C45.8867 119.117 45.4766 119.033 45.1445 118.865C44.8164 118.693 44.5684 118.436 44.4004 118.092C44.2324 117.748 44.1484 117.318 44.1484 116.803V112.631H44.7402V116.744C44.7402 117.381 44.8828 117.85 45.168 118.15C45.457 118.451 45.8789 118.602 46.4336 118.602C46.9023 118.602 47.2949 118.512 47.6113 118.332C47.9316 118.152 48.1738 117.881 48.3379 117.518C48.5059 117.15 48.5898 116.693 48.5898 116.146V112.631H49.1816ZM51.9238 119H51.3262V109.883H51.9238V119ZM55.7617 118.607C55.9453 118.607 56.1152 118.594 56.2715 118.566C56.4316 118.539 56.5723 118.504 56.6934 118.461V118.953C56.5684 118.996 56.4219 119.033 56.2539 119.064C56.0859 119.1 55.9004 119.117 55.6973 119.117C55.3379 119.117 55.0391 119.051 54.8008 118.918C54.5625 118.781 54.3828 118.576 54.2617 118.303C54.1406 118.025 54.0801 117.674 54.0801 117.248V113.123H53.1309V112.771L54.0742 112.59L54.2793 111.09H54.6719V112.631H56.6582V113.123H54.6719V117.213C54.6719 117.67 54.7559 118.018 54.9238 118.256C55.0957 118.49 55.375 118.607 55.7617 118.607ZM60.2852 112.52C60.9844 112.52 61.5078 112.695 61.8555 113.047C62.2031 113.398 62.377 113.959 62.377 114.729V119H61.9199L61.8145 117.887H61.7793C61.6426 118.125 61.4766 118.338 61.2812 118.525C61.0859 118.709 60.8457 118.854 60.5605 118.959C60.2793 119.064 59.9355 119.117 59.5293 119.117C59.1191 119.117 58.7676 119.049 58.4746 118.912C58.1855 118.775 57.9609 118.576 57.8008 118.314C57.6445 118.053 57.5664 117.734 57.5664 117.359C57.5664 116.727 57.8281 116.246 58.3516 115.918C58.875 115.586 59.627 115.398 60.6074 115.355L61.791 115.297V114.834C61.791 114.182 61.6621 113.717 61.4043 113.439C61.1465 113.162 60.7656 113.023 60.2617 113.023C59.9336 113.023 59.6172 113.066 59.3125 113.152C59.0117 113.234 58.7051 113.354 58.3926 113.51L58.2051 113.018C58.5098 112.873 58.8359 112.754 59.1836 112.66C59.5352 112.566 59.9023 112.52 60.2852 112.52ZM61.7852 115.76L60.6719 115.807C59.8633 115.846 59.248 115.99 58.8262 116.24C58.4043 116.49 58.1934 116.865 58.1934 117.365C58.1934 117.768 58.3184 118.076 58.5684 118.291C58.8223 118.506 59.1738 118.613 59.623 118.613C60.3223 118.613 60.8555 118.414 61.2227 118.016C61.5938 117.617 61.7812 117.074 61.7852 116.387V115.76ZM74.1133 112.508C74.7266 112.508 75.2109 112.686 75.5664 113.041C75.9219 113.396 76.0996 113.957 76.0996 114.723V119H75.5195V114.746C75.5195 114.156 75.3848 113.723 75.1152 113.445C74.8457 113.168 74.4902 113.029 74.0488 113.029C73.4434 113.029 72.9688 113.207 72.625 113.562C72.2852 113.914 72.1152 114.469 72.1152 115.227V119H71.5293V114.746C71.5293 114.352 71.4668 114.029 71.3418 113.779C71.2207 113.525 71.0508 113.338 70.832 113.217C70.6133 113.092 70.3555 113.029 70.0586 113.029C69.6641 113.029 69.3223 113.111 69.0332 113.275C68.7441 113.436 68.5215 113.686 68.3652 114.025C68.209 114.361 68.1309 114.789 68.1309 115.309V119H67.5391V112.631H68.0195L68.1074 113.674H68.1426C68.248 113.467 68.3887 113.275 68.5645 113.1C68.7402 112.924 68.957 112.781 69.2148 112.672C69.4766 112.562 69.7832 112.508 70.1348 112.508C70.5918 112.508 70.9785 112.611 71.2949 112.818C71.6152 113.021 71.8379 113.324 71.9629 113.727H72.0039C72.1758 113.344 72.4414 113.045 72.8008 112.83C73.1641 112.615 73.6016 112.508 74.1133 112.508ZM80.3711 112.52C81.0703 112.52 81.5938 112.695 81.9414 113.047C82.2891 113.398 82.4629 113.959 82.4629 114.729V119H82.0059L81.9004 117.887H81.8652C81.7285 118.125 81.5625 118.338 81.3672 118.525C81.1719 118.709 80.9316 118.854 80.6465 118.959C80.3652 119.064 80.0215 119.117 79.6152 119.117C79.2051 119.117 78.8535 119.049 78.5605 118.912C78.2715 118.775 78.0469 118.576 77.8867 118.314C77.7305 118.053 77.6523 117.734 77.6523 117.359C77.6523 116.727 77.9141 116.246 78.4375 115.918C78.9609 115.586 79.7129 115.398 80.6934 115.355L81.877 115.297V114.834C81.877 114.182 81.748 113.717 81.4902 113.439C81.2324 113.162 80.8516 113.023 80.3477 113.023C80.0195 113.023 79.7031 113.066 79.3984 113.152C79.0977 113.234 78.791 113.354 78.4785 113.51L78.291 113.018C78.5957 112.873 78.9219 112.754 79.2695 112.66C79.6211 112.566 79.9883 112.52 80.3711 112.52ZM81.8711 115.76L80.7578 115.807C79.9492 115.846 79.334 115.99 78.9121 116.24C78.4902 116.49 78.2793 116.865 78.2793 117.365C78.2793 117.768 78.4043 118.076 78.6543 118.291C78.9082 118.506 79.2598 118.613 79.709 118.613C80.4082 118.613 80.9414 118.414 81.3086 118.016C81.6797 117.617 81.8672 117.074 81.8711 116.387V115.76ZM87.332 112.508C88.1523 112.508 88.7871 112.783 89.2363 113.334C89.6895 113.885 89.916 114.697 89.916 115.771C89.916 116.49 89.8086 117.1 89.5938 117.6C89.3789 118.096 89.0723 118.473 88.6738 118.73C88.2793 118.988 87.8047 119.117 87.25 119.117C86.8672 119.117 86.5332 119.061 86.248 118.947C85.9668 118.83 85.7324 118.674 85.5449 118.479C85.3574 118.279 85.2129 118.061 85.1113 117.822H85.0703C85.082 118.045 85.0918 118.277 85.0996 118.52C85.1074 118.762 85.1113 118.99 85.1113 119.205V121.818H84.5137V112.631H85.0059L85.0762 113.902H85.1113C85.2168 113.66 85.3652 113.432 85.5566 113.217C85.748 113.002 85.9902 112.83 86.2832 112.701C86.5762 112.572 86.9258 112.508 87.332 112.508ZM87.2559 113.029C86.7754 113.029 86.375 113.135 86.0547 113.346C85.7383 113.553 85.502 113.857 85.3457 114.26C85.1934 114.658 85.1152 115.146 85.1113 115.725V115.824C85.1113 116.445 85.1875 116.963 85.3398 117.377C85.4961 117.787 85.7285 118.094 86.0371 118.297C86.3496 118.5 86.7363 118.602 87.1973 118.602C87.6504 118.602 88.0332 118.49 88.3457 118.268C88.6582 118.045 88.8965 117.723 89.0605 117.301C89.2246 116.879 89.3066 116.367 89.3066 115.766C89.3066 114.871 89.1348 114.191 88.791 113.727C88.4512 113.262 87.9395 113.029 87.2559 113.029ZM93.8828 112.52C94.582 112.52 95.1055 112.695 95.4531 113.047C95.8008 113.398 95.9746 113.959 95.9746 114.729V119H95.5176L95.4121 117.887H95.377C95.2402 118.125 95.0742 118.338 94.8789 118.525C94.6836 118.709 94.4434 118.854 94.1582 118.959C93.877 119.064 93.5332 119.117 93.127 119.117C92.7168 119.117 92.3652 119.049 92.0723 118.912C91.7832 118.775 91.5586 118.576 91.3984 118.314C91.2422 118.053 91.1641 117.734 91.1641 117.359C91.1641 116.727 91.4258 116.246 91.9492 115.918C92.4727 115.586 93.2246 115.398 94.2051 115.355L95.3887 115.297V114.834C95.3887 114.182 95.2598 113.717 95.002 113.439C94.7441 113.162 94.3633 113.023 93.8594 113.023C93.5312 113.023 93.2148 113.066 92.9102 113.152C92.6094 113.234 92.3027 113.354 91.9902 113.51L91.8027 113.018C92.1074 112.873 92.4336 112.754 92.7812 112.66C93.1328 112.566 93.5 112.52 93.8828 112.52ZM95.3828 115.76L94.2695 115.807C93.4609 115.846 92.8457 115.99 92.4238 116.24C92.002 116.49 91.791 116.865 91.791 117.365C91.791 117.768 91.916 118.076 92.166 118.291C92.4199 118.506 92.7715 118.613 93.2207 118.613C93.9199 118.613 94.4531 118.414 94.8203 118.016C95.1914 117.617 95.3789 117.074 95.3828 116.387V115.76ZM102.004 117.33C102.004 117.709 101.908 118.033 101.717 118.303C101.529 118.568 101.254 118.771 100.891 118.912C100.527 119.049 100.08 119.117 99.5488 119.117C99.1074 119.117 98.7129 119.078 98.3652 119C98.0176 118.922 97.7266 118.826 97.4922 118.713V118.127C97.7852 118.271 98.1094 118.389 98.4648 118.479C98.8203 118.568 99.1855 118.613 99.5605 118.613C100.217 118.613 100.689 118.502 100.979 118.279C101.268 118.057 101.412 117.752 101.412 117.365C101.412 117.111 101.34 116.902 101.195 116.738C101.055 116.57 100.852 116.426 100.586 116.305C100.32 116.184 100 116.061 99.625 115.936C99.2344 115.803 98.8867 115.672 98.582 115.543C98.2812 115.41 98.0449 115.236 97.873 115.021C97.7012 114.803 97.6152 114.506 97.6152 114.131C97.6152 113.619 97.8203 113.221 98.2305 112.936C98.6406 112.65 99.1914 112.508 99.8828 112.508C100.266 112.508 100.621 112.545 100.949 112.619C101.281 112.689 101.582 112.781 101.852 112.895L101.641 113.398C101.398 113.285 101.119 113.193 100.803 113.123C100.486 113.053 100.17 113.018 99.8535 113.018C99.334 113.018 98.9277 113.109 98.6348 113.293C98.3418 113.477 98.1953 113.746 98.1953 114.102C98.1953 114.375 98.2656 114.59 98.4062 114.746C98.5469 114.898 98.748 115.027 99.0098 115.133C99.2715 115.234 99.582 115.348 99.9414 115.473C100.312 115.602 100.654 115.736 100.967 115.877C101.283 116.018 101.535 116.199 101.723 116.422C101.91 116.645 102.004 116.947 102.004 117.33ZM109.035 119.117C108.164 119.117 107.5 118.844 107.043 118.297C106.59 117.746 106.363 116.945 106.363 115.895C106.363 114.793 106.604 113.953 107.084 113.375C107.564 112.797 108.234 112.508 109.094 112.508C109.461 112.508 109.779 112.564 110.049 112.678C110.322 112.791 110.551 112.945 110.734 113.141C110.922 113.332 111.066 113.551 111.168 113.797H111.215C111.199 113.59 111.188 113.367 111.18 113.129C111.172 112.891 111.168 112.672 111.168 112.473V109.883H111.76V119H111.279L111.203 117.834H111.168C111.062 118.068 110.916 118.283 110.729 118.479C110.545 118.674 110.314 118.83 110.037 118.947C109.76 119.061 109.426 119.117 109.035 119.117ZM109.1 118.602C109.85 118.602 110.383 118.369 110.699 117.904C111.016 117.436 111.174 116.768 111.174 115.9V115.807C111.174 114.908 111.016 114.221 110.699 113.744C110.383 113.264 109.867 113.023 109.152 113.023C108.445 113.023 107.904 113.27 107.529 113.762C107.158 114.254 106.973 114.969 106.973 115.906C106.973 116.789 107.146 117.459 107.494 117.916C107.846 118.373 108.381 118.602 109.1 118.602ZM116.289 112.508C116.832 112.508 117.283 112.635 117.643 112.889C118.006 113.143 118.275 113.49 118.451 113.932C118.631 114.373 118.721 114.879 118.721 115.449V115.877H114.121C114.121 116.752 114.322 117.424 114.725 117.893C115.131 118.361 115.711 118.596 116.465 118.596C116.859 118.596 117.201 118.564 117.49 118.502C117.783 118.436 118.107 118.324 118.463 118.168V118.713C118.15 118.854 117.838 118.955 117.525 119.018C117.213 119.084 116.854 119.117 116.447 119.117C115.803 119.117 115.262 118.984 114.824 118.719C114.391 118.449 114.062 118.07 113.84 117.582C113.621 117.094 113.512 116.523 113.512 115.871C113.512 115.234 113.617 114.662 113.828 114.154C114.043 113.646 114.355 113.246 114.766 112.953C115.18 112.656 115.688 112.508 116.289 112.508ZM116.283 113.018C115.674 113.018 115.18 113.221 114.801 113.627C114.426 114.029 114.205 114.611 114.139 115.373H118.105C118.105 114.908 118.039 114.498 117.906 114.143C117.773 113.787 117.572 113.512 117.303 113.316C117.037 113.117 116.697 113.018 116.283 113.018ZM122.195 118.607C122.379 118.607 122.549 118.594 122.705 118.566C122.865 118.539 123.006 118.504 123.127 118.461V118.953C123.002 118.996 122.855 119.033 122.688 119.064C122.52 119.1 122.334 119.117 122.131 119.117C121.771 119.117 121.473 119.051 121.234 118.918C120.996 118.781 120.816 118.576 120.695 118.303C120.574 118.025 120.514 117.674 120.514 117.248V113.123H119.564V112.771L120.508 112.59L120.713 111.09H121.105V112.631H123.092V113.123H121.105V117.213C121.105 117.67 121.189 118.018 121.357 118.256C121.529 118.49 121.809 118.607 122.195 118.607ZM126.719 112.52C127.418 112.52 127.941 112.695 128.289 113.047C128.637 113.398 128.811 113.959 128.811 114.729V119H128.354L128.248 117.887H128.213C128.076 118.125 127.91 118.338 127.715 118.525C127.52 118.709 127.279 118.854 126.994 118.959C126.713 119.064 126.369 119.117 125.963 119.117C125.553 119.117 125.201 119.049 124.908 118.912C124.619 118.775 124.395 118.576 124.234 118.314C124.078 118.053 124 117.734 124 117.359C124 116.727 124.262 116.246 124.785 115.918C125.309 115.586 126.061 115.398 127.041 115.355L128.225 115.297V114.834C128.225 114.182 128.096 113.717 127.838 113.439C127.58 113.162 127.199 113.023 126.695 113.023C126.367 113.023 126.051 113.066 125.746 113.152C125.445 113.234 125.139 113.354 124.826 113.51L124.639 113.018C124.943 112.873 125.27 112.754 125.617 112.66C125.969 112.566 126.336 112.52 126.719 112.52ZM128.219 115.76L127.105 115.807C126.297 115.846 125.682 115.99 125.26 116.24C124.838 116.49 124.627 116.865 124.627 117.365C124.627 117.768 124.752 118.076 125.002 118.291C125.256 118.506 125.607 118.613 126.057 118.613C126.756 118.613 127.289 118.414 127.656 118.016C128.027 117.617 128.215 117.074 128.219 116.387V115.76ZM131.459 119H130.861V109.883H131.459V119ZM134.178 119H133.58V109.883H134.178V119ZM138.52 112.52C139.219 112.52 139.742 112.695 140.09 113.047C140.438 113.398 140.611 113.959 140.611 114.729V119H140.154L140.049 117.887H140.014C139.877 118.125 139.711 118.338 139.516 118.525C139.32 118.709 139.08 118.854 138.795 118.959C138.514 119.064 138.17 119.117 137.764 119.117C137.354 119.117 137.002 119.049 136.709 118.912C136.42 118.775 136.195 118.576 136.035 118.314C135.879 118.053 135.801 117.734 135.801 117.359C135.801 116.727 136.062 116.246 136.586 115.918C137.109 115.586 137.861 115.398 138.842 115.355L140.025 115.297V114.834C140.025 114.182 139.896 113.717 139.639 113.439C139.381 113.162 139 113.023 138.496 113.023C138.168 113.023 137.852 113.066 137.547 113.152C137.246 113.234 136.939 113.354 136.627 113.51L136.439 113.018C136.744 112.873 137.07 112.754 137.418 112.66C137.77 112.566 138.137 112.52 138.52 112.52ZM140.02 115.76L138.906 115.807C138.098 115.846 137.482 115.99 137.061 116.24C136.639 116.49 136.428 116.865 136.428 117.365C136.428 117.768 136.553 118.076 136.803 118.291C137.057 118.506 137.408 118.613 137.857 118.613C138.557 118.613 139.09 118.414 139.457 118.016C139.828 117.617 140.016 117.074 140.02 116.387V115.76ZM144.965 119.117C144.094 119.117 143.43 118.844 142.973 118.297C142.52 117.746 142.293 116.945 142.293 115.895C142.293 114.793 142.533 113.953 143.014 113.375C143.494 112.797 144.164 112.508 145.023 112.508C145.391 112.508 145.709 112.564 145.979 112.678C146.252 112.791 146.48 112.945 146.664 113.141C146.852 113.332 146.996 113.551 147.098 113.797H147.145C147.129 113.59 147.117 113.367 147.109 113.129C147.102 112.891 147.098 112.672 147.098 112.473V109.883H147.689V119H147.209L147.133 117.834H147.098C146.992 118.068 146.846 118.283 146.658 118.479C146.475 118.674 146.244 118.83 145.967 118.947C145.689 119.061 145.355 119.117 144.965 119.117ZM145.029 118.602C145.779 118.602 146.312 118.369 146.629 117.904C146.945 117.436 147.104 116.768 147.104 115.9V115.807C147.104 114.908 146.945 114.221 146.629 113.744C146.312 113.264 145.797 113.023 145.082 113.023C144.375 113.023 143.834 113.27 143.459 113.762C143.088 114.254 142.902 114.969 142.902 115.906C142.902 116.789 143.076 117.459 143.424 117.916C143.775 118.373 144.311 118.602 145.029 118.602ZM155.09 115.807C155.09 116.299 155.029 116.748 154.908 117.154C154.787 117.557 154.607 117.904 154.369 118.197C154.131 118.49 153.834 118.717 153.479 118.877C153.127 119.037 152.717 119.117 152.248 119.117C151.803 119.117 151.406 119.039 151.059 118.883C150.711 118.723 150.416 118.496 150.174 118.203C149.936 117.91 149.754 117.562 149.629 117.16C149.504 116.754 149.441 116.303 149.441 115.807C149.441 115.123 149.555 114.535 149.781 114.043C150.012 113.547 150.34 113.168 150.766 112.906C151.195 112.641 151.709 112.508 152.307 112.508C152.924 112.508 153.438 112.648 153.848 112.93C154.262 113.207 154.572 113.594 154.779 114.09C154.986 114.586 155.09 115.158 155.09 115.807ZM150.051 115.807C150.051 116.365 150.131 116.854 150.291 117.271C150.451 117.689 150.693 118.016 151.018 118.25C151.346 118.484 151.76 118.602 152.26 118.602C152.771 118.602 153.191 118.484 153.52 118.25C153.848 118.016 154.09 117.688 154.246 117.266C154.402 116.844 154.48 116.357 154.48 115.807C154.48 115.271 154.406 114.795 154.258 114.377C154.109 113.959 153.875 113.631 153.555 113.393C153.234 113.15 152.816 113.029 152.301 113.029C151.562 113.029 151.002 113.275 150.619 113.768C150.24 114.26 150.051 114.939 150.051 115.807ZM160.832 117.33C160.832 117.709 160.736 118.033 160.545 118.303C160.357 118.568 160.082 118.771 159.719 118.912C159.355 119.049 158.908 119.117 158.377 119.117C157.936 119.117 157.541 119.078 157.193 119C156.846 118.922 156.555 118.826 156.32 118.713V118.127C156.613 118.271 156.938 118.389 157.293 118.479C157.648 118.568 158.014 118.613 158.389 118.613C159.045 118.613 159.518 118.502 159.807 118.279C160.096 118.057 160.24 117.752 160.24 117.365C160.24 117.111 160.168 116.902 160.023 116.738C159.883 116.57 159.68 116.426 159.414 116.305C159.148 116.184 158.828 116.061 158.453 115.936C158.062 115.803 157.715 115.672 157.41 115.543C157.109 115.41 156.873 115.236 156.701 115.021C156.529 114.803 156.443 114.506 156.443 114.131C156.443 113.619 156.648 113.221 157.059 112.936C157.469 112.65 158.02 112.508 158.711 112.508C159.094 112.508 159.449 112.545 159.777 112.619C160.109 112.689 160.41 112.781 160.68 112.895L160.469 113.398C160.227 113.285 159.947 113.193 159.631 113.123C159.314 113.053 158.998 113.018 158.682 113.018C158.162 113.018 157.756 113.109 157.463 113.293C157.17 113.477 157.023 113.746 157.023 114.102C157.023 114.375 157.094 114.59 157.234 114.746C157.375 114.898 157.576 115.027 157.838 115.133C158.1 115.234 158.41 115.348 158.77 115.473C159.141 115.602 159.482 115.736 159.795 115.877C160.111 116.018 160.363 116.199 160.551 116.422C160.738 116.645 160.832 116.947 160.832 117.33ZM167.863 119.117C166.992 119.117 166.328 118.844 165.871 118.297C165.418 117.746 165.191 116.945 165.191 115.895C165.191 114.793 165.432 113.953 165.912 113.375C166.393 112.797 167.062 112.508 167.922 112.508C168.289 112.508 168.607 112.564 168.877 112.678C169.15 112.791 169.379 112.945 169.562 113.141C169.75 113.332 169.895 113.551 169.996 113.797H170.043C170.027 113.59 170.016 113.367 170.008 113.129C170 112.891 169.996 112.672 169.996 112.473V109.883H170.588V119H170.107L170.031 117.834H169.996C169.891 118.068 169.744 118.283 169.557 118.479C169.373 118.674 169.143 118.83 168.865 118.947C168.588 119.061 168.254 119.117 167.863 119.117ZM167.928 118.602C168.678 118.602 169.211 118.369 169.527 117.904C169.844 117.436 170.002 116.768 170.002 115.9V115.807C170.002 114.908 169.844 114.221 169.527 113.744C169.211 113.264 168.695 113.023 167.98 113.023C167.273 113.023 166.732 113.27 166.357 113.762C165.986 114.254 165.801 114.969 165.801 115.906C165.801 116.789 165.975 117.459 166.322 117.916C166.674 118.373 167.209 118.602 167.928 118.602ZM175.117 112.508C175.66 112.508 176.111 112.635 176.471 112.889C176.834 113.143 177.104 113.49 177.279 113.932C177.459 114.373 177.549 114.879 177.549 115.449V115.877H172.949C172.949 116.752 173.15 117.424 173.553 117.893C173.959 118.361 174.539 118.596 175.293 118.596C175.688 118.596 176.029 118.564 176.318 118.502C176.611 118.436 176.936 118.324 177.291 118.168V118.713C176.979 118.854 176.666 118.955 176.354 119.018C176.041 119.084 175.682 119.117 175.275 119.117C174.631 119.117 174.09 118.984 173.652 118.719C173.219 118.449 172.891 118.07 172.668 117.582C172.449 117.094 172.34 116.523 172.34 115.871C172.34 115.234 172.445 114.662 172.656 114.154C172.871 113.646 173.184 113.246 173.594 112.953C174.008 112.656 174.516 112.508 175.117 112.508ZM175.111 113.018C174.502 113.018 174.008 113.221 173.629 113.627C173.254 114.029 173.033 114.611 172.967 115.373H176.934C176.934 114.908 176.867 114.498 176.734 114.143C176.602 113.787 176.4 113.512 176.131 113.316C175.865 113.117 175.525 113.018 175.111 113.018ZM184.973 119.117C184.34 119.117 183.805 118.986 183.367 118.725C182.934 118.459 182.605 118.082 182.383 117.594C182.164 117.102 182.055 116.52 182.055 115.848C182.055 115.148 182.182 114.551 182.436 114.055C182.689 113.555 183.047 113.172 183.508 112.906C183.969 112.641 184.51 112.508 185.131 112.508C185.436 112.508 185.719 112.535 185.98 112.59C186.242 112.645 186.479 112.721 186.689 112.818L186.531 113.34C186.312 113.242 186.08 113.168 185.834 113.117C185.588 113.066 185.352 113.041 185.125 113.041C184.602 113.041 184.156 113.156 183.789 113.387C183.426 113.613 183.146 113.938 182.951 114.359C182.76 114.777 182.664 115.271 182.664 115.842C182.664 116.377 182.746 116.852 182.91 117.266C183.074 117.676 183.326 118 183.666 118.238C184.006 118.473 184.441 118.59 184.973 118.59C185.281 118.59 185.574 118.559 185.852 118.496C186.133 118.434 186.389 118.354 186.619 118.256V118.795C186.412 118.889 186.172 118.965 185.898 119.023C185.629 119.086 185.32 119.117 184.973 119.117ZM193.41 115.807C193.41 116.299 193.35 116.748 193.229 117.154C193.107 117.557 192.928 117.904 192.689 118.197C192.451 118.49 192.154 118.717 191.799 118.877C191.447 119.037 191.037 119.117 190.568 119.117C190.123 119.117 189.727 119.039 189.379 118.883C189.031 118.723 188.736 118.496 188.494 118.203C188.256 117.91 188.074 117.562 187.949 117.16C187.824 116.754 187.762 116.303 187.762 115.807C187.762 115.123 187.875 114.535 188.102 114.043C188.332 113.547 188.66 113.168 189.086 112.906C189.516 112.641 190.029 112.508 190.627 112.508C191.244 112.508 191.758 112.648 192.168 112.93C192.582 113.207 192.893 113.594 193.1 114.09C193.307 114.586 193.41 115.158 193.41 115.807ZM188.371 115.807C188.371 116.365 188.451 116.854 188.611 117.271C188.771 117.689 189.014 118.016 189.338 118.25C189.666 118.484 190.08 118.602 190.58 118.602C191.092 118.602 191.512 118.484 191.84 118.25C192.168 118.016 192.41 117.688 192.566 117.266C192.723 116.844 192.801 116.357 192.801 115.807C192.801 115.271 192.727 114.795 192.578 114.377C192.43 113.959 192.195 113.631 191.875 113.393C191.555 113.15 191.137 113.029 190.621 113.029C189.883 113.029 189.322 113.275 188.939 113.768C188.561 114.26 188.371 114.939 188.371 115.807ZM197.975 112.508C198.689 112.508 199.238 112.695 199.621 113.07C200.004 113.445 200.195 114.033 200.195 114.834V119H199.609V114.869C199.609 114.236 199.465 113.771 199.176 113.475C198.887 113.178 198.467 113.029 197.916 113.029C197.217 113.029 196.682 113.234 196.311 113.645C195.943 114.051 195.76 114.666 195.76 115.49V119H195.168V112.631H195.648L195.736 113.791H195.771C195.885 113.553 196.039 113.338 196.234 113.146C196.434 112.951 196.678 112.797 196.967 112.684C197.256 112.566 197.592 112.508 197.975 112.508ZM203.98 118.607C204.164 118.607 204.334 118.594 204.49 118.566C204.65 118.539 204.791 118.504 204.912 118.461V118.953C204.787 118.996 204.641 119.033 204.473 119.064C204.305 119.1 204.119 119.117 203.916 119.117C203.557 119.117 203.258 119.051 203.02 118.918C202.781 118.781 202.602 118.576 202.48 118.303C202.359 118.025 202.299 117.674 202.299 117.248V113.123H201.35V112.771L202.293 112.59L202.498 111.09H202.891V112.631H204.877V113.123H202.891V117.213C202.891 117.67 202.975 118.018 203.143 118.256C203.314 118.49 203.594 118.607 203.98 118.607ZM208.504 112.52C209.203 112.52 209.727 112.695 210.074 113.047C210.422 113.398 210.596 113.959 210.596 114.729V119H210.139L210.033 117.887H209.998C209.861 118.125 209.695 118.338 209.5 118.525C209.305 118.709 209.064 118.854 208.779 118.959C208.498 119.064 208.154 119.117 207.748 119.117C207.338 119.117 206.986 119.049 206.693 118.912C206.404 118.775 206.18 118.576 206.02 118.314C205.863 118.053 205.785 117.734 205.785 117.359C205.785 116.727 206.047 116.246 206.57 115.918C207.094 115.586 207.846 115.398 208.826 115.355L210.01 115.297V114.834C210.01 114.182 209.881 113.717 209.623 113.439C209.365 113.162 208.984 113.023 208.48 113.023C208.152 113.023 207.836 113.066 207.531 113.152C207.23 113.234 206.924 113.354 206.611 113.51L206.424 113.018C206.729 112.873 207.055 112.754 207.402 112.66C207.754 112.566 208.121 112.52 208.504 112.52ZM210.004 115.76L208.891 115.807C208.082 115.846 207.467 115.99 207.045 116.24C206.623 116.49 206.412 116.865 206.412 117.365C206.412 117.768 206.537 118.076 206.787 118.291C207.041 118.506 207.393 118.613 207.842 118.613C208.541 118.613 209.074 118.414 209.441 118.016C209.812 117.617 210 117.074 210.004 116.387V115.76ZM219.215 112.508C219.828 112.508 220.312 112.686 220.668 113.041C221.023 113.396 221.201 113.957 221.201 114.723V119H220.621V114.746C220.621 114.156 220.486 113.723 220.217 113.445C219.947 113.168 219.592 113.029 219.15 113.029C218.545 113.029 218.07 113.207 217.727 113.562C217.387 113.914 217.217 114.469 217.217 115.227V119H216.631V114.746C216.631 114.352 216.568 114.029 216.443 113.779C216.322 113.525 216.152 113.338 215.934 113.217C215.715 113.092 215.457 113.029 215.16 113.029C214.766 113.029 214.424 113.111 214.135 113.275C213.846 113.436 213.623 113.686 213.467 114.025C213.311 114.361 213.232 114.789 213.232 115.309V119H212.641V112.631H213.121L213.209 113.674H213.244C213.35 113.467 213.49 113.275 213.666 113.1C213.842 112.924 214.059 112.781 214.316 112.672C214.578 112.562 214.885 112.508 215.236 112.508C215.693 112.508 216.08 112.611 216.396 112.818C216.717 113.021 216.939 113.324 217.064 113.727H217.105C217.277 113.344 217.543 113.045 217.902 112.83C218.266 112.615 218.703 112.508 219.215 112.508ZM223.838 112.631V119H223.246V112.631H223.838ZM223.551 110.275C223.699 110.275 223.809 110.32 223.879 110.41C223.949 110.496 223.984 110.613 223.984 110.762C223.984 110.91 223.949 111.027 223.879 111.113C223.809 111.199 223.699 111.242 223.551 111.242C223.41 111.242 223.305 111.199 223.234 111.113C223.164 111.027 223.129 110.91 223.129 110.762C223.129 110.613 223.164 110.496 223.234 110.41C223.305 110.32 223.41 110.275 223.551 110.275ZM228.771 112.508C229.486 112.508 230.035 112.695 230.418 113.07C230.801 113.445 230.992 114.033 230.992 114.834V119H230.406V114.869C230.406 114.236 230.262 113.771 229.973 113.475C229.684 113.178 229.264 113.029 228.713 113.029C228.014 113.029 227.479 113.234 227.107 113.645C226.74 114.051 226.557 114.666 226.557 115.49V119H225.965V112.631H226.445L226.533 113.791H226.568C226.682 113.553 226.836 113.338 227.031 113.146C227.23 112.951 227.475 112.797 227.764 112.684C228.053 112.566 228.389 112.508 228.771 112.508ZM235.281 112.52C235.98 112.52 236.504 112.695 236.852 113.047C237.199 113.398 237.373 113.959 237.373 114.729V119H236.916L236.811 117.887H236.775C236.639 118.125 236.473 118.338 236.277 118.525C236.082 118.709 235.842 118.854 235.557 118.959C235.275 119.064 234.932 119.117 234.525 119.117C234.115 119.117 233.764 119.049 233.471 118.912C233.182 118.775 232.957 118.576 232.797 118.314C232.641 118.053 232.562 117.734 232.562 117.359C232.562 116.727 232.824 116.246 233.348 115.918C233.871 115.586 234.623 115.398 235.604 115.355L236.787 115.297V114.834C236.787 114.182 236.658 113.717 236.4 113.439C236.143 113.162 235.762 113.023 235.258 113.023C234.93 113.023 234.613 113.066 234.309 113.152C234.008 113.234 233.701 113.354 233.389 113.51L233.201 113.018C233.506 112.873 233.832 112.754 234.18 112.66C234.531 112.566 234.898 112.52 235.281 112.52ZM236.781 115.76L235.668 115.807C234.859 115.846 234.244 115.99 233.822 116.24C233.4 116.49 233.189 116.865 233.189 117.365C233.189 117.768 233.314 118.076 233.564 118.291C233.818 118.506 234.17 118.613 234.619 118.613C235.318 118.613 235.852 118.414 236.219 118.016C236.59 117.617 236.777 117.074 236.781 116.387V115.76ZM241.973 119.117C241.34 119.117 240.805 118.986 240.367 118.725C239.934 118.459 239.605 118.082 239.383 117.594C239.164 117.102 239.055 116.52 239.055 115.848C239.055 115.148 239.182 114.551 239.436 114.055C239.689 113.555 240.047 113.172 240.508 112.906C240.969 112.641 241.51 112.508 242.131 112.508C242.436 112.508 242.719 112.535 242.98 112.59C243.242 112.645 243.479 112.721 243.689 112.818L243.531 113.34C243.312 113.242 243.08 113.168 242.834 113.117C242.588 113.066 242.352 113.041 242.125 113.041C241.602 113.041 241.156 113.156 240.789 113.387C240.426 113.613 240.146 113.938 239.951 114.359C239.76 114.777 239.664 115.271 239.664 115.842C239.664 116.377 239.746 116.852 239.91 117.266C240.074 117.676 240.326 118 240.666 118.238C241.006 118.473 241.441 118.59 241.973 118.59C242.281 118.59 242.574 118.559 242.852 118.496C243.133 118.434 243.389 118.354 243.619 118.256V118.795C243.412 118.889 243.172 118.965 242.898 119.023C242.629 119.086 242.32 119.117 241.973 119.117ZM245.717 112.631V119H245.125V112.631H245.717ZM245.43 110.275C245.578 110.275 245.688 110.32 245.758 110.41C245.828 110.496 245.863 110.613 245.863 110.762C245.863 110.91 245.828 111.027 245.758 111.113C245.688 111.199 245.578 111.242 245.43 111.242C245.289 111.242 245.184 111.199 245.113 111.113C245.043 111.027 245.008 110.91 245.008 110.762C245.008 110.613 245.043 110.496 245.113 110.41C245.184 110.32 245.289 110.275 245.43 110.275ZM253.129 115.807C253.129 116.299 253.068 116.748 252.947 117.154C252.826 117.557 252.646 117.904 252.408 118.197C252.17 118.49 251.873 118.717 251.518 118.877C251.166 119.037 250.756 119.117 250.287 119.117C249.842 119.117 249.445 119.039 249.098 118.883C248.75 118.723 248.455 118.496 248.213 118.203C247.975 117.91 247.793 117.562 247.668 117.16C247.543 116.754 247.48 116.303 247.48 115.807C247.48 115.123 247.594 114.535 247.82 114.043C248.051 113.547 248.379 113.168 248.805 112.906C249.234 112.641 249.748 112.508 250.346 112.508C250.963 112.508 251.477 112.648 251.887 112.93C252.301 113.207 252.611 113.594 252.818 114.09C253.025 114.586 253.129 115.158 253.129 115.807ZM248.09 115.807C248.09 116.365 248.17 116.854 248.33 117.271C248.49 117.689 248.732 118.016 249.057 118.25C249.385 118.484 249.799 118.602 250.299 118.602C250.811 118.602 251.23 118.484 251.559 118.25C251.887 118.016 252.129 117.688 252.285 117.266C252.441 116.844 252.52 116.357 252.52 115.807C252.52 115.271 252.445 114.795 252.297 114.377C252.148 113.959 251.914 113.631 251.594 113.393C251.273 113.15 250.855 113.029 250.34 113.029C249.602 113.029 249.041 113.275 248.658 113.768C248.279 114.26 248.09 114.939 248.09 115.807ZM252.016 109.807V109.906C251.922 110.031 251.807 110.174 251.67 110.334C251.533 110.49 251.385 110.652 251.225 110.82C251.064 110.988 250.902 111.15 250.738 111.307C250.574 111.463 250.416 111.604 250.264 111.729H249.842V111.629C249.998 111.473 250.17 111.287 250.357 111.072C250.545 110.854 250.723 110.633 250.891 110.41C251.062 110.184 251.203 109.982 251.312 109.807H252.016ZM257.693 112.508C258.408 112.508 258.957 112.695 259.34 113.07C259.723 113.445 259.914 114.033 259.914 114.834V119H259.328V114.869C259.328 114.236 259.184 113.771 258.895 113.475C258.605 113.178 258.186 113.029 257.635 113.029C256.936 113.029 256.4 113.234 256.029 113.645C255.662 114.051 255.479 114.666 255.479 115.49V119H254.887V112.631H255.367L255.455 113.791H255.49C255.604 113.553 255.758 113.338 255.953 113.146C256.152 112.951 256.396 112.797 256.686 112.684C256.975 112.566 257.311 112.508 257.693 112.508ZM264.045 112.631H264.672L266.219 116.674C266.312 116.912 266.395 117.133 266.465 117.336C266.539 117.535 266.604 117.719 266.658 117.887C266.713 118.051 266.758 118.201 266.793 118.338H266.828C266.887 118.158 266.965 117.928 267.062 117.646C267.16 117.361 267.271 117.045 267.396 116.697L268.926 112.631H269.559L266.652 120.195C266.512 120.562 266.357 120.873 266.189 121.127C266.021 121.385 265.824 121.578 265.598 121.707C265.371 121.84 265.098 121.906 264.777 121.906C264.633 121.906 264.502 121.895 264.385 121.871C264.268 121.852 264.154 121.824 264.045 121.789V121.279C264.146 121.311 264.25 121.336 264.355 121.355C264.465 121.379 264.584 121.391 264.713 121.391C264.936 121.391 265.127 121.344 265.287 121.25C265.451 121.16 265.598 121.02 265.727 120.828C265.855 120.637 265.977 120.393 266.09 120.096L266.523 118.965L264.045 112.631ZM19.6094 135.117C18.9766 135.117 18.4414 134.986 18.0039 134.725C17.5703 134.459 17.2422 134.082 17.0195 133.594C16.8008 133.102 16.6914 132.52 16.6914 131.848C16.6914 131.148 16.8184 130.551 17.0723 130.055C17.3262 129.555 17.6836 129.172 18.1445 128.906C18.6055 128.641 19.1465 128.508 19.7676 128.508C20.0723 128.508 20.3555 128.535 20.6172 128.59C20.8789 128.645 21.1152 128.721 21.3262 128.818L21.168 129.34C20.9492 129.242 20.7168 129.168 20.4707 129.117C20.2246 129.066 19.9883 129.041 19.7617 129.041C19.2383 129.041 18.793 129.156 18.4258 129.387C18.0625 129.613 17.7832 129.938 17.5879 130.359C17.3965 130.777 17.3008 131.271 17.3008 131.842C17.3008 132.377 17.3828 132.852 17.5469 133.266C17.7109 133.676 17.9629 134 18.3027 134.238C18.6426 134.473 19.0781 134.59 19.6094 134.59C19.918 134.59 20.2109 134.559 20.4883 134.496C20.7695 134.434 21.0254 134.354 21.2559 134.256V134.795C21.0488 134.889 20.8086 134.965 20.5352 135.023C20.2656 135.086 19.957 135.117 19.6094 135.117ZM28.0469 131.807C28.0469 132.299 27.9863 132.748 27.8652 133.154C27.7441 133.557 27.5645 133.904 27.3262 134.197C27.0879 134.49 26.791 134.717 26.4355 134.877C26.084 135.037 25.6738 135.117 25.2051 135.117C24.7598 135.117 24.3633 135.039 24.0156 134.883C23.668 134.723 23.373 134.496 23.1309 134.203C22.8926 133.91 22.7109 133.562 22.5859 133.16C22.4609 132.754 22.3984 132.303 22.3984 131.807C22.3984 131.123 22.5117 130.535 22.7383 130.043C22.9688 129.547 23.2969 129.168 23.7227 128.906C24.1523 128.641 24.666 128.508 25.2637 128.508C25.8809 128.508 26.3945 128.648 26.8047 128.93C27.2188 129.207 27.5293 129.594 27.7363 130.09C27.9434 130.586 28.0469 131.158 28.0469 131.807ZM23.0078 131.807C23.0078 132.365 23.0879 132.854 23.248 133.271C23.4082 133.689 23.6504 134.016 23.9746 134.25C24.3027 134.484 24.7168 134.602 25.2168 134.602C25.7285 134.602 26.1484 134.484 26.4766 134.25C26.8047 134.016 27.0469 133.688 27.2031 133.266C27.3594 132.844 27.4375 132.357 27.4375 131.807C27.4375 131.271 27.3633 130.795 27.2148 130.377C27.0664 129.959 26.832 129.631 26.5117 129.393C26.1914 129.15 25.7734 129.029 25.2578 129.029C24.5195 129.029 23.959 129.275 23.5762 129.768C23.1973 130.26 23.0078 130.939 23.0078 131.807ZM32.6113 128.508C33.3262 128.508 33.875 128.695 34.2578 129.07C34.6406 129.445 34.832 130.033 34.832 130.834V135H34.2461V130.869C34.2461 130.236 34.1016 129.771 33.8125 129.475C33.5234 129.178 33.1035 129.029 32.5527 129.029C31.8535 129.029 31.3184 129.234 30.9473 129.645C30.5801 130.051 30.3965 130.666 30.3965 131.49V135H29.8047V128.631H30.2852L30.373 129.791H30.4082C30.5215 129.553 30.6758 129.338 30.8711 129.146C31.0703 128.951 31.3145 128.797 31.6035 128.684C31.8926 128.566 32.2285 128.508 32.6113 128.508ZM38.6172 134.607C38.8008 134.607 38.9707 134.594 39.127 134.566C39.2871 134.539 39.4277 134.504 39.5488 134.461V134.953C39.4238 134.996 39.2773 135.033 39.1094 135.064C38.9414 135.1 38.7559 135.117 38.5527 135.117C38.1934 135.117 37.8945 135.051 37.6562 134.918C37.418 134.781 37.2383 134.576 37.1172 134.303C36.9961 134.025 36.9355 133.674 36.9355 133.248V129.123H35.9863V128.771L36.9297 128.59L37.1348 127.09H37.5273V128.631H39.5137V129.123H37.5273V133.213C37.5273 133.67 37.6113 134.018 37.7793 134.256C37.9512 134.49 38.2305 134.607 38.6172 134.607ZM43.4512 128.52C43.6191 128.52 43.7773 128.529 43.9258 128.549C44.0742 128.568 44.2129 128.596 44.3418 128.631L44.248 129.176C44.1191 129.141 43.9883 129.115 43.8555 129.1C43.7227 129.08 43.5801 129.07 43.4277 129.07C43.127 129.07 42.8574 129.127 42.6191 129.24C42.3848 129.354 42.1855 129.516 42.0215 129.727C41.8574 129.938 41.7324 130.191 41.6465 130.488C41.5605 130.785 41.5176 131.117 41.5176 131.484V135H40.9199V128.631H41.4297L41.4883 129.832H41.5234C41.6211 129.586 41.7578 129.365 41.9336 129.17C42.1133 128.971 42.3301 128.812 42.584 128.695C42.8379 128.578 43.127 128.52 43.4512 128.52ZM46.1816 128.631V135H45.5898V128.631H46.1816ZM45.8945 126.275C46.043 126.275 46.1523 126.32 46.2227 126.41C46.293 126.496 46.3281 126.613 46.3281 126.762C46.3281 126.91 46.293 127.027 46.2227 127.113C46.1523 127.199 46.043 127.242 45.8945 127.242C45.7539 127.242 45.6484 127.199 45.5781 127.113C45.5078 127.027 45.4727 126.91 45.4727 126.762C45.4727 126.613 45.5078 126.496 45.5781 126.41C45.6484 126.32 45.7539 126.275 45.8945 126.275ZM48.8945 125.883V128.473C48.8945 128.695 48.8906 128.939 48.8828 129.205C48.875 129.471 48.8672 129.691 48.8594 129.867H48.8945C49.0469 129.473 49.3125 129.146 49.6914 128.889C50.0703 128.631 50.543 128.502 51.1094 128.502C51.9375 128.502 52.5762 128.781 53.0254 129.34C53.4785 129.898 53.7051 130.717 53.7051 131.795C53.7051 132.455 53.6035 133.035 53.4004 133.535C53.1973 134.031 52.8945 134.42 52.4922 134.701C52.0938 134.979 51.5938 135.117 50.9922 135.117C50.4492 135.117 50.0059 135.004 49.6621 134.777C49.3184 134.547 49.0684 134.26 48.9121 133.916H48.8652L48.7539 135H48.3027V125.883H48.8945ZM51.0449 129.018C50.541 129.018 50.1309 129.127 49.8145 129.346C49.498 129.561 49.2656 129.875 49.1172 130.289C48.9688 130.703 48.8945 131.209 48.8945 131.807V131.9C48.8945 132.779 49.0547 133.449 49.375 133.91C49.6953 134.371 50.2148 134.602 50.9336 134.602C51.6445 134.602 52.1816 134.359 52.5449 133.875C52.9121 133.387 53.0957 132.693 53.0957 131.795C53.0957 130.877 52.9258 130.186 52.5859 129.721C52.2461 129.252 51.7324 129.018 51.0449 129.018ZM60.4082 128.631V135H59.9277L59.8398 133.852H59.8047C59.6953 134.086 59.541 134.299 59.3418 134.49C59.1426 134.682 58.8984 134.834 58.6094 134.947C58.3203 135.061 57.9844 135.117 57.6016 135.117C57.1133 135.117 56.7031 135.033 56.3711 134.865C56.043 134.693 55.7949 134.436 55.627 134.092C55.459 133.748 55.375 133.318 55.375 132.803V128.631H55.9668V132.744C55.9668 133.381 56.1094 133.85 56.3945 134.15C56.6836 134.451 57.1055 134.602 57.6602 134.602C58.1289 134.602 58.5215 134.512 58.8379 134.332C59.1582 134.152 59.4004 133.881 59.5645 133.518C59.7324 133.15 59.8164 132.693 59.8164 132.146V128.631H60.4082ZM61.498 128.631H62.125L63.6719 132.674C63.7656 132.912 63.8477 133.133 63.918 133.336C63.9922 133.535 64.0566 133.719 64.1113 133.887C64.166 134.051 64.2109 134.201 64.2461 134.338H64.2812C64.3398 134.158 64.418 133.928 64.5156 133.646C64.6133 133.361 64.7246 133.045 64.8496 132.697L66.3789 128.631H67.0117L64.1055 136.195C63.9648 136.562 63.8105 136.873 63.6426 137.127C63.4746 137.385 63.2773 137.578 63.0508 137.707C62.8242 137.84 62.5508 137.906 62.2305 137.906C62.0859 137.906 61.9551 137.895 61.8379 137.871C61.7207 137.852 61.6074 137.824 61.498 137.789V137.279C61.5996 137.311 61.7031 137.336 61.8086 137.355C61.918 137.379 62.0371 137.391 62.166 137.391C62.3887 137.391 62.5801 137.344 62.7402 137.25C62.9043 137.16 63.0508 137.02 63.1797 136.828C63.3086 136.637 63.4297 136.393 63.543 136.096L63.9766 134.965L61.498 128.631ZM70.4688 128.508C71.0117 128.508 71.4629 128.635 71.8223 128.889C72.1855 129.143 72.4551 129.49 72.6309 129.932C72.8105 130.373 72.9004 130.879 72.9004 131.449V131.877H68.3008C68.3008 132.752 68.502 133.424 68.9043 133.893C69.3105 134.361 69.8906 134.596 70.6445 134.596C71.0391 134.596 71.3809 134.564 71.6699 134.502C71.9629 134.436 72.2871 134.324 72.6426 134.168V134.713C72.3301 134.854 72.0176 134.955 71.7051 135.018C71.3926 135.084 71.0332 135.117 70.627 135.117C69.9824 135.117 69.4414 134.984 69.0039 134.719C68.5703 134.449 68.2422 134.07 68.0195 133.582C67.8008 133.094 67.6914 132.523 67.6914 131.871C67.6914 131.234 67.7969 130.662 68.0078 130.154C68.2227 129.646 68.5352 129.246 68.9453 128.953C69.3594 128.656 69.8672 128.508 70.4688 128.508ZM70.4629 129.018C69.8535 129.018 69.3594 129.221 68.9805 129.627C68.6055 130.029 68.3848 130.611 68.3184 131.373H72.2852C72.2852 130.908 72.2188 130.498 72.0859 130.143C71.9531 129.787 71.752 129.512 71.4824 129.316C71.2168 129.117 70.877 129.018 70.4629 129.018ZM79.9961 128.52C80.6953 128.52 81.2188 128.695 81.5664 129.047C81.9141 129.398 82.0879 129.959 82.0879 130.729V135H81.6309L81.5254 133.887H81.4902C81.3535 134.125 81.1875 134.338 80.9922 134.525C80.7969 134.709 80.5566 134.854 80.2715 134.959C79.9902 135.064 79.6465 135.117 79.2402 135.117C78.8301 135.117 78.4785 135.049 78.1855 134.912C77.8965 134.775 77.6719 134.576 77.5117 134.314C77.3555 134.053 77.2773 133.734 77.2773 133.359C77.2773 132.727 77.5391 132.246 78.0625 131.918C78.5859 131.586 79.3379 131.398 80.3184 131.355L81.502 131.297V130.834C81.502 130.182 81.373 129.717 81.1152 129.439C80.8574 129.162 80.4766 129.023 79.9727 129.023C79.6445 129.023 79.3281 129.066 79.0234 129.152C78.7227 129.234 78.416 129.354 78.1035 129.51L77.916 129.018C78.2207 128.873 78.5469 128.754 78.8945 128.66C79.2461 128.566 79.6133 128.52 79.9961 128.52ZM81.4961 131.76L80.3828 131.807C79.5742 131.846 78.959 131.99 78.5371 132.24C78.1152 132.49 77.9043 132.865 77.9043 133.365C77.9043 133.768 78.0293 134.076 78.2793 134.291C78.5332 134.506 78.8848 134.613 79.334 134.613C80.0332 134.613 80.5664 134.414 80.9336 134.016C81.3047 133.617 81.4922 133.074 81.4961 132.387V131.76ZM89.8047 135.117C89.1719 135.117 88.6367 134.986 88.1992 134.725C87.7656 134.459 87.4375 134.082 87.2148 133.594C86.9961 133.102 86.8867 132.52 86.8867 131.848C86.8867 131.148 87.0137 130.551 87.2676 130.055C87.5215 129.555 87.8789 129.172 88.3398 128.906C88.8008 128.641 89.3418 128.508 89.9629 128.508C90.2676 128.508 90.5508 128.535 90.8125 128.59C91.0742 128.645 91.3105 128.721 91.5215 128.818L91.3633 129.34C91.1445 129.242 90.9121 129.168 90.666 129.117C90.4199 129.066 90.1836 129.041 89.957 129.041C89.4336 129.041 88.9883 129.156 88.6211 129.387C88.2578 129.613 87.9785 129.938 87.7832 130.359C87.5918 130.777 87.4961 131.271 87.4961 131.842C87.4961 132.377 87.5781 132.852 87.7422 133.266C87.9062 133.676 88.1582 134 88.498 134.238C88.8379 134.473 89.2734 134.59 89.8047 134.59C90.1133 134.59 90.4062 134.559 90.6836 134.496C90.9648 134.434 91.2207 134.354 91.4512 134.256V134.795C91.2441 134.889 91.0039 134.965 90.7305 135.023C90.4609 135.086 90.1523 135.117 89.8047 135.117ZM95.4941 128.52C95.6621 128.52 95.8203 128.529 95.9688 128.549C96.1172 128.568 96.2559 128.596 96.3848 128.631L96.291 129.176C96.1621 129.141 96.0312 129.115 95.8984 129.1C95.7656 129.08 95.623 129.07 95.4707 129.07C95.1699 129.07 94.9004 129.127 94.6621 129.24C94.4277 129.354 94.2285 129.516 94.0645 129.727C93.9004 129.938 93.7754 130.191 93.6895 130.488C93.6035 130.785 93.5605 131.117 93.5605 131.484V135H92.9629V128.631H93.4727L93.5312 129.832H93.5664C93.6641 129.586 93.8008 129.365 93.9766 129.17C94.1562 128.971 94.373 128.812 94.627 128.695C94.8809 128.578 95.1699 128.52 95.4941 128.52ZM100.047 128.508C100.59 128.508 101.041 128.635 101.4 128.889C101.764 129.143 102.033 129.49 102.209 129.932C102.389 130.373 102.479 130.879 102.479 131.449V131.877H97.8789C97.8789 132.752 98.0801 133.424 98.4824 133.893C98.8887 134.361 99.4688 134.596 100.223 134.596C100.617 134.596 100.959 134.564 101.248 134.502C101.541 134.436 101.865 134.324 102.221 134.168V134.713C101.908 134.854 101.596 134.955 101.283 135.018C100.971 135.084 100.611 135.117 100.205 135.117C99.5605 135.117 99.0195 134.984 98.582 134.719C98.1484 134.449 97.8203 134.07 97.5977 133.582C97.3789 133.094 97.2695 132.523 97.2695 131.871C97.2695 131.234 97.375 130.662 97.5859 130.154C97.8008 129.646 98.1133 129.246 98.5234 128.953C98.9375 128.656 99.4453 128.508 100.047 128.508ZM100.041 129.018C99.4316 129.018 98.9375 129.221 98.5586 129.627C98.1836 130.029 97.9629 130.611 97.8965 131.373H101.863C101.863 130.908 101.797 130.498 101.664 130.143C101.531 129.787 101.33 129.512 101.061 129.316C100.795 129.117 100.455 129.018 100.041 129.018ZM106.457 128.52C107.156 128.52 107.68 128.695 108.027 129.047C108.375 129.398 108.549 129.959 108.549 130.729V135H108.092L107.986 133.887H107.951C107.814 134.125 107.648 134.338 107.453 134.525C107.258 134.709 107.018 134.854 106.732 134.959C106.451 135.064 106.107 135.117 105.701 135.117C105.291 135.117 104.939 135.049 104.646 134.912C104.357 134.775 104.133 134.576 103.973 134.314C103.816 134.053 103.738 133.734 103.738 133.359C103.738 132.727 104 132.246 104.523 131.918C105.047 131.586 105.799 131.398 106.779 131.355L107.963 131.297V130.834C107.963 130.182 107.834 129.717 107.576 129.439C107.318 129.162 106.938 129.023 106.434 129.023C106.105 129.023 105.789 129.066 105.484 129.152C105.184 129.234 104.877 129.354 104.564 129.51L104.377 129.018C104.682 128.873 105.008 128.754 105.355 128.66C105.707 128.566 106.074 128.52 106.457 128.52ZM107.957 131.76L106.844 131.807C106.035 131.846 105.42 131.99 104.998 132.24C104.576 132.49 104.365 132.865 104.365 133.365C104.365 133.768 104.49 134.076 104.74 134.291C104.994 134.506 105.346 134.613 105.795 134.613C106.494 134.613 107.027 134.414 107.395 134.016C107.766 133.617 107.953 133.074 107.957 132.387V131.76ZM113.131 128.52C113.299 128.52 113.457 128.529 113.605 128.549C113.754 128.568 113.893 128.596 114.021 128.631L113.928 129.176C113.799 129.141 113.668 129.115 113.535 129.1C113.402 129.08 113.26 129.07 113.107 129.07C112.807 129.07 112.537 129.127 112.299 129.24C112.064 129.354 111.865 129.516 111.701 129.727C111.537 129.938 111.412 130.191 111.326 130.488C111.24 130.785 111.197 131.117 111.197 131.484V135H110.6V128.631H111.109L111.168 129.832H111.203C111.301 129.586 111.438 129.365 111.613 129.17C111.793 128.971 112.01 128.812 112.264 128.695C112.518 128.578 112.807 128.52 113.131 128.52ZM120.941 135.117C120.309 135.117 119.773 134.986 119.336 134.725C118.902 134.459 118.574 134.082 118.352 133.594C118.133 133.102 118.023 132.52 118.023 131.848C118.023 131.148 118.15 130.551 118.404 130.055C118.658 129.555 119.016 129.172 119.477 128.906C119.938 128.641 120.479 128.508 121.1 128.508C121.404 128.508 121.688 128.535 121.949 128.59C122.211 128.645 122.447 128.721 122.658 128.818L122.5 129.34C122.281 129.242 122.049 129.168 121.803 129.117C121.557 129.066 121.32 129.041 121.094 129.041C120.57 129.041 120.125 129.156 119.758 129.387C119.395 129.613 119.115 129.938 118.92 130.359C118.729 130.777 118.633 131.271 118.633 131.842C118.633 132.377 118.715 132.852 118.879 133.266C119.043 133.676 119.295 134 119.635 134.238C119.975 134.473 120.41 134.59 120.941 134.59C121.25 134.59 121.543 134.559 121.82 134.496C122.102 134.434 122.357 134.354 122.588 134.256V134.795C122.381 134.889 122.141 134.965 121.867 135.023C121.598 135.086 121.289 135.117 120.941 135.117ZM124.686 128.631V135H124.094V128.631H124.686ZM124.398 126.275C124.547 126.275 124.656 126.32 124.727 126.41C124.797 126.496 124.832 126.613 124.832 126.762C124.832 126.91 124.797 127.027 124.727 127.113C124.656 127.199 124.547 127.242 124.398 127.242C124.258 127.242 124.152 127.199 124.082 127.113C124.012 127.027 123.977 126.91 123.977 126.762C123.977 126.613 124.012 126.496 124.082 126.41C124.152 126.32 124.258 126.275 124.398 126.275ZM131.764 128.631V135H131.283L131.195 133.852H131.16C131.051 134.086 130.896 134.299 130.697 134.49C130.498 134.682 130.254 134.834 129.965 134.947C129.676 135.061 129.34 135.117 128.957 135.117C128.469 135.117 128.059 135.033 127.727 134.865C127.398 134.693 127.15 134.436 126.982 134.092C126.814 133.748 126.73 133.318 126.73 132.803V128.631H127.322V132.744C127.322 133.381 127.465 133.85 127.75 134.15C128.039 134.451 128.461 134.602 129.016 134.602C129.484 134.602 129.877 134.512 130.193 134.332C130.514 134.152 130.756 133.881 130.92 133.518C131.088 133.15 131.172 132.693 131.172 132.146V128.631H131.764ZM136.211 135.117C135.34 135.117 134.676 134.844 134.219 134.297C133.766 133.746 133.539 132.945 133.539 131.895C133.539 130.793 133.779 129.953 134.26 129.375C134.74 128.797 135.41 128.508 136.27 128.508C136.637 128.508 136.955 128.564 137.225 128.678C137.498 128.791 137.727 128.945 137.91 129.141C138.098 129.332 138.242 129.551 138.344 129.797H138.391C138.375 129.59 138.363 129.367 138.355 129.129C138.348 128.891 138.344 128.672 138.344 128.473V125.883H138.936V135H138.455L138.379 133.834H138.344C138.238 134.068 138.092 134.283 137.904 134.479C137.721 134.674 137.49 134.83 137.213 134.947C136.936 135.061 136.602 135.117 136.211 135.117ZM136.275 134.602C137.025 134.602 137.559 134.369 137.875 133.904C138.191 133.436 138.35 132.768 138.35 131.9V131.807C138.35 130.908 138.191 130.221 137.875 129.744C137.559 129.264 137.043 129.023 136.328 129.023C135.621 129.023 135.08 129.27 134.705 129.762C134.334 130.254 134.148 130.969 134.148 131.906C134.148 132.789 134.322 133.459 134.67 133.916C135.021 134.373 135.557 134.602 136.275 134.602ZM143.277 128.52C143.977 128.52 144.5 128.695 144.848 129.047C145.195 129.398 145.369 129.959 145.369 130.729V135H144.912L144.807 133.887H144.771C144.635 134.125 144.469 134.338 144.273 134.525C144.078 134.709 143.838 134.854 143.553 134.959C143.271 135.064 142.928 135.117 142.521 135.117C142.111 135.117 141.76 135.049 141.467 134.912C141.178 134.775 140.953 134.576 140.793 134.314C140.637 134.053 140.559 133.734 140.559 133.359C140.559 132.727 140.82 132.246 141.344 131.918C141.867 131.586 142.619 131.398 143.6 131.355L144.783 131.297V130.834C144.783 130.182 144.654 129.717 144.396 129.439C144.139 129.162 143.758 129.023 143.254 129.023C142.926 129.023 142.609 129.066 142.305 129.152C142.004 129.234 141.697 129.354 141.385 129.51L141.197 129.018C141.502 128.873 141.828 128.754 142.176 128.66C142.527 128.566 142.895 128.52 143.277 128.52ZM144.777 131.76L143.664 131.807C142.855 131.846 142.24 131.99 141.818 132.24C141.396 132.49 141.186 132.865 141.186 133.365C141.186 133.768 141.311 134.076 141.561 134.291C141.814 134.506 142.166 134.613 142.615 134.613C143.314 134.613 143.848 134.414 144.215 134.016C144.586 133.617 144.773 133.074 144.777 132.387V131.76ZM149.723 135.117C148.852 135.117 148.188 134.844 147.73 134.297C147.277 133.746 147.051 132.945 147.051 131.895C147.051 130.793 147.291 129.953 147.771 129.375C148.252 128.797 148.922 128.508 149.781 128.508C150.148 128.508 150.467 128.564 150.736 128.678C151.01 128.791 151.238 128.945 151.422 129.141C151.609 129.332 151.754 129.551 151.855 129.797H151.902C151.887 129.59 151.875 129.367 151.867 129.129C151.859 128.891 151.855 128.672 151.855 128.473V125.883H152.447V135H151.967L151.891 133.834H151.855C151.75 134.068 151.604 134.283 151.416 134.479C151.232 134.674 151.002 134.83 150.725 134.947C150.447 135.061 150.113 135.117 149.723 135.117ZM149.787 134.602C150.537 134.602 151.07 134.369 151.387 133.904C151.703 133.436 151.861 132.768 151.861 131.9V131.807C151.861 130.908 151.703 130.221 151.387 129.744C151.07 129.264 150.555 129.023 149.84 129.023C149.133 129.023 148.592 129.27 148.217 129.762C147.846 130.254 147.66 130.969 147.66 131.906C147.66 132.789 147.834 133.459 148.182 133.916C148.533 134.373 149.068 134.602 149.787 134.602ZM156.977 128.508C157.52 128.508 157.971 128.635 158.33 128.889C158.693 129.143 158.963 129.49 159.139 129.932C159.318 130.373 159.408 130.879 159.408 131.449V131.877H154.809C154.809 132.752 155.01 133.424 155.412 133.893C155.818 134.361 156.398 134.596 157.152 134.596C157.547 134.596 157.889 134.564 158.178 134.502C158.471 134.436 158.795 134.324 159.15 134.168V134.713C158.838 134.854 158.525 134.955 158.213 135.018C157.9 135.084 157.541 135.117 157.135 135.117C156.49 135.117 155.949 134.984 155.512 134.719C155.078 134.449 154.75 134.07 154.527 133.582C154.309 133.094 154.199 132.523 154.199 131.871C154.199 131.234 154.305 130.662 154.516 130.154C154.73 129.646 155.043 129.246 155.453 128.953C155.867 128.656 156.375 128.508 156.977 128.508ZM156.971 129.018C156.361 129.018 155.867 129.221 155.488 129.627C155.113 130.029 154.893 130.611 154.826 131.373H158.793C158.793 130.908 158.727 130.498 158.594 130.143C158.461 129.787 158.26 129.512 157.99 129.316C157.725 129.117 157.385 129.018 156.971 129.018ZM165.145 133.33C165.145 133.709 165.049 134.033 164.857 134.303C164.67 134.568 164.395 134.771 164.031 134.912C163.668 135.049 163.221 135.117 162.689 135.117C162.248 135.117 161.854 135.078 161.506 135C161.158 134.922 160.867 134.826 160.633 134.713V134.127C160.926 134.271 161.25 134.389 161.605 134.479C161.961 134.568 162.326 134.613 162.701 134.613C163.357 134.613 163.83 134.502 164.119 134.279C164.408 134.057 164.553 133.752 164.553 133.365C164.553 133.111 164.48 132.902 164.336 132.738C164.195 132.57 163.992 132.426 163.727 132.305C163.461 132.184 163.141 132.061 162.766 131.936C162.375 131.803 162.027 131.672 161.723 131.543C161.422 131.41 161.186 131.236 161.014 131.021C160.842 130.803 160.756 130.506 160.756 130.131C160.756 129.619 160.961 129.221 161.371 128.936C161.781 128.65 162.332 128.508 163.023 128.508C163.406 128.508 163.762 128.545 164.09 128.619C164.422 128.689 164.723 128.781 164.992 128.895L164.781 129.398C164.539 129.285 164.26 129.193 163.943 129.123C163.627 129.053 163.311 129.018 162.994 129.018C162.475 129.018 162.068 129.109 161.775 129.293C161.482 129.477 161.336 129.746 161.336 130.102C161.336 130.375 161.406 130.59 161.547 130.746C161.688 130.898 161.889 131.027 162.15 131.133C162.412 131.234 162.723 131.348 163.082 131.473C163.453 131.602 163.795 131.736 164.107 131.877C164.424 132.018 164.676 132.199 164.863 132.422C165.051 132.645 165.145 132.947 165.145 133.33ZM176.441 128.508C177.055 128.508 177.539 128.686 177.895 129.041C178.25 129.396 178.428 129.957 178.428 130.723V135H177.848V130.746C177.848 130.156 177.713 129.723 177.443 129.445C177.174 129.168 176.818 129.029 176.377 129.029C175.771 129.029 175.297 129.207 174.953 129.562C174.613 129.914 174.443 130.469 174.443 131.227V135H173.857V130.746C173.857 130.352 173.795 130.029 173.67 129.779C173.549 129.525 173.379 129.338 173.16 129.217C172.941 129.092 172.684 129.029 172.387 129.029C171.992 129.029 171.65 129.111 171.361 129.275C171.072 129.436 170.85 129.686 170.693 130.025C170.537 130.361 170.459 130.789 170.459 131.309V135H169.867V128.631H170.348L170.436 129.674H170.471C170.576 129.467 170.717 129.275 170.893 129.1C171.068 128.924 171.285 128.781 171.543 128.672C171.805 128.562 172.111 128.508 172.463 128.508C172.92 128.508 173.307 128.611 173.623 128.818C173.943 129.021 174.166 129.324 174.291 129.727H174.332C174.504 129.344 174.77 129.045 175.129 128.83C175.492 128.615 175.93 128.508 176.441 128.508ZM182.699 128.52C183.398 128.52 183.922 128.695 184.27 129.047C184.617 129.398 184.791 129.959 184.791 130.729V135H184.334L184.229 133.887H184.193C184.057 134.125 183.891 134.338 183.695 134.525C183.5 134.709 183.26 134.854 182.975 134.959C182.693 135.064 182.35 135.117 181.943 135.117C181.533 135.117 181.182 135.049 180.889 134.912C180.6 134.775 180.375 134.576 180.215 134.314C180.059 134.053 179.98 133.734 179.98 133.359C179.98 132.727 180.242 132.246 180.766 131.918C181.289 131.586 182.041 131.398 183.021 131.355L184.205 131.297V130.834C184.205 130.182 184.076 129.717 183.818 129.439C183.561 129.162 183.18 129.023 182.676 129.023C182.348 129.023 182.031 129.066 181.727 129.152C181.426 129.234 181.119 129.354 180.807 129.51L180.619 129.018C180.924 128.873 181.25 128.754 181.598 128.66C181.949 128.566 182.316 128.52 182.699 128.52ZM184.199 131.76L183.086 131.807C182.277 131.846 181.662 131.99 181.24 132.24C180.818 132.49 180.607 132.865 180.607 133.365C180.607 133.768 180.732 134.076 180.982 134.291C181.236 134.506 181.588 134.613 182.037 134.613C182.736 134.613 183.27 134.414 183.637 134.016C184.008 133.617 184.195 133.074 184.199 132.387V131.76ZM184.275 125.807V125.906C184.182 126.031 184.066 126.174 183.93 126.334C183.793 126.49 183.645 126.652 183.484 126.82C183.324 126.988 183.162 127.15 182.998 127.307C182.834 127.463 182.676 127.604 182.523 127.729H182.102V127.629C182.258 127.473 182.43 127.287 182.617 127.072C182.805 126.854 182.982 126.633 183.15 126.41C183.322 126.184 183.463 125.982 183.572 125.807H184.275ZM190.82 133.33C190.82 133.709 190.725 134.033 190.533 134.303C190.346 134.568 190.07 134.771 189.707 134.912C189.344 135.049 188.896 135.117 188.365 135.117C187.924 135.117 187.529 135.078 187.182 135C186.834 134.922 186.543 134.826 186.309 134.713V134.127C186.602 134.271 186.926 134.389 187.281 134.479C187.637 134.568 188.002 134.613 188.377 134.613C189.033 134.613 189.506 134.502 189.795 134.279C190.084 134.057 190.229 133.752 190.229 133.365C190.229 133.111 190.156 132.902 190.012 132.738C189.871 132.57 189.668 132.426 189.402 132.305C189.137 132.184 188.816 132.061 188.441 131.936C188.051 131.803 187.703 131.672 187.398 131.543C187.098 131.41 186.861 131.236 186.689 131.021C186.518 130.803 186.432 130.506 186.432 130.131C186.432 129.619 186.637 129.221 187.047 128.936C187.457 128.65 188.008 128.508 188.699 128.508C189.082 128.508 189.438 128.545 189.766 128.619C190.098 128.689 190.398 128.781 190.668 128.895L190.457 129.398C190.215 129.285 189.936 129.193 189.619 129.123C189.303 129.053 188.986 129.018 188.67 129.018C188.15 129.018 187.744 129.109 187.451 129.293C187.158 129.477 187.012 129.746 187.012 130.102C187.012 130.375 187.082 130.59 187.223 130.746C187.363 130.898 187.564 131.027 187.826 131.133C188.088 131.234 188.398 131.348 188.758 131.473C189.129 131.602 189.471 131.736 189.783 131.877C190.1 132.018 190.352 132.199 190.539 132.422C190.727 132.645 190.82 132.947 190.82 133.33ZM199.527 133.33C199.527 133.709 199.432 134.033 199.24 134.303C199.053 134.568 198.777 134.771 198.414 134.912C198.051 135.049 197.604 135.117 197.072 135.117C196.631 135.117 196.236 135.078 195.889 135C195.541 134.922 195.25 134.826 195.016 134.713V134.127C195.309 134.271 195.633 134.389 195.988 134.479C196.344 134.568 196.709 134.613 197.084 134.613C197.74 134.613 198.213 134.502 198.502 134.279C198.791 134.057 198.936 133.752 198.936 133.365C198.936 133.111 198.863 132.902 198.719 132.738C198.578 132.57 198.375 132.426 198.109 132.305C197.844 132.184 197.523 132.061 197.148 131.936C196.758 131.803 196.41 131.672 196.105 131.543C195.805 131.41 195.568 131.236 195.396 131.021C195.225 130.803 195.139 130.506 195.139 130.131C195.139 129.619 195.344 129.221 195.754 128.936C196.164 128.65 196.715 128.508 197.406 128.508C197.789 128.508 198.145 128.545 198.473 128.619C198.805 128.689 199.105 128.781 199.375 128.895L199.164 129.398C198.922 129.285 198.643 129.193 198.326 129.123C198.01 129.053 197.693 129.018 197.377 129.018C196.857 129.018 196.451 129.109 196.158 129.293C195.865 129.477 195.719 129.746 195.719 130.102C195.719 130.375 195.789 130.59 195.93 130.746C196.07 130.898 196.271 131.027 196.533 131.133C196.795 131.234 197.105 131.348 197.465 131.473C197.836 131.602 198.178 131.736 198.49 131.877C198.807 132.018 199.059 132.199 199.246 132.422C199.434 132.645 199.527 132.947 199.527 133.33ZM203.359 128.52C204.059 128.52 204.582 128.695 204.93 129.047C205.277 129.398 205.451 129.959 205.451 130.729V135H204.994L204.889 133.887H204.854C204.717 134.125 204.551 134.338 204.355 134.525C204.16 134.709 203.92 134.854 203.635 134.959C203.354 135.064 203.01 135.117 202.604 135.117C202.193 135.117 201.842 135.049 201.549 134.912C201.26 134.775 201.035 134.576 200.875 134.314C200.719 134.053 200.641 133.734 200.641 133.359C200.641 132.727 200.902 132.246 201.426 131.918C201.949 131.586 202.701 131.398 203.682 131.355L204.865 131.297V130.834C204.865 130.182 204.736 129.717 204.479 129.439C204.221 129.162 203.84 129.023 203.336 129.023C203.008 129.023 202.691 129.066 202.387 129.152C202.086 129.234 201.779 129.354 201.467 129.51L201.279 129.018C201.584 128.873 201.91 128.754 202.258 128.66C202.609 128.566 202.977 128.52 203.359 128.52ZM204.859 131.76L203.746 131.807C202.938 131.846 202.322 131.99 201.9 132.24C201.479 132.49 201.268 132.865 201.268 133.365C201.268 133.768 201.393 134.076 201.643 134.291C201.896 134.506 202.248 134.613 202.697 134.613C203.396 134.613 203.93 134.414 204.297 134.016C204.668 133.617 204.855 133.074 204.859 132.387V131.76ZM208.1 135H207.502V125.883H208.1V135ZM215.166 128.631V135H214.686L214.598 133.852H214.562C214.453 134.086 214.299 134.299 214.1 134.49C213.9 134.682 213.656 134.834 213.367 134.947C213.078 135.061 212.742 135.117 212.359 135.117C211.871 135.117 211.461 135.033 211.129 134.865C210.801 134.693 210.553 134.436 210.385 134.092C210.217 133.748 210.133 133.318 210.133 132.803V128.631H210.725V132.744C210.725 133.381 210.867 133.85 211.152 134.15C211.441 134.451 211.863 134.602 212.418 134.602C212.887 134.602 213.279 134.512 213.596 134.332C213.916 134.152 214.158 133.881 214.322 133.518C214.49 133.15 214.574 132.693 214.574 132.146V128.631H215.166ZM219.613 135.117C218.742 135.117 218.078 134.844 217.621 134.297C217.168 133.746 216.941 132.945 216.941 131.895C216.941 130.793 217.182 129.953 217.662 129.375C218.143 128.797 218.812 128.508 219.672 128.508C220.039 128.508 220.357 128.564 220.627 128.678C220.9 128.791 221.129 128.945 221.312 129.141C221.5 129.332 221.645 129.551 221.746 129.797H221.793C221.777 129.59 221.766 129.367 221.758 129.129C221.75 128.891 221.746 128.672 221.746 128.473V125.883H222.338V135H221.857L221.781 133.834H221.746C221.641 134.068 221.494 134.283 221.307 134.479C221.123 134.674 220.893 134.83 220.615 134.947C220.338 135.061 220.004 135.117 219.613 135.117ZM219.678 134.602C220.428 134.602 220.961 134.369 221.277 133.904C221.594 133.436 221.752 132.768 221.752 131.9V131.807C221.752 130.908 221.594 130.221 221.277 129.744C220.961 129.264 220.445 129.023 219.73 129.023C219.023 129.023 218.482 129.27 218.107 129.762C217.736 130.254 217.551 130.969 217.551 131.906C217.551 132.789 217.725 133.459 218.072 133.916C218.424 134.373 218.959 134.602 219.678 134.602ZM226.68 128.52C227.379 128.52 227.902 128.695 228.25 129.047C228.598 129.398 228.771 129.959 228.771 130.729V135H228.314L228.209 133.887H228.174C228.037 134.125 227.871 134.338 227.676 134.525C227.48 134.709 227.24 134.854 226.955 134.959C226.674 135.064 226.33 135.117 225.924 135.117C225.514 135.117 225.162 135.049 224.869 134.912C224.58 134.775 224.355 134.576 224.195 134.314C224.039 134.053 223.961 133.734 223.961 133.359C223.961 132.727 224.223 132.246 224.746 131.918C225.27 131.586 226.021 131.398 227.002 131.355L228.186 131.297V130.834C228.186 130.182 228.057 129.717 227.799 129.439C227.541 129.162 227.16 129.023 226.656 129.023C226.328 129.023 226.012 129.066 225.707 129.152C225.406 129.234 225.1 129.354 224.787 129.51L224.6 129.018C224.904 128.873 225.23 128.754 225.578 128.66C225.93 128.566 226.297 128.52 226.68 128.52ZM228.18 131.76L227.066 131.807C226.258 131.846 225.643 131.99 225.221 132.24C224.799 132.49 224.588 132.865 224.588 133.365C224.588 133.768 224.713 134.076 224.963 134.291C225.217 134.506 225.568 134.613 226.018 134.613C226.717 134.613 227.25 134.414 227.617 134.016C227.988 133.617 228.176 133.074 228.18 132.387V131.76ZM231.402 125.883V128.473C231.402 128.695 231.398 128.939 231.391 129.205C231.383 129.471 231.375 129.691 231.367 129.867H231.402C231.555 129.473 231.82 129.146 232.199 128.889C232.578 128.631 233.051 128.502 233.617 128.502C234.445 128.502 235.084 128.781 235.533 129.34C235.986 129.898 236.213 130.717 236.213 131.795C236.213 132.455 236.111 133.035 235.908 133.535C235.705 134.031 235.402 134.42 235 134.701C234.602 134.979 234.102 135.117 233.5 135.117C232.957 135.117 232.514 135.004 232.17 134.777C231.826 134.547 231.576 134.26 231.42 133.916H231.373L231.262 135H230.811V125.883H231.402ZM233.553 129.018C233.049 129.018 232.639 129.127 232.322 129.346C232.006 129.561 231.773 129.875 231.625 130.289C231.477 130.703 231.402 131.209 231.402 131.807V131.9C231.402 132.779 231.562 133.449 231.883 133.91C232.203 134.371 232.723 134.602 233.441 134.602C234.152 134.602 234.689 134.359 235.053 133.875C235.42 133.387 235.604 132.693 235.604 131.795C235.604 130.877 235.434 130.186 235.094 129.721C234.754 129.252 234.24 129.018 233.553 129.018ZM238.568 135H237.971V125.883H238.568V135ZM243.098 128.508C243.641 128.508 244.092 128.635 244.451 128.889C244.814 129.143 245.084 129.49 245.26 129.932C245.439 130.373 245.529 130.879 245.529 131.449V131.877H240.93C240.93 132.752 241.131 133.424 241.533 133.893C241.939 134.361 242.52 134.596 243.273 134.596C243.668 134.596 244.01 134.564 244.299 134.502C244.592 134.436 244.916 134.324 245.271 134.168V134.713C244.959 134.854 244.646 134.955 244.334 135.018C244.021 135.084 243.662 135.117 243.256 135.117C242.611 135.117 242.07 134.984 241.633 134.719C241.199 134.449 240.871 134.07 240.648 133.582C240.43 133.094 240.32 132.523 240.32 131.871C240.32 131.234 240.426 130.662 240.637 130.154C240.852 129.646 241.164 129.246 241.574 128.953C241.988 128.656 242.496 128.508 243.098 128.508ZM243.092 129.018C242.482 129.018 241.988 129.221 241.609 129.627C241.234 130.029 241.014 130.611 240.947 131.373H244.914C244.914 130.908 244.848 130.498 244.715 130.143C244.582 129.787 244.381 129.512 244.111 129.316C243.846 129.117 243.506 129.018 243.092 129.018ZM251.266 133.33C251.266 133.709 251.17 134.033 250.979 134.303C250.791 134.568 250.516 134.771 250.152 134.912C249.789 135.049 249.342 135.117 248.811 135.117C248.369 135.117 247.975 135.078 247.627 135C247.279 134.922 246.988 134.826 246.754 134.713V134.127C247.047 134.271 247.371 134.389 247.727 134.479C248.082 134.568 248.447 134.613 248.822 134.613C249.479 134.613 249.951 134.502 250.24 134.279C250.529 134.057 250.674 133.752 250.674 133.365C250.674 133.111 250.602 132.902 250.457 132.738C250.316 132.57 250.113 132.426 249.848 132.305C249.582 132.184 249.262 132.061 248.887 131.936C248.496 131.803 248.148 131.672 247.844 131.543C247.543 131.41 247.307 131.236 247.135 131.021C246.963 130.803 246.877 130.506 246.877 130.131C246.877 129.619 247.082 129.221 247.492 128.936C247.902 128.65 248.453 128.508 249.145 128.508C249.527 128.508 249.883 128.545 250.211 128.619C250.543 128.689 250.844 128.781 251.113 128.895L250.902 129.398C250.66 129.285 250.381 129.193 250.064 129.123C249.748 129.053 249.432 129.018 249.115 129.018C248.596 129.018 248.189 129.109 247.896 129.293C247.604 129.477 247.457 129.746 247.457 130.102C247.457 130.375 247.527 130.59 247.668 130.746C247.809 130.898 248.01 131.027 248.271 131.133C248.533 131.234 248.844 131.348 249.203 131.473C249.574 131.602 249.916 131.736 250.229 131.877C250.545 132.018 250.797 132.199 250.984 132.422C251.172 132.645 251.266 132.947 251.266 133.33ZM252.777 134.584C252.777 134.412 252.816 134.281 252.895 134.191C252.973 134.098 253.088 134.051 253.24 134.051C253.408 134.051 253.531 134.098 253.609 134.191C253.688 134.281 253.727 134.412 253.727 134.584C253.727 134.756 253.688 134.889 253.609 134.982C253.531 135.076 253.408 135.123 253.24 135.123C253.088 135.123 252.973 135.076 252.895 134.982C252.816 134.889 252.777 134.756 252.777 134.584Z" fill="black"/>
<rect x="16" y="19" width="40" height="40" rx="10" fill="#7C3AED"/>
<path fill-rule="evenodd" clip-rule="evenodd" d="M47.7255 27.1692C47.8114 27.2396 47.8805 27.3282 47.928 27.4286C47.9755 27.529 48.0001 27.6387 48 27.7498V48.7504C47.9999 48.9237 47.9398 49.0917 47.8298 49.2257C47.7199 49.3596 47.567 49.4514 47.397 49.4854L39.897 50.9855C39.8 51.0049 39.7 51.0049 39.603 50.9855L32.25 49.5154L24.897 50.9855C24.7882 51.0072 24.676 51.0045 24.5684 50.9777C24.4608 50.9508 24.3604 50.9004 24.2746 50.8301C24.1889 50.7598 24.1197 50.6714 24.0722 50.5711C24.0247 50.4709 24.0001 50.3614 24 50.2504V29.2498C24.0001 29.0765 24.0602 28.9085 24.1702 28.7745C24.2801 28.6405 24.433 28.5488 24.603 28.5148L32.103 27.0147C32.2 26.9953 32.3 26.9953 32.397 27.0147L39.75 28.4848L47.103 27.0147C47.2117 26.9929 47.324 26.9954 47.4316 27.0221C47.5392 27.0488 47.6396 27.0991 47.7255 27.1692ZM39 29.8648L33 28.6648V48.1354L39 49.3354V29.8648ZM40.5 49.3354L46.5 48.1354V28.6648L40.5 29.8648V49.3354ZM31.5 48.1354V28.6648L25.5 29.8648V49.3354L31.5 48.1354Z" fill="white"/>
</svg>
