<svg width="54" height="54" viewBox="0 0 54 54" fill="none" xmlns="http://www.w3.org/2000/svg">
<rect width="54" height="54" rx="10" fill="#EDFDF6"/>
<g clip-path="url(#clip0_708_278)">
<rect width="38" height="36" transform="translate(8 9)" fill="#EDFDF6"/>
<path d="M9.58301 10.5L44.4163 43.5" stroke="#059669" stroke-width="2" stroke-linecap="round" stroke-linejoin="round"/>
<path d="M34.4736 25.5898C35.7705 26.1895 36.9833 26.9403 38.0836 27.8248" stroke="#059669" stroke-width="2" stroke-linecap="round" stroke-linejoin="round"/>
<path d="M15.917 27.8252C18.2636 25.9665 21.088 24.7296 24.1028 24.2402" stroke="#059669" stroke-width="2" stroke-linecap="round" stroke-linejoin="round"/>
<path d="M24.957 16.5746C28.3492 16.3157 31.7616 16.7069 34.9907 17.7248C38.2197 18.7428 41.1992 20.3667 43.7512 22.4996" stroke="#059669" stroke-width="2" stroke-linecap="round" stroke-linejoin="round"/>
<path d="M10.248 22.4997C12.4444 20.6605 14.9627 19.1985 17.6897 18.1797" stroke="#059669" stroke-width="2" stroke-linecap="round" stroke-linejoin="round"/>
<path d="M21.5059 33.1651C23.1133 32.0832 25.0362 31.502 27.0079 31.502C28.9797 31.502 30.9026 32.0832 32.51 33.1651" stroke="#059669" stroke-width="2" stroke-linecap="round" stroke-linejoin="round"/>
<path d="M27 39H27.0159" stroke="#059669" stroke-width="2" stroke-linecap="round" stroke-linejoin="round"/>
</g>
<defs>
<clipPath id="clip0_708_278">
<rect width="38" height="36" fill="white" transform="translate(8 9)"/>
</clipPath>
</defs>
</svg>
