<svg width="37" height="37" viewBox="0 0 37 37" fill="none" xmlns="http://www.w3.org/2000/svg">
<path d="M27.75 12.333C27.75 9.87976 26.7754 7.52698 25.0407 5.79227C23.306 4.05756 20.9533 3.08301 18.5 3.08301C16.0467 3.08301 13.694 4.05756 11.9593 5.79227C10.2246 7.52698 9.25 9.87976 9.25 12.333C9.25 23.1247 4.625 26.208 4.625 26.208H32.375C32.375 26.208 27.75 23.1247 27.75 12.333Z" stroke="#059669" stroke-width="2" stroke-linecap="round" stroke-linejoin="round"/>
<path d="M21.1672 32.375C20.8961 32.8422 20.5071 33.2301 20.039 33.4997C19.5709 33.7693 19.0403 33.9112 18.5001 33.9112C17.9599 33.9112 17.4292 33.7693 16.9612 33.4997C16.4931 33.2301 16.104 32.8422 15.833 32.375" stroke="#059669" stroke-width="2" stroke-linecap="round" stroke-linejoin="round"/>
</svg>
