<svg width="24" height="24" viewBox="0 0 24 24" fill="none" xmlns="http://www.w3.org/2000/svg">
<path d="M15.3937 16.4549L21.2197 22.2802C21.3611 22.4168 21.5506 22.4924 21.7472 22.4907C21.9439 22.489 22.132 22.4101 22.2711 22.2711C22.4101 22.132 22.489 21.9439 22.4907 21.7472C22.4924 21.5506 22.4168 21.3611 22.2802 21.2197L2.78019 1.71969C2.711 1.64806 2.62825 1.59092 2.53674 1.55161C2.44524 1.51231 2.34682 1.49162 2.24724 1.49075C2.14766 1.48989 2.0489 1.50886 1.95672 1.54657C1.86455 1.58428 1.78081 1.63997 1.71039 1.71039C1.63997 1.78081 1.58428 1.86455 1.54657 1.95672C1.50886 2.0489 1.48989 2.14766 1.49075 2.24724C1.49162 2.34682 1.51231 2.44524 1.55161 2.53674C1.59092 2.62825 1.64806 2.711 1.71969 2.78019L5.61219 6.67269C2.61969 9.03519 1.54419 12.4852 1.52919 12.5399C1.40919 12.9374 1.63419 13.3499 2.03169 13.4699C2.42919 13.5899 2.84919 13.3649 2.96919 12.9674C3.02394 12.7769 3.98769 9.72519 6.66369 7.72494L9.04494 10.1062C8.57944 10.5114 8.20226 11.008 7.93685 11.5651C7.67144 12.1223 7.52347 12.7281 7.50213 13.3449C7.4808 13.9616 7.58656 14.5762 7.81284 15.1504C8.03911 15.7245 8.38108 16.246 8.81746 16.6824C9.25385 17.1188 9.77533 17.4608 10.3495 17.687C10.9237 17.9133 11.5382 18.0191 12.155 17.9977C12.7718 17.9764 13.3776 17.8284 13.9347 17.563C14.4919 17.2976 14.9885 16.9204 15.3937 16.4549ZM11.6647 9.01194L16.4872 13.8352C16.4957 13.7242 16.4999 13.6124 16.4999 13.4999C16.5 12.8807 16.3723 12.2681 16.1247 11.7005C15.8772 11.1329 15.5151 10.6225 15.0613 10.2012C14.6074 9.77996 14.0715 9.4569 13.487 9.25226C12.9026 9.04762 12.2822 8.96581 11.6647 9.01194ZM7.94244 5.28969L9.10119 6.44994C10.036 6.14534 11.0138 5.99339 11.9969 5.99994C18.8257 5.99994 20.9332 12.6772 21.0254 12.9674C21.1229 13.2899 21.4229 13.4999 21.7454 13.4999V13.4924C21.8622 13.4935 21.9777 13.4672 22.0824 13.4154C22.1871 13.3637 22.2782 13.288 22.3483 13.1946C22.4184 13.1011 22.4655 12.9925 22.4858 12.8775C22.5062 12.7625 22.4992 12.6443 22.4654 12.5324C22.4422 12.4574 19.9597 4.49994 11.9962 4.49994C10.4437 4.49994 9.09969 4.80219 7.94169 5.28969" fill="#9CA3AF"/>
</svg>
