<svg width="74" height="74" viewBox="0 0 74 74" fill="none" xmlns="http://www.w3.org/2000/svg">
<path d="M37 33.917L37 61.667" stroke="#141B34" stroke-width="4" stroke-linecap="round"/>
<path d="M43.1663 27.7497C43.1663 31.1554 40.4054 33.9163 36.9997 33.9163C33.5939 33.9163 30.833 31.1554 30.833 27.7497C30.833 24.3439 33.5939 21.583 36.9997 21.583C40.4054 21.583 43.1663 24.3439 43.1663 27.7497Z" stroke="#141B34" stroke-width="4"/>
<path d="M52.2897 18.5C54.3239 21.1813 55.5 24.3522 55.5 27.75C55.5 31.1478 54.3239 34.3187 52.2897 37M21.7103 18.5C19.6761 21.1813 18.5 24.3522 18.5 27.75C18.5 31.1478 19.6761 34.3187 21.7103 37" stroke="#141B34" stroke-width="4" stroke-linecap="round" stroke-linejoin="round"/>
<path d="M62.6411 12.333C65.9209 16.7424 67.8337 22.045 67.8337 27.7497C67.8337 33.4543 65.9209 38.7569 62.6411 43.1663M11.3596 12.333C8.07976 16.7424 6.16699 22.045 6.16699 27.7497C6.16699 33.4543 8.07976 38.7569 11.3596 43.1663" stroke="#141B34" stroke-width="4" stroke-linecap="round" stroke-linejoin="round"/>
</svg>
