<svg width="45" height="45" viewBox="0 0 45 45" fill="none" xmlns="http://www.w3.org/2000/svg">
<path d="M24.6089 35.8594C24.6089 36.2766 24.4852 36.6844 24.2534 37.0313C24.0216 37.3782 23.6922 37.6485 23.3067 37.8082C22.9213 37.9678 22.4972 38.0096 22.088 37.9282C21.6788 37.8468 21.303 37.6459 21.008 37.3509C20.713 37.0559 20.5121 36.6801 20.4307 36.2709C20.3493 35.8617 20.3911 35.4376 20.5507 35.0522C20.7104 34.6667 20.9807 34.3373 21.3276 34.1055C21.6745 33.8737 22.0823 33.75 22.4995 33.75C23.059 33.75 23.5955 33.9722 23.9911 34.3678C24.3867 34.7634 24.6089 35.2999 24.6089 35.8594ZM30.3587 27.8666C28.0745 26.2065 25.3233 25.3124 22.4995 25.3124C19.6758 25.3124 16.9246 26.2065 14.6403 27.8666C14.3387 28.0862 14.1367 28.4166 14.0786 28.7852C14.0206 29.1537 14.1114 29.5302 14.331 29.8318C14.5505 30.1335 14.881 30.3355 15.2495 30.3935C15.6181 30.4516 15.9946 30.3608 16.2962 30.1412C18.0989 28.8302 20.2705 28.124 22.4995 28.124C24.7285 28.124 26.9002 28.8302 28.7028 30.1412C28.8522 30.2499 29.0215 30.3282 29.2011 30.3715C29.3807 30.4148 29.567 30.4223 29.7495 30.3935C29.932 30.3648 30.1071 30.3004 30.2647 30.2041C30.4223 30.1077 30.5594 29.9812 30.6681 29.8318C30.7768 29.6825 30.855 29.5132 30.8983 29.3336C30.9416 29.154 30.9491 28.9676 30.9204 28.7852C30.8917 28.6027 30.8273 28.4276 30.7309 28.27C30.6345 28.1124 30.5081 27.9753 30.3587 27.8666Z" fill="black"/>
</svg>
