<svg width="54" height="54" viewBox="0 0 54 54" fill="none" xmlns="http://www.w3.org/2000/svg">
<rect width="54" height="54" rx="10" fill="#EDFDF6"/>
<path d="M8 10H20C22.1217 10 24.1566 10.796 25.6569 12.213C27.1571 13.6299 28 15.5517 28 17.5556V44C28 42.4971 27.3679 41.0558 26.2426 39.9931C25.1174 38.9304 23.5913 38.3333 22 38.3333H8V10Z" stroke="#059669" stroke-width="2" stroke-linecap="round" stroke-linejoin="round"/>
<path d="M47 10H35.6C33.5844 10 31.6513 10.796 30.226 12.213C28.8007 13.6299 28 15.5517 28 17.5556V44C28 42.4971 28.6005 41.0558 29.6695 39.9931C30.7384 38.9304 32.1883 38.3333 33.7 38.3333H47V10Z" stroke="#059669" stroke-width="2" stroke-linecap="round" stroke-linejoin="round"/>
</svg>
