<svg width="65" height="65" viewBox="0 0 65 65" fill="none" xmlns="http://www.w3.org/2000/svg">
<path d="M32.5003 46.042C33.2677 46.042 33.9114 45.782 34.4314 45.262C34.9514 44.742 35.2105 44.0992 35.2087 43.3337C35.2069 42.5681 34.9469 41.9253 34.4287 41.4053C33.9105 40.8853 33.2677 40.6253 32.5003 40.6253C31.733 40.6253 31.0902 40.8853 30.572 41.4053C30.0538 41.9253 29.7938 42.5681 29.792 43.3337C29.7902 44.0992 30.0502 44.7429 30.572 45.2647C31.0938 45.7865 31.7366 46.0456 32.5003 46.042ZM29.792 35.2087H35.2087V18.9587H29.792V35.2087ZM32.5003 59.5837C28.7538 59.5837 25.233 58.8723 21.9378 57.4495C18.6427 56.0267 15.7764 54.0975 13.3389 51.6618C10.9014 49.2261 8.97213 46.3598 7.55116 43.0628C6.13019 39.7659 5.4188 36.2451 5.417 32.5003C5.41519 28.7556 6.12658 25.2348 7.55116 21.9378C8.97575 18.6409 10.905 15.7746 13.3389 13.3389C15.7728 10.9032 18.6391 8.97394 21.9378 7.55116C25.2366 6.12838 28.7574 5.41699 32.5003 5.41699C36.2432 5.41699 39.7641 6.12838 43.0628 7.55116C46.3616 8.97394 49.2279 10.9032 51.6618 13.3389C54.0957 15.7746 56.0258 18.6409 57.4522 21.9378C58.8786 25.2348 59.5891 28.7556 59.5837 32.5003C59.5782 36.2451 58.8669 39.7659 57.4495 43.0628C56.0321 46.3598 54.1029 49.2261 51.6618 51.6618C49.2207 54.0975 46.3544 56.0276 43.0628 57.4522C39.7713 58.8768 36.2505 59.5873 32.5003 59.5837Z" fill="#D36565"/>
</svg>
